<?xml version="1.0" encoding="utf-8"?>
<!-- Generator: Adobe Illustrator 28.0.0, SVG Export Plug-In . SVG Version: 6.00 Build 0)  -->
<svg version="1.1" id="Capa_1" xmlns="http://www.w3.org/2000/svg" xmlns:xlink="http://www.w3.org/1999/xlink" x="0px" y="0px"
	 viewBox="0 0 70 70" style="enable-background:new 0 0 70 70;" xml:space="preserve">
<style type="text/css">
	.st0{fill:#FFFFFF;}
</style>
<g>
	<path class="st0" d="M35,54.03c-13.12,0.07-24-10.69-23.97-24C11.06,17.04,21.51,6.09,35.05,6.09c12.84,0,24.01,10.36,23.94,24.05
		C58.92,43.46,48.05,54.1,35,54.03z M35.57,53.34c0-1.64,0-3.24,0-4.86c1.28,0,2.53,0,3.8,0c0.73,1.27,1.17,2.66,1.47,4.13
		c0.22-0.06,0.41-0.11,0.65-0.18c-0.08-0.34-0.14-0.66-0.23-0.98c-0.39-1.5-0.97-2.92-1.87-4.2c-0.65-0.91-1.42-1.68-2.43-2.18
		c-0.03-0.02-0.06-0.05-0.09-0.07c3.65,0.76,6.15,2.98,7.87,6.23c4.11-1.93,7.38-4.79,9.87-8.6c-1.28-0.55-2.55-1.04-3.8-1.44
		c-0.14,0.14-0.23,0.27-0.36,0.35c-0.24,0.15-0.38,0.34-0.43,0.61c-0.05,0.27-0.17,0.51-0.39,0.69c-0.06,0.05-0.11,0.11-0.14,0.17
		c-0.14,0.3-0.37,0.52-0.59,0.76c-0.21,0.23-0.45,0.41-0.75,0.48c-0.51,0.1-1.01,0.2-1.52,0.26c-0.55,0.07-0.63-0.21-0.7-0.59
		c-0.01-0.06,0-0.13,0-0.19c0.01-0.24-0.09-0.44-0.18-0.67c-0.36,0.88-0.69,1.72-1.05,2.55c-0.36,0.84-0.78,1.64-1.3,2.49
		c-0.1-0.12-0.16-0.21-0.23-0.29c-0.07-0.09-0.16-0.17-0.23-0.25c0.03-0.06,0.05-0.1,0.07-0.14c0.89-1.54,1.58-3.16,2.14-4.84
		c0.06-0.17,0.06-0.32,0.03-0.5c-0.06-0.38-0.08-0.77-0.13-1.15c-0.02-0.13-0.05-0.25-0.1-0.37c-0.13-0.27-0.29-0.53-0.42-0.8
		c-0.07-0.14-0.14-0.22-0.3-0.25c-0.47-0.07-0.94-0.16-1.4-0.23c-0.25-0.04-0.51-0.08-0.79-0.13c0.09-0.23,0.18-0.42,0.26-0.63
		c0.67,0.1,1.33,0.21,1.98,0.31c0.07-0.24,0.14-0.44,0.19-0.65c0.05-0.23,0.12-0.43,0.28-0.61c0.08-0.09,0.13-0.24,0.12-0.35
		c-0.07-0.44-0.17-0.88-0.27-1.32c-0.03-0.11-0.14-0.21-0.15-0.32c-0.05-0.38-0.27-0.65-0.5-0.92c-0.09-0.11-0.19-0.21-0.25-0.33
		c-0.07-0.12-0.14-0.26-0.13-0.39c0.03-0.3,0.1-0.59,0.17-0.88c0.1-0.44-0.05-0.65-0.5-0.69c-0.09-0.01-0.19-0.01-0.29-0.02
		c-0.11-0.92-0.27-1.81-0.52-2.68c-0.3-1.03-0.71-2.01-1.23-2.95c-0.21-0.37-0.43-0.47-0.86-0.4c-0.03,0.01-0.06,0-0.09,0
		c-0.01-0.04-0.02-0.07-0.02-0.1c-0.05-1.08-0.29-2.11-0.69-3.11c-0.02-0.04-0.03-0.08-0.04-0.12c-0.04-0.16,0.07-0.26,0.16-0.37
		c0.08-0.09,0.18-0.06,0.29-0.02c0.46,0.15,0.88,0.05,1.29-0.2c0.1-0.06,0.21-0.13,0.31-0.13c0.4-0.01,0.77-0.22,1.18-0.09
		c0.02,0.01,0.04-0.01,0.06-0.02c0.35-0.05,0.7-0.1,1.05-0.14c0.24-0.02,0.33,0.08,0.32,0.33c-0.01,0.17-0.03,0.34-0.07,0.51
		c-0.05,0.22-0.04,0.33,0.17,0.43c0.15,0.07,0.32,0.11,0.49,0.12c0.26,0.01,0.5,0.03,0.6,0.33c0.02,0.05,0.09,0.12,0.14,0.12
		c0.26,0.02,0.47,0.13,0.68,0.26c0.14,0.09,0.26-0.01,0.26-0.2c0-0.09-0.01-0.21,0.04-0.27c0.09-0.12,0.07-0.24,0.05-0.37
		c-0.14-0.75-0.27-1.51-0.43-2.25c-0.14-0.64-0.03-0.75-0.86-0.54c-0.01,0-0.02,0.03-0.03,0.05c0.23,0.15,0.47,0.3,0.7,0.46
		c0.1,0.07,0.19,0.15,0.08,0.29c-0.11-0.02-0.22-0.05-0.4-0.08c0.13,0.26,0.1,0.49-0.08,0.61c-0.18,0.12-0.3,0.26-0.36,0.48
		c-0.25-0.12-0.51-0.18-0.72-0.43c0.12-0.04,0.18-0.06,0.25-0.07c0.12-0.01,0.24,0,0.35-0.02c0.31-0.05,0.39-0.24,0.18-0.46
		c-0.11-0.12-0.26-0.22-0.4-0.32c-0.11-0.08-0.25-0.13-0.36-0.21c-0.11-0.09-0.22-0.1-0.36-0.08c-0.78,0.13-1.55,0.24-2.33,0.36
		c-0.2,0.03-0.44,0.26-0.47,0.47c-0.08,0.54-0.38,0.8-0.92,0.83c-0.08,0.01-0.17,0.02-0.25,0.05c-0.15,0.05-0.3,0.04-0.43-0.06
		c-0.13-0.11-0.27-0.16-0.45-0.16c-0.06,0-0.15-0.04-0.18-0.09c-0.13-0.21-0.24-0.44-0.2-0.71c-0.27-0.04-0.5-0.29-0.6-0.65
		c0.13-0.01,0.26-0.03,0.39-0.04c0.14-0.01,0.27-0.03,0.4-0.04c0.02-0.46,0.14-0.58,0.57-0.57c0.25,0.01,0.49,0.03,0.74,0.04
		c0.14,0.01,0.28,0.03,0.42,0.02c0.06,0,0.15-0.05,0.18-0.1c0.18-0.32,0.15-0.65-0.11-0.92c-0.11-0.11-0.26-0.19-0.4-0.25
		c-0.15-0.06-0.24-0.13-0.22-0.33c0.11-0.02,0.22-0.06,0.34-0.07c0.16-0.01,0.29-0.05,0.4-0.17c0.05-0.06,0.18-0.08,0.26-0.06
		c0.23,0.06,0.39-0.05,0.55-0.19c0.12-0.1,0.24-0.21,0.36-0.31c0.11-0.09,0.24-0.16,0.32-0.26c0.14-0.19,0.32-0.32,0.54-0.39
		c0.25-0.08,0.42-0.21,0.36-0.52c-0.02-0.09,0-0.2,0.05-0.28c0.07-0.12,0.16-0.23,0.27-0.3c0.13-0.09,0.23-0.03,0.24,0.13
		c0.01,0.13-0.01,0.26-0.02,0.39c-0.03,0.25,0.13,0.43,0.35,0.34c0.24-0.1,0.43-0.07,0.66,0.08c-0.04-0.11-0.07-0.22-0.11-0.33
		c-0.22,0.03-0.41,0.05-0.6,0.07c-0.13-0.29,0.22-0.28,0.23-0.51c-0.11-0.14-0.23-0.31-0.38-0.47c-0.17-0.17-0.2-0.17-0.41-0.02
		c-0.06,0.04-0.12,0.09-0.19,0.12c-0.29,0.12-0.52,0.02-0.6-0.28c-0.05-0.19-0.1-0.38-0.12-0.57c-0.03-0.26,0.01-0.3,0.25-0.42
		c0.26-0.13,0.5-0.27,0.78-0.42c-0.3-0.55-0.58-1.07-0.88-1.58c-0.83-1.39-1.79-2.67-3.03-3.73c-1.09-0.94-2.31-1.62-3.74-1.88
		c-0.24-0.04-0.48-0.11-0.72-0.06c-0.06,0.36-0.05,2.31,0.01,2.55c0.41,0,0.82,0.04,1.22-0.01c0.58-0.08,1.14-0.07,1.7,0.07
		c0.51,0.12,1.02,0.27,1.56,0.21c0.08-0.01,0.17,0.04,0.28,0.08C40,9.91,39.82,9.91,39.66,9.96c-0.28,0.09-0.55,0.18-0.82,0.29
		c-0.07,0.03-0.16,0.12-0.16,0.18c0.01,0.21-0.13,0.36-0.2,0.54c-0.12,0.32-0.33,0.53-0.64,0.65c-0.29,0.12-0.32,0.17-0.28,0.48
		c0.04,0.27-0.04,0.36-0.3,0.46c-0.15,0.05-0.3,0.11-0.46,0.16c-0.25,0.08-0.49,0.16-0.74,0.22c-0.24,0.06-0.48,0.1-0.75,0.15
		c0,0.94,0,1.86,0,2.84c-0.2-0.22-0.35-0.39-0.51-0.54c-0.11-0.11-0.15-0.22-0.15-0.37c0.01-0.42,0-0.84,0-1.26
		c0-0.08-0.02-0.16-0.03-0.24c-0.18,0.05-0.34,0.09-0.5,0.12c-0.17,0.03-0.35,0.03-0.51,0.07c-0.14,0.04-0.28,0.11-0.39,0.2
		c-0.09,0.07-0.16,0.11-0.28,0.13c-0.43,0.04-0.66,0.3-0.63,0.74c0.01,0.19-0.05,0.31-0.2,0.4c-0.15,0.08-0.27,0.01-0.37-0.1
		c-0.11-0.11-0.24-0.18-0.41-0.15c-0.16,0.04-0.23-0.05-0.31-0.17c-0.28-0.46-0.27-0.97-0.25-1.47c0.01-0.23,0.18-0.38,0.4-0.46
		c0.1-0.04,0.2-0.07,0.29-0.1c0-0.05,0.01-0.07,0-0.09c-0.01-0.03-0.02-0.06-0.04-0.09c-0.19-0.26-0.3-0.52-0.15-0.87
		c0.13-0.31-0.06-0.56-0.39-0.65c-0.08-0.02-0.17-0.04-0.25-0.04c-0.26,0-0.52,0-0.77,0c-0.24,0-0.45-0.06-0.57-0.29
		c-0.09-0.17-0.03-0.3,0.15-0.34c0.2-0.04,0.4-0.06,0.61-0.08c0.25-0.03,0.52-0.03,0.71-0.25c0.04-0.04,0.12-0.05,0.18-0.06
		c0.35-0.08,0.69-0.16,1.04-0.22c0.52-0.09,1.04-0.18,1.57-0.17c0.36,0.01,0.73,0.01,1.08-0.09c0-0.9,0-1.78,0-2.71
		c-0.26,0.04-0.51,0.06-0.75,0.1c-1.13,0.2-2.13,0.68-3.05,1.35c-1.3,0.94-2.32,2.15-3.21,3.48c-0.03,0.04-0.04,0.1-0.08,0.18
		c0.13,0.05,0.24,0.1,0.35,0.15c0.13,0.06,0.27,0.09,0.38,0.17c0.09,0.06,0.19,0.18,0.19,0.27c0,0.28,0.13,0.43,0.35,0.57
		c0.24,0.16,0.24,0.37,0.02,0.56c-0.06,0.06-0.13,0.11-0.2,0.16c-0.2,0.15-0.27,0.14-0.44-0.04c-0.08-0.08-0.12-0.21-0.32-0.17
		c0.03,0.1,0.07,0.19,0.09,0.27c0.03,0.09,0.07,0.19,0.06,0.28c-0.02,0.21-0.64,0.67-0.84,0.6c-0.33-0.11-0.71-0.15-0.84-0.57
		c-0.01-0.02-0.05-0.03-0.09-0.05c-0.08,0.16-0.15,0.32-0.23,0.48c0.05,0.06,0.08,0.12,0.13,0.15c0.21,0.15,0.34,0.3,0.2,0.58
		c-0.08,0.16,0.08,0.32,0.27,0.29c0.09-0.02,0.18-0.07,0.26-0.12c0.18-0.11,0.36-0.24,0.54-0.35c0.25,0.15,0.33,0.38,0.36,0.63
		c0.01,0.15,0,0.3,0.01,0.45c0.01,0.21,0.08,0.38,0.29,0.46c0.06,0.02,0.12,0.05,0.16,0.1c0.18,0.26,0.31,0.54,0.13,0.86
		c-0.03,0.06-0.04,0.12-0.06,0.19c-0.04,0.22-0.01,0.28,0.17,0.4c0.04,0.03,0.09,0.06,0.09,0.06c0,0.23,0,0.42,0,0.61
		c0,0.19-0.08,0.28-0.27,0.26c-0.12-0.01-0.24-0.03-0.34-0.09c-0.17-0.1-0.34-0.1-0.53-0.08c-0.14,0.01-0.29-0.02-0.41-0.03
		c-0.12-0.37,0.37-0.47,0.27-0.82c-0.16,0.02-0.31,0.04-0.45,0.05c-0.16,0-0.32-0.04-0.48-0.03c-0.13,0.01-0.26,0.07-0.39,0.11
		c0.04,0.23-0.04,0.38-0.16,0.53c-0.23,0.29-0.13,0.52,0.23,0.61c0.04,0.01,0.09,0.01,0.13,0.02c0.1,0.02,0.2,0.06,0.19,0.18
		c-0.01,0.13-0.12,0.14-0.21,0.15c-0.21,0.04-0.42,0.09-0.62,0.13c2.29,0.48,4.61,0.74,6.98,0.87c-0.09,0.25-0.17,0.44-0.25,0.65
		c-2.77-0.13-5.48-0.51-8.19-1.08c-0.72,3-1.06,6-1.11,9.09c1.75,0,3.46,0,5.24,0c-0.11,0.26-0.19,0.46-0.28,0.68
		c-1.65,0-3.29,0-4.99,0c0.05,0.12,0.05,0.22,0.11,0.27c0.11,0.09,0.25,0.16,0.39,0.07c0.25-0.18,0.54-0.13,0.81-0.15
		c0.24-0.02,0.32,0.1,0.26,0.34c-0.04,0.17-0.01,0.32,0.15,0.38c0.24,0.1,0.37,0.28,0.51,0.48c0.13,0.2,0.32,0.32,0.57,0.32
		c0.45,0,0.84,0.1,1.16,0.45c0.12,0.13,0.22,0.24,0.23,0.41c0.02,0.16,0.02,0.32,0,0.48c-0.18,1.27-0.22,2.53-0.06,3.8
		c0.19,1.45,0.63,2.81,1.42,4.06c0.06,0.09,0.11,0.18,0.17,0.28c-0.08,0.06-0.14,0.12-0.21,0.17c-0.18,0.15-0.23,0.33-0.19,0.55
		c0.02,0.12,0.06,0.23,0.07,0.35c0,0.11,0,0.24-0.05,0.34c-0.09,0.19-0.19,0.4-0.34,0.54c-0.27,0.25-0.34,0.59-0.49,0.9
		c-0.09,0.17-0.18,0.35-0.32,0.48c-0.24,0.21-0.39,0.46-0.45,0.77c-0.04,0.2-0.14,0.33-0.31,0.42c-0.06,0.03-0.11,0.06-0.19,0.11
		c0.29,0.55,0.58,1.09,0.87,1.66c-0.15,0.16-0.3,0.32-0.48,0.51c-0.3-0.55-0.59-1.06-0.88-1.6c-0.06,0.09-0.13,0.14-0.14,0.21
		c-0.04,0.32-0.33,0.56-0.28,0.91c0.01,0.06-0.04,0.12-0.07,0.18c-0.11,0.26-0.09,0.36,0.13,0.53c0.25,0.2,0.25,0.27,0.08,0.53
		c-0.12,0.17-0.21,0.38-0.25,0.58c-0.02,0.11,0.1,0.24,0.16,0.37c-0.06,0.1-0.12,0.2-0.18,0.3c-0.17,0.27-0.45,0.34-0.71,0.15
		c-0.14-0.11-0.28-0.25-0.37-0.4c-0.25-0.45-0.57-0.87-0.61-1.41c-0.01-0.06-0.05-0.12-0.06-0.18c-0.05-0.15-0.11-0.3-0.13-0.46
		c-0.06-0.32-0.15-0.63-0.36-0.89c-0.16-0.19-0.23-0.41-0.28-0.65c-0.04-0.2-0.06-0.41-0.15-0.59c-0.11-0.23-0.12-0.45-0.07-0.69
		c0.13-0.56,0.08-1.11-0.09-1.66c-0.06-0.2-0.09-0.43-0.07-0.64c0.06-0.44-0.02-0.88-0.03-1.32c-0.01-0.33-0.04-0.66-0.06-1.02
		c-2.31,0.61-4.55,1.37-6.75,2.32c2.5,3.82,5.77,6.68,9.87,8.6c1.73-3.27,4.24-5.49,7.89-6.25c-0.06,0.07-0.12,0.11-0.2,0.15
		c-0.6,0.32-1.11,0.73-1.58,1.22c-0.49,0.52-0.9,1.1-1.26,1.72c-0.76,1.32-1.24,2.75-1.55,4.23c-0.01,0.04,0,0.08,0,0.14
		c0.2,0.05,0.4,0.11,0.62,0.17c0.31-1.46,0.74-2.86,1.47-4.13c0.48-0.06,3.56-0.04,3.82,0.03c0,1.59,0,3.19,0,4.82
		C34.85,53.34,35.18,53.34,35.57,53.34z M18.26,30.09c-0.05,0.41,0.27,0.77,0.66,0.77c0.32,0,0.32,0,0.23,0.32
		c0,0.01,0,0.02-0.01,0.03c-0.07,0.25-0.14,0.26-0.35,0.14c-0.28-0.16-0.62-0.24-0.8-0.54c-0.01-0.02-0.04-0.02-0.06-0.03
		c-0.28-0.09-0.41-0.29-0.45-0.58c0-0.04-0.04-0.07-0.06-0.1c-1.89,0-3.78,0-5.7,0c0.02,4.29,1.12,8.26,3.31,11.96
		c2.29-0.99,4.62-1.79,7.06-2.43c-0.08-0.13-0.12-0.23-0.2-0.31c-0.24-0.26-0.52-0.45-0.85-0.57c-0.38-0.13-0.63-0.4-0.8-0.75
		c-0.22-0.43-0.41-0.88-0.75-1.24c-0.05-0.05-0.09-0.13-0.11-0.2c-0.08-0.3-0.23-0.54-0.48-0.75c-0.27-0.23-0.29-0.59-0.09-0.9
		c0.09-0.14,0.12-0.27,0.04-0.42c-0.17-0.35-0.07-0.68,0.13-0.98c0.13-0.21,0.31-0.39,0.48-0.56c0.38-0.4,0.47-0.95,0.22-1.45
		c-0.07-0.13-0.14-0.26-0.2-0.4c-0.06-0.13,0.01-0.23,0.16-0.24c0.07,0,0.15,0.01,0.23,0.01c0.2,0,0.37-0.08,0.43-0.28
		c0.08-0.23,0.23-0.38,0.44-0.49C19.93,30.09,19.11,30.09,18.26,30.09z M58.29,30.1c-0.57-0.06-2.88-0.04-3.09,0.02
		c-0.03,0.23-0.02,0.47-0.11,0.67c-0.22,0.53-0.47,1.04-0.73,1.55c-0.15,0.3-0.37,0.56-0.68,0.72c-0.3,0.15-0.51,0.39-0.7,0.65
		c-0.13,0.17-0.24,0.37-0.4,0.51c-0.33,0.28-0.43,0.69-0.63,1.04c-0.02,0.03-0.02,0.08-0.02,0.13c0.04,0.37,0.08,0.75,0.12,1.12
		c0.01,0.08,0.05,0.17,0.1,0.23c0.18,0.22,0.19,0.47,0.16,0.74c-0.02,0.2-0.02,0.41-0.02,0.61c0.01,0.21-0.05,0.4-0.17,0.58
		c-0.16,0.24-0.38,0.41-0.64,0.52c-0.31,0.14-0.51,0.4-0.7,0.65c-0.22,0.27-0.09,0.59,0.24,0.7c0.5,0.17,1,0.35,1.49,0.52
		c0.09,0.03,0.18,0.05,0.29,0.09c-0.01-0.15-0.04-0.27-0.02-0.38c0.02-0.16,0.03-0.33,0.12-0.46c0.18-0.27,0.25-0.54,0.18-0.86
		c-0.01-0.06-0.02-0.13-0.02-0.19c-0.01-0.31,0.17-0.57,0.47-0.64c0.31-0.08,0.5-0.27,0.65-0.54c0.09-0.17,0.19-0.34,0.29-0.5
		c0.04-0.06,0.1-0.1,0.19-0.18c0.2,0.5,0.43,0.94,0.14,1.45c-0.05,0.09-0.08,0.2-0.11,0.3c-0.08,0.27-0.16,0.54-0.25,0.8
		c-0.19,0.54-0.39,1.07-0.6,1.62c0.37,0.16,0.75,0.31,1.14,0.47C57.17,38.35,58.26,34.39,58.29,30.1z M23.24,20.91
		c-0.02-0.02-0.04-0.04-0.06-0.07c-0.13,0.06-0.29,0.09-0.4,0.18c-0.42,0.38-0.85,0.76-1.05,1.33c-0.11,0.32-0.31,0.55-0.62,0.7
		c-0.31,0.15-0.6,0.35-0.88,0.54c-0.4,0.27-0.54,0.65-0.41,1.13c0.05,0.21,0.08,0.42,0.08,0.64c0,0.23-0.11,0.41-0.34,0.51
		c-0.05-0.04-0.1-0.06-0.13-0.1c-0.19-0.27-0.3-0.57-0.3-0.9c0-0.3-0.03-0.33-0.32-0.37c-0.07-0.01-0.17-0.02-0.2-0.07
		c-0.11-0.15-0.25-0.2-0.42-0.15c-0.15,0.04-0.36,0.05-0.45,0.16c-0.17,0.21-0.36,0.2-0.58,0.16c-0.16-0.03-0.32-0.06-0.48-0.08
		c-0.09-0.01-0.21-0.04-0.28,0c-0.32,0.16-0.62,0.34-0.93,0.51c-0.13,0.07-0.18,0.2-0.21,0.35c-0.04,0.2-0.08,0.4-0.17,0.58
		c-0.19,0.42-0.2,0.86-0.11,1.3c0.09,0.41,0.44,0.71,0.84,0.63c0.07-0.01,0.15-0.02,0.23-0.01c0.35,0.05,0.44-0.06,0.56-0.39
		c0.02-0.07,0.03-0.15,0.06-0.22c0.04-0.08,0.1-0.19,0.17-0.21c0.21-0.06,0.44-0.1,0.66-0.12c0.09-0.01,0.18,0.06,0.29,0.11
		c-0.19,0.44-0.36,0.83-0.53,1.22c-0.01,0.03-0.02,0.06-0.02,0.09c-0.05,0.25,0.05,0.37,0.3,0.37c0.12,0,0.24-0.02,0.35-0.02
		c0.44,0.01,0.61,0.2,0.58,0.64c0,0.01,0.01,0.02,0.03,0.05c1.24,0,2.5,0,3.78,0c0-0.45,0-0.87,0-1.33
		c-0.46,0.13-0.89,0.13-1.3-0.05c0-0.02-0.01-0.05-0.01-0.07c0.14-0.04,0.27-0.09,0.41-0.13c-0.03-0.1-0.06-0.19-0.1-0.31
		c0.2,0,0.37-0.02,0.54,0.01c0.17,0.02,0.33,0.09,0.52,0.14C22.47,25.34,22.76,23.12,23.24,20.91z M50.77,12.94
		c-3.48-3.14-7.43-5.08-11.98-5.82c2.51,1.57,4.13,3.89,5.47,6.46c0.07-0.06,0.12-0.1,0.17-0.14c0.33-0.3,0.65-0.6,0.99-0.88
		c0.12-0.1,0.28-0.14,0.43-0.2c0.16-0.06,0.32-0.1,0.48-0.15c0.05-0.02,0.1-0.05,0.15-0.05c0.64,0,1.29-0.07,1.9,0.26
		c0.16,0.09,0.34,0.12,0.52,0.18c0.36,0.11,0.72,0.21,1.08,0.32c0.17,0.05,0.33,0.09,0.5,0.12C50.54,13.04,50.62,12.99,50.77,12.94z
		 M31.23,7.13c-2.24,0.32-4.36,1-6.38,1.99c-1.99,0.97-5.11,3.13-5.52,3.84c0.11-0.01,0.21-0.02,0.3-0.04
		c0.24-0.05,0.49-0.09,0.73-0.14c0.15-0.03,0.28-0.01,0.39,0.09C20.9,13,21.07,12.99,21.26,13c0.44,0.01,0.86-0.19,1.31-0.08
		c0.18,0.05,0.29-0.1,0.27-0.29c-0.02-0.17,0.03-0.31,0.16-0.39c0.17-0.1,0.36-0.19,0.55-0.26c0.12-0.05,0.21,0.01,0.25,0.14
		c0.04,0.12,0.07,0.25,0.12,0.37c0.08,0.17,0.22,0.22,0.37,0.16c0.15-0.06,0.22-0.16,0.16-0.33c-0.04-0.11-0.04-0.23,0.06-0.33
		c0.3-0.27,0.6-0.5,1.05-0.49c0.48,0.02,0.96-0.04,1.44-0.06C28.13,9.72,29.47,8.22,31.23,7.13z M25.52,14.08
		c-0.18-0.18-0.17-0.3,0.01-0.4c0.07-0.04,0.19-0.05,0.22-0.11c0.18-0.31,0.34-0.63,0.52-0.96c-0.34-0.09-0.57-0.07-0.77,0.23
		c-0.15,0.23-0.33,0.45-0.6,0.58c-0.15,0.07-0.31,0.13-0.5,0.21c0.02,0.09,0.03,0.18,0.07,0.26c0.04,0.08,0.1,0.16,0.18,0.29
		c-0.13,0.02-0.24,0.07-0.3,0.03c-0.19-0.11-0.35-0.06-0.51,0.04c-0.16,0.11-0.3,0.1-0.47-0.01c-0.22-0.15-0.48-0.15-0.69,0.03
		c-0.19,0.16-0.4,0.24-0.64,0.29c-0.44,0.09-0.78,0.36-1.11,0.64c-0.11,0.09-0.15,0.21-0.07,0.35c0.03,0.04,0.04,0.1,0.05,0.15
		c0.01,0.17,0.12,0.23,0.26,0.29c0.16,0.07,0.33,0.16,0.47,0.28c0.2,0.16,0.41,0.27,0.67,0.29c0.13,0.01,0.26,0.06,0.42,0.09
		c-0.11,0.2-0.19,0.36-0.28,0.52c-0.07,0.12-0.08,0.25,0,0.37c0.03,0.05,0.12,0.1,0.18,0.1c0.16,0,0.35-0.16,0.4-0.32
		c0.03-0.1,0.09-0.21,0.09-0.31c0-0.26,0.17-0.35,0.37-0.42c0.17-0.06,0.34-0.13,0.49-0.24c0.31-0.21,0.34-0.37,0.18-0.7
		c-0.01-0.02,0-0.04,0-0.07c0.03-0.02,0.05-0.06,0.09-0.08c0.23-0.08,0.36-0.22,0.41-0.49c0.03-0.17,0.15-0.35,0.28-0.46
		c0.11-0.09,0.29-0.1,0.46-0.15C25.42,14.29,25.47,14.2,25.52,14.08z M47.06,22.36c0.05,0.27,0.11,0.52,0.13,0.78
		c0.01,0.25,0.14,0.37,0.35,0.44c0.39,0.12,0.79,0.22,1.18,0.34c0.15,0.05,0.27,0.05,0.4-0.04c0.2-0.14,0.4-0.1,0.6,0.02
		c0.38,0.22,0.44,0.6,0.49,0.97c0.03,0.23,0.08,0.44,0.2,0.64c0.08,0.14,0.13,0.3,0.21,0.44c0.12,0.22,0.23,0.44,0.38,0.63
		c0.16,0.2,0.27,0.42,0.29,0.67c0.02,0.26,0.13,0.48,0.3,0.67c0.16,0.17,0.26,0.37,0.28,0.6c0.02,0.23,0.16,0.36,0.35,0.47
		c0.14,0.08,0.27,0.18,0.37,0.29c0.13,0.14,0.25,0.17,0.45,0.08c-0.23-0.5-0.45-0.99-0.69-1.47c-0.06-0.13-0.15-0.28-0.27-0.36
		c-0.27-0.17-0.36-0.41-0.41-0.7c-0.03-0.15-0.09-0.33-0.19-0.44c-0.23-0.23-0.36-0.53-0.55-0.79c-0.28-0.37-0.47-0.8-0.64-1.23
		c-0.08-0.2-0.08-0.39,0-0.6c0.1-0.27,0.18-0.55,0.25-0.83c0.03-0.11,0.03-0.24,0.01-0.35c-0.04-0.26-0.18-0.34-0.41-0.22
		c-0.2,0.11-0.38,0.09-0.59,0.01c-0.11-0.05-0.26-0.08-0.37-0.05c-0.35,0.09-0.63-0.12-0.94-0.19c-0.05-0.01-0.1-0.09-0.12-0.14
		c-0.05-0.16-0.1-0.32-0.13-0.49c-0.02-0.1-0.01-0.22-0.05-0.32c-0.05-0.14-0.21-0.22-0.34-0.19c-0.15,0.04-0.2,0.16-0.2,0.3
		c0,0.08,0.03,0.17,0.05,0.25C47.48,21.88,47.33,22.23,47.06,22.36z M55.02,26.04c0.36,0.08,0.64,0.11,0.87-0.18
		c0.16-0.19,0.3-0.17,0.46,0.01c0.03,0.03,0.06,0.07,0.08,0.1c0.09,0.14,0.19,0.23,0.38,0.26c0.23,0.03,0.35,0.26,0.44,0.44
		c0.05,0.1-0.02,0.27-0.07,0.39c-0.07,0.18-0.2,0.33-0.27,0.51c-0.08,0.21-0.2,0.38-0.39,0.5c-0.25,0.16-0.52,0.3-0.77,0.47
		c-0.12,0.08-0.25,0.17-0.34,0.28c-0.1,0.12-0.22,0.19-0.37,0.24c-0.21,0.07-0.41,0.17-0.66,0.27c0.32,0.09,3.56,0.09,3.89,0.02
		c-0.03-1.15-0.14-2.3-0.36-3.43c-0.33-0.05-0.62-0.12-0.92-0.15c-0.3-0.03-0.54-0.13-0.65-0.44c0-0.01-0.04-0.02-0.07-0.03
		c-0.37,0.23-0.71,0.1-1.05-0.11c-0.05-0.03-0.09-0.06-0.14-0.08c-0.19-0.08-0.3-0.21-0.37-0.41c-0.05-0.13-0.16-0.25-0.28-0.33
		c-0.07-0.04-0.21-0.02-0.29,0.03c-0.11,0.06-0.09,0.18-0.04,0.29c0.1,0.25,0.27,0.44,0.51,0.57
		C54.92,25.41,55.14,25.61,55.02,26.04z M12.1,25.92c-0.21,1.19-0.34,2.31-0.35,3.45c0.52,0.07,4.08,0.04,4.32-0.03
		c-0.14-0.15-0.27-0.3-0.4-0.45c-0.14-0.15-0.29-0.21-0.49-0.13c-0.21,0.09-0.41,0.05-0.63-0.03c-0.63-0.23-1.21-0.55-1.73-0.96
		c-0.19-0.15-0.26-0.33-0.19-0.57c0.03-0.12,0.08-0.27,0.04-0.37C12.52,26.53,12.39,26.22,12.1,25.92z M46.93,13.79
		c-0.01-0.02-0.03-0.05-0.04-0.07c-0.22-0.03-0.46-0.1-0.6,0.15c-0.13,0.24-0.34,0.38-0.56,0.51c-0.33,0.19-0.35,0.35-0.08,0.63
		c0.25,0.26,0.24,0.39-0.07,0.57c-0.13,0.07-0.17,0.16-0.2,0.3c-0.06,0.3,0.12,0.53,0.19,0.79c0.51,0.08,0.71,0,0.79-0.51
		c0.04-0.21,0.17-0.31,0.37-0.35c0.12-0.03,0.2-0.12,0.18-0.23c-0.01-0.09-0.07-0.2-0.14-0.27c-0.05-0.06-0.16-0.07-0.23-0.11
		c-0.41-0.24-0.43-0.78-0.04-1.05C46.64,14.04,46.78,13.91,46.93,13.79z M54.16,30.09c-0.38,0-0.7,0-1.02,0
		C53.35,30.35,53.56,30.35,54.16,30.09z M45.02,19.8c-0.12-0.14-0.21-0.25-0.36-0.21c-0.12,0.04-0.13,0.14-0.09,0.29
		C44.71,19.85,44.85,19.83,45.02,19.8z M43.76,20.02c-0.16-0.12-0.24-0.06-0.36,0.08C43.54,20.07,43.63,20.05,43.76,20.02z
		 M26.91,12.97c-0.05,0.05-0.09,0.08-0.11,0.12c-0.02,0.04-0.03,0.09-0.06,0.17C26.91,13.14,26.91,13.14,26.91,12.97z"/>
	<path class="st0" d="M54.95,58.53c-0.18,0.19-0.34,0.37-0.52,0.54c-1.18,1.06-2.53,1.83-4.08,2.2c-1.67,0.39-3.3,0.22-4.89-0.35
		c-1.57-0.56-2.96-1.44-4.26-2.48c-0.25-0.2-0.5-0.41-0.75-0.61c-1.06-0.82-2.26-1.08-3.56-0.9c-0.1,0.01-0.19,0.06-0.36,0.12
		c0.15,0.1,0.25,0.17,0.34,0.23c1.22,0.8,2.44,1.58,3.64,2.4c1.15,0.79,2.17,1.74,3.12,2.76c0.06,0.06,0.11,0.13,0.19,0.22
		c-0.41,0.38-0.81,0.75-1.21,1.11c-0.22-0.22-0.44-0.41-0.64-0.63c-1.15-1.25-2.32-2.47-3.63-3.55c-0.67-0.56-1.37-1.08-2.12-1.53
		c-0.18-0.1-0.34-0.22-0.51-0.34c-0.38-0.25-0.76-0.27-1.15-0.03c-2.58,1.58-4.88,3.47-6.67,5.94c-0.06,0.08-0.12,0.15-0.2,0.26
		c-0.43-0.38-0.84-0.74-1.28-1.14c2.09-2.36,4.56-4.18,7.34-5.66c-0.54-0.33-1.06-0.36-1.61-0.28c-0.78,0.12-1.48,0.45-2.12,0.91
		c-0.51,0.36-1.01,0.74-1.51,1.11c-0.53,0.39-1.06,0.78-1.6,1.15c-1.18,0.81-2.47,1.38-3.89,1.58c-2.26,0.32-4.35-0.16-6.24-1.45
		c-0.45-0.31-0.86-0.68-1.28-1.03c-0.1-0.08-0.17-0.18-0.28-0.29c0.15-0.08,0.24,0,0.33,0.03c0.56,0.18,1.12,0.41,1.69,0.56
		c1.92,0.5,3.79,0.28,5.59-0.49c0.89-0.38,1.76-0.82,2.64-1.23c1.23-0.56,2.48-1.05,3.8-1.34c1.61-0.35,3.23-0.36,4.84,0.02
		c0.14,0.03,0.27,0.07,0.4,0.13c0.38,0.16,0.75,0.17,1.13,0.02c1.26-0.49,2.57-0.5,3.89-0.42c1.92,0.11,3.7,0.68,5.4,1.54
		c1.11,0.56,2.25,1.03,3.43,1.42c2.11,0.68,4.16,0.51,6.16-0.43C54.62,58.53,54.75,58.42,54.95,58.53z"/>
	<path class="st0" d="M54.18,52.34c0.2-0.02,0.36-0.12,0.51-0.24c0.1-0.08,0.2-0.16,0.29-0.26c0.87-0.91,1.88-1.64,2.98-2.26
		c1.24-0.7,2.49-1.38,3.73-2.08c1.35-0.76,2.52-1.74,3.41-3.02c0.08-0.11,0.16-0.23,0.23-0.35c0.07-0.12,0.14-0.23,0.21-0.35
		c0.16,0.08,0.1,0.19,0.08,0.29c-0.13,0.57-0.32,1.12-0.58,1.64c-1.54,3.12-3.89,5.4-7.09,6.77c-0.69,0.3-1.42,0.44-2.14,0.6
		c-1.28,0.29-2.57,0.57-3.85,0.85c-0.08,0.02-0.17,0.02-0.25,0.03c0-0.03,0-0.06,0.01-0.07c1.03-1.11,1.74-2.41,2.24-3.82
		c0.41-1.16,0.77-2.33,1.15-3.5c0.1-0.31,0.21-0.61,0.31-0.92c0.32-1.04,0.79-2,1.37-2.92c0.4-0.63,0.82-1.24,1.23-1.86
		c0.04-0.06,0.09-0.11,0.13-0.16c0.16,0.04,0.09,0.14,0.08,0.22c-0.15,0.82-0.33,1.65-0.46,2.47c-0.14,0.85-0.25,1.7-0.37,2.56
		c-0.33,2.24-1.27,4.19-2.84,5.83c-0.15,0.15-0.28,0.32-0.41,0.48C54.14,52.3,54.16,52.32,54.18,52.34z"/>
	<path class="st0" d="M4.47,44.32c0.34,0.62,0.77,1.19,1.27,1.7c0.62,0.63,1.31,1.16,2.07,1.59c0.99,0.56,2,1.1,3.01,1.63
		c1.37,0.72,2.66,1.55,3.82,2.58c0.39,0.35,0.84,0.62,1.31,0.96c0.02-0.12,0.05-0.19,0.03-0.22c-0.06-0.1-0.14-0.19-0.23-0.27
		c-1.75-1.56-2.71-3.54-3.11-5.81c-0.29-1.67-0.56-3.33-0.83-5c-0.02-0.1-0.03-0.21-0.05-0.39c0.1,0.12,0.16,0.17,0.21,0.24
		c1.5,1.97,2.59,4.14,3.27,6.52c0.29,1.01,0.65,2.01,1.03,2.99c0.41,1.06,0.99,2.03,1.73,2.9c0.1,0.12,0.2,0.25,0.27,0.43
		c-0.14-0.02-0.28-0.04-0.42-0.07c-1.49-0.29-2.98-0.58-4.47-0.86c-1.19-0.23-2.29-0.69-3.3-1.36c-2.22-1.46-3.98-3.33-5.12-5.75
		c-0.24-0.5-0.41-1.04-0.62-1.56C4.31,44.44,4.29,44.35,4.47,44.32z"/>
	<path class="st0" d="M9.36,33.88c0.04,0.1,0.08,0.16,0.1,0.23c0.36,1.29,0.62,2.59,0.75,3.93c0.19,1.97,0.42,3.94,0.65,5.91
		c0.07,0.58,0.15,1.15,0.26,1.72c0.08,0.4,0.2,0.79,0.33,1.18c0.19,0.52,0.41,1.02,0.61,1.53c0.01,0.03,0.01,0.06,0.01,0.09
		c-0.11,0.1-0.18,0-0.25-0.05c-0.45-0.3-0.9-0.6-1.34-0.91C9.32,46.68,8.14,45.87,7,45c-1.21-0.93-2.29-2-3.15-3.27
		c-1.07-1.58-1.7-3.31-1.82-5.21C2,36.04,1.98,35.56,1.95,35c0.07,0.08,0.1,0.1,0.11,0.12c0.42,1.23,1.11,2.31,1.95,3.29
		c0.78,0.91,1.58,1.8,2.38,2.69c0.84,0.93,1.59,1.93,2.24,3c0.2,0.33,0.41,0.66,0.63,0.98c0.13,0.18,0.28,0.35,0.47,0.57
		c0.02-0.12,0.05-0.18,0.03-0.22c-0.05-0.14-0.12-0.28-0.19-0.41c-0.76-1.33-1.09-2.77-1.14-4.3C8.4,39.62,8.6,38.54,8.8,37.46
		c0.13-0.73,0.28-1.46,0.39-2.19c0.05-0.35,0.04-0.71,0.06-1.06C9.25,34.1,9.21,33.99,9.36,33.88z"/>
	<path class="st0" d="M60.26,45.23c0.18-0.11,0.3-0.26,0.4-0.42c0.33-0.5,0.66-0.98,0.97-1.49c0.9-1.5,2-2.83,3.22-4.08
		c0.87-0.89,1.67-1.84,2.24-2.95c0.26-0.52,0.47-1.06,0.7-1.6c0.06-0.14,0.11-0.27,0.17-0.41c0.02,0,0.05,0,0.07,0
		c0.01,0.13,0.01,0.26,0.02,0.39c0.05,2.38-0.65,4.54-1.94,6.53c-1.07,1.66-2.47,2.99-4.06,4.13c-1.21,0.86-2.42,1.72-3.64,2.59
		c-0.1,0.07-0.22,0.13-0.37,0.23c0.02-0.11,0.03-0.18,0.05-0.25c0.04-0.13,0.09-0.27,0.14-0.4c0.53-1.3,0.76-2.67,0.94-4.05
		c0.2-1.47,0.3-2.96,0.41-4.44c0.11-1.44,0.25-2.88,0.63-4.28c0.11-0.41,0.27-0.81,0.41-1.23c0.05,0.05,0.08,0.06,0.08,0.07
		c-0.01,1.23,0.22,2.42,0.46,3.62c0.23,1.12,0.39,2.25,0.34,3.4c-0.06,1.48-0.42,2.87-1.13,4.17
		C60.24,45.01,60.24,45.01,60.26,45.23z"/>
	<path class="st0" d="M47.08,55.77c0.11,0,0.2,0.01,0.29,0c0.52-0.09,1.04-0.17,1.56-0.27c1.06-0.21,2.13-0.34,3.2-0.44
		c1.57-0.14,3.13-0.29,4.67-0.63c1.36-0.29,2.55-0.9,3.56-1.86c0.03-0.03,0.08-0.06,0.15-0.06c-0.1,0.19-0.19,0.37-0.3,0.55
		c-0.34,0.56-0.76,1.05-1.23,1.5c-1.37,1.31-2.92,2.31-4.77,2.79c-1.48,0.38-2.96,0.41-4.45,0.08c-2.1-0.47-4.2-0.94-6.3-1.41
		c-0.03-0.01-0.06-0.03-0.12-0.06c0.09-0.04,0.16-0.08,0.23-0.11c0.51-0.19,1.01-0.37,1.52-0.55c1.15-0.42,2.11-1.1,2.96-1.98
		c1.44-1.48,2.88-2.94,4.33-4.4c0.36-0.37,0.77-0.69,1.26-0.96c-0.02,0.08-0.02,0.12-0.04,0.16c-0.67,1.38-1.35,2.75-2,4.13
		c-0.7,1.47-1.85,2.41-3.35,2.95c-0.28,0.1-0.57,0.2-0.85,0.3C47.26,55.53,47.13,55.57,47.08,55.77z"/>
	<path class="st0" d="M26.73,56.08c-0.41,0.1-0.81,0.19-1.22,0.3c-1.32,0.34-2.64,0.71-3.97,1.03c-1.16,0.28-2.35,0.46-3.55,0.43
		c-1.8-0.04-3.47-0.52-4.99-1.47c-1.27-0.79-2.36-1.77-3.16-3.05c-0.06-0.09-0.11-0.19-0.16-0.28c-0.01-0.02-0.01-0.04-0.02-0.13
		c0.13,0.09,0.24,0.15,0.33,0.23c1.16,0.98,2.52,1.52,4.02,1.71c1.07,0.14,2.14,0.23,3.21,0.31c1.24,0.1,2.46,0.28,3.68,0.49
		c0.6,0.1,1.21,0.19,1.82,0.28c0.12,0.02,0.25,0.02,0.41,0.02c-0.14-0.27-0.34-0.34-0.56-0.4c-0.34-0.09-0.69-0.18-1.02-0.3
		c-1.07-0.38-1.94-1.03-2.55-2c-0.5-0.8-0.96-1.63-1.41-2.47c-0.29-0.54-0.53-1.11-0.78-1.67c-0.08-0.18-0.19-0.36-0.11-0.6
		c0.23,0.02,0.37,0.16,0.52,0.29c0.86,0.81,1.73,1.62,2.59,2.44c0.54,0.52,1.08,1.06,1.58,1.62c1.35,1.52,3.03,2.47,4.96,3.01
		c0.13,0.04,0.26,0.08,0.39,0.12C26.74,56.05,26.73,56.06,26.73,56.08z"/>
	<path class="st0" d="M67.32,23.92c0.26,0.54,0.37,1.11,0.45,1.69c0.17,1.22,0.24,2.44,0.13,3.68c-0.16,1.86-0.65,3.62-1.49,5.29
		c-0.18,0.36-0.41,0.71-0.65,1.04c-0.9,1.28-1.81,2.55-2.73,3.82c-0.08,0.11-0.17,0.21-0.3,0.37c-0.01-0.14-0.02-0.21-0.02-0.27
		c0.02-0.5,0.06-0.99,0.07-1.49c0.02-0.89-0.13-1.76-0.4-2.61c-0.76-2.34-1.37-4.72-1.76-7.15c-0.13-0.8-0.2-1.6-0.29-2.41
		c-0.02-0.19-0.03-0.39-0.05-0.59c0.02-0.01,0.04-0.01,0.07-0.02c0.04,0.04,0.09,0.08,0.1,0.13c0.38,1.11,0.99,2.1,1.54,3.13
		c0.48,0.89,0.93,1.8,1.35,2.72c0.69,1.55,0.77,3.16,0.4,4.81c-0.06,0.24-0.15,0.49-0.08,0.8c0.07-0.07,0.13-0.1,0.14-0.15
		c0.08-0.2,0.17-0.4,0.22-0.61c0.19-0.87,0.36-1.75,0.55-2.62c0.26-1.2,0.7-2.33,1.16-3.46c0.26-0.63,0.51-1.26,0.75-1.89
		c0.46-1.21,0.69-2.46,0.77-3.75C67.27,24.23,67.3,24.08,67.32,23.92z"/>
	<path class="st0" d="M6.24,37.32c0.12-0.15,0.1-0.29,0.06-0.44c-0.57-2.03-0.24-3.97,0.56-5.86c0.16-0.38,0.33-0.75,0.52-1.11
		c0.63-1.22,1.27-2.43,1.9-3.64c0.04-0.07,0.08-0.14,0.17-0.28c0,0.3,0.01,0.52,0,0.74c-0.11,2.35-0.61,4.63-1.23,6.89
		c-0.28,1.02-0.57,2.03-0.82,3.06c-0.26,1.05-0.3,2.11-0.14,3.18c0.01,0.07,0.01,0.15,0.02,0.23c0,0.04-0.01,0.08-0.03,0.17
		c-0.07-0.08-0.13-0.12-0.17-0.18c-0.87-1.18-1.74-2.36-2.62-3.53c-1.01-1.34-1.65-2.85-2.04-4.47c-0.36-1.51-0.53-3.03-0.44-4.58
		c0.06-0.99,0.21-1.97,0.48-2.93c0.02-0.08,0.06-0.15,0.11-0.29c0.02,0.09,0.04,0.11,0.04,0.14c-0.08,1.52,0.28,2.95,0.85,4.34
		c0.42,1.02,0.86,2.02,1.25,3.05c0.53,1.44,0.89,2.92,1.15,4.43C5.93,36.61,6.05,36.98,6.24,37.32z"/>
	<path class="st0" d="M63.99,14.54c0.26,0.41,0.54,0.8,0.79,1.22c0.81,1.38,1.27,2.87,1.47,4.45c0.28,2.24-0.06,4.39-0.85,6.5
		c-0.32,0.85-0.52,1.75-0.77,2.63c-0.11,0.38-0.2,0.76-0.31,1.19c-0.04-0.08-0.07-0.11-0.07-0.15c-0.32-1.39-0.95-2.63-1.73-3.8
		c-0.44-0.66-0.91-1.31-1.38-1.96c-1.04-1.46-1.91-3-2.43-4.72c-0.07-0.25-0.14-0.5-0.2-0.75c-0.02-0.1-0.03-0.2,0.01-0.33
		c0.28,0.27,0.57,0.55,0.85,0.83c0.8,0.78,1.61,1.57,2.41,2.34c1.16,1.12,1.85,2.47,2.13,4.05c0.06,0.35,0.12,0.7,0.19,1.09
		c0.18-0.2,0.19-0.38,0.18-0.58c-0.08-1.26-0.21-2.51-0.15-3.78c0.05-1.02,0.13-2.04,0.17-3.07c0.04-0.93,0.07-1.85,0.07-2.78
		c0-0.71-0.14-1.41-0.36-2.09c-0.03-0.09-0.06-0.18-0.09-0.27C63.94,14.56,63.96,14.55,63.99,14.54z"/>
	<path class="st0" d="M5.81,27.43c0.03-0.13,0.08-0.26,0.09-0.39c0.11-1.36,0.63-2.56,1.4-3.67c0.47-0.67,1.02-1.28,1.59-1.87
		c0.72-0.74,1.45-1.48,2.17-2.22c0.06-0.06,0.12-0.11,0.24-0.14c-0.12,0.5-0.23,1-0.37,1.5c-0.35,1.19-0.86,2.3-1.54,3.33
		c-0.56,0.85-1.11,1.7-1.67,2.54c-0.83,1.26-1.54,2.57-1.96,4.02c-0.01,0.03-0.03,0.05-0.07,0.11c-0.02-0.05-0.04-0.08-0.05-0.11
		c-0.54-1.64-1.11-3.26-1.63-4.91c-0.44-1.38-0.62-2.79-0.56-4.24c0.09-2.02,0.7-3.89,1.74-5.62c0.11-0.18,0.22-0.34,0.33-0.52
		c0.02-0.02,0.05-0.04,0.12-0.08C5.6,15.5,5.56,15.8,5.5,16.1c-0.16,0.78-0.29,1.57-0.21,2.37c0.06,0.62,0.14,1.24,0.21,1.86
		c0.21,1.69,0.35,3.39,0.22,5.09c-0.03,0.43-0.06,0.86-0.06,1.29c0,0.23,0.04,0.47,0.07,0.7C5.75,27.42,5.78,27.42,5.81,27.43z"/>
	<path class="st0" d="M10.65,10c-0.06,0.09-0.11,0.18-0.18,0.26c-0.77,0.88-1.18,1.92-1.44,3.04c-0.31,1.34-0.58,2.69-0.91,4.03
		c-0.15,0.62-0.37,1.21-0.56,1.82c-0.05,0.17-0.14,0.34-0.01,0.57c0.06-0.1,0.13-0.16,0.16-0.24c0.64-1.51,1.7-2.67,2.97-3.68
		c0.84-0.67,1.66-1.38,2.46-2.1c0.31-0.28,0.54-0.64,0.81-0.96c0.07-0.09,0.14-0.18,0.23-0.26c-0.02,0.47-0.13,0.92-0.27,1.35
		c-0.39,1.16-1.06,2.16-1.84,3.09c-0.58,0.69-1.23,1.3-1.93,1.86c-1.28,1.01-2.43,2.14-3.29,3.53c-0.02,0.03-0.04,0.05-0.06,0.07
		c-0.01,0-0.02,0-0.06,0c0-0.07,0-0.14,0-0.21c-0.01-0.87-0.01-1.75-0.03-2.62c-0.02-0.76-0.09-1.53-0.12-2.29
		c-0.03-0.99,0.03-1.99,0.32-2.94c0.59-1.91,1.76-3.36,3.54-4.29c0.05-0.03,0.11-0.05,0.17-0.07C10.62,9.97,10.64,9.98,10.65,10z"/>
	<path class="st0" d="M62.98,21.74c-0.05-0.05-0.1-0.11-0.15-0.16c-0.84-1.15-1.88-2.1-2.95-3.02c-0.51-0.44-1.02-0.87-1.52-1.3
		c-1.2-1.04-2.1-2.28-2.58-3.8c-0.11-0.35-0.22-0.71-0.25-1.1c0.04,0.02,0.07,0.02,0.08,0.04c0.58,0.85,1.35,1.5,2.17,2.11
		c0.5,0.37,1.01,0.74,1.51,1.12c1.16,0.87,2.05,1.96,2.67,3.27c0.06,0.13,0.14,0.26,0.21,0.41c0.17-0.13,0.08-0.25,0.04-0.36
		c-0.15-0.44-0.31-0.87-0.45-1.32c-0.43-1.37-0.72-2.77-1.04-4.17c-0.14-0.59-0.31-1.16-0.51-1.73c-0.24-0.69-0.6-1.31-1.08-1.86
		c-0.06-0.07-0.1-0.17-0.16-0.25C59,9.6,59.01,9.58,59.03,9.56c0.09,0.03,0.18,0.04,0.26,0.08c0.25,0.13,0.51,0.25,0.72,0.42
		c1.49,1.17,2.53,2.63,2.94,4.51c0.12,0.55,0.18,1.11,0.17,1.67c-0.03,1.6-0.06,3.19-0.08,4.79c0,0.23,0,0.47,0,0.7
		C63.03,21.73,63.01,21.74,62.98,21.74z"/>
	<path class="st0" d="M16.94,6.72c-0.05,0.07-0.09,0.14-0.14,0.2c-0.97,1.05-1.81,2.2-2.54,3.42c-0.9,1.51-2.06,2.78-3.39,3.92
		c-0.33,0.28-0.65,0.56-0.99,0.85c-0.05-1.03,0.62-3.38,1.65-4.82c1.34-1.87,3.19-2.97,5.34-3.63C16.9,6.68,16.92,6.7,16.94,6.72z"
		/>
	<path class="st0" d="M59.71,14.77c-0.36-0.31-0.73-0.6-1.07-0.92c-1.28-1.21-2.47-2.5-3.49-3.94c-0.21-0.29-0.4-0.59-0.59-0.89
		c-0.56-0.9-1.2-1.74-1.99-2.45c-0.04-0.03-0.07-0.08-0.15-0.17c0.14,0.03,0.21,0.04,0.29,0.06c1.15,0.3,2.25,0.74,3.24,1.42
		c1.4,0.96,2.34,2.27,2.98,3.82c0.38,0.93,0.64,1.9,0.82,2.88c0.01,0.05,0.01,0.1,0.01,0.16C59.75,14.74,59.73,14.75,59.71,14.77z"
		/>
	<path class="st0" d="M33.03,14.77c0.04,0.01,0.07,0.01,0.08,0.02c1.68,1.26,2.89,2.86,3.39,4.93c0.37,1.54,0.23,3.06-0.2,4.57
		c-0.23,0.8-0.62,1.54-0.98,2.28c-1,2.06-1.99,4.11-2.84,6.24c-0.42,1.05-0.76,2.13-0.95,3.25c-0.38,2.18-0.07,4.27,0.84,6.27
		c0.22,0.49,0.5,0.96,0.75,1.43c0.03,0.07,0.07,0.13,0.13,0.25c-0.14-0.04-0.23-0.06-0.31-0.1c-2.67-1.21-4.36-3.23-5.03-6.1
		c-0.4-1.73-0.34-3.46-0.04-5.2c0.21-1.17,0.59-2.27,1.12-3.33c0.91-1.82,1.85-3.63,2.77-5.44c0.36-0.7,0.74-1.39,1.06-2.11
		c0.69-1.51,0.85-3.1,0.67-4.74c-0.08-0.69-0.23-1.36-0.44-2.02C33.05,14.92,33.05,14.85,33.03,14.77z"/>
	<path class="st0" d="M34.97,44.28c-0.22-0.26-0.46-0.51-0.67-0.77c-0.93-1.19-1.43-2.54-1.59-4.03c-0.23-2.15,0.15-4.21,0.89-6.21
		c0.35-0.96,0.8-1.88,1.22-2.81c0.55-1.23,1.13-2.45,1.69-3.67c0.77-1.66,1.11-3.41,1.13-5.23c0-0.1,0-0.21,0-0.38
		c0.08,0.07,0.12,0.1,0.15,0.14c1.21,1.69,1.85,3.57,1.77,5.66c-0.06,1.52-0.44,2.98-1.05,4.37c-0.79,1.8-1.6,3.6-2.39,5.41
		c-0.92,2.12-1.24,4.34-1.12,6.63c0.01,0.29,0.04,0.58,0.07,0.86C35.03,44.26,35,44.27,34.97,44.28z"/>
	<path class="st0" d="M40.61,27.05c0.05,0.08,0.1,0.16,0.14,0.24c0.89,1.73,1.41,3.56,1.56,5.5c0.1,1.31,0.08,2.61-0.19,3.89
		c-0.7,3.31-2.59,5.7-5.57,7.25c-0.18,0.09-0.36,0.17-0.58,0.27c0-0.32-0.01-0.6,0-0.88c0.1-2.85,0.8-5.53,2.15-8.04
		c0.8-1.49,1.46-3.05,1.87-4.7C40.27,29.42,40.46,28.25,40.61,27.05z"/>
	<path class="st0" d="M35.58,47.48c0-0.72,0-1.41,0-2.15c1.37,0.26,2.3,1.08,3.12,2.12C38.46,47.53,36.01,47.55,35.58,47.48z"/>
	<path class="st0" d="M34.46,45.32c0,0.75,0,1.45,0,2.14c-0.25,0.07-2.76,0.08-3.14,0.01C32.14,46.42,33.08,45.6,34.46,45.32z"/>
	<path class="st0" d="M41.91,17.32c-0.16,0.45-0.43,0.64-0.84,0.65c-0.19,0-0.37,0.09-0.56,0.13c-0.08,0.02-0.16,0.01-0.24,0.02
		c0-0.08-0.02-0.16-0.01-0.24c0.02-0.11,0.06-0.21,0.08-0.31c0.07-0.34,0.07-0.34,0.39-0.48c0.05-0.19-0.08-0.27-0.22-0.34
		c-0.23-0.13-0.38-0.32-0.39-0.59c-0.02-0.36,0.28-0.63,0.61-0.57c0.21,0.04,0.32,0.16,0.34,0.37c0.02,0.33,0.13,0.61,0.36,0.84
		c0.01,0.02,0.03,0.03,0.04,0.05C41.53,17.08,41.66,17.26,41.91,17.32z"/>
	<path class="st0" d="M36.7,13.64c0.18-0.21,0.36-0.28,0.61-0.22c0.23,0.05,0.47,0.02,0.7,0.01c0.14,0,0.28-0.04,0.42-0.04
		c0.1,0,0.22,0.03,0.3,0.09c0.08,0.06,0.19,0.18,0.17,0.24c-0.02,0.09-0.13,0.19-0.23,0.23c-0.27,0.12-0.54,0.23-0.82,0.29
		c-0.18,0.04-0.38-0.03-0.57-0.04c-0.21-0.01-0.33-0.12-0.4-0.31C36.85,13.81,36.77,13.74,36.7,13.64z"/>
	<path class="st0" d="M39.19,16.89c0.13-0.08,0.27-0.17,0.42-0.26c0.16-0.09,0.33-0.1,0.5-0.05c0.17,0.06,0.21,0.19,0.12,0.36
		c-0.05,0.1-0.1,0.21-0.13,0.32c-0.05,0.15-0.12,0.26-0.3,0.28c-0.12,0.02-0.23,0.12-0.35,0.15c-0.09,0.02-0.22,0.02-0.3-0.02
		c-0.11-0.06-0.11-0.18-0.06-0.31C39.14,17.21,39.15,17.05,39.19,16.89z"/>
	<path class="st0" d="M21.14,27.43c-0.1,0.18-0.23,0.21-0.39,0.17c-0.16-0.04-0.32-0.07-0.52-0.11c-0.17-0.3-0.47-0.51-0.83-0.63
		c-0.37-0.13-0.73-0.07-1.12,0.11c0.04-0.31,0.21-0.39,0.39-0.46c0.56-0.23,1.05-0.01,1.52,0.27c0.26,0.15,0.5,0.33,0.75,0.49
		C21.01,27.33,21.07,27.38,21.14,27.43z"/>
</g>
</svg>
