<?xml version="1.0" encoding="utf-8"?>
<!-- Generator: Adobe Illustrator 28.0.0, SVG Export Plug-In . SVG Version: 6.00 Build 0)  -->
<svg version="1.1" id="Capa_1" xmlns="http://www.w3.org/2000/svg" xmlns:xlink="http://www.w3.org/1999/xlink" x="0px" y="0px"
	 viewBox="0 0 320 70" style="enable-background:new 0 0 320 70;" xml:space="preserve">
<style type="text/css">
	.st0{fill:#FFFFFF;}
</style>
<g>
	<g>
		<path class="st0" d="M130.64,39.08c0.64,0,1.16,0,1.69,0c2.41,0,4.83,0,7.24,0c1.18,0,2.34,0.12,3.43,0.61
			c1.8,0.81,2.86,2.16,2.97,4.18c0.11,2.04-0.64,3.6-2.49,4.57c-0.13,0.07-0.25,0.15-0.53,0.3c0.3,0.15,0.51,0.26,0.72,0.36
			c1.75,0.87,2.66,2.3,2.75,4.23c0.09,2.01-0.66,3.61-2.41,4.67c-0.92,0.56-1.94,0.89-3,0.9c-3.36,0.04-6.71,0.02-10.07,0.02
			c-0.07,0-0.14-0.04-0.29-0.09C130.64,52.32,130.64,45.78,130.64,39.08z M135.46,55.01c1.45,0,2.77,0.07,4.08-0.02
			c1.22-0.09,1.91-0.86,1.97-1.96c0.06-1.06-0.55-1.92-1.56-2.22c-0.7-0.21-3.67-0.17-4.48,0.06
			C135.46,52.22,135.46,53.56,135.46,55.01z M135.51,43.05c0,1.37,0,2.69,0,4c1.33,0,2.58,0.09,3.8-0.03
			c1.15-0.11,1.74-0.92,1.71-2.02c-0.02-1.04-0.63-1.85-1.68-1.93C138.08,42.98,136.81,43.05,135.51,43.05z"/>
		<path class="st0" d="M127.56,48.97c0.15,5.81-4.55,10.29-10.22,10.21c-5.8-0.09-10.18-4.4-10.18-10.19
			c-0.01-5.81,4.43-10.23,10.28-10.21C123.56,38.8,127.73,43.54,127.56,48.97z M122.78,48.97c-0.04-0.01-0.09-0.03-0.13-0.04
			c-0.05-0.49-0.07-0.98-0.15-1.46c-0.4-2.38-2.22-4.08-4.49-4.22c-2.85-0.18-4.82,1.07-5.55,3.58c-0.46,1.56-0.43,3.13,0.13,4.66
			c0.72,1.99,2.4,3.15,4.59,3.22c2.21,0.07,3.92-0.8,4.84-2.83C122.42,50.98,122.53,49.94,122.78,48.97z"/>
		<path class="st0" d="M269.68,49c0.14,5.77-4.54,10.27-10.26,10.17c-5.78-0.1-10.15-4.43-10.14-10.23
			c0.01-5.8,4.46-10.2,10.32-10.17C265.69,38.82,269.85,43.55,269.68,49z M264.89,48.99c-0.04-0.01-0.08-0.03-0.13-0.04
			c-0.05-0.49-0.07-0.98-0.15-1.46c-0.4-2.43-2.25-4.13-4.58-4.25c-2.83-0.15-4.8,1.15-5.5,3.67c-0.43,1.56-0.42,3.15,0.19,4.66
			c0.81,2.02,2.35,3.06,4.53,3.15c2.2,0.08,3.92-0.77,4.85-2.81C264.53,51.01,264.64,49.97,264.89,48.99z"/>
		<path class="st0" d="M237.42,51.5c-0.24-0.02-0.43-0.05-0.61-0.04c-0.14,0-0.28,0.04-0.52,0.08c0,2.43,0,4.83,0,7.39
			c-1.62,0.04-3.15,0.01-4.65,0.02c-0.26-0.85-0.35-17.95-0.11-19.77c0.27-0.03,0.55-0.09,0.84-0.09c2.45-0.01,4.91-0.01,7.36,0
			c1.29,0.01,2.56,0.19,3.74,0.76c2.29,1.09,3.38,2.96,3.39,5.43c0.02,2.48-1.1,4.34-3.37,5.44c-0.27,0.13-0.55,0.24-0.98,0.43
			c1.49,2.57,2.95,5.09,4.48,7.73c-1.91,0-3.66,0-5.49,0C240.15,56.44,238.78,53.97,237.42,51.5z M236.32,48.03
			c0.99,0,1.85,0.03,2.71-0.01c0.52-0.02,1.06-0.08,1.55-0.25c0.89-0.31,1.36-1.18,1.34-2.27c-0.02-1.08-0.54-1.91-1.47-2.19
			c-1.36-0.4-2.74-0.2-4.13-0.2C236.32,44.8,236.32,46.33,236.32,48.03z"/>
		<path class="st0" d="M149.56,39.14c0.36-0.02,0.69-0.06,1.02-0.06c2.38-0.01,4.76-0.01,7.14,0c1.29,0,2.56,0.17,3.75,0.73
			c2.32,1.1,3.44,2.96,3.44,5.51c0,2.51-1.14,4.32-3.4,5.41c-0.14,0.07-0.28,0.12-0.42,0.18c-0.14,0.06-0.27,0.12-0.52,0.24
			c1.49,2.56,2.95,5.08,4.49,7.73c-1.93,0-3.69,0-5.5,0c-1.24-2.24-2.47-4.49-3.72-6.73c-0.42-0.76-0.43-0.75-1.53-0.56
			c0,2.38,0,4.79,0,7.27c-1.63,0-3.15,0-4.76,0C149.56,52.31,149.56,45.76,149.56,39.14z M154.38,43.13c0,1.65,0,3.22,0,4.91
			c0.81,0,1.55,0.01,2.3,0c0.45-0.01,0.91,0.01,1.35-0.07c0.88-0.15,1.54-0.61,1.82-1.5c0.54-1.73-0.35-3.15-2.16-3.32
			C156.65,43.05,155.59,43.13,154.38,43.13z"/>
		<path class="st0" d="M308.09,58.89c-0.39-1.12-0.77-2.21-1.17-3.36c-2.46,0-4.9,0-7.4,0c-0.39,1.11-0.77,2.21-1.17,3.36
			c-1.66,0-3.3,0-5.09,0c2.4-6.64,4.77-13.19,7.15-19.76c1.92,0,3.76,0,5.68,0c2.37,6.56,4.74,13.11,7.15,19.76
			C311.43,58.89,309.79,58.89,308.09,58.89z M305.63,51.63c-0.79-2.33-1.55-4.56-2.31-6.8c-0.08,0-0.16,0.01-0.23,0.01
			c-0.72,2.25-1.55,4.46-2.21,6.79C302.52,51.63,304.01,51.63,305.63,51.63z"/>
		<path class="st0" d="M222.68,58.89c-1.78,0-3.42,0-5.14,0c-0.38-1.09-0.77-2.19-1.18-3.34c-2.46,0-4.89,0-7.41,0
			c-0.38,1.08-0.76,2.17-1.17,3.33c-1.66,0-3.3,0-5.08,0c2.39-6.61,4.76-13.16,7.14-19.74c1.91,0,3.75,0,5.68,0
			C217.91,45.69,220.28,52.24,222.68,58.89z M212.78,44.85c-0.08,0-0.16,0-0.24,0c-0.74,2.24-1.48,4.47-2.25,6.79
			c1.65,0,3.15,0,4.79,0C214.29,49.31,213.54,47.08,212.78,44.85z"/>
		<path class="st0" d="M286.01,52.2c1.71,0,3.39,0,5.23,0c-0.12,0.43-0.19,0.79-0.32,1.13c-1.04,2.67-2.98,4.42-5.67,5.3
			c-2.02,0.65-4.09,0.69-6.15,0.17c-4.07-1.02-6.9-4.41-7.2-8.6c-0.1-1.44-0.06-2.86,0.33-4.27c1.29-4.67,5.43-7.45,10.53-7.05
			c3.78,0.3,6.55,2.09,8.11,5.61c0.16,0.37,0.25,0.77,0.41,1.3c-1.76,0-3.38,0.02-4.99-0.02c-0.2,0-0.46-0.23-0.59-0.43
			c-1.21-1.77-2.92-2.34-4.94-1.95c-2.13,0.41-3.31,1.86-3.77,3.9c-0.28,1.26-0.28,2.55,0.11,3.81c0.56,1.84,1.71,3.13,3.65,3.47
			c2.05,0.36,3.83-0.15,5-2.04C285.82,52.42,285.92,52.31,286.01,52.2z"/>
		<path class="st0" d="M89.78,53.06c1.78,0,3.39,0,5.04,0c0.08,0.17,0.18,0.34,0.23,0.51c0.39,1.62,2.21,2,3.49,1.49
			c1.28-0.51,1.58-2.04,0.53-2.94c-0.45-0.38-1.01-0.66-1.56-0.88c-0.87-0.35-1.79-0.59-2.68-0.91c-0.67-0.24-1.36-0.48-1.99-0.8
			c-1.72-0.88-2.85-2.19-2.99-4.21c-0.16-2.25,0.52-4.1,2.5-5.33c1.85-1.15,3.89-1.36,6-1.14c1.41,0.14,2.74,0.54,3.89,1.4
			c1.45,1.08,2.18,2.53,2.25,4.42c-1.75,0-3.43,0-5.15,0c-0.1-0.25-0.17-0.5-0.28-0.73c-0.56-1.14-2.25-1.61-3.32-0.94
			c-0.89,0.56-1.05,1.91-0.27,2.65c0.27,0.25,0.61,0.46,0.95,0.6c0.76,0.33,1.55,0.6,2.32,0.9c1.02,0.4,2.07,0.74,3.04,1.22
			c3.36,1.67,4.08,5.82,1.53,8.59c-0.71,0.77-1.55,1.35-2.53,1.67c-2.66,0.87-5.3,0.8-7.81-0.48
			C90.97,57.14,89.85,55.49,89.78,53.06z"/>
		<path class="st0" d="M180.41,42.95c-2.4,0-4.76,0-7.2,0c0,1.38,0,2.63,0,4c2.12,0,4.18,0,6.3,0c0.24,1.28,0.07,2.46,0.13,3.74
			c-2.18,0-4.25,0-6.47,0c-0.08,1.47-0.05,2.83-0.01,4.35c2.42,0.07,4.78,0,7.27,0.05c0.14,1.25,0.07,2.47,0.03,3.77
			c-4.04,0-8.02,0-12.08,0c0-6.54,0-13.09,0-19.71c3.98,0,7.97,0,12.03,0C180.41,40.4,180.41,41.61,180.41,42.95z"/>
		<path class="st0" d="M112.58,30.11c-0.83,0-1.58,0-2.43,0c0-4.45,0-8.85,0-13.25c-0.09-0.02-0.18-0.05-0.26-0.07
			c-1.05,2.16-1.98,4.38-2.97,6.57c-1.01,2.23-2,4.48-3.01,6.75c-0.59,0-1.15,0-1.85,0c-2-4.45-4.02-8.97-6.05-13.48
			c-0.07,0.02-0.14,0.04-0.21,0.06c0,4.43,0,8.86,0,13.39c-0.85,0-1.61,0-2.45,0c0-6.22,0-12.43,0-18.77
			c0.43-0.02,0.87-0.05,1.3-0.06c0.41-0.01,0.83,0,1.34,0c2.3,5.12,4.59,10.23,6.99,15.59c2.38-5.31,4.66-10.39,6.96-15.52
			c0.86,0,1.71,0,2.64,0C112.58,17.57,112.58,23.78,112.58,30.11z"/>
		<path class="st0" d="M152.64,25.72c0-4.83,0-9.66,0-14.57c0.82,0,1.59,0,2.42,0c0,6.32,0,12.61,0,18.95c-0.84,0-1.63,0-2.53,0
			c-3.19-4.83-6.42-9.72-9.65-14.62c-0.08,0.02-0.15,0.05-0.23,0.07c0,4.81,0,9.61,0,14.51c-0.89,0-1.65,0-2.5,0
			c0-6.28,0-12.57,0-19c0.7,0,1.37,0.02,2.03,0c0.53-0.02,0.68,0.4,0.91,0.74c1.77,2.68,3.54,5.36,5.31,8.03
			c1.14,1.73,2.29,3.47,3.44,5.2c0.18,0.27,0.39,0.52,0.58,0.78C152.49,25.78,152.56,25.75,152.64,25.72z"/>
		<path class="st0" d="M310.19,21.54c-0.11,3.02-1.63,6.1-5.17,7.82c-3.54,1.71-7.06,1.44-10.28-0.89
			c-2.45-1.78-3.59-4.33-3.73-7.31c-0.24-4.89,2.64-8.95,7.25-10.03C304.69,9.63,310.24,14.12,310.19,21.54z M293.53,20.66
			c0.11,0.76,0.16,1.59,0.37,2.39c0.79,3.12,3.37,5.1,6.62,5.15c3.19,0.05,5.79-1.82,6.72-4.86c0.42-1.39,0.5-2.8,0.28-4.25
			c-0.56-3.53-3.11-5.88-6.58-6c-3.62-0.13-6.32,1.95-7.11,5.49C293.66,19.22,293.63,19.9,293.53,20.66z"/>
		<path class="st0" d="M265.01,30.02c-0.23,0.1-0.27,0.12-0.3,0.12c-0.83,0-1.8,0.26-2.45-0.09c-0.64-0.34-0.98-1.27-1.39-1.97
			c-1.12-1.88-2.21-3.77-3.28-5.62c-1.02,0-1.95,0-3.01,0c0,2.57,0,5.08,0,7.64c-0.87,0-1.61,0-2.35,0
			c-0.25-0.88-0.27-17.91-0.01-19.02c2.72,0.12,5.49-0.31,8.21,0.25c4.03,0.83,5.77,5.28,3.44,8.66c-0.6,0.87-1.4,1.46-2.37,1.85
			c-0.34,0.14-0.69,0.27-1.12,0.43C261.94,24.87,263.46,27.42,265.01,30.02z M254.63,20.36c1.39,0,2.66,0.03,3.93-0.01
			c2.62-0.08,4.04-1.85,3.62-4.45c-0.21-1.28-0.93-2.15-2.16-2.49c-1.76-0.49-3.56-0.21-5.39-0.26
			C254.63,15.6,254.63,17.89,254.63,20.36z"/>
		<path class="st0" d="M190.23,58.84c0-6.6,0-13.11,0-19.69c1.59,0,3.11,0,4.76,0c0,5.34,0,10.64,0,16.08c2.16,0,4.21,0,6.32,0
			c0,1.27,0,2.39,0,3.51C200.56,58.99,191.97,59.08,190.23,58.84z"/>
		<path class="st0" d="M194.67,15.73c-1,0-1.82,0-2.61,0c-1.1-2.29-2.73-3.11-5.04-2.61c-1.31,0.29-2.21,1.2-2.38,2.41
			c-0.19,1.36,0.33,2.4,1.67,3.02c0.82,0.38,1.7,0.61,2.56,0.9c1,0.33,2.03,0.6,3.01,0.99c3.97,1.56,3.56,6.16,1.61,8.05
			c-0.24,0.24-0.5,0.47-0.77,0.66c-2.42,1.74-6.61,1.61-8.93-0.27c-1.16-0.95-1.73-2.09-1.81-3.75c0.43-0.01,0.87-0.03,1.31-0.04
			c0.41-0.01,0.82,0,1.21,0c0.08,0.18,0.13,0.28,0.17,0.38c0.91,2.59,3.91,3.63,6.27,2.17c1.89-1.18,1.94-3.81,0.04-4.97
			c-0.7-0.42-1.52-0.66-2.3-0.92c-1.07-0.36-2.18-0.6-3.25-0.98c-2.27-0.81-3.3-2.21-3.37-4.44c-0.07-2.25,1.02-4.02,3.15-4.89
			c2.2-0.9,4.43-0.9,6.59,0.12C193.45,12.36,194.45,13.69,194.67,15.73z"/>
		<path class="st0" d="M240.07,28.05c0,0.8,0,1.39,0,2.04c-3.4,0-6.74,0-10.16,0c0-6.3,0-12.58,0-18.95c3.37,0,6.7,0,10.13,0
			c0,0.62,0,1.23,0,1.95c-2.51,0-4.98,0-7.43,0c-0.29,0.87-0.36,4.64-0.13,6.36c2.19,0,4.4,0,6.7,0c0,0.73,0,1.34,0,2.07
			c-2.2,0-4.41,0-6.66,0c-0.27,1.14-0.11,2.19-0.14,3.22c-0.03,1.05-0.01,2.11-0.01,3.3C234.93,28.05,237.44,28.05,240.07,28.05z"/>
		<path class="st0" d="M210.77,13.13c-1.84,0-3.45,0-5.17,0c0-0.68,0-1.29,0-1.97c4.26,0,8.5,0,12.82,0c0,0.64,0,1.26,0,1.99
			c-1.72,0-3.36,0-5.14,0c0,5.72,0,11.32,0,16.96c-0.88,0-1.63,0-2.51,0C210.77,24.48,210.77,18.87,210.77,13.13z"/>
		<path class="st0" d="M169.96,30.1c-0.79,0-1.53,0-2.26,0c-0.25-0.84-0.29-17.85-0.04-18.96c0.74,0,1.48,0,2.3,0
			C169.96,17.47,169.96,23.75,169.96,30.1z"/>
		<path class="st0" d="M277.04,11.12c0.86,0,1.57,0,2.27,0c0.25,0.83,0.33,17.15,0.09,18.95c-0.75,0-1.52,0-2.36,0
			C277.04,23.78,277.04,17.49,277.04,11.12z"/>
		<path class="st0" d="M127.55,30.12c-0.79,0-1.54,0-2.36,0c0-6.33,0-12.61,0-18.98c0.41-0.02,0.77-0.04,1.14-0.05
			c0.37-0.01,0.75,0,1.1,0C127.7,11.93,127.8,28.02,127.55,30.12z"/>
	</g>
	<g>
		<path class="st0" d="M43.96,56.42C29.2,56.49,16.95,44.39,16.99,29.41c0.04-14.62,11.8-26.94,27.03-26.94
			c14.44,0,27.02,11.65,26.94,27.06C70.88,44.52,58.65,56.49,43.96,56.42z M44.6,55.64c0-1.84,0-3.65,0-5.47c1.44,0,2.84,0,4.27,0
			c0.82,1.43,1.31,3,1.66,4.65c0.24-0.07,0.46-0.13,0.73-0.2c-0.09-0.38-0.16-0.75-0.26-1.11c-0.44-1.69-1.09-3.29-2.11-4.72
			c-0.73-1.02-1.6-1.89-2.74-2.45c-0.04-0.02-0.06-0.05-0.1-0.08c4.11,0.85,6.92,3.35,8.86,7.01c4.62-2.18,8.3-5.39,11.1-9.68
			c-1.44-0.62-2.86-1.17-4.28-1.63c-0.15,0.15-0.26,0.31-0.41,0.4c-0.27,0.17-0.42,0.38-0.48,0.69c-0.06,0.3-0.19,0.58-0.44,0.78
			c-0.06,0.05-0.12,0.12-0.16,0.2c-0.16,0.34-0.42,0.59-0.66,0.86c-0.24,0.26-0.5,0.47-0.85,0.53c-0.57,0.11-1.14,0.22-1.71,0.3
			c-0.62,0.08-0.71-0.24-0.79-0.67c-0.01-0.07,0-0.15,0-0.22c0.01-0.27-0.1-0.49-0.2-0.76c-0.4,0.99-0.78,1.93-1.18,2.86
			c-0.41,0.94-0.88,1.85-1.46,2.8c-0.11-0.14-0.18-0.24-0.26-0.33c-0.08-0.1-0.18-0.19-0.26-0.28c0.04-0.07,0.06-0.12,0.08-0.16
			c1-1.73,1.78-3.55,2.41-5.45c0.06-0.19,0.07-0.36,0.04-0.56c-0.07-0.43-0.09-0.86-0.14-1.29c-0.02-0.14-0.05-0.29-0.11-0.41
			c-0.15-0.3-0.32-0.59-0.47-0.9c-0.07-0.16-0.16-0.25-0.34-0.28c-0.53-0.08-1.05-0.17-1.58-0.26c-0.28-0.05-0.57-0.09-0.88-0.14
			c0.11-0.26,0.2-0.48,0.3-0.71c0.76,0.12,1.49,0.23,2.23,0.35c0.08-0.27,0.16-0.5,0.21-0.74c0.05-0.25,0.14-0.48,0.31-0.68
			c0.09-0.1,0.15-0.27,0.13-0.4c-0.08-0.5-0.19-0.99-0.31-1.48c-0.03-0.13-0.15-0.23-0.17-0.36c-0.05-0.43-0.31-0.73-0.56-1.04
			c-0.1-0.12-0.21-0.24-0.29-0.38c-0.07-0.13-0.16-0.3-0.15-0.44c0.03-0.33,0.11-0.67,0.19-1c0.12-0.49-0.05-0.73-0.56-0.77
			C53.12,32,53.01,32,52.9,31.99c-0.12-1.04-0.3-2.04-0.59-3.02c-0.34-1.16-0.8-2.26-1.38-3.32c-0.23-0.42-0.48-0.53-0.96-0.45
			c-0.03,0.01-0.07,0-0.1,0c-0.01-0.04-0.02-0.08-0.02-0.11c-0.06-1.21-0.32-2.38-0.77-3.5c-0.02-0.04-0.04-0.09-0.05-0.14
			c-0.04-0.18,0.08-0.3,0.18-0.41c0.09-0.11,0.2-0.07,0.33-0.03c0.52,0.17,0.99,0.05,1.45-0.22c0.11-0.07,0.23-0.15,0.35-0.15
			c0.45-0.01,0.87-0.25,1.33-0.1c0.02,0.01,0.05-0.01,0.07-0.02c0.39-0.05,0.78-0.12,1.18-0.15c0.27-0.02,0.37,0.09,0.36,0.37
			c-0.01,0.19-0.03,0.38-0.07,0.57c-0.06,0.25-0.04,0.37,0.19,0.48c0.17,0.08,0.37,0.13,0.55,0.14c0.29,0.02,0.56,0.03,0.68,0.37
			c0.02,0.06,0.1,0.13,0.16,0.14c0.29,0.03,0.53,0.15,0.77,0.29c0.16,0.1,0.29-0.02,0.3-0.22c0-0.1-0.01-0.23,0.04-0.31
			c0.1-0.14,0.08-0.27,0.05-0.41c-0.16-0.85-0.3-1.7-0.48-2.54c-0.16-0.72-0.03-0.85-0.97-0.61c-0.01,0-0.02,0.04-0.03,0.05
			c0.26,0.17,0.53,0.34,0.79,0.52c0.11,0.08,0.22,0.17,0.09,0.33c-0.13-0.03-0.24-0.05-0.45-0.09c0.14,0.3,0.11,0.55-0.08,0.68
			c-0.2,0.14-0.33,0.29-0.41,0.54c-0.29-0.13-0.57-0.2-0.82-0.48c0.14-0.04,0.21-0.07,0.28-0.08c0.13-0.01,0.27,0,0.4-0.02
			c0.35-0.05,0.44-0.27,0.2-0.52c-0.13-0.14-0.29-0.25-0.45-0.36c-0.13-0.09-0.28-0.15-0.41-0.24c-0.13-0.1-0.25-0.11-0.4-0.09
			c-0.87,0.14-1.75,0.27-2.62,0.4c-0.23,0.03-0.49,0.29-0.53,0.52c-0.1,0.6-0.43,0.9-1.04,0.94c-0.1,0.01-0.19,0.03-0.28,0.06
			c-0.17,0.06-0.34,0.05-0.48-0.07c-0.15-0.12-0.31-0.18-0.5-0.18c-0.07,0-0.17-0.05-0.21-0.11c-0.15-0.24-0.27-0.5-0.23-0.8
			c-0.31-0.04-0.56-0.33-0.68-0.73c0.15-0.02,0.29-0.03,0.43-0.05c0.15-0.02,0.3-0.03,0.45-0.05c0.02-0.52,0.15-0.65,0.64-0.64
			c0.28,0.01,0.56,0.03,0.84,0.05c0.16,0.01,0.32,0.03,0.47,0.02c0.07,0,0.17-0.05,0.2-0.11c0.21-0.35,0.17-0.73-0.12-1.03
			c-0.12-0.12-0.29-0.22-0.45-0.28c-0.16-0.07-0.27-0.14-0.24-0.37c0.13-0.03,0.25-0.07,0.38-0.08c0.18-0.01,0.32-0.05,0.45-0.19
			c0.06-0.06,0.2-0.09,0.29-0.07c0.26,0.07,0.44-0.06,0.62-0.21c0.14-0.12,0.27-0.24,0.41-0.35c0.12-0.1,0.27-0.18,0.36-0.3
			c0.16-0.21,0.36-0.36,0.61-0.44c0.28-0.09,0.47-0.24,0.4-0.58c-0.02-0.1,0-0.23,0.05-0.32c0.08-0.13,0.18-0.26,0.3-0.34
			c0.14-0.1,0.26-0.03,0.27,0.15c0.01,0.14-0.01,0.29-0.03,0.43c-0.04,0.28,0.15,0.48,0.39,0.38c0.27-0.11,0.49-0.07,0.74,0.09
			c-0.04-0.13-0.08-0.25-0.12-0.37c-0.25,0.03-0.46,0.06-0.67,0.08c-0.15-0.32,0.25-0.31,0.26-0.57c-0.12-0.15-0.26-0.35-0.43-0.52
			c-0.19-0.2-0.23-0.19-0.46-0.03c-0.07,0.05-0.14,0.1-0.22,0.13c-0.33,0.13-0.58,0.02-0.68-0.31c-0.06-0.21-0.11-0.42-0.14-0.64
			c-0.04-0.3,0.01-0.34,0.28-0.47c0.29-0.14,0.57-0.31,0.87-0.47c-0.34-0.61-0.65-1.21-0.99-1.78c-0.93-1.56-2.02-3-3.4-4.19
			c-1.23-1.05-2.6-1.83-4.21-2.12c-0.27-0.05-0.54-0.12-0.81-0.07c-0.07,0.41-0.06,2.6,0.01,2.87c0.46,0,0.92,0.05,1.37-0.01
			c0.65-0.09,1.28-0.08,1.91,0.07c0.58,0.14,1.15,0.3,1.76,0.24c0.09-0.01,0.19,0.05,0.32,0.09c-0.17,0.22-0.37,0.22-0.55,0.27
			c-0.31,0.1-0.62,0.21-0.92,0.33c-0.08,0.03-0.18,0.14-0.17,0.2c0.01,0.24-0.14,0.4-0.22,0.6c-0.13,0.35-0.38,0.59-0.72,0.73
			c-0.33,0.14-0.36,0.19-0.32,0.54c0.04,0.31-0.05,0.41-0.34,0.51C46.34,9.81,46.17,9.88,46,9.93c-0.28,0.09-0.55,0.17-0.83,0.24
			c-0.27,0.07-0.54,0.11-0.85,0.17c0,1.05,0,2.09,0,3.2c-0.23-0.24-0.4-0.44-0.58-0.61c-0.12-0.12-0.17-0.25-0.17-0.42
			c0.01-0.47,0-0.95,0-1.42c0-0.09-0.02-0.18-0.03-0.28c-0.21,0.05-0.38,0.1-0.56,0.14c-0.19,0.03-0.39,0.03-0.58,0.08
			c-0.16,0.04-0.31,0.12-0.44,0.23c-0.1,0.08-0.18,0.13-0.31,0.14c-0.48,0.05-0.75,0.34-0.71,0.83c0.01,0.22-0.06,0.35-0.23,0.45
			c-0.17,0.09-0.3,0.01-0.42-0.11c-0.13-0.13-0.27-0.21-0.46-0.16c-0.18,0.04-0.26-0.05-0.35-0.19c-0.32-0.52-0.3-1.09-0.28-1.66
			c0.01-0.26,0.21-0.43,0.45-0.52C39.78,10,39.9,9.97,40,9.93c0-0.05,0.01-0.08,0-0.1c-0.01-0.03-0.03-0.07-0.05-0.1
			c-0.21-0.3-0.33-0.58-0.17-0.97c0.15-0.35-0.06-0.64-0.44-0.73c-0.09-0.02-0.19-0.05-0.29-0.05c-0.29,0-0.58,0-0.87,0
			c-0.27,0-0.51-0.07-0.64-0.33c-0.1-0.19-0.03-0.34,0.17-0.38c0.22-0.05,0.46-0.06,0.68-0.09c0.29-0.04,0.58-0.03,0.8-0.28
			c0.04-0.05,0.13-0.05,0.2-0.07c0.39-0.08,0.78-0.18,1.17-0.25c0.58-0.1,1.17-0.21,1.76-0.19c0.4,0.01,0.82,0.01,1.21-0.1
			c0-1.01,0-2,0-3.05c-0.3,0.04-0.57,0.07-0.84,0.12c-1.27,0.23-2.4,0.77-3.43,1.52c-1.47,1.06-2.61,2.42-3.61,3.91
			c-0.03,0.05-0.05,0.11-0.09,0.2c0.14,0.06,0.27,0.12,0.4,0.17c0.14,0.06,0.3,0.1,0.43,0.19c0.1,0.07,0.22,0.2,0.22,0.31
			c0,0.31,0.15,0.48,0.39,0.64c0.27,0.18,0.27,0.42,0.03,0.63c-0.07,0.06-0.15,0.13-0.23,0.18c-0.23,0.16-0.3,0.16-0.5-0.05
			c-0.09-0.09-0.14-0.23-0.36-0.2c0.04,0.11,0.08,0.21,0.1,0.31c0.03,0.1,0.07,0.21,0.07,0.31c-0.02,0.24-0.72,0.75-0.94,0.68
			c-0.37-0.12-0.8-0.17-0.94-0.64c-0.01-0.02-0.05-0.03-0.11-0.06c-0.09,0.18-0.17,0.36-0.26,0.53c0.05,0.06,0.09,0.13,0.14,0.17
			c0.23,0.17,0.38,0.33,0.22,0.66c-0.09,0.18,0.09,0.36,0.3,0.32c0.1-0.02,0.2-0.07,0.29-0.13c0.2-0.13,0.4-0.26,0.6-0.4
			c0.28,0.17,0.38,0.43,0.4,0.71c0.02,0.17,0,0.34,0.01,0.51c0.01,0.23,0.09,0.42,0.33,0.52c0.06,0.02,0.14,0.06,0.18,0.11
			c0.2,0.3,0.35,0.6,0.15,0.97c-0.03,0.06-0.05,0.14-0.06,0.21c-0.05,0.24-0.02,0.31,0.2,0.45c0.05,0.03,0.1,0.06,0.1,0.07
			c0,0.26,0,0.47,0,0.68c0,0.22-0.09,0.32-0.31,0.3c-0.13-0.01-0.27-0.04-0.38-0.1c-0.19-0.11-0.38-0.12-0.6-0.1
			c-0.16,0.02-0.32-0.02-0.46-0.03c-0.14-0.42,0.42-0.53,0.31-0.93c-0.18,0.02-0.34,0.05-0.51,0.05c-0.18,0-0.36-0.05-0.54-0.03
			c-0.15,0.01-0.29,0.08-0.44,0.13c0.04,0.26-0.04,0.43-0.18,0.6c-0.26,0.32-0.15,0.59,0.26,0.69c0.05,0.01,0.1,0.01,0.14,0.02
			c0.11,0.02,0.22,0.06,0.21,0.2c-0.01,0.14-0.13,0.15-0.24,0.17c-0.23,0.05-0.47,0.1-0.7,0.15c2.58,0.54,5.19,0.83,7.85,0.97
			c-0.11,0.28-0.19,0.5-0.28,0.73c-3.12-0.15-6.17-0.57-9.22-1.21c-0.81,3.37-1.2,6.75-1.24,10.23c1.96,0,3.9,0,5.89,0
			c-0.12,0.29-0.22,0.52-0.32,0.76c-1.86,0-3.7,0-5.61,0c0.05,0.13,0.06,0.25,0.12,0.3c0.12,0.1,0.28,0.18,0.43,0.07
			c0.28-0.2,0.61-0.14,0.91-0.17c0.26-0.03,0.36,0.11,0.3,0.38c-0.05,0.19-0.01,0.36,0.17,0.43c0.26,0.11,0.42,0.31,0.57,0.54
			c0.15,0.22,0.36,0.36,0.64,0.36c0.5-0.01,0.95,0.12,1.31,0.51c0.13,0.14,0.24,0.27,0.26,0.46c0.02,0.18,0.03,0.36,0,0.54
			c-0.2,1.42-0.25,2.85-0.06,4.28c0.21,1.63,0.71,3.17,1.59,4.56c0.06,0.1,0.12,0.2,0.19,0.32c-0.09,0.07-0.16,0.13-0.23,0.19
			c-0.2,0.16-0.26,0.37-0.21,0.62c0.03,0.13,0.07,0.26,0.07,0.39c0,0.13-0.01,0.27-0.06,0.39c-0.1,0.21-0.21,0.45-0.38,0.61
			c-0.3,0.29-0.38,0.67-0.55,1.01c-0.1,0.19-0.2,0.4-0.36,0.54c-0.27,0.24-0.43,0.52-0.5,0.86c-0.04,0.22-0.15,0.38-0.35,0.48
			c-0.06,0.03-0.12,0.07-0.21,0.13c0.33,0.62,0.65,1.23,0.98,1.87c-0.17,0.18-0.34,0.36-0.54,0.58c-0.34-0.62-0.66-1.2-0.99-1.8
			c-0.07,0.1-0.15,0.16-0.16,0.23c-0.05,0.36-0.37,0.63-0.32,1.02c0.01,0.06-0.05,0.13-0.08,0.2c-0.13,0.29-0.1,0.4,0.14,0.59
			c0.28,0.22,0.28,0.31,0.09,0.59c-0.13,0.2-0.24,0.42-0.28,0.65c-0.02,0.12,0.11,0.27,0.18,0.42c-0.06,0.11-0.13,0.22-0.2,0.34
			c-0.19,0.31-0.51,0.39-0.8,0.17c-0.16-0.12-0.31-0.28-0.41-0.45c-0.28-0.5-0.64-0.98-0.69-1.59c-0.01-0.07-0.05-0.14-0.07-0.2
			c-0.05-0.17-0.12-0.34-0.15-0.52c-0.07-0.36-0.17-0.71-0.41-1c-0.18-0.21-0.26-0.46-0.31-0.73c-0.05-0.23-0.07-0.46-0.17-0.67
			c-0.12-0.26-0.14-0.51-0.08-0.78c0.14-0.63,0.09-1.25-0.1-1.86c-0.07-0.23-0.11-0.49-0.08-0.72c0.07-0.5-0.02-0.99-0.03-1.49
			c-0.01-0.37-0.05-0.75-0.07-1.15c-2.6,0.68-5.12,1.54-7.59,2.61c2.81,4.3,6.49,7.51,11.1,9.68c1.94-3.68,4.77-6.17,8.88-7.03
			c-0.06,0.07-0.14,0.13-0.22,0.17c-0.67,0.36-1.25,0.83-1.78,1.38c-0.55,0.58-1.02,1.24-1.42,1.93c-0.86,1.49-1.39,3.09-1.74,4.76
			c-0.01,0.04,0,0.09,0,0.16c0.23,0.06,0.45,0.12,0.69,0.19c0.35-1.65,0.83-3.22,1.66-4.65c0.54-0.07,4.01-0.04,4.3,0.04
			c0,1.79,0,3.59,0,5.42C43.8,55.64,44.17,55.64,44.6,55.64z M25.13,29.48c-0.06,0.46,0.31,0.86,0.74,0.86c0.36,0,0.36,0,0.25,0.36
			c0,0.01-0.01,0.02-0.01,0.04c-0.08,0.28-0.16,0.3-0.4,0.16c-0.31-0.18-0.69-0.27-0.9-0.61c-0.01-0.02-0.04-0.03-0.06-0.03
			c-0.31-0.1-0.47-0.33-0.5-0.65c0-0.04-0.05-0.08-0.07-0.12c-2.13,0-4.25,0-6.41,0c0.02,4.83,1.26,9.3,3.72,13.45
			c2.58-1.12,5.2-2.01,7.94-2.73c-0.09-0.14-0.14-0.26-0.22-0.35c-0.27-0.29-0.59-0.51-0.96-0.64c-0.43-0.15-0.71-0.45-0.9-0.85
			c-0.24-0.49-0.46-0.99-0.84-1.39c-0.06-0.06-0.1-0.14-0.12-0.22c-0.09-0.34-0.26-0.61-0.54-0.84c-0.31-0.26-0.33-0.66-0.1-1.01
			c0.1-0.16,0.13-0.3,0.05-0.48c-0.19-0.4-0.08-0.77,0.14-1.1c0.15-0.23,0.35-0.43,0.54-0.63c0.43-0.45,0.53-1.07,0.25-1.64
			c-0.08-0.15-0.16-0.3-0.22-0.45c-0.06-0.15,0.01-0.26,0.18-0.27c0.08-0.01,0.17,0.01,0.25,0.01c0.22-0.01,0.41-0.09,0.49-0.31
			c0.09-0.26,0.26-0.43,0.5-0.55C27,29.48,26.08,29.48,25.13,29.48z M70.17,29.49c-0.64-0.07-3.24-0.05-3.48,0.02
			c-0.04,0.26-0.02,0.53-0.12,0.75c-0.25,0.59-0.53,1.17-0.82,1.74c-0.17,0.34-0.42,0.63-0.76,0.81c-0.34,0.17-0.57,0.44-0.79,0.73
			c-0.15,0.19-0.27,0.42-0.45,0.57c-0.37,0.32-0.48,0.78-0.71,1.17c-0.02,0.04-0.03,0.1-0.02,0.14c0.04,0.42,0.09,0.84,0.14,1.26
			c0.01,0.09,0.06,0.19,0.12,0.26c0.2,0.25,0.21,0.53,0.18,0.83c-0.02,0.23-0.03,0.46-0.02,0.69c0.01,0.24-0.05,0.45-0.19,0.65
			c-0.18,0.27-0.43,0.46-0.72,0.59c-0.35,0.15-0.57,0.45-0.79,0.73c-0.25,0.3-0.1,0.66,0.27,0.79c0.56,0.19,1.12,0.39,1.68,0.59
			c0.1,0.03,0.2,0.06,0.33,0.1c-0.01-0.17-0.04-0.3-0.03-0.43c0.02-0.18,0.04-0.37,0.13-0.51c0.2-0.3,0.28-0.61,0.2-0.96
			c-0.02-0.07-0.02-0.14-0.03-0.22c-0.01-0.35,0.19-0.64,0.52-0.72c0.34-0.09,0.57-0.31,0.73-0.61c0.11-0.19,0.21-0.38,0.33-0.57
			c0.04-0.06,0.11-0.11,0.22-0.21c0.22,0.56,0.49,1.06,0.15,1.63c-0.06,0.1-0.08,0.23-0.12,0.34c-0.09,0.3-0.18,0.6-0.28,0.9
			c-0.21,0.6-0.44,1.2-0.67,1.82c0.42,0.18,0.84,0.35,1.28,0.53C68.91,38.77,70.14,34.31,70.17,29.49z M30.73,19.15
			c-0.02-0.03-0.05-0.05-0.07-0.08c-0.15,0.07-0.33,0.1-0.45,0.2c-0.48,0.43-0.96,0.86-1.18,1.49c-0.12,0.36-0.35,0.62-0.7,0.79
			c-0.35,0.17-0.67,0.39-0.99,0.61c-0.45,0.31-0.61,0.73-0.47,1.27c0.06,0.23,0.09,0.48,0.09,0.72c0,0.26-0.13,0.46-0.39,0.57
			c-0.05-0.04-0.11-0.07-0.14-0.12c-0.22-0.3-0.33-0.64-0.34-1.02c0-0.34-0.03-0.37-0.36-0.41c-0.08-0.01-0.19-0.02-0.23-0.08
			c-0.13-0.17-0.28-0.22-0.48-0.17c-0.17,0.05-0.4,0.06-0.5,0.18c-0.19,0.23-0.4,0.22-0.65,0.18c-0.18-0.03-0.36-0.07-0.54-0.09
			c-0.1-0.01-0.23-0.05-0.31,0c-0.36,0.18-0.7,0.38-1.05,0.58c-0.15,0.08-0.2,0.23-0.24,0.39c-0.05,0.22-0.1,0.45-0.19,0.66
			c-0.21,0.48-0.23,0.96-0.12,1.46c0.1,0.46,0.49,0.8,0.94,0.71c0.08-0.02,0.17-0.02,0.25-0.01c0.39,0.05,0.5-0.07,0.63-0.44
			c0.03-0.08,0.03-0.17,0.07-0.24c0.05-0.09,0.11-0.21,0.19-0.23c0.24-0.07,0.49-0.12,0.74-0.14c0.1-0.01,0.2,0.07,0.32,0.12
			c-0.21,0.49-0.41,0.93-0.6,1.37c-0.01,0.03-0.02,0.07-0.03,0.11c-0.05,0.28,0.05,0.41,0.34,0.41c0.13,0,0.27-0.02,0.4-0.02
			c0.5,0.02,0.68,0.22,0.66,0.72c0,0.01,0.01,0.02,0.03,0.05c1.4,0,2.81,0,4.25,0c0-0.5,0-0.98,0-1.49c-0.51,0.15-1,0.15-1.47-0.06
			c0-0.03-0.01-0.05-0.01-0.08c0.15-0.05,0.31-0.1,0.46-0.15c-0.04-0.11-0.07-0.21-0.11-0.35c0.22,0,0.42-0.02,0.6,0.01
			c0.19,0.03,0.38,0.1,0.59,0.16C29.86,24.13,30.19,21.63,30.73,19.15z M61.71,10.18c-3.91-3.53-8.36-5.72-13.48-6.55
			c2.82,1.77,4.64,4.38,6.15,7.27c0.08-0.07,0.13-0.11,0.19-0.16c0.37-0.33,0.73-0.68,1.11-0.99c0.13-0.11,0.32-0.16,0.48-0.22
			c0.18-0.07,0.36-0.12,0.54-0.17c0.06-0.02,0.11-0.05,0.17-0.05c0.72,0,1.46-0.07,2.13,0.3c0.18,0.1,0.39,0.14,0.58,0.2
			c0.41,0.12,0.81,0.24,1.22,0.35c0.19,0.05,0.37,0.1,0.57,0.13C61.45,10.29,61.54,10.23,61.71,10.18z M39.72,3.63
			C37.2,4,34.82,4.76,32.54,5.87c-2.24,1.1-5.75,3.53-6.21,4.32c0.12-0.02,0.23-0.02,0.34-0.04c0.27-0.05,0.55-0.1,0.82-0.16
			c0.17-0.04,0.32-0.01,0.44,0.1c0.17,0.16,0.36,0.15,0.57,0.16c0.49,0.01,0.97-0.22,1.47-0.09c0.21,0.05,0.33-0.11,0.3-0.33
			c-0.03-0.19,0.03-0.35,0.19-0.44c0.19-0.12,0.41-0.21,0.62-0.29c0.13-0.05,0.23,0.02,0.28,0.16c0.04,0.14,0.08,0.28,0.14,0.41
			c0.09,0.19,0.24,0.25,0.42,0.18c0.17-0.07,0.25-0.18,0.18-0.37c-0.05-0.13-0.05-0.26,0.07-0.37c0.33-0.31,0.67-0.57,1.18-0.55
			c0.54,0.02,1.08-0.04,1.62-0.07C36.23,6.55,37.74,4.86,39.72,3.63z M33.3,11.46c-0.2-0.2-0.19-0.33,0.02-0.45
			c0.08-0.05,0.21-0.06,0.25-0.12c0.2-0.35,0.39-0.71,0.58-1.09c-0.38-0.1-0.65-0.08-0.86,0.25c-0.17,0.26-0.37,0.51-0.67,0.65
			c-0.17,0.08-0.35,0.15-0.56,0.24c0.02,0.1,0.03,0.2,0.07,0.3c0.04,0.1,0.11,0.18,0.2,0.33c-0.15,0.02-0.27,0.08-0.33,0.04
			c-0.21-0.13-0.39-0.07-0.57,0.05c-0.18,0.12-0.34,0.11-0.53-0.01c-0.25-0.16-0.54-0.17-0.78,0.03c-0.21,0.18-0.45,0.27-0.72,0.32
			c-0.49,0.1-0.88,0.4-1.25,0.72c-0.12,0.1-0.17,0.23-0.07,0.39c0.03,0.05,0.05,0.11,0.05,0.17c0.01,0.19,0.13,0.26,0.29,0.33
			c0.19,0.08,0.37,0.19,0.53,0.31c0.23,0.18,0.46,0.3,0.75,0.32c0.15,0.01,0.29,0.06,0.47,0.1c-0.12,0.23-0.22,0.41-0.32,0.59
			c-0.08,0.14-0.09,0.28-0.01,0.41c0.04,0.06,0.13,0.11,0.2,0.12c0.18,0,0.39-0.18,0.44-0.36c0.04-0.12,0.1-0.23,0.1-0.35
			c0-0.29,0.19-0.39,0.41-0.48c0.19-0.07,0.39-0.15,0.55-0.27c0.34-0.24,0.38-0.41,0.2-0.79c-0.01-0.02,0-0.05,0-0.08
			c0.03-0.03,0.06-0.07,0.1-0.09c0.26-0.09,0.41-0.25,0.46-0.55c0.03-0.19,0.16-0.39,0.31-0.52c0.12-0.11,0.33-0.11,0.52-0.17
			C33.18,11.7,33.23,11.59,33.3,11.46z M57.53,20.78c0.05,0.3,0.13,0.59,0.14,0.87c0.01,0.28,0.16,0.42,0.4,0.49
			c0.44,0.13,0.88,0.25,1.32,0.38c0.16,0.05,0.3,0.05,0.45-0.05c0.23-0.16,0.45-0.11,0.68,0.02c0.43,0.24,0.49,0.68,0.55,1.09
			c0.04,0.26,0.09,0.49,0.22,0.72c0.09,0.16,0.15,0.33,0.24,0.49c0.13,0.24,0.26,0.49,0.43,0.71c0.18,0.23,0.3,0.47,0.33,0.75
			c0.03,0.29,0.15,0.54,0.34,0.75c0.18,0.2,0.29,0.41,0.31,0.68c0.02,0.26,0.18,0.41,0.39,0.53c0.15,0.09,0.3,0.2,0.42,0.33
			c0.14,0.15,0.29,0.19,0.5,0.08c-0.26-0.56-0.51-1.11-0.77-1.66c-0.07-0.15-0.17-0.32-0.3-0.4c-0.3-0.19-0.4-0.46-0.46-0.78
			c-0.03-0.17-0.1-0.37-0.21-0.49c-0.26-0.26-0.4-0.6-0.62-0.88c-0.32-0.42-0.53-0.9-0.72-1.38c-0.09-0.22-0.09-0.44,0-0.67
			c0.11-0.31,0.2-0.62,0.29-0.94c0.03-0.12,0.03-0.26,0.01-0.39c-0.04-0.29-0.2-0.38-0.46-0.25c-0.23,0.12-0.43,0.1-0.66,0.01
			c-0.13-0.05-0.29-0.09-0.42-0.05c-0.4,0.11-0.71-0.13-1.06-0.22c-0.06-0.01-0.12-0.1-0.14-0.16c-0.06-0.18-0.11-0.37-0.15-0.55
			c-0.03-0.12-0.02-0.24-0.05-0.36c-0.05-0.16-0.24-0.25-0.38-0.21c-0.17,0.05-0.22,0.18-0.23,0.33c0,0.09,0.04,0.19,0.05,0.28
			C58.01,20.23,57.83,20.63,57.53,20.78z M66.49,24.92c0.4,0.09,0.72,0.12,0.98-0.2c0.18-0.21,0.34-0.19,0.52,0.01
			c0.03,0.04,0.06,0.07,0.09,0.11c0.1,0.16,0.22,0.26,0.43,0.29c0.26,0.03,0.39,0.29,0.49,0.5c0.05,0.11-0.02,0.3-0.08,0.44
			c-0.08,0.2-0.23,0.37-0.3,0.58c-0.09,0.24-0.23,0.43-0.44,0.56c-0.29,0.18-0.59,0.34-0.87,0.53c-0.14,0.09-0.28,0.19-0.39,0.31
			c-0.12,0.13-0.24,0.22-0.41,0.27c-0.23,0.08-0.46,0.19-0.74,0.31c0.36,0.1,4.01,0.1,4.37,0.02c-0.03-1.3-0.16-2.59-0.4-3.85
			c-0.37-0.06-0.7-0.13-1.04-0.17c-0.34-0.04-0.61-0.15-0.73-0.49c-0.01-0.02-0.04-0.02-0.08-0.04c-0.41,0.26-0.8,0.12-1.18-0.13
			c-0.05-0.03-0.1-0.07-0.15-0.09c-0.21-0.09-0.34-0.24-0.42-0.47c-0.05-0.15-0.18-0.28-0.32-0.37c-0.07-0.05-0.24-0.02-0.33,0.03
			c-0.12,0.07-0.1,0.21-0.05,0.33c0.12,0.28,0.3,0.5,0.57,0.64C66.37,24.21,66.63,24.44,66.49,24.92z M18.19,24.78
			c-0.23,1.34-0.38,2.6-0.39,3.88c0.58,0.08,4.6,0.05,4.86-0.03c-0.15-0.17-0.3-0.34-0.45-0.51c-0.15-0.17-0.33-0.23-0.55-0.14
			c-0.24,0.1-0.46,0.05-0.7-0.03c-0.71-0.26-1.36-0.62-1.95-1.09c-0.22-0.17-0.29-0.37-0.21-0.64c0.04-0.14,0.09-0.31,0.04-0.42
			C18.67,25.47,18.52,25.12,18.19,24.78z M57.39,11.13c-0.01-0.03-0.03-0.06-0.04-0.08c-0.24-0.03-0.52-0.12-0.67,0.17
			c-0.15,0.27-0.38,0.43-0.63,0.58c-0.38,0.21-0.4,0.39-0.1,0.71c0.28,0.29,0.27,0.44-0.08,0.65c-0.14,0.08-0.2,0.18-0.23,0.33
			c-0.07,0.34,0.13,0.6,0.21,0.89c0.57,0.09,0.79,0,0.89-0.57c0.04-0.24,0.19-0.35,0.41-0.4c0.14-0.03,0.22-0.13,0.2-0.26
			c-0.02-0.11-0.08-0.22-0.16-0.3c-0.06-0.06-0.18-0.07-0.26-0.12c-0.47-0.27-0.49-0.88-0.05-1.18
			C57.06,11.41,57.22,11.27,57.39,11.13z M65.52,29.48c-0.43,0-0.78,0-1.15,0C64.61,29.76,64.85,29.77,65.52,29.48z M55.24,17.9
			c-0.13-0.16-0.23-0.28-0.41-0.23c-0.14,0.04-0.15,0.16-0.1,0.32C54.89,17.96,55.05,17.93,55.24,17.9z M53.82,18.15
			c-0.18-0.13-0.27-0.07-0.41,0.09C53.58,18.2,53.67,18.18,53.82,18.15z M34.86,10.21c-0.05,0.06-0.1,0.09-0.13,0.14
			c-0.03,0.04-0.04,0.1-0.07,0.19C34.86,10.4,34.86,10.4,34.86,10.21z"/>
		<path class="st0" d="M66.41,61.47c-0.2,0.21-0.38,0.42-0.59,0.6c-1.33,1.19-2.84,2.06-4.59,2.48c-1.87,0.44-3.71,0.24-5.51-0.4
			c-1.77-0.63-3.33-1.62-4.79-2.79c-0.28-0.23-0.56-0.46-0.85-0.69c-1.19-0.92-2.54-1.21-4.01-1.01c-0.11,0.02-0.22,0.07-0.4,0.14
			c0.17,0.12,0.28,0.19,0.39,0.26c1.37,0.9,2.75,1.78,4.1,2.7c1.29,0.89,2.44,1.95,3.51,3.1c0.07,0.07,0.12,0.15,0.21,0.25
			c-0.46,0.42-0.91,0.84-1.36,1.25c-0.25-0.25-0.5-0.47-0.72-0.71c-1.29-1.4-2.61-2.78-4.08-3.99c-0.76-0.63-1.54-1.22-2.39-1.72
			c-0.2-0.12-0.39-0.25-0.58-0.38c-0.43-0.29-0.85-0.3-1.3-0.03c-2.91,1.77-5.49,3.91-7.51,6.68c-0.06,0.09-0.13,0.17-0.23,0.3
			c-0.48-0.42-0.95-0.84-1.44-1.28c2.35-2.66,5.14-4.7,8.26-6.37c-0.6-0.37-1.2-0.4-1.81-0.31c-0.88,0.13-1.67,0.51-2.39,1.02
			c-0.57,0.41-1.13,0.83-1.7,1.25c-0.6,0.43-1.19,0.87-1.8,1.29c-1.33,0.91-2.78,1.55-4.38,1.78c-2.55,0.37-4.9-0.18-7.02-1.64
			c-0.51-0.35-0.97-0.77-1.44-1.16c-0.11-0.09-0.2-0.2-0.31-0.33c0.16-0.09,0.27,0,0.37,0.04c0.63,0.21,1.25,0.46,1.9,0.62
			c2.16,0.56,4.26,0.31,6.3-0.55c1-0.43,1.98-0.93,2.97-1.38c1.38-0.63,2.79-1.19,4.28-1.51c1.82-0.4,3.63-0.41,5.44,0.02
			c0.15,0.04,0.3,0.08,0.45,0.15c0.42,0.18,0.85,0.19,1.27,0.02c1.42-0.55,2.89-0.56,4.37-0.48c2.16,0.12,4.16,0.76,6.08,1.73
			c1.25,0.63,2.53,1.16,3.86,1.59c2.38,0.77,4.68,0.58,6.93-0.49C66.05,61.47,66.19,61.35,66.41,61.47z"/>
		<path class="st0" d="M65.54,54.52c0.22-0.02,0.4-0.13,0.58-0.27c0.12-0.09,0.23-0.19,0.33-0.29c0.98-1.02,2.12-1.85,3.35-2.54
			c1.39-0.79,2.8-1.55,4.19-2.34c1.52-0.86,2.83-1.96,3.84-3.39c0.09-0.13,0.18-0.26,0.26-0.39c0.08-0.13,0.16-0.26,0.24-0.39
			c0.18,0.09,0.11,0.22,0.09,0.32c-0.14,0.64-0.36,1.26-0.66,1.85c-1.74,3.51-4.37,6.07-7.98,7.62c-0.78,0.33-1.6,0.49-2.41,0.67
			c-1.44,0.32-2.89,0.64-4.33,0.95c-0.09,0.02-0.19,0.02-0.29,0.04c0-0.04,0-0.07,0.01-0.08c1.16-1.25,1.96-2.71,2.52-4.3
			c0.46-1.3,0.87-2.62,1.3-3.94c0.11-0.35,0.24-0.69,0.34-1.03c0.36-1.17,0.89-2.26,1.54-3.28c0.45-0.7,0.92-1.4,1.38-2.1
			c0.04-0.07,0.1-0.12,0.15-0.18c0.18,0.05,0.11,0.16,0.09,0.24c-0.17,0.93-0.37,1.85-0.52,2.78c-0.16,0.96-0.28,1.92-0.42,2.88
			c-0.37,2.53-1.43,4.71-3.2,6.56c-0.17,0.17-0.31,0.36-0.47,0.55C65.5,54.47,65.52,54.49,65.54,54.52z"/>
		<path class="st0" d="M9.61,45.49c0.38,0.7,0.87,1.34,1.43,1.91c0.69,0.71,1.47,1.31,2.33,1.79c1.12,0.63,2.25,1.24,3.39,1.83
			c1.54,0.81,2.99,1.74,4.3,2.9c0.44,0.39,0.95,0.7,1.47,1.09c0.02-0.13,0.06-0.21,0.04-0.25c-0.07-0.11-0.16-0.22-0.25-0.3
			c-1.97-1.75-3.05-3.98-3.49-6.54c-0.32-1.87-0.63-3.75-0.94-5.63c-0.02-0.12-0.03-0.24-0.06-0.44c0.11,0.13,0.18,0.2,0.23,0.27
			c1.69,2.21,2.91,4.66,3.67,7.34c0.32,1.14,0.74,2.26,1.16,3.36c0.46,1.19,1.12,2.29,1.95,3.26c0.12,0.14,0.22,0.28,0.3,0.48
			c-0.16-0.03-0.32-0.05-0.48-0.08c-1.68-0.32-3.35-0.65-5.03-0.97c-1.34-0.26-2.57-0.78-3.71-1.53c-2.49-1.64-4.47-3.75-5.76-6.47
			c-0.27-0.57-0.46-1.17-0.69-1.76C9.43,45.63,9.41,45.52,9.61,45.49z"/>
		<path class="st0" d="M15.11,33.74c0.05,0.11,0.09,0.18,0.11,0.26c0.41,1.45,0.7,2.92,0.84,4.42c0.22,2.22,0.47,4.43,0.73,6.65
			c0.07,0.65,0.17,1.3,0.29,1.94c0.09,0.45,0.22,0.89,0.37,1.33c0.21,0.58,0.46,1.15,0.69,1.72c0.01,0.03,0.01,0.07,0.02,0.11
			c-0.12,0.12-0.2,0-0.28-0.06c-0.5-0.34-1.01-0.67-1.51-1.02c-1.31-0.94-2.64-1.85-3.92-2.83c-1.37-1.04-2.57-2.25-3.55-3.68
			C7.7,40.8,7,38.85,6.86,36.71C6.83,36.17,6.8,35.63,6.77,35c0.08,0.09,0.11,0.11,0.12,0.14c0.47,1.39,1.25,2.6,2.2,3.7
			c0.88,1.02,1.78,2.02,2.68,3.02c0.94,1.05,1.79,2.17,2.52,3.37c0.23,0.37,0.46,0.74,0.71,1.1c0.14,0.21,0.32,0.39,0.53,0.65
			c0.02-0.14,0.06-0.2,0.04-0.25c-0.06-0.16-0.13-0.31-0.22-0.46c-0.86-1.5-1.23-3.12-1.28-4.83c-0.03-1.25,0.19-2.46,0.41-3.68
			c0.15-0.82,0.31-1.64,0.43-2.47c0.06-0.39,0.05-0.8,0.07-1.2C14.98,33.99,14.94,33.86,15.11,33.74z"/>
		<path class="st0" d="M72.39,46.52c0.2-0.13,0.34-0.29,0.45-0.47c0.37-0.56,0.75-1.11,1.09-1.68c1.01-1.68,2.25-3.19,3.62-4.59
			c0.98-1,1.88-2.07,2.52-3.32c0.3-0.58,0.53-1.2,0.79-1.8c0.07-0.15,0.13-0.31,0.19-0.46c0.03,0,0.05,0,0.08,0
			c0.01,0.15,0.02,0.29,0.02,0.44c0.05,2.68-0.73,5.11-2.18,7.35c-1.2,1.86-2.77,3.36-4.57,4.64c-1.36,0.97-2.73,1.94-4.09,2.91
			c-0.12,0.08-0.24,0.15-0.42,0.26c0.02-0.13,0.03-0.21,0.05-0.28c0.05-0.15,0.1-0.3,0.16-0.45c0.6-1.46,0.85-3,1.06-4.56
			c0.23-1.66,0.34-3.33,0.46-5c0.12-1.62,0.28-3.24,0.71-4.81c0.13-0.46,0.3-0.91,0.46-1.39c0.06,0.05,0.09,0.06,0.09,0.08
			c-0.01,1.38,0.24,2.73,0.51,4.07c0.25,1.26,0.44,2.53,0.39,3.83c-0.07,1.66-0.47,3.23-1.27,4.69
			C72.36,46.27,72.36,46.27,72.39,46.52z"/>
		<path class="st0" d="M57.55,58.37c0.13,0,0.23,0.01,0.33,0c0.58-0.1,1.17-0.19,1.75-0.31c1.19-0.24,2.39-0.39,3.6-0.5
			c1.76-0.16,3.52-0.33,5.26-0.71c1.53-0.33,2.87-1.02,4.01-2.1c0.04-0.04,0.09-0.07,0.17-0.06c-0.11,0.21-0.22,0.42-0.34,0.62
			c-0.38,0.63-0.85,1.18-1.38,1.68c-1.54,1.48-3.28,2.6-5.37,3.14c-1.66,0.43-3.33,0.46-5,0.09c-2.36-0.53-4.73-1.06-7.09-1.59
			c-0.03-0.01-0.06-0.03-0.14-0.07c0.1-0.05,0.18-0.09,0.26-0.12c0.57-0.21,1.14-0.41,1.71-0.62c1.29-0.47,2.37-1.24,3.33-2.22
			c1.62-1.66,3.25-3.31,4.87-4.95c0.41-0.41,0.86-0.77,1.41-1.08c-0.02,0.09-0.02,0.14-0.04,0.18c-0.75,1.55-1.52,3.09-2.25,4.65
			c-0.78,1.65-2.08,2.71-3.77,3.32c-0.32,0.11-0.64,0.22-0.96,0.34C57.76,58.1,57.61,58.15,57.55,58.37z"/>
		<path class="st0" d="M34.66,58.72c-0.46,0.11-0.92,0.22-1.37,0.34c-1.49,0.39-2.97,0.8-4.47,1.16c-1.31,0.32-2.64,0.51-4,0.49
			c-2.02-0.04-3.9-0.58-5.61-1.66c-1.42-0.89-2.65-1.99-3.56-3.43c-0.06-0.1-0.12-0.21-0.18-0.31c-0.01-0.02-0.01-0.05-0.03-0.14
			c0.15,0.1,0.27,0.17,0.37,0.26c1.31,1.1,2.84,1.71,4.52,1.93c1.2,0.15,2.41,0.25,3.62,0.35c1.39,0.11,2.77,0.32,4.14,0.55
			c0.68,0.12,1.36,0.21,2.05,0.31c0.14,0.02,0.28,0.02,0.47,0.03c-0.16-0.3-0.39-0.38-0.63-0.45c-0.39-0.11-0.77-0.2-1.15-0.34
			c-1.2-0.43-2.19-1.16-2.87-2.25c-0.56-0.9-1.08-1.84-1.58-2.78c-0.33-0.61-0.59-1.25-0.88-1.88c-0.09-0.2-0.21-0.41-0.12-0.67
			c0.26,0.02,0.42,0.18,0.59,0.33c0.97,0.91,1.95,1.82,2.91,2.75c0.61,0.59,1.22,1.19,1.78,1.82c1.51,1.71,3.41,2.77,5.58,3.39
			c0.15,0.04,0.29,0.09,0.44,0.14C34.66,58.68,34.66,58.7,34.66,58.72z"/>
		<path class="st0" d="M80.33,22.53c0.29,0.61,0.42,1.25,0.51,1.9c0.2,1.37,0.26,2.75,0.15,4.14c-0.18,2.09-0.73,4.08-1.67,5.95
			c-0.21,0.41-0.46,0.8-0.73,1.17c-1.01,1.44-2.04,2.86-3.07,4.29c-0.09,0.12-0.19,0.24-0.34,0.42c-0.01-0.16-0.02-0.23-0.02-0.31
			c0.02-0.56,0.06-1.11,0.08-1.67c0.02-1-0.14-1.98-0.45-2.93c-0.85-2.63-1.54-5.31-1.99-8.04c-0.15-0.9-0.22-1.8-0.32-2.71
			c-0.03-0.22-0.04-0.44-0.06-0.66c0.03-0.01,0.05-0.01,0.08-0.02c0.04,0.05,0.1,0.09,0.12,0.15c0.43,1.25,1.12,2.36,1.73,3.52
			c0.54,1,1.05,2.02,1.52,3.06c0.78,1.74,0.87,3.56,0.45,5.41c-0.06,0.27-0.16,0.55-0.09,0.9c0.08-0.08,0.14-0.11,0.16-0.17
			c0.09-0.22,0.19-0.45,0.24-0.68c0.22-0.98,0.41-1.97,0.62-2.95c0.29-1.35,0.79-2.62,1.31-3.89c0.29-0.71,0.58-1.42,0.85-2.13
			c0.52-1.36,0.78-2.77,0.86-4.22C80.28,22.88,80.31,22.71,80.33,22.53z"/>
		<path class="st0" d="M11.6,37.61c0.13-0.16,0.11-0.33,0.07-0.49c-0.64-2.28-0.27-4.47,0.63-6.6c0.18-0.42,0.37-0.84,0.59-1.25
			c0.71-1.37,1.43-2.73,2.14-4.09c0.04-0.08,0.09-0.15,0.19-0.31c0,0.34,0.01,0.58,0,0.83c-0.13,2.64-0.69,5.21-1.39,7.75
			c-0.31,1.15-0.64,2.29-0.92,3.44c-0.29,1.18-0.33,2.37-0.16,3.57c0.01,0.08,0.02,0.17,0.02,0.25c0,0.04-0.01,0.09-0.03,0.19
			c-0.08-0.09-0.14-0.14-0.19-0.2c-0.98-1.32-1.96-2.66-2.95-3.97c-1.13-1.51-1.86-3.2-2.29-5.03c-0.4-1.7-0.6-3.41-0.5-5.16
			c0.06-1.12,0.23-2.22,0.54-3.29c0.02-0.09,0.06-0.17,0.12-0.32c0.03,0.1,0.04,0.13,0.04,0.15c-0.09,1.71,0.32,3.32,0.96,4.88
			c0.47,1.14,0.97,2.27,1.4,3.43c0.6,1.62,1,3.29,1.29,4.99C11.25,36.82,11.38,37.22,11.6,37.61z"/>
		<path class="st0" d="M76.58,11.98c0.3,0.46,0.61,0.9,0.88,1.37c0.91,1.55,1.43,3.23,1.66,5c0.32,2.52-0.07,4.94-0.96,7.31
			c-0.36,0.96-0.59,1.97-0.87,2.96c-0.12,0.43-0.22,0.86-0.35,1.34c-0.04-0.09-0.07-0.12-0.08-0.16c-0.36-1.56-1.06-2.96-1.95-4.28
			c-0.5-0.75-1.03-1.47-1.55-2.2c-1.17-1.64-2.15-3.37-2.74-5.31c-0.08-0.28-0.16-0.56-0.23-0.84c-0.03-0.11-0.03-0.23,0.01-0.37
			c0.32,0.31,0.64,0.62,0.96,0.93c0.9,0.88,1.81,1.76,2.71,2.64c1.3,1.26,2.08,2.78,2.4,4.55c0.07,0.39,0.14,0.78,0.21,1.23
			c0.2-0.22,0.21-0.43,0.2-0.65c-0.09-1.42-0.23-2.83-0.17-4.25c0.05-1.15,0.14-2.3,0.19-3.45c0.05-1.04,0.08-2.08,0.08-3.13
			c0-0.8-0.16-1.59-0.41-2.36c-0.03-0.1-0.07-0.2-0.1-0.3C76.52,12,76.55,11.99,76.58,11.98z"/>
		<path class="st0" d="M11.12,26.48c0.04-0.15,0.09-0.29,0.1-0.44c0.13-1.53,0.71-2.88,1.58-4.13c0.53-0.76,1.15-1.44,1.79-2.1
			c0.81-0.83,1.63-1.67,2.44-2.5c0.06-0.07,0.14-0.12,0.27-0.15c-0.14,0.56-0.26,1.13-0.42,1.68c-0.39,1.34-0.97,2.59-1.74,3.75
			c-0.63,0.95-1.25,1.91-1.88,2.86c-0.93,1.41-1.74,2.89-2.21,4.53c-0.01,0.03-0.04,0.06-0.07,0.12c-0.03-0.05-0.05-0.09-0.06-0.12
			c-0.61-1.84-1.25-3.67-1.83-5.52c-0.49-1.55-0.7-3.14-0.63-4.77c0.1-2.28,0.79-4.38,1.96-6.32c0.12-0.2,0.25-0.39,0.38-0.58
			c0.02-0.03,0.06-0.04,0.13-0.09c-0.06,0.38-0.11,0.72-0.18,1.06c-0.18,0.88-0.33,1.77-0.24,2.67c0.07,0.7,0.15,1.4,0.24,2.09
			c0.24,1.9,0.39,3.81,0.25,5.73c-0.04,0.48-0.06,0.97-0.07,1.45c0,0.26,0.05,0.53,0.08,0.79C11.05,26.47,11.09,26.47,11.12,26.48z"
			/>
		<path class="st0" d="M16.56,6.86c-0.07,0.1-0.13,0.2-0.21,0.29c-0.86,0.99-1.33,2.16-1.62,3.42c-0.35,1.51-0.66,3.03-1.02,4.54
			c-0.17,0.69-0.42,1.36-0.63,2.05c-0.06,0.19-0.16,0.38-0.02,0.64c0.07-0.11,0.14-0.19,0.18-0.27c0.72-1.7,1.92-3.01,3.34-4.15
			c0.95-0.76,1.87-1.55,2.77-2.36c0.35-0.31,0.61-0.72,0.91-1.09c0.08-0.1,0.16-0.2,0.26-0.29c-0.02,0.53-0.14,1.03-0.31,1.52
			c-0.44,1.31-1.19,2.43-2.07,3.48c-0.65,0.77-1.38,1.46-2.17,2.09c-1.44,1.13-2.73,2.4-3.7,3.97c-0.02,0.03-0.05,0.05-0.07,0.08
			c-0.01,0.01-0.02,0-0.07,0c0-0.08,0-0.16,0-0.23c-0.01-0.98-0.01-1.96-0.04-2.95c-0.03-0.86-0.11-1.72-0.13-2.58
			c-0.03-1.12,0.03-2.24,0.37-3.31c0.67-2.15,1.98-3.78,3.99-4.83c0.06-0.03,0.13-0.05,0.19-0.08C16.53,6.83,16.55,6.85,16.56,6.86z
			"/>
		<path class="st0" d="M75.45,20.08c-0.06-0.06-0.12-0.12-0.17-0.19c-0.94-1.29-2.12-2.36-3.33-3.4c-0.57-0.49-1.15-0.98-1.71-1.47
			c-1.35-1.17-2.37-2.56-2.9-4.28c-0.12-0.4-0.24-0.8-0.28-1.23c0.05,0.02,0.08,0.03,0.09,0.04c0.66,0.95,1.52,1.69,2.44,2.38
			c0.56,0.42,1.13,0.83,1.7,1.26c1.31,0.98,2.31,2.21,3.01,3.68c0.07,0.15,0.15,0.3,0.24,0.47c0.19-0.15,0.09-0.28,0.05-0.41
			c-0.16-0.49-0.35-0.98-0.5-1.48c-0.48-1.54-0.81-3.12-1.17-4.69c-0.15-0.66-0.35-1.31-0.57-1.95c-0.27-0.77-0.68-1.47-1.22-2.1
			C71.05,6.63,71,6.53,70.95,6.43c0.02-0.02,0.04-0.04,0.05-0.06c0.1,0.03,0.21,0.04,0.3,0.09c0.28,0.15,0.57,0.28,0.81,0.47
			c1.68,1.31,2.85,2.96,3.31,5.07c0.14,0.62,0.21,1.24,0.2,1.88c-0.03,1.79-0.06,3.59-0.09,5.38c0,0.26,0,0.53,0,0.79
			C75.5,20.07,75.48,20.08,75.45,20.08z"/>
		<path class="st0" d="M23.64,3.18c-0.05,0.07-0.1,0.16-0.16,0.22c-1.09,1.18-2.03,2.47-2.86,3.85c-1.02,1.7-2.32,3.13-3.81,4.41
			c-0.37,0.31-0.73,0.63-1.11,0.96c-0.05-1.16,0.7-3.8,1.86-5.42c1.51-2.11,3.59-3.34,6.01-4.08C23.59,3.13,23.62,3.15,23.64,3.18z"
			/>
		<path class="st0" d="M71.76,12.23c-0.4-0.35-0.82-0.67-1.21-1.04c-1.44-1.36-2.78-2.81-3.92-4.43c-0.23-0.33-0.45-0.66-0.66-1
			C65.34,4.74,64.62,3.8,63.73,3c-0.04-0.04-0.08-0.09-0.16-0.19c0.15,0.03,0.24,0.04,0.33,0.06c1.3,0.34,2.53,0.84,3.64,1.6
			c1.57,1.08,2.63,2.55,3.35,4.3c0.43,1.05,0.72,2.14,0.92,3.24c0.01,0.06,0.01,0.12,0.02,0.18C71.81,12.2,71.79,12.22,71.76,12.23z
			"/>
		<path class="st0" d="M41.75,12.24c0.05,0.01,0.08,0.01,0.09,0.03c1.89,1.42,3.25,3.22,3.82,5.55c0.42,1.73,0.26,3.44-0.22,5.14
			c-0.26,0.9-0.69,1.73-1.1,2.57c-1.12,2.31-2.24,4.63-3.19,7.02c-0.47,1.18-0.85,2.4-1.07,3.66c-0.43,2.45-0.08,4.81,0.95,7.06
			c0.25,0.55,0.56,1.07,0.84,1.61c0.04,0.07,0.08,0.15,0.15,0.29c-0.15-0.05-0.25-0.07-0.35-0.11c-3-1.37-4.91-3.64-5.66-6.86
			c-0.45-1.94-0.39-3.9-0.04-5.85c0.23-1.31,0.67-2.56,1.26-3.75c1.02-2.05,2.08-4.08,3.12-6.12c0.4-0.79,0.83-1.57,1.2-2.37
			c0.78-1.7,0.96-3.49,0.75-5.33c-0.09-0.77-0.26-1.53-0.49-2.27C41.77,12.41,41.76,12.33,41.75,12.24z"/>
		<path class="st0" d="M43.93,45.45c-0.25-0.29-0.52-0.57-0.76-0.87c-1.05-1.33-1.61-2.86-1.79-4.54c-0.26-2.42,0.17-4.74,1-6.99
			c0.4-1.08,0.9-2.12,1.37-3.17c0.62-1.38,1.27-2.75,1.9-4.13c0.86-1.87,1.25-3.84,1.28-5.89c0-0.12,0-0.24,0-0.42
			c0.09,0.08,0.13,0.11,0.16,0.16c1.36,1.9,2.09,4.02,1.99,6.37c-0.07,1.71-0.49,3.35-1.19,4.92c-0.89,2.03-1.8,4.05-2.68,6.09
			c-1.03,2.38-1.4,4.88-1.26,7.46c0.02,0.32,0.05,0.65,0.07,0.97C43.99,45.42,43.96,45.43,43.93,45.45z"/>
		<path class="st0" d="M50.27,26.05c0.05,0.09,0.11,0.18,0.16,0.27c1.01,1.94,1.59,4,1.75,6.18c0.11,1.47,0.09,2.93-0.21,4.38
			c-0.79,3.72-2.92,6.41-6.27,8.16c-0.2,0.1-0.41,0.19-0.65,0.3c0-0.36-0.01-0.68,0-0.99c0.11-3.2,0.9-6.23,2.42-9.05
			c0.91-1.68,1.65-3.43,2.1-5.29C49.89,28.72,50.1,27.4,50.27,26.05z"/>
		<path class="st0" d="M44.61,49.04c0-0.81,0-1.59,0-2.42c1.54,0.29,2.59,1.22,3.51,2.38C47.85,49.1,45.1,49.13,44.61,49.04z"/>
		<path class="st0" d="M43.36,46.62c0,0.84,0,1.63,0,2.41c-0.28,0.08-3.1,0.09-3.53,0.01C40.75,47.85,41.8,46.93,43.36,46.62z"/>
		<path class="st0" d="M51.74,15.1c-0.18,0.5-0.48,0.72-0.95,0.73c-0.21,0.01-0.42,0.1-0.63,0.15C50.08,16,49.99,15.99,49.9,16
			c0-0.09-0.02-0.18-0.01-0.27c0.02-0.12,0.07-0.23,0.09-0.35c0.08-0.38,0.08-0.38,0.44-0.54c0.05-0.21-0.09-0.3-0.24-0.38
			c-0.26-0.14-0.42-0.36-0.44-0.66c-0.02-0.4,0.31-0.71,0.69-0.64c0.23,0.05,0.36,0.18,0.38,0.42c0.02,0.37,0.14,0.68,0.4,0.95
			c0.02,0.02,0.04,0.04,0.04,0.06C51.31,14.84,51.45,15.04,51.74,15.1z"/>
		<path class="st0" d="M45.88,10.96c0.2-0.24,0.4-0.31,0.69-0.25c0.25,0.05,0.53,0.02,0.79,0.01c0.16,0,0.31-0.05,0.47-0.04
			c0.11,0,0.24,0.04,0.34,0.1c0.09,0.06,0.21,0.2,0.19,0.27c-0.03,0.11-0.15,0.22-0.26,0.26c-0.3,0.13-0.6,0.26-0.92,0.33
			c-0.2,0.04-0.42-0.04-0.64-0.04c-0.24-0.01-0.37-0.13-0.46-0.35C46.04,11.15,45.96,11.08,45.88,10.96z"/>
		<path class="st0" d="M48.68,14.62c0.15-0.09,0.31-0.19,0.47-0.29c0.18-0.1,0.37-0.12,0.56-0.05c0.19,0.07,0.23,0.22,0.13,0.4
			c-0.06,0.11-0.11,0.23-0.15,0.36c-0.05,0.17-0.13,0.29-0.34,0.32c-0.14,0.02-0.26,0.13-0.39,0.17c-0.1,0.03-0.25,0.03-0.33-0.02
			c-0.12-0.07-0.12-0.21-0.07-0.35C48.62,14.98,48.64,14.8,48.68,14.62z"/>
		<path class="st0" d="M28.37,26.49c-0.11,0.2-0.25,0.24-0.44,0.2c-0.18-0.04-0.36-0.08-0.59-0.13c-0.19-0.34-0.52-0.57-0.93-0.71
			c-0.42-0.15-0.82-0.07-1.26,0.13c0.04-0.35,0.24-0.44,0.44-0.52c0.63-0.26,1.18-0.01,1.71,0.31c0.29,0.17,0.56,0.37,0.84,0.56
			C28.21,26.36,28.28,26.42,28.37,26.49z"/>
	</g>
</g>
</svg>
