<?xml version="1.0" encoding="utf-8"?>
<!-- Generator: Adobe Illustrator 28.0.0, SVG Export Plug-In . SVG Version: 6.00 Build 0)  -->
<svg version="1.1" id="Capa_1" xmlns="http://www.w3.org/2000/svg" xmlns:xlink="http://www.w3.org/1999/xlink" x="0px" y="0px"
	 viewBox="0 0 450 100" style="enable-background:new 0 0 450 100;" xml:space="preserve">
<style type="text/css">
	.st0{fill:#BE8F3D;}
	.st1{fill:url(#SVGID_1_);}
	.st2{fill:url(#SVGID_00000076579264059116853820000000755957213800615583_);}
	.st3{fill:url(#SVGID_00000049908063698707912960000006127071322716544435_);}
	.st4{fill:url(#SVGID_00000085944153159943439630000004123055824371245459_);}
	.st5{fill:url(#SVGID_00000033358179206235867900000005140228808472203161_);}
	.st6{fill:url(#SVGID_00000173132736339470603070000017880694804225564832_);}
	.st7{fill:url(#SVGID_00000098916353573179376850000008297595927180638651_);}
	.st8{fill:url(#SVGID_00000114037695014888403070000009134989392535297955_);}
	.st9{fill:url(#SVGID_00000032650277615983349630000017555563645798926768_);}
	.st10{fill:url(#SVGID_00000031181296559831931240000012751619628067060873_);}
	.st11{fill:url(#SVGID_00000141425939705934761260000014582609051459851906_);}
	.st12{fill:url(#SVGID_00000118391252304961276990000001267500130053632161_);}
	.st13{fill:url(#SVGID_00000086675463764928822310000006295679494429993858_);}
	.st14{fill:url(#SVGID_00000089573505374119678050000005939497452478667446_);}
	.st15{fill:url(#SVGID_00000074416972637761451330000018151371818241919617_);}
	.st16{fill:url(#SVGID_00000052104481191810120460000000190046321246779801_);}
	.st17{fill:url(#SVGID_00000053533141602730496600000004614450755400868790_);}
	.st18{fill:url(#SVGID_00000004543889281331621990000001085922009213008551_);}
	.st19{fill:url(#SVGID_00000021831198374569672260000008718176101635515804_);}
	.st20{fill:url(#SVGID_00000183247268706708817860000001536443053856473524_);}
	.st21{fill:url(#SVGID_00000067214740946494075550000016099040225964923790_);}
	.st22{fill:url(#SVGID_00000152244301266252394650000004845541232227539616_);}
	.st23{opacity:0.8;}
	.st24{clip-path:url(#SVGID_00000010287548173428556400000010059311446604608418_);}
	.st25{fill:#F9F4C7;}
	.st26{fill:url(#SVGID_00000091723969696371725840000006951632267948812955_);}
</style>
<g>
	<g>
		<g>
			<g>
				<path class="st0" d="M151.83,16.61v26.63h-3.5V23.38l-8.85,19.85h-2.46l-8.89-19.89v19.89h-3.5V16.61h3.77l9.85,22.01
					l9.85-22.01H151.83z"/>
				<path class="st0" d="M172.8,16.42v26.82h-3.5V16.42H172.8z"/>
				<path class="st0" d="M211.39,43.24h-3.5L193.8,21.88v21.36h-3.5V16.38h3.5l14.08,21.32V16.38h3.5V43.24z"/>
				<path class="st0" d="M232.4,16.42v26.82h-3.5V16.42H232.4z"/>
				<path class="st0" d="M253.66,42.57c-1.4-0.63-2.49-1.5-3.29-2.62c-0.8-1.12-1.21-2.4-1.23-3.87h3.73
					c0.13,1.26,0.65,2.32,1.56,3.17c0.91,0.86,2.24,1.29,3.98,1.29c1.67,0,2.98-0.42,3.94-1.25c0.96-0.83,1.44-1.91,1.44-3.21
					c0-1.03-0.28-1.86-0.85-2.5c-0.56-0.64-1.27-1.13-2.12-1.46c-0.85-0.33-1.99-0.69-3.42-1.08c-1.77-0.46-3.19-0.92-4.25-1.39
					c-1.06-0.46-1.98-1.19-2.73-2.17c-0.76-0.99-1.14-2.32-1.14-3.98c0-1.46,0.37-2.76,1.12-3.89c0.74-1.13,1.79-2,3.14-2.62
					c1.35-0.62,2.89-0.92,4.64-0.92c2.51,0,4.57,0.63,6.18,1.88c1.6,1.26,2.51,2.92,2.71,5h-3.85c-0.13-1.03-0.67-1.93-1.62-2.71
					c-0.95-0.78-2.21-1.17-3.77-1.17c-1.46,0-2.65,0.38-3.58,1.14c-0.92,0.76-1.39,1.81-1.39,3.17c0,0.97,0.27,1.77,0.83,2.38
					c0.55,0.62,1.23,1.08,2.04,1.4c0.81,0.32,1.94,0.69,3.4,1.1c1.77,0.49,3.19,0.97,4.27,1.44c1.08,0.48,2,1.21,2.77,2.19
					c0.77,0.99,1.15,2.33,1.15,4.02c0,1.31-0.35,2.54-1.04,3.69c-0.69,1.15-1.72,2.09-3.08,2.81c-1.36,0.72-2.96,1.08-4.81,1.08
					C256.64,43.51,255.05,43.19,253.66,42.57z"/>
				<path class="st0" d="M300.54,16.42v2.85h-7.31v23.97h-3.5V19.27h-7.35v-2.85H300.54z"/>
				<path class="st0" d="M319.89,19.27v8.97h9.77v2.89h-9.77v9.23h10.93v2.89h-14.43V16.38h14.43v2.89H319.89z"/>
				<path class="st0" d="M361.8,43.24l-6.39-10.97h-4.23v10.97h-3.5V16.42h8.66c2.03,0,3.74,0.35,5.14,1.04
					c1.4,0.69,2.44,1.63,3.13,2.81c0.69,1.18,1.04,2.53,1.04,4.04c0,1.85-0.53,3.48-1.6,4.89c-1.06,1.41-2.66,2.35-4.79,2.81
					l6.73,11.24H361.8z M351.18,29.46h5.16c1.9,0,3.32-0.47,4.27-1.4c0.95-0.94,1.42-2.19,1.42-3.75c0-1.59-0.47-2.82-1.4-3.69
					c-0.94-0.87-2.37-1.31-4.29-1.31h-5.16V29.46z"/>
				<path class="st0" d="M386.11,16.42v26.82h-3.5V16.42H386.11z"/>
				<path class="st0" d="M408.97,41.76c-2.05-1.17-3.67-2.8-4.87-4.89c-1.19-2.09-1.79-4.44-1.79-7.06s0.6-4.97,1.79-7.06
					c1.19-2.09,2.82-3.72,4.87-4.89c2.05-1.17,4.32-1.75,6.81-1.75c2.51,0,4.8,0.58,6.85,1.75c2.05,1.17,3.67,2.79,4.85,4.87
					c1.18,2.08,1.77,4.44,1.77,7.08s-0.59,5-1.77,7.08c-1.18,2.08-2.8,3.7-4.85,4.87c-2.05,1.17-4.34,1.75-6.85,1.75
					C413.29,43.51,411.02,42.92,408.97,41.76z M420.84,39.16c1.5-0.87,2.68-2.12,3.54-3.73c0.86-1.62,1.29-3.49,1.29-5.62
					c0-2.15-0.43-4.03-1.29-5.64c-0.86-1.6-2.03-2.84-3.52-3.71c-1.49-0.87-3.18-1.31-5.08-1.31c-1.9,0-3.59,0.44-5.08,1.31
					c-1.49,0.87-2.66,2.11-3.52,3.71c-0.86,1.6-1.29,3.48-1.29,5.64c0,2.13,0.43,4,1.29,5.62c0.86,1.62,2.04,2.86,3.54,3.73
					c1.5,0.87,3.19,1.31,5.06,1.31C417.65,40.47,419.34,40.03,420.84,39.16z"/>
			</g>
		</g>
		<g>
			<g>
				<path class="st0" d="M124.98,82.93c-1.62-0.66-2.91-1.64-3.88-2.95c-0.97-1.3-1.48-2.87-1.53-4.7h7.24
					c0.11,1.03,0.46,1.82,1.07,2.37c0.61,0.54,1.41,0.82,2.39,0.82c1.01,0,1.8-0.23,2.39-0.7c0.58-0.46,0.88-1.11,0.88-1.93
					c0-0.69-0.23-1.26-0.7-1.71c-0.46-0.45-1.03-0.82-1.71-1.11c-0.68-0.29-1.64-0.62-2.89-1c-1.81-0.56-3.28-1.11-4.42-1.67
					c-1.14-0.56-2.12-1.38-2.95-2.47c-0.82-1.09-1.23-2.51-1.23-4.26c0-2.6,0.94-4.64,2.83-6.11c1.88-1.47,4.34-2.21,7.36-2.21
					c3.08,0,5.56,0.74,7.44,2.21c1.88,1.47,2.89,3.52,3.02,6.15h-7.36c-0.05-0.9-0.39-1.61-1-2.13c-0.61-0.52-1.39-0.78-2.35-0.78
					c-0.82,0-1.49,0.22-1.99,0.66c-0.5,0.44-0.76,1.07-0.76,1.89c0,0.9,0.42,1.61,1.27,2.11c0.85,0.51,2.18,1.05,3.98,1.63
					c1.8,0.61,3.27,1.19,4.4,1.75c1.13,0.56,2.1,1.37,2.93,2.43c0.82,1.06,1.23,2.43,1.23,4.1c0,1.59-0.4,3.04-1.21,4.34
					c-0.81,1.3-1.98,2.34-3.52,3.1c-1.54,0.77-3.36,1.15-5.45,1.15C128.43,83.93,126.6,83.6,124.98,82.93z"/>
				<path class="st0" d="M151.23,82.1c-2.19-1.22-3.93-2.93-5.21-5.12c-1.29-2.19-1.93-4.65-1.93-7.38s0.64-5.19,1.93-7.36
					c1.29-2.18,3.02-3.87,5.21-5.09c2.19-1.22,4.6-1.83,7.22-1.83c2.63,0,5.04,0.61,7.22,1.83c2.19,1.22,3.91,2.92,5.17,5.09
					c1.26,2.18,1.89,4.63,1.89,7.36s-0.64,5.19-1.91,7.38c-1.27,2.19-3,3.89-5.17,5.12c-2.18,1.22-4.58,1.83-7.2,1.83
					C155.83,83.93,153.42,83.32,151.23,82.1z M163.81,75.49c1.34-1.49,2.01-3.45,2.01-5.89c0-2.47-0.67-4.44-2.01-5.91
					c-1.34-1.47-3.12-2.21-5.35-2.21c-2.26,0-4.05,0.73-5.39,2.19c-1.34,1.46-2.01,3.44-2.01,5.93c0,2.47,0.67,4.44,2.01,5.91
					c1.34,1.47,3.14,2.21,5.39,2.21C160.69,77.72,162.47,76.97,163.81,75.49z"/>
				<path class="st0" d="M197.75,71.73c0.98,1.26,1.47,2.7,1.47,4.32c0,2.34-0.82,4.19-2.45,5.55c-1.63,1.37-3.91,2.05-6.83,2.05
					h-13.02V55.71h12.58c2.84,0,5.06,0.65,6.67,1.95c1.6,1.3,2.41,3.07,2.41,5.29c0,1.65-0.43,3.01-1.29,4.1
					c-0.86,1.09-2.01,1.84-3.44,2.27C195.46,69.66,196.76,70.47,197.75,71.73z M183.73,67.01h4.46c1.11,0,1.97-0.25,2.57-0.74
					c0.6-0.49,0.9-1.21,0.9-2.17c0-0.96-0.3-1.68-0.9-2.19c-0.6-0.5-1.45-0.76-2.57-0.76h-4.46V67.01z M191.4,77.38
					c0.62-0.52,0.94-1.27,0.94-2.25c0-0.98-0.33-1.75-0.98-2.31c-0.65-0.56-1.55-0.84-2.69-0.84h-4.94v6.17h5.02
					C189.89,78.15,190.77,77.9,191.4,77.38z"/>
				<path class="st0" d="M217.81,83.65L212,73.1h-1.63v10.55h-6.81V55.71h11.42c2.2,0,4.08,0.38,5.63,1.15
					c1.55,0.77,2.71,1.82,3.48,3.16c0.77,1.34,1.15,2.83,1.15,4.48c0,1.86-0.52,3.52-1.57,4.98c-1.05,1.46-2.59,2.49-4.64,3.1
					l6.45,11.07H217.81z M210.36,68.28h4.22c1.25,0,2.18-0.3,2.81-0.92c0.62-0.61,0.94-1.47,0.94-2.59c0-1.06-0.31-1.9-0.94-2.51
					c-0.62-0.61-1.56-0.92-2.81-0.92h-4.22V68.28z"/>
				<path class="st0" d="M236.71,61.16v5.65h9.12v5.25h-9.12v6.13h10.31v5.45h-17.12V55.71h17.12v5.45H236.71z"/>
				<path class="st0" d="M267.48,78.39h8.92v5.25h-15.72V55.71h6.81V78.39z"/>
				<path class="st0" d="M297.45,78.71h-10.43l-1.67,4.94h-7.13l10.11-27.94h7.88l10.11,27.94h-7.2L297.45,78.71z M295.7,73.46
					l-3.46-10.23l-3.42,10.23H295.7z"/>
				<path class="st0" d="M332.88,83.65l-5.81-10.55h-1.63v10.55h-6.81V55.71h11.42c2.2,0,4.08,0.38,5.63,1.15
					c1.55,0.77,2.71,1.82,3.48,3.16c0.77,1.34,1.15,2.83,1.15,4.48c0,1.86-0.52,3.52-1.57,4.98c-1.05,1.46-2.59,2.49-4.64,3.1
					l6.45,11.07H332.88z M325.44,68.28h4.22c1.25,0,2.18-0.3,2.81-0.92c0.62-0.61,0.94-1.47,0.94-2.59c0-1.06-0.31-1.9-0.94-2.51
					c-0.62-0.61-1.56-0.92-2.81-0.92h-4.22V68.28z"/>
				<path class="st0" d="M350.97,82.1c-2.19-1.22-3.93-2.93-5.21-5.12c-1.29-2.19-1.93-4.65-1.93-7.38s0.64-5.19,1.93-7.36
					c1.29-2.18,3.03-3.87,5.21-5.09c2.19-1.22,4.6-1.83,7.22-1.83s5.04,0.61,7.23,1.83s3.91,2.92,5.17,5.09
					c1.26,2.18,1.89,4.63,1.89,7.36s-0.64,5.19-1.91,7.38c-1.27,2.19-3,3.89-5.17,5.12c-2.18,1.22-4.58,1.83-7.21,1.83
					S353.16,83.32,350.97,82.1z M363.55,75.49c1.34-1.49,2.01-3.45,2.01-5.89c0-2.47-0.67-4.44-2.01-5.91
					c-1.34-1.47-3.12-2.21-5.35-2.21c-2.26,0-4.05,0.73-5.39,2.19c-1.34,1.46-2.01,3.44-2.01,5.93c0,2.47,0.67,4.44,2.01,5.91
					c1.34,1.47,3.14,2.21,5.39,2.21C360.42,77.72,362.21,76.97,363.55,75.49z"/>
				<path class="st0" d="M377.3,62.25c1.19-2.16,2.86-3.85,5-5.05c2.13-1.21,4.56-1.81,7.26-1.81c3.32,0,6.16,0.88,8.52,2.63
					c2.36,1.75,3.94,4.14,4.74,7.17h-7.48c-0.56-1.17-1.35-2.06-2.37-2.67c-1.02-0.61-2.18-0.92-3.48-0.92c-2.1,0-3.8,0.73-5.1,2.19
					c-1.3,1.46-1.95,3.41-1.95,5.85c0,2.44,0.65,4.39,1.95,5.85c1.3,1.46,3,2.19,5.1,2.19c1.3,0,2.46-0.3,3.48-0.92
					c1.02-0.61,1.81-1.5,2.37-2.67h7.48c-0.8,3.02-2.37,5.41-4.74,7.14c-2.36,1.74-5.2,2.61-8.52,2.61c-2.71,0-5.13-0.6-7.26-1.81
					c-2.14-1.21-3.8-2.89-5-5.04c-1.19-2.15-1.79-4.6-1.79-7.36C375.51,66.88,376.11,64.42,377.3,62.25z"/>
				<path class="st0" d="M424.79,78.71h-10.43l-1.67,4.94h-7.13l10.11-27.94h7.88l10.11,27.94h-7.2L424.79,78.71z M423.04,73.46
					l-3.46-10.23l-3.42,10.23H423.04z"/>
			</g>
		</g>
	</g>
	<g>
		<g>
			<g>
				<path d="M87.96,81.93c-2.67,1.35-5.47,1.65-8.28,0.82c-1.89-0.55-3.72-1.38-5.5-2.26c-3.07-1.52-6.26-2.11-9.61-1.84
					c-0.77,0.06-1.57,0.19-2.29,0.48c-0.63,0.26-1.18,0.32-1.78,0.04c-0.2-0.09-0.41-0.15-0.62-0.19c-2.55-0.59-5.08-0.45-7.6,0.28
					c-2.33,0.68-4.51,1.74-6.69,2.8c-2.76,1.34-5.62,1.82-8.59,1.06c-0.9-0.23-1.77-0.6-2.68-0.91c0.04,0.08,0.06,0.17,0.12,0.22
					c2.12,2.11,4.63,3.41,7.5,3.71c3.02,0.32,5.83-0.54,8.39-2.3c1.34-0.92,2.63-1.92,3.95-2.87c0.9-0.65,1.87-1.15,2.96-1.33
					c0.74-0.12,1.48-0.13,2.32,0.37c-3.78,2.01-7.11,4.45-10,7.7c0.62,0.55,1.17,1.04,1.73,1.53c1.72-2.39,3.66-4.39,5.87-6.07
					c1.1-0.84,2.26-1.58,3.41-2.33c0.54-0.35,1.11-0.36,1.67,0.05c0.49,0.36,1.03,0.63,1.53,0.98c2.66,1.82,4.92,4.14,7.11,6.54
					c0.18,0.2,0.38,0.39,0.65,0.67c0.56-0.52,1.08-0.99,1.66-1.53c-1.49-1.64-3.05-3.02-4.73-4.21c-1.67-1.18-3.42-2.24-5.21-3.41
					c0.21-0.08,0.35-0.17,0.5-0.19c1.86-0.23,3.56,0.11,5.1,1.4c1.63,1.37,3.36,2.61,5.29,3.49c1.81,0.83,3.69,1.31,5.65,1.28
					c2.77-0.04,5.21-1.13,7.4-2.89c0.41-0.33,0.77-0.75,1.15-1.13C88.15,81.85,88.05,81.89,87.96,81.93z"/>
				<path d="M102.57,62.22c-1.3,2.14-3.11,3.67-5.19,4.85c-1.57,0.89-3.16,1.75-4.74,2.63c-1.53,0.86-2.98,1.86-4.23,3.16
					c-0.35,0.37-0.74,0.69-1.28,0.75c0.13-0.28,0.29-0.49,0.48-0.68c2.34-2.38,3.7-5.27,4.08-8.71c0.19-1.72,0.52-3.41,0.8-5.12
					c0.07-0.43,0.21-0.85,0.31-1.28c-0.06-0.02-0.11-0.05-0.17-0.07c-1.29,1.97-2.71,3.86-3.49,6.17c-0.44,1.3-0.88,2.61-1.28,3.92
					c-0.89,2.92-1.91,5.76-4.07,7.97c1.87-0.41,3.68-0.79,5.49-1.2c1-0.23,2.03-0.4,2.97-0.8c4.14-1.73,7.36-4.65,9.54-8.82
					c0.48-0.92,0.87-1.9,1.07-2.94c-0.06-0.05-0.11-0.09-0.17-0.14C102.65,62.01,102.62,62.12,102.57,62.22z"/>
				<path d="M38.61,76.05c-0.46-0.58-0.93-1.12-1.34-1.72c-1.16-1.7-1.89-3.62-2.52-5.6c-0.62-1.97-1.16-3.97-2.1-5.81
					c-0.87-1.69-1.88-3.28-2.99-4.69c0.37,2.17,0.8,4.36,1.1,6.58c0.47,3.53,1.84,6.5,4.45,8.76c0.11,0.1,0.18,0.25,0.28,0.37
					c-0.05,0.06-0.11,0.13-0.16,0.19c-0.62-0.45-1.28-0.83-1.85-1.35c-1.5-1.35-3.16-2.42-4.91-3.33c-1.36-0.71-2.73-1.4-4.05-2.17
					c-1.85-1.07-3.49-2.43-4.63-4.36c-0.06-0.09-0.09-0.2-0.14-0.3c-0.07,0.05-0.14,0.1-0.21,0.15c0.27,0.71,0.5,1.44,0.82,2.13
					c1.2,2.62,2.94,4.76,5.08,6.55c1.85,1.55,3.86,2.76,6.19,3.25C33.93,75.17,36.26,75.6,38.61,76.05z"/>
				<path d="M22.09,62.67c2.45,2.15,5.19,3.85,7.84,5.68c0.03,0.02,0.08-0.02,0.18-0.04c-0.12-0.25-0.24-0.47-0.33-0.7
					c-0.35-0.99-0.83-1.97-1.01-3c-0.36-2.04-0.57-4.11-0.81-6.17c-0.25-2.12-0.4-4.25-0.7-6.36c-0.17-1.21-0.55-2.39-0.84-3.58
					c-0.07,0.01-0.13,0.02-0.2,0.03c0.09,1.93-0.43,3.75-0.76,5.61c-0.17,0.99-0.34,2-0.35,3c-0.03,2.32,0.42,4.53,1.6,6.53
					c0.12,0.2,0.19,0.42,0.29,0.63c-0.06,0.04-0.12,0.08-0.18,0.12c-0.19-0.22-0.41-0.43-0.57-0.67c-0.83-1.25-1.57-2.57-2.49-3.74
					c-1.1-1.41-2.35-2.7-3.53-4.03c-1.61-1.82-3.17-3.68-3.91-6.17c0.03,1.26,0.05,2.51,0.27,3.72
					C17.28,57.36,19.35,60.26,22.09,62.67z"/>
				<path d="M101.86,55.68c-1.54,1.59-2.98,3.26-4.16,5.18c-0.53,0.87-1.1,1.72-1.66,2.56c-0.13,0.2-0.32,0.36-0.48,0.53
					c-0.04-0.04-0.09-0.09-0.13-0.13c0.05-0.13,0.08-0.26,0.15-0.38c1.7-3,1.95-6.22,1.32-9.61c-0.37-1.97-0.83-3.93-0.77-5.99
					c-0.26,0.61-0.49,1.22-0.65,1.84c-0.84,3.16-0.82,6.45-1.16,9.68c-0.18,1.72-0.41,3.43-0.75,5.12c-0.23,1.13-0.7,2.21-1.08,3.37
					c0.16-0.09,0.3-0.16,0.42-0.24c1.37-0.97,2.73-1.97,4.11-2.92c1.96-1.35,3.82-2.81,5.34-4.73c2.57-3.24,3.98-6.9,3.71-11.11
					c-0.34,0.83-0.66,1.77-1.09,2.64C104.18,53.08,103.07,54.43,101.86,55.68z"/>
				<path d="M84.96,77.21c-1.91,0.17-3.81,0.38-5.68,0.84c-0.54,0.13-1.1,0.16-1.65,0.23c-0.02-0.06-0.04-0.12-0.05-0.18
					c0.11-0.09,0.22-0.2,0.34-0.25c0.48-0.18,0.97-0.33,1.46-0.52c1.73-0.66,3.2-1.73,4.12-3.46c1.09-2.07,2.06-4.21,3.09-6.31
					c-0.65,0.39-1.22,0.82-1.73,1.33c-1.99,1.99-3.98,3.99-5.94,6.03c-1.04,1.09-2.22,1.93-3.57,2.49
					c-0.92,0.38-1.87,0.69-2.89,1.07c0.36,0.07,0.64,0.13,0.91,0.19c2.77,0.63,5.52,1.3,8.3,1.86c1.57,0.32,3.17,0.31,4.75,0.02
					c2.68-0.49,5-1.81,7.04-3.67c1-0.91,1.89-1.95,2.48-3.26c-1.6,1.63-3.55,2.52-5.68,2.91C88.5,76.84,86.73,77.05,84.96,77.21z"/>
				<path d="M40.52,80.88c2.28-0.3,4.49-0.95,6.71-1.57c0.96-0.27,1.93-0.48,2.88-0.72c-0.1-0.03-0.27-0.08-0.45-0.13
					c-2.5-0.7-4.77-1.83-6.61-3.82c-0.72-0.78-1.45-1.55-2.22-2.29c-1.28-1.24-2.58-2.46-3.88-3.67c-0.15-0.14-0.34-0.22-0.5-0.32
					c-0.05,0.04-0.09,0.08-0.14,0.11c0.05,0.2,0.08,0.42,0.17,0.6c0.5,1.09,0.98,2.19,1.54,3.24c0.52,0.98,1.06,1.96,1.71,2.84
					c1.1,1.48,2.61,2.29,4.31,2.71c0.36,0.09,0.79,0.08,1.13,0.65c-0.6-0.06-1.05-0.09-1.49-0.16c-1.6-0.25-3.19-0.57-4.79-0.76
					c-1.98-0.23-3.98-0.3-5.96-0.56c-2.08-0.28-4.05-0.98-5.73-2.41c-0.15-0.12-0.31-0.22-0.47-0.33c0.77,1.43,1.8,2.56,2.98,3.54
					C32.9,80.49,36.53,81.42,40.52,80.88z"/>
				<path d="M101.36,48.17c-0.24,1.18-0.48,2.37-0.74,3.55c-0.07,0.29-0.23,0.56-0.35,0.83c-0.07-0.03-0.14-0.06-0.2-0.09
					c0.05-0.3,0.09-0.61,0.16-0.9c0.4-1.75,0.46-3.53-0.02-5.23c-0.38-1.34-1-2.61-1.63-3.85c-0.97-1.89-2.19-3.64-2.86-5.72
					c-0.05,0.01-0.11,0.03-0.16,0.04c0.15,1.32,0.24,2.64,0.46,3.94c0.56,3.42,1.42,6.75,2.48,10.03c0.45,1.41,0.57,2.87,0.43,4.36
					c-0.04,0.41-0.04,0.83-0.06,1.39c0.19-0.21,0.27-0.28,0.33-0.37c0.9-1.26,1.81-2.52,2.7-3.79c0.72-1.04,1.56-2.03,2.11-3.17
					c1.96-4.07,2.42-8.4,1.58-12.88c-0.1-0.52-0.28-1.02-0.42-1.53c-0.12,0.75-0.14,1.47-0.22,2.19c-0.21,1.86-0.82,3.58-1.52,5.27
					C102.61,44.18,101.78,46.1,101.36,48.17z"/>
				<path d="M20.09,52.51c1.05,1.27,1.98,2.67,2.96,4.01c0.14,0.19,0.27,0.39,0.47,0.67c0.02-0.21,0.04-0.29,0.03-0.37
					c-0.27-1.8-0.16-3.56,0.35-5.31c0.43-1.49,0.83-2.99,1.22-4.49c0.8-3.06,1.39-6.17,1.41-9.32c-0.54,1.03-1.08,2.09-1.63,3.14
					c-0.6,1.16-1.26,2.29-1.78,3.49c-1.16,2.66-1.69,5.41-0.84,8.32c0.04,0.15,0.01,0.34,0.01,0.51c-0.07,0.01-0.14,0.02-0.22,0.03
					c-0.15-0.48-0.35-0.94-0.43-1.43c-0.55-3.23-1.48-6.31-2.83-9.26c-1.02-2.23-1.78-4.56-1.57-7.13
					c-0.07,0.08-0.11,0.16-0.13,0.24c-0.04,0.11-0.06,0.22-0.09,0.33c-0.74,2.77-0.82,5.56-0.35,8.4
					C17.15,47.39,18.15,50.15,20.09,52.51z"/>
				<path d="M101.11,27.84c-0.12,2.08-0.29,4.15-0.34,6.23c-0.03,1.38,0.13,2.77,0.18,4.15c0.01,0.34,0.16,0.71-0.19,1.18
					c-0.09-0.39-0.16-0.62-0.19-0.87c-0.3-2.48-1.3-4.56-3.05-6.23c-0.89-0.85-1.76-1.71-2.64-2.56c-0.63-0.61-1.26-1.23-1.84-1.8
					c0.01,0.05,0.02,0.21,0.06,0.37c0.66,2.89,2.03,5.39,3.72,7.72c1.74,2.4,3.52,4.78,4.19,8c0.09-0.42,0.14-0.7,0.22-0.96
					c0.41-1.47,0.69-2.98,1.25-4.38c1.26-3.16,1.61-6.38,1.02-9.75c-0.46-2.59-1.5-4.87-3.08-6.89
					C101.18,23.92,101.22,25.87,101.11,27.84z"/>
				<path d="M21.42,44.15c0.53-1.95,1.44-3.68,2.5-5.33c0.84-1.31,1.71-2.6,2.56-3.91c1.32-2.03,2.15-4.28,2.54-6.58
					c-1.07,1.09-2.19,2.25-3.32,3.4c-2.07,2.12-3.79,4.45-4.02,7.68c-0.01,0.17-0.13,0.32-0.21,0.49c-0.14-0.76-0.21-1.49-0.13-2.21
					c0.32-2.76,0.07-5.47-0.3-8.2c-0.18-1.4-0.38-2.81-0.09-4.23c0.14-0.73,0.26-1.46,0.4-2.27c-0.12,0.14-0.18,0.19-0.22,0.26
					c-3,4.62-3.53,9.56-1.74,14.83C20.07,40.07,20.73,42.08,21.42,44.15z"/>
				<path d="M96.25,21c0.53,2.47,1.09,4.94,2,7.3c0.04,0.1,0.02,0.23,0.03,0.35c-0.05,0.02-0.1,0.04-0.15,0.06
					c-0.16-0.32-0.31-0.64-0.49-0.95c-0.28-0.49-0.54-1-0.86-1.46c-0.91-1.32-2.11-2.3-3.36-3.21c-1.58-1.15-3.21-2.25-4.33-3.98
					c0.47,2.91,1.92,5.12,4.03,6.9c1.4,1.18,2.79,2.37,4.11,3.64c0.8,0.77,1.47,1.71,2.09,2.44c0-1.06-0.02-2.27,0-3.47
					c0.02-1.3,0.1-2.6,0.11-3.89c0.04-3.39-1.32-6.07-3.73-8.18c-0.54-0.48-1.13-0.91-1.89-1.12c0.03,0.16,0.03,0.23,0.06,0.26
					C95.24,17.16,95.82,19.04,96.25,21z"/>
				<path d="M22.8,29.92c0.03,1.01,0.01,2.01,0.01,3.06c1.19-2.01,2.78-3.58,4.56-4.99c1.66-1.31,3.12-2.86,4.23-4.74
					c0.71-1.21,1.21-2.5,1.37-3.97c-0.48,0.61-0.86,1.26-1.38,1.74c-1.1,1.02-2.24,2-3.42,2.91c-1.74,1.35-3.18,2.94-4.06,5.07
					c-0.05,0.12-0.15,0.21-0.23,0.31c-0.09-0.26-0.08-0.48-0.02-0.68c0.27-0.88,0.61-1.73,0.82-2.63c0.42-1.73,0.76-3.48,1.15-5.22
					c0.36-1.59,0.89-3.09,1.95-4.32c0.11-0.13,0.21-0.28,0.43-0.57c-2.15,0.99-3.58,2.51-4.6,4.49c-0.9,1.76-1.06,3.69-1.03,5.64
					C22.62,27.32,22.76,28.62,22.8,29.92z"/>
				<path d="M85.41,11.63c0.89,0.89,1.66,1.88,2.34,2.98c1.45,2.36,3.28,4.37,5.2,6.28c0.61,0.6,1.28,1.13,1.93,1.69
					c-1.27-7.43-4.99-10.22-10-11.46C85.02,11.32,85.24,11.46,85.41,11.63z"/>
				<path d="M28.39,21.84c1.62-1.4,3.12-2.92,4.28-4.8c1.18-1.9,2.43-3.75,3.96-5.36c0.04-0.04,0.03-0.14,0.04-0.19
					c-5.49,1.65-8.92,5.29-9.65,11.54C27.48,22.63,27.93,22.23,28.39,21.84z"/>
			</g>
			<g>
				<linearGradient id="SVGID_1_" gradientUnits="userSpaceOnUse" x1="61.2198" y1="89.261" x2="61.2198" y2="11.1159">
					<stop  offset="0" style="stop-color:#A76F2A"/>
					<stop  offset="0.0112" style="stop-color:#AB742D"/>
					<stop  offset="0.0981" style="stop-color:#C99843"/>
					<stop  offset="0.1687" style="stop-color:#DBAF50"/>
					<stop  offset="0.2138" style="stop-color:#E2B755"/>
					<stop  offset="0.5" style="stop-color:#F2E19B"/>
					<stop  offset="0.7425" style="stop-color:#E2B755"/>
					<stop  offset="1" style="stop-color:#C3913E"/>
				</linearGradient>
				<path class="st1" d="M87.96,81.93c-2.67,1.35-5.47,1.65-8.28,0.82c-1.89-0.55-3.72-1.38-5.5-2.26
					c-3.07-1.52-6.26-2.11-9.61-1.84c-0.77,0.06-1.57,0.19-2.29,0.48c-0.63,0.26-1.18,0.32-1.78,0.04c-0.2-0.09-0.41-0.15-0.62-0.19
					c-2.55-0.59-5.08-0.45-7.6,0.28c-2.33,0.68-4.51,1.74-6.69,2.8c-2.76,1.34-5.62,1.82-8.59,1.06c-0.9-0.23-1.77-0.6-2.68-0.91
					c0.04,0.08,0.06,0.17,0.12,0.22c2.12,2.11,4.63,3.41,7.5,3.71c3.02,0.32,5.83-0.54,8.39-2.3c1.34-0.92,2.63-1.92,3.95-2.87
					c0.9-0.65,1.87-1.15,2.96-1.33c0.74-0.12,1.48-0.13,2.32,0.37c-3.78,2.01-7.11,4.45-10,7.7c0.62,0.55,1.17,1.04,1.73,1.53
					c1.72-2.39,3.66-4.39,5.87-6.07c1.1-0.84,2.26-1.58,3.41-2.33c0.54-0.35,1.11-0.36,1.67,0.05c0.49,0.36,1.03,0.63,1.53,0.98
					c2.66,1.82,4.92,4.14,7.11,6.54c0.18,0.2,0.38,0.39,0.65,0.67c0.56-0.52,1.08-0.99,1.66-1.53c-1.49-1.64-3.05-3.02-4.73-4.21
					c-1.67-1.18-3.42-2.24-5.21-3.41c0.21-0.08,0.35-0.17,0.5-0.19c1.86-0.23,3.56,0.11,5.1,1.4c1.63,1.37,3.36,2.61,5.29,3.49
					c1.81,0.83,3.69,1.31,5.65,1.28c2.77-0.04,5.21-1.13,7.4-2.89c0.41-0.33,0.77-0.75,1.15-1.13
					C88.15,81.85,88.05,81.89,87.96,81.93z"/>
				
					<linearGradient id="SVGID_00000183959697632113734220000015506107436848023213_" gradientUnits="userSpaceOnUse" x1="61.2198" y1="89.261" x2="61.2198" y2="11.1159">
					<stop  offset="0" style="stop-color:#A76F2A"/>
					<stop  offset="0.0112" style="stop-color:#AB742D"/>
					<stop  offset="0.0981" style="stop-color:#C99843"/>
					<stop  offset="0.1687" style="stop-color:#DBAF50"/>
					<stop  offset="0.2138" style="stop-color:#E2B755"/>
					<stop  offset="0.5" style="stop-color:#F2E19B"/>
					<stop  offset="0.7425" style="stop-color:#E2B755"/>
					<stop  offset="1" style="stop-color:#C3913E"/>
				</linearGradient>
				<path style="fill:url(#SVGID_00000183959697632113734220000015506107436848023213_);" d="M102.57,62.22
					c-1.3,2.14-3.11,3.67-5.19,4.85c-1.57,0.89-3.16,1.75-4.74,2.63c-1.53,0.86-2.98,1.86-4.23,3.16c-0.35,0.37-0.74,0.69-1.28,0.75
					c0.13-0.28,0.29-0.49,0.48-0.68c2.34-2.38,3.7-5.27,4.08-8.71c0.19-1.72,0.52-3.41,0.8-5.12c0.07-0.43,0.21-0.85,0.31-1.28
					c-0.06-0.02-0.11-0.05-0.17-0.07c-1.29,1.97-2.71,3.86-3.49,6.17c-0.44,1.3-0.88,2.61-1.28,3.92c-0.89,2.92-1.91,5.76-4.07,7.97
					c1.87-0.41,3.68-0.79,5.49-1.2c1-0.23,2.03-0.4,2.97-0.8c4.14-1.73,7.36-4.65,9.54-8.82c0.48-0.92,0.87-1.9,1.07-2.94
					c-0.06-0.05-0.11-0.09-0.17-0.14C102.65,62.01,102.62,62.12,102.57,62.22z"/>
				
					<linearGradient id="SVGID_00000031197993187548094940000000387136844752982693_" gradientUnits="userSpaceOnUse" x1="61.2198" y1="89.261" x2="61.2198" y2="11.1159">
					<stop  offset="0" style="stop-color:#A76F2A"/>
					<stop  offset="0.0112" style="stop-color:#AB742D"/>
					<stop  offset="0.0981" style="stop-color:#C99843"/>
					<stop  offset="0.1687" style="stop-color:#DBAF50"/>
					<stop  offset="0.2138" style="stop-color:#E2B755"/>
					<stop  offset="0.5" style="stop-color:#F2E19B"/>
					<stop  offset="0.7425" style="stop-color:#E2B755"/>
					<stop  offset="1" style="stop-color:#C3913E"/>
				</linearGradient>
				<path style="fill:url(#SVGID_00000031197993187548094940000000387136844752982693_);" d="M38.61,76.05
					c-0.46-0.58-0.93-1.12-1.34-1.72c-1.16-1.7-1.89-3.62-2.52-5.6c-0.62-1.97-1.16-3.97-2.1-5.81c-0.87-1.69-1.88-3.28-2.99-4.69
					c0.37,2.17,0.8,4.36,1.1,6.58c0.47,3.53,1.84,6.5,4.45,8.76c0.11,0.1,0.18,0.25,0.28,0.37c-0.05,0.06-0.11,0.13-0.16,0.19
					c-0.62-0.45-1.28-0.83-1.85-1.35c-1.5-1.35-3.16-2.42-4.91-3.33c-1.36-0.71-2.73-1.4-4.05-2.17c-1.85-1.07-3.49-2.43-4.63-4.36
					c-0.06-0.09-0.09-0.2-0.14-0.3c-0.07,0.05-0.14,0.1-0.21,0.15c0.27,0.71,0.5,1.44,0.82,2.13c1.2,2.62,2.94,4.76,5.08,6.55
					c1.85,1.55,3.86,2.76,6.19,3.25C33.93,75.17,36.26,75.6,38.61,76.05z"/>
				
					<linearGradient id="SVGID_00000013170252053206310020000016404678987924471218_" gradientUnits="userSpaceOnUse" x1="61.2198" y1="89.261" x2="61.2198" y2="11.1159">
					<stop  offset="0" style="stop-color:#A76F2A"/>
					<stop  offset="0.0112" style="stop-color:#AB742D"/>
					<stop  offset="0.0981" style="stop-color:#C99843"/>
					<stop  offset="0.1687" style="stop-color:#DBAF50"/>
					<stop  offset="0.2138" style="stop-color:#E2B755"/>
					<stop  offset="0.5" style="stop-color:#F2E19B"/>
					<stop  offset="0.7425" style="stop-color:#E2B755"/>
					<stop  offset="1" style="stop-color:#C3913E"/>
				</linearGradient>
				<path style="fill:url(#SVGID_00000013170252053206310020000016404678987924471218_);" d="M22.09,62.67
					c2.45,2.15,5.19,3.85,7.84,5.68c0.03,0.02,0.08-0.02,0.18-0.04c-0.12-0.25-0.24-0.47-0.33-0.7c-0.35-0.99-0.83-1.97-1.01-3
					c-0.36-2.04-0.57-4.11-0.81-6.17c-0.25-2.12-0.4-4.25-0.7-6.36c-0.17-1.21-0.55-2.39-0.84-3.58c-0.07,0.01-0.13,0.02-0.2,0.03
					c0.09,1.93-0.43,3.75-0.76,5.61c-0.17,0.99-0.34,2-0.35,3c-0.03,2.32,0.42,4.53,1.6,6.53c0.12,0.2,0.19,0.42,0.29,0.63
					c-0.06,0.04-0.12,0.08-0.18,0.12c-0.19-0.22-0.41-0.43-0.57-0.67c-0.83-1.25-1.57-2.57-2.49-3.74c-1.1-1.41-2.35-2.7-3.53-4.03
					c-1.61-1.82-3.17-3.68-3.91-6.17c0.03,1.26,0.05,2.51,0.27,3.72C17.28,57.36,19.35,60.26,22.09,62.67z"/>
				
					<linearGradient id="SVGID_00000137817460020727938200000010578135754010045585_" gradientUnits="userSpaceOnUse" x1="61.2198" y1="89.261" x2="61.2198" y2="11.1159">
					<stop  offset="0" style="stop-color:#A76F2A"/>
					<stop  offset="0.0112" style="stop-color:#AB742D"/>
					<stop  offset="0.0981" style="stop-color:#C99843"/>
					<stop  offset="0.1687" style="stop-color:#DBAF50"/>
					<stop  offset="0.2138" style="stop-color:#E2B755"/>
					<stop  offset="0.5" style="stop-color:#F2E19B"/>
					<stop  offset="0.7425" style="stop-color:#E2B755"/>
					<stop  offset="1" style="stop-color:#C3913E"/>
				</linearGradient>
				<path style="fill:url(#SVGID_00000137817460020727938200000010578135754010045585_);" d="M101.86,55.68
					c-1.54,1.59-2.98,3.26-4.16,5.18c-0.53,0.87-1.1,1.72-1.66,2.56c-0.13,0.2-0.32,0.36-0.48,0.53c-0.04-0.04-0.09-0.09-0.13-0.13
					c0.05-0.13,0.08-0.26,0.15-0.38c1.7-3,1.95-6.22,1.32-9.61c-0.37-1.97-0.83-3.93-0.77-5.99c-0.26,0.61-0.49,1.22-0.65,1.84
					c-0.84,3.16-0.82,6.45-1.16,9.68c-0.18,1.72-0.41,3.43-0.75,5.12c-0.23,1.13-0.7,2.21-1.08,3.37c0.16-0.09,0.3-0.16,0.42-0.24
					c1.37-0.97,2.73-1.97,4.11-2.92c1.96-1.35,3.82-2.81,5.34-4.73c2.57-3.24,3.98-6.9,3.71-11.11c-0.34,0.83-0.66,1.77-1.09,2.64
					C104.18,53.08,103.07,54.43,101.86,55.68z"/>
				
					<linearGradient id="SVGID_00000142146112432187571850000011700468329296351928_" gradientUnits="userSpaceOnUse" x1="61.2198" y1="89.261" x2="61.2198" y2="11.1159">
					<stop  offset="0" style="stop-color:#A76F2A"/>
					<stop  offset="0.0112" style="stop-color:#AB742D"/>
					<stop  offset="0.0981" style="stop-color:#C99843"/>
					<stop  offset="0.1687" style="stop-color:#DBAF50"/>
					<stop  offset="0.2138" style="stop-color:#E2B755"/>
					<stop  offset="0.5" style="stop-color:#F2E19B"/>
					<stop  offset="0.7425" style="stop-color:#E2B755"/>
					<stop  offset="1" style="stop-color:#C3913E"/>
				</linearGradient>
				<path style="fill:url(#SVGID_00000142146112432187571850000011700468329296351928_);" d="M84.96,77.21
					c-1.91,0.17-3.81,0.38-5.68,0.84c-0.54,0.13-1.1,0.16-1.65,0.23c-0.02-0.06-0.04-0.12-0.05-0.18c0.11-0.09,0.22-0.2,0.34-0.25
					c0.48-0.18,0.97-0.33,1.46-0.52c1.73-0.66,3.2-1.73,4.12-3.46c1.09-2.07,2.06-4.21,3.09-6.31c-0.65,0.39-1.22,0.82-1.73,1.33
					c-1.99,1.99-3.98,3.99-5.94,6.03c-1.04,1.09-2.22,1.93-3.57,2.49c-0.92,0.38-1.87,0.69-2.89,1.07c0.36,0.07,0.64,0.13,0.91,0.19
					c2.77,0.63,5.52,1.3,8.3,1.86c1.57,0.32,3.17,0.31,4.75,0.02c2.68-0.49,5-1.81,7.04-3.67c1-0.91,1.89-1.95,2.48-3.26
					c-1.6,1.63-3.55,2.52-5.68,2.91C88.5,76.84,86.73,77.05,84.96,77.21z"/>
				
					<linearGradient id="SVGID_00000134929369901797960720000000864121983681223094_" gradientUnits="userSpaceOnUse" x1="61.2198" y1="89.261" x2="61.2198" y2="11.1159">
					<stop  offset="0" style="stop-color:#A76F2A"/>
					<stop  offset="0.0112" style="stop-color:#AB742D"/>
					<stop  offset="0.0981" style="stop-color:#C99843"/>
					<stop  offset="0.1687" style="stop-color:#DBAF50"/>
					<stop  offset="0.2138" style="stop-color:#E2B755"/>
					<stop  offset="0.5" style="stop-color:#F2E19B"/>
					<stop  offset="0.7425" style="stop-color:#E2B755"/>
					<stop  offset="1" style="stop-color:#C3913E"/>
				</linearGradient>
				<path style="fill:url(#SVGID_00000134929369901797960720000000864121983681223094_);" d="M40.52,80.88
					c2.28-0.3,4.49-0.95,6.71-1.57c0.96-0.27,1.93-0.48,2.88-0.72c-0.1-0.03-0.27-0.08-0.45-0.13c-2.5-0.7-4.77-1.83-6.61-3.82
					c-0.72-0.78-1.45-1.55-2.22-2.29c-1.28-1.24-2.58-2.46-3.88-3.67c-0.15-0.14-0.34-0.22-0.5-0.32c-0.05,0.04-0.09,0.08-0.14,0.11
					c0.05,0.2,0.08,0.42,0.17,0.6c0.5,1.09,0.98,2.19,1.54,3.24c0.52,0.98,1.06,1.96,1.71,2.84c1.1,1.48,2.61,2.29,4.31,2.71
					c0.36,0.09,0.79,0.08,1.13,0.65c-0.6-0.06-1.05-0.09-1.49-0.16c-1.6-0.25-3.19-0.57-4.79-0.76c-1.98-0.23-3.98-0.3-5.96-0.56
					c-2.08-0.28-4.05-0.98-5.73-2.41c-0.15-0.12-0.31-0.22-0.47-0.33c0.77,1.43,1.8,2.56,2.98,3.54
					C32.9,80.49,36.53,81.42,40.52,80.88z"/>
				
					<linearGradient id="SVGID_00000144312500849378094960000005739509616406160052_" gradientUnits="userSpaceOnUse" x1="61.2198" y1="89.261" x2="61.2198" y2="11.1159">
					<stop  offset="0" style="stop-color:#A76F2A"/>
					<stop  offset="0.0112" style="stop-color:#AB742D"/>
					<stop  offset="0.0981" style="stop-color:#C99843"/>
					<stop  offset="0.1687" style="stop-color:#DBAF50"/>
					<stop  offset="0.2138" style="stop-color:#E2B755"/>
					<stop  offset="0.5" style="stop-color:#F2E19B"/>
					<stop  offset="0.7425" style="stop-color:#E2B755"/>
					<stop  offset="1" style="stop-color:#C3913E"/>
				</linearGradient>
				<path style="fill:url(#SVGID_00000144312500849378094960000005739509616406160052_);" d="M101.36,48.17
					c-0.24,1.18-0.48,2.37-0.74,3.55c-0.07,0.29-0.23,0.56-0.35,0.83c-0.07-0.03-0.14-0.06-0.2-0.09c0.05-0.3,0.09-0.61,0.16-0.9
					c0.4-1.75,0.46-3.53-0.02-5.23c-0.38-1.34-1-2.61-1.63-3.85c-0.97-1.89-2.19-3.64-2.86-5.72c-0.05,0.01-0.11,0.03-0.16,0.04
					c0.15,1.32,0.24,2.64,0.46,3.94c0.56,3.42,1.42,6.75,2.48,10.03c0.45,1.41,0.57,2.87,0.43,4.36c-0.04,0.41-0.04,0.83-0.06,1.39
					c0.19-0.21,0.27-0.28,0.33-0.37c0.9-1.26,1.81-2.52,2.7-3.79c0.72-1.04,1.56-2.03,2.11-3.17c1.96-4.07,2.42-8.4,1.58-12.88
					c-0.1-0.52-0.28-1.02-0.42-1.53c-0.12,0.75-0.14,1.47-0.22,2.19c-0.21,1.86-0.82,3.58-1.52,5.27
					C102.61,44.18,101.78,46.1,101.36,48.17z"/>
				
					<linearGradient id="SVGID_00000096760050844651229190000010172150409520394397_" gradientUnits="userSpaceOnUse" x1="61.2198" y1="89.261" x2="61.2198" y2="11.1159">
					<stop  offset="0" style="stop-color:#A76F2A"/>
					<stop  offset="0.0112" style="stop-color:#AB742D"/>
					<stop  offset="0.0981" style="stop-color:#C99843"/>
					<stop  offset="0.1687" style="stop-color:#DBAF50"/>
					<stop  offset="0.2138" style="stop-color:#E2B755"/>
					<stop  offset="0.5" style="stop-color:#F2E19B"/>
					<stop  offset="0.7425" style="stop-color:#E2B755"/>
					<stop  offset="1" style="stop-color:#C3913E"/>
				</linearGradient>
				<path style="fill:url(#SVGID_00000096760050844651229190000010172150409520394397_);" d="M20.09,52.51
					c1.05,1.27,1.98,2.67,2.96,4.01c0.14,0.19,0.27,0.39,0.47,0.67c0.02-0.21,0.04-0.29,0.03-0.37c-0.27-1.8-0.16-3.56,0.35-5.31
					c0.43-1.49,0.83-2.99,1.22-4.49c0.8-3.06,1.39-6.17,1.41-9.32c-0.54,1.03-1.08,2.09-1.63,3.14c-0.6,1.16-1.26,2.29-1.78,3.49
					c-1.16,2.66-1.69,5.41-0.84,8.32c0.04,0.15,0.01,0.34,0.01,0.51c-0.07,0.01-0.14,0.02-0.22,0.03c-0.15-0.48-0.35-0.94-0.43-1.43
					c-0.55-3.23-1.48-6.31-2.83-9.26c-1.02-2.23-1.78-4.56-1.57-7.13c-0.07,0.08-0.11,0.16-0.13,0.24
					c-0.04,0.11-0.06,0.22-0.09,0.33c-0.74,2.77-0.82,5.56-0.35,8.4C17.15,47.39,18.15,50.15,20.09,52.51z"/>
				
					<linearGradient id="SVGID_00000013873972205644105490000006541262469189571995_" gradientUnits="userSpaceOnUse" x1="61.2198" y1="89.261" x2="61.2198" y2="11.1159">
					<stop  offset="0" style="stop-color:#A76F2A"/>
					<stop  offset="0.0112" style="stop-color:#AB742D"/>
					<stop  offset="0.0981" style="stop-color:#C99843"/>
					<stop  offset="0.1687" style="stop-color:#DBAF50"/>
					<stop  offset="0.2138" style="stop-color:#E2B755"/>
					<stop  offset="0.5" style="stop-color:#F2E19B"/>
					<stop  offset="0.7425" style="stop-color:#E2B755"/>
					<stop  offset="1" style="stop-color:#C3913E"/>
				</linearGradient>
				<path style="fill:url(#SVGID_00000013873972205644105490000006541262469189571995_);" d="M101.11,27.84
					c-0.12,2.08-0.29,4.15-0.34,6.23c-0.03,1.38,0.13,2.77,0.18,4.15c0.01,0.34,0.16,0.71-0.19,1.18c-0.09-0.39-0.16-0.62-0.19-0.87
					c-0.3-2.48-1.3-4.56-3.05-6.23c-0.89-0.85-1.76-1.71-2.64-2.56c-0.63-0.61-1.26-1.23-1.84-1.8c0.01,0.05,0.02,0.21,0.06,0.37
					c0.66,2.89,2.03,5.39,3.72,7.72c1.74,2.4,3.52,4.78,4.19,8c0.09-0.42,0.14-0.7,0.22-0.96c0.41-1.47,0.69-2.98,1.25-4.38
					c1.26-3.16,1.61-6.38,1.02-9.75c-0.46-2.59-1.5-4.87-3.08-6.89C101.18,23.92,101.22,25.87,101.11,27.84z"/>
				
					<linearGradient id="SVGID_00000024692383624623678370000009769128774008475282_" gradientUnits="userSpaceOnUse" x1="61.2198" y1="89.261" x2="61.2198" y2="11.1159">
					<stop  offset="0" style="stop-color:#A76F2A"/>
					<stop  offset="0.0112" style="stop-color:#AB742D"/>
					<stop  offset="0.0981" style="stop-color:#C99843"/>
					<stop  offset="0.1687" style="stop-color:#DBAF50"/>
					<stop  offset="0.2138" style="stop-color:#E2B755"/>
					<stop  offset="0.5" style="stop-color:#F2E19B"/>
					<stop  offset="0.7425" style="stop-color:#E2B755"/>
					<stop  offset="1" style="stop-color:#C3913E"/>
				</linearGradient>
				<path style="fill:url(#SVGID_00000024692383624623678370000009769128774008475282_);" d="M21.42,44.15
					c0.53-1.95,1.44-3.68,2.5-5.33c0.84-1.31,1.71-2.6,2.56-3.91c1.32-2.03,2.15-4.28,2.54-6.58c-1.07,1.09-2.19,2.25-3.32,3.4
					c-2.07,2.12-3.79,4.45-4.02,7.68c-0.01,0.17-0.13,0.32-0.21,0.49c-0.14-0.76-0.21-1.49-0.13-2.21c0.32-2.76,0.07-5.47-0.3-8.2
					c-0.18-1.4-0.38-2.81-0.09-4.23c0.14-0.73,0.26-1.46,0.4-2.27c-0.12,0.14-0.18,0.19-0.22,0.26c-3,4.62-3.53,9.56-1.74,14.83
					C20.07,40.07,20.73,42.08,21.42,44.15z"/>
				
					<linearGradient id="SVGID_00000176026534463282026280000007025267304488098955_" gradientUnits="userSpaceOnUse" x1="61.2198" y1="89.261" x2="61.2198" y2="11.1159">
					<stop  offset="0" style="stop-color:#A76F2A"/>
					<stop  offset="0.0112" style="stop-color:#AB742D"/>
					<stop  offset="0.0981" style="stop-color:#C99843"/>
					<stop  offset="0.1687" style="stop-color:#DBAF50"/>
					<stop  offset="0.2138" style="stop-color:#E2B755"/>
					<stop  offset="0.5" style="stop-color:#F2E19B"/>
					<stop  offset="0.7425" style="stop-color:#E2B755"/>
					<stop  offset="1" style="stop-color:#C3913E"/>
				</linearGradient>
				<path style="fill:url(#SVGID_00000176026534463282026280000007025267304488098955_);" d="M96.25,21c0.53,2.47,1.09,4.94,2,7.3
					c0.04,0.1,0.02,0.23,0.03,0.35c-0.05,0.02-0.1,0.04-0.15,0.06c-0.16-0.32-0.31-0.64-0.49-0.95c-0.28-0.49-0.54-1-0.86-1.46
					c-0.91-1.32-2.11-2.3-3.36-3.21c-1.58-1.15-3.21-2.25-4.33-3.98c0.47,2.91,1.92,5.12,4.03,6.9c1.4,1.18,2.79,2.37,4.11,3.64
					c0.8,0.77,1.47,1.71,2.09,2.44c0-1.06-0.02-2.27,0-3.47c0.02-1.3,0.1-2.6,0.11-3.89c0.04-3.39-1.32-6.07-3.73-8.18
					c-0.54-0.48-1.13-0.91-1.89-1.12c0.03,0.16,0.03,0.23,0.06,0.26C95.24,17.16,95.82,19.04,96.25,21z"/>
				
					<linearGradient id="SVGID_00000168083272906610252880000012628188497576457111_" gradientUnits="userSpaceOnUse" x1="61.2198" y1="89.261" x2="61.2198" y2="11.1159">
					<stop  offset="0" style="stop-color:#A76F2A"/>
					<stop  offset="0.0112" style="stop-color:#AB742D"/>
					<stop  offset="0.0981" style="stop-color:#C99843"/>
					<stop  offset="0.1687" style="stop-color:#DBAF50"/>
					<stop  offset="0.2138" style="stop-color:#E2B755"/>
					<stop  offset="0.5" style="stop-color:#F2E19B"/>
					<stop  offset="0.7425" style="stop-color:#E2B755"/>
					<stop  offset="1" style="stop-color:#C3913E"/>
				</linearGradient>
				<path style="fill:url(#SVGID_00000168083272906610252880000012628188497576457111_);" d="M22.8,29.92
					c0.03,1.01,0.01,2.01,0.01,3.06c1.19-2.01,2.78-3.58,4.56-4.99c1.66-1.31,3.12-2.86,4.23-4.74c0.71-1.21,1.21-2.5,1.37-3.97
					c-0.48,0.61-0.86,1.26-1.38,1.74c-1.1,1.02-2.24,2-3.42,2.91c-1.74,1.35-3.18,2.94-4.06,5.07c-0.05,0.12-0.15,0.21-0.23,0.31
					c-0.09-0.26-0.08-0.48-0.02-0.68c0.27-0.88,0.61-1.73,0.82-2.63c0.42-1.73,0.76-3.48,1.15-5.22c0.36-1.59,0.89-3.09,1.95-4.32
					c0.11-0.13,0.21-0.28,0.43-0.57c-2.15,0.99-3.58,2.51-4.6,4.49c-0.9,1.76-1.06,3.69-1.03,5.64
					C22.62,27.32,22.76,28.62,22.8,29.92z"/>
				
					<linearGradient id="SVGID_00000021119040228458063520000017674677883653928612_" gradientUnits="userSpaceOnUse" x1="61.2198" y1="89.261" x2="61.2198" y2="11.1159">
					<stop  offset="0" style="stop-color:#A76F2A"/>
					<stop  offset="0.0112" style="stop-color:#AB742D"/>
					<stop  offset="0.0981" style="stop-color:#C99843"/>
					<stop  offset="0.1687" style="stop-color:#DBAF50"/>
					<stop  offset="0.2138" style="stop-color:#E2B755"/>
					<stop  offset="0.5" style="stop-color:#F2E19B"/>
					<stop  offset="0.7425" style="stop-color:#E2B755"/>
					<stop  offset="1" style="stop-color:#C3913E"/>
				</linearGradient>
				<path style="fill:url(#SVGID_00000021119040228458063520000017674677883653928612_);" d="M85.41,11.63
					c0.89,0.89,1.66,1.88,2.34,2.98c1.45,2.36,3.28,4.37,5.2,6.28c0.61,0.6,1.28,1.13,1.93,1.69c-1.27-7.43-4.99-10.22-10-11.46
					C85.02,11.32,85.24,11.46,85.41,11.63z"/>
				
					<linearGradient id="SVGID_00000098222502240464112430000018387791116176735646_" gradientUnits="userSpaceOnUse" x1="61.2198" y1="89.261" x2="61.2198" y2="11.1159">
					<stop  offset="0" style="stop-color:#A76F2A"/>
					<stop  offset="0.0112" style="stop-color:#AB742D"/>
					<stop  offset="0.0981" style="stop-color:#C99843"/>
					<stop  offset="0.1687" style="stop-color:#DBAF50"/>
					<stop  offset="0.2138" style="stop-color:#E2B755"/>
					<stop  offset="0.5" style="stop-color:#F2E19B"/>
					<stop  offset="0.7425" style="stop-color:#E2B755"/>
					<stop  offset="1" style="stop-color:#C3913E"/>
				</linearGradient>
				<path style="fill:url(#SVGID_00000098222502240464112430000018387791116176735646_);" d="M28.39,21.84
					c1.62-1.4,3.12-2.92,4.28-4.8c1.18-1.9,2.43-3.75,3.96-5.36c0.04-0.04,0.03-0.14,0.04-0.19c-5.49,1.65-8.92,5.29-9.65,11.54
					C27.48,22.63,27.93,22.23,28.39,21.84z"/>
			</g>
		</g>
		<g>
			
				<linearGradient id="SVGID_00000046320655338542574610000005843197228975301561_" gradientUnits="userSpaceOnUse" x1="61.2198" y1="75.8592" x2="61.2198" y2="-23.7712">
				<stop  offset="0" style="stop-color:#A76F2A"/>
				<stop  offset="8.630439e-03" style="stop-color:#AB742D"/>
				<stop  offset="0.0756" style="stop-color:#C99843"/>
				<stop  offset="0.1299" style="stop-color:#DBAF50"/>
				<stop  offset="0.1646" style="stop-color:#E2B755"/>
				<stop  offset="0.3796" style="stop-color:#F9F2B7"/>
				<stop  offset="0.5666" style="stop-color:#E2B755"/>
				<stop  offset="0.842" style="stop-color:#8F5D21"/>
				<stop  offset="0.8704" style="stop-color:#956324"/>
				<stop  offset="0.9086" style="stop-color:#A4742E"/>
				<stop  offset="0.9522" style="stop-color:#BE903E"/>
				<stop  offset="0.9996" style="stop-color:#E2B755"/>
				<stop  offset="1" style="stop-color:#E2B755"/>
			</linearGradient>
			<circle style="fill:url(#SVGID_00000046320655338542574610000005843197228975301561_);" cx="61.22" cy="43.3" r="32.56"/>
		</g>
		<g>
			
				<linearGradient id="SVGID_00000096039402635636526150000012337777639789823918_" gradientUnits="userSpaceOnUse" x1="28.6597" y1="43.2991" x2="93.7799" y2="43.2991">
				<stop  offset="0" style="stop-color:#E2B755"/>
				<stop  offset="0.081" style="stop-color:#F2E19B"/>
				<stop  offset="0.2911" style="stop-color:#F4E6A3"/>
				<stop  offset="0.5" style="stop-color:#F9F1B5"/>
				<stop  offset="0.6888" style="stop-color:#F5E8A7"/>
				<stop  offset="0.9123" style="stop-color:#F2E19B"/>
				<stop  offset="1" style="stop-color:#E2B755"/>
			</linearGradient>
			<path style="fill:url(#SVGID_00000096039402635636526150000012337777639789823918_);" d="M61.21,11.65
				c0.87,0,1.66,0.03,2.41,0.09c4.81,0.36,9.36,1.78,13.51,4.2c3.99,2.33,7.49,5.57,10.12,9.38c3.59,5.16,5.52,11.22,5.6,17.53
				l0,0.04l0,0.04c0.01,0.11,0.01,0.25,0.01,0.38c0,5.99-1.67,11.8-4.84,16.83h-0.01l-0.27,0.42c-2.69,4.15-6.38,7.65-10.66,10.13
				c-4.39,2.55-9.4,4.01-14.5,4.23h-0.01l-0.01,0c-0.41,0.01-0.89,0.03-1.35,0.03c-0.45,0-0.92-0.01-1.33-0.03l-0.01,0h-0.01
				c-5.09-0.21-10.11-1.68-14.5-4.23C41.08,68.2,37.4,64.7,34.7,60.55l-0.27-0.42h-0.01c-3.17-5.03-4.84-10.84-4.84-16.83
				c0-0.13,0-0.27,0.01-0.38l0-0.04l0-0.04c0.08-6.29,2.01-12.35,5.6-17.53c2.63-3.81,6.12-7.05,10.11-9.38
				c4.16-2.43,8.7-3.84,13.52-4.19C59.57,11.68,60.35,11.65,61.21,11.65 M61.21,10.74c-0.83,0-1.65,0.03-2.47,0.1
				c-10.08,0.75-18.89,6.1-24.31,13.97c-3.56,5.14-5.68,11.35-5.76,18.04c-0.01,0.15-0.01,0.31-0.01,0.46
				c0,6.55,1.93,12.65,5.26,17.74c0,0,0,0,0.01,0c5.56,8.56,15.04,14.33,25.9,14.78h0.01c0.45,0.01,0.91,0.03,1.36,0.03
				c0.46,0,0.93-0.01,1.38-0.03h0.01c10.86-0.46,20.34-6.23,25.9-14.78h0.01c3.32-5.1,5.26-11.19,5.26-17.74
				c0-0.15,0-0.31-0.01-0.46c-0.08-6.69-2.19-12.9-5.76-18.04c-5.42-7.86-14.23-13.2-24.31-13.97
				C62.88,10.77,62.04,10.74,61.21,10.74L61.21,10.74z"/>
			
				<linearGradient id="SVGID_00000041270391117654390120000001865479603322311325_" gradientUnits="userSpaceOnUse" x1="33.9793" y1="28.4434" x2="88.4604" y2="28.4434">
				<stop  offset="0" style="stop-color:#E2B755"/>
				<stop  offset="0.081" style="stop-color:#F2E19B"/>
				<stop  offset="0.2911" style="stop-color:#F4E6A3"/>
				<stop  offset="0.5" style="stop-color:#F9F1B5"/>
				<stop  offset="0.6888" style="stop-color:#F5E8A7"/>
				<stop  offset="0.9123" style="stop-color:#F2E19B"/>
				<stop  offset="1" style="stop-color:#E2B755"/>
			</linearGradient>
			<path style="fill:url(#SVGID_00000041270391117654390120000001865479603322311325_);" d="M61.21,31.61
				c-4.82,0-9.62-0.49-14.28-1.45c-4.4-0.91-8.67-2.25-12.68-3.99c-0.23-0.1-0.34-0.37-0.24-0.6c0.1-0.23,0.37-0.34,0.6-0.24
				c3.95,1.72,8.16,3.04,12.5,3.94c4.6,0.95,9.34,1.43,14.09,1.43c4.76,0,9.51-0.48,14.11-1.43c4.31-0.89,8.52-2.21,12.5-3.94
				c0.23-0.1,0.5,0.01,0.6,0.24c0.1,0.23-0.01,0.5-0.24,0.6c-4.04,1.75-8.31,3.09-12.68,3.99C70.85,31.12,66.04,31.61,61.21,31.61z"
				/>
			
				<linearGradient id="SVGID_00000059991587908447350650000014073620587595717013_" gradientUnits="userSpaceOnUse" x1="33.4684" y1="57.3356" x2="88.9712" y2="57.3356">
				<stop  offset="0" style="stop-color:#E2B755"/>
				<stop  offset="0.081" style="stop-color:#F2E19B"/>
				<stop  offset="0.2911" style="stop-color:#F4E6A3"/>
				<stop  offset="0.5" style="stop-color:#F9F1B5"/>
				<stop  offset="0.6888" style="stop-color:#F5E8A7"/>
				<stop  offset="0.9123" style="stop-color:#F2E19B"/>
				<stop  offset="1" style="stop-color:#E2B755"/>
			</linearGradient>
			<path style="fill:url(#SVGID_00000059991587908447350650000014073620587595717013_);" d="M88.52,60.6h-0.1l-0.1-0.04
				c-4.11-1.82-8.48-3.21-12.98-4.14c-4.6-0.95-9.35-1.43-14.13-1.43c-4.76,0-9.51,0.48-14.12,1.43c-4.5,0.93-8.86,2.32-12.98,4.14
				l-0.09,0.04h-0.1c-0.25,0-0.46-0.2-0.46-0.46c0-0.21,0.14-0.39,0.33-0.44c4.16-1.83,8.57-3.24,13.11-4.18
				c4.67-0.96,9.48-1.45,14.31-1.45c4.85,0,9.66,0.49,14.32,1.45c4.55,0.94,8.97,2.35,13.14,4.19c0.17,0.07,0.3,0.23,0.3,0.43
				C88.97,60.4,88.77,60.6,88.52,60.6z"/>
			
				<linearGradient id="SVGID_00000138557540347887272350000013178148837451741591_" gradientUnits="userSpaceOnUse" x1="61.213" y1="75.8592" x2="61.213" y2="10.739">
				<stop  offset="0" style="stop-color:#E2B755"/>
				<stop  offset="0.081" style="stop-color:#F2E19B"/>
				<stop  offset="0.2911" style="stop-color:#F4E6A3"/>
				<stop  offset="0.5" style="stop-color:#F9F1B5"/>
				<stop  offset="0.6888" style="stop-color:#F5E8A7"/>
				<stop  offset="0.9123" style="stop-color:#F2E19B"/>
				<stop  offset="1" style="stop-color:#E2B755"/>
			</linearGradient>
			
				<rect x="60.76" y="10.74" style="fill:url(#SVGID_00000138557540347887272350000013178148837451741591_);" width="0.92" height="65.12"/>
			
				<linearGradient id="SVGID_00000183938191156820138250000001948459256085967253_" gradientUnits="userSpaceOnUse" x1="28.6734" y1="42.8426" x2="93.7663" y2="42.8426">
				<stop  offset="0" style="stop-color:#E2B755"/>
				<stop  offset="0.081" style="stop-color:#F2E19B"/>
				<stop  offset="0.2911" style="stop-color:#F4E6A3"/>
				<stop  offset="0.5" style="stop-color:#F9F1B5"/>
				<stop  offset="0.6888" style="stop-color:#F5E8A7"/>
				<stop  offset="0.9123" style="stop-color:#F2E19B"/>
				<stop  offset="1" style="stop-color:#E2B755"/>
			</linearGradient>
			
				<rect x="28.67" y="42.38" style="fill:url(#SVGID_00000183938191156820138250000001948459256085967253_);" width="65.09" height="0.92"/>
			
				<linearGradient id="SVGID_00000026152169934216070860000012908485693257185926_" gradientUnits="userSpaceOnUse" x1="43.9399" y1="43.2991" x2="78.4998" y2="43.2991">
				<stop  offset="0" style="stop-color:#E2B755"/>
				<stop  offset="0.081" style="stop-color:#F2E19B"/>
				<stop  offset="0.2911" style="stop-color:#F4E6A3"/>
				<stop  offset="0.5" style="stop-color:#F9F1B5"/>
				<stop  offset="0.6888" style="stop-color:#F5E8A7"/>
				<stop  offset="0.9123" style="stop-color:#F2E19B"/>
				<stop  offset="1" style="stop-color:#E2B755"/>
			</linearGradient>
			<path style="fill:url(#SVGID_00000026152169934216070860000012908485693257185926_);" d="M61.22,11.65
				c4.26,0,8.31,3.21,11.41,9.05c3.19,6.02,4.95,14.04,4.95,22.59s-1.76,16.57-4.95,22.59c-3.1,5.84-7.15,9.05-11.41,9.05
				s-8.31-3.21-11.41-9.05c-3.19-6.02-4.95-14.04-4.95-22.59s1.76-16.57,4.95-22.59C52.91,14.87,56.96,11.65,61.22,11.65
				 M61.22,10.74c-9.54,0-17.28,14.58-17.28,32.56s7.74,32.56,17.28,32.56c9.54,0,17.28-14.58,17.28-32.56S70.76,10.74,61.22,10.74
				L61.22,10.74z"/>
		</g>
		<g class="st23">
			<path class="st0" d="M83.32,19.92c-0.21-0.17-0.45-0.14-0.66,0.03c-0.08,0.06-0.15,0.12-0.23,0.18c-0.05,0.04-0.1,0.08-0.16,0.05
				c-0.25-0.12-0.54-0.09-0.78-0.2c-0.46-0.22-0.96-0.3-1.45-0.42c-0.23-0.06-0.46-0.14-0.69-0.23c-0.24-0.1-0.46-0.25-0.72-0.29
				c-0.38-0.04-0.75-0.09-1.03-0.07c-0.31,0-0.53,0-0.74,0c-0.09,0-0.19-0.01-0.25,0.05c-0.22,0.23-0.52,0.19-0.79,0.24
				c-0.07,0.01-0.16,0-0.22,0.05c-0.39,0.31-0.81,0.6-1.13,0.99c-0.04,0.04-0.08,0.08-0.13,0.12c-0.24,0.21-0.49,0.42-0.67,0.68
				c-0.07,0.1-0.17,0.19-0.27,0.26c-0.22,0.15-0.43,0.3-0.69,0.38c-0.22,0.07-0.36,0.26-0.57,0.34c-0.47,0.18-0.46,0.16-0.43,0.74
				c0.01,0.13,0.07,0.26,0.1,0.39c0.02,0.08,0.05,0.17,0.07,0.25c0.05,0.25,0.2,0.4,0.45,0.41c0.2,0.01,0.39-0.03,0.55-0.16
				c0.07-0.05,0.13-0.11,0.2-0.16c0.1-0.07,0.18-0.08,0.29,0c0.26,0.19,0.43,0.47,0.63,0.72c0.09,0.11,0.05,0.22-0.07,0.29
				c-0.08,0.05-0.17,0.1-0.24,0.16c-0.06,0.05-0.06,0.12-0.04,0.19c0.02,0.08,0.08,0.12,0.15,0.11c0.26-0.05,0.55-0.05,0.78-0.2
				c0.12-0.08,0.23-0.15,0.37-0.14c0.15,0.01,0.21-0.08,0.24-0.2c0.05-0.19,0.12-0.37,0.12-0.57c0-0.14,0.05-0.24,0.19-0.28
				c0.06-0.02,0.13-0.06,0.18-0.09c0.3-0.21,0.32-0.42,0.05-0.67c-0.04-0.03-0.07-0.06-0.11-0.1c-0.3-0.25-0.26-0.59,0.08-0.77
				c0.09-0.05,0.17-0.09,0.26-0.14c0.24-0.14,0.46-0.29,0.57-0.56c0.07-0.17,0.22-0.27,0.41-0.28c0.13-0.01,0.25,0,0.38,0.01
				c0.05,0,0.1,0.01,0.12,0.06c0.04,0.07-0.03,0.1-0.07,0.14c-0.19,0.16-0.36,0.35-0.59,0.47c-0.22,0.11-0.39,0.28-0.34,0.58
				c0.06,0.42,0.22,0.76,0.67,0.88c0.02,0,0.04,0.01,0.06,0.02c0.17,0.08,0.27,0.22,0.26,0.38c-0.02,0.21-0.1,0.34-0.31,0.36
				c-0.28,0.04-0.41,0.19-0.45,0.45c-0.01,0.07-0.02,0.13-0.04,0.2c-0.09,0.38-0.3,0.57-0.64,0.54c-0.1-0.01-0.19,0.02-0.29,0.03
				c-0.34,0.03-0.63,0.19-0.95,0.28c-0.09,0.02-0.16,0.06-0.23-0.03c-0.19-0.25-0.41-0.25-0.67-0.11c-0.09,0.05-0.19,0.08-0.3,0.02
				c-0.25-0.13-0.33-0.23-0.24-0.51c0.06-0.19,0.05-0.36,0.03-0.55c-0.01-0.1-0.07-0.18-0.19-0.17c-0.19,0.01-0.42,0.22-0.49,0.41
				c-0.08,0.22-0.09,0.45-0.06,0.68c0.02,0.16-0.04,0.26-0.19,0.32c-0.14,0.06-0.28,0.14-0.42,0.19c-0.23,0.08-0.43,0.22-0.55,0.41
				c-0.17,0.26-0.44,0.38-0.68,0.53c-0.12,0.07-0.23,0.13-0.28,0.27c-0.08,0.22-0.33,0.21-0.49,0.33c-0.09,0.07-0.18,0-0.28-0.03
				c-0.13-0.04-0.29-0.06-0.37,0.08c-0.12,0.22-0.3,0.25-0.52,0.25c-0.14,0-0.27,0.02-0.4,0.06c-0.06,0.02-0.11,0.05-0.11,0.12
				c-0.01,0.1,0.16,0.33,0.28,0.34c0.39,0.02,0.59,0.31,0.79,0.58c0.13,0.17,0.17,0.37,0.08,0.58c-0.04,0.1-0.06,0.2-0.07,0.31
				c-0.04,0.26-0.09,0.29-0.34,0.29c-0.07,0-0.14,0-0.2-0.01c-0.52-0.08-1.04-0.07-1.56-0.11c-0.06,0-0.12,0-0.17,0.04
				c-0.19,0.14-0.47,0.21-0.35,0.56c0.05,0.13-0.07,0.29-0.03,0.43c0.05,0.17,0,0.32-0.05,0.48c-0.05,0.14-0.13,0.26-0.19,0.39
				c-0.03,0.07-0.1,0.16-0.03,0.22c0.16,0.16,0.13,0.36,0.13,0.55c0,0.15,0.08,0.21,0.22,0.21c0.05,0,0.1,0.01,0.15,0
				c0.25-0.04,0.45,0.03,0.64,0.2c0.15,0.13,0.36,0.2,0.54,0.11c0.15-0.07,0.3-0.1,0.45-0.08c0.4,0.05,0.66-0.21,0.91-0.44
				c0.12-0.11,0.17-0.31,0.29-0.46c0.02-0.03,0.02-0.1,0-0.14c-0.07-0.13,0-0.22,0.07-0.32c0.08-0.1,0.16-0.2,0.22-0.31
				c0.07-0.12,0.16-0.2,0.32-0.22c0.21-0.03,0.35-0.2,0.5-0.33c0.11-0.09,0.06-0.24,0.07-0.36c0.02-0.23,0.16-0.36,0.41-0.34
				c0.14,0.01,0.28,0.06,0.43,0.09c0.09,0.02,0.2,0.08,0.28,0.03c0.19-0.13,0.41-0.21,0.6-0.33c0.24-0.15,0.26-0.17,0.47,0
				c0.08,0.06,0.14,0.14,0.18,0.23c0.07,0.17,0.19,0.29,0.32,0.41c0.28,0.25,0.58,0.48,0.94,0.63c0.26,0.11,0.43,0.32,0.61,0.53
				c0.16,0.18,0.04,0.44-0.2,0.51c-0.24,0.07-0.48,0.05-0.72,0.05c-0.08,0-0.16,0.01-0.19,0.1c-0.03,0.09,0.04,0.14,0.11,0.18
				c0.21,0.12,0.44,0.21,0.65,0.34c0.13,0.08,0.26,0.01,0.26-0.15c0-0.19,0.09-0.28,0.25-0.33c0.21-0.06,0.25-0.25,0.33-0.41
				c0.06-0.12,0.03-0.21-0.03-0.33c-0.06-0.12,0.01-0.2,0.15-0.2c0.1,0,0.15,0.08,0.23,0.11c0.1,0.04,0.17,0,0.17-0.12
				c0-0.13-0.08-0.2-0.17-0.26c-0.21-0.14-0.42-0.27-0.63-0.42c-0.1-0.07-0.19-0.12-0.3-0.15c-0.2-0.06-0.41-0.17-0.49-0.37
				c-0.07-0.16-0.16-0.28-0.3-0.38c-0.05-0.03-0.09-0.08-0.12-0.13c-0.07-0.11-0.05-0.31,0.03-0.38c0.1-0.08,0.22-0.13,0.32-0.04
				c0.18,0.15,0.41,0.26,0.54,0.48c0.09,0.16,0.25,0.25,0.42,0.29c0.12,0.03,0.22,0.08,0.3,0.17c0.06,0.07,0.13,0.12,0.21,0.16
				c0.33,0.17,0.46,0.45,0.47,0.81c0,0.09-0.02,0.18,0.04,0.25c0.22,0.26,0.32,0.6,0.57,0.84c0.08,0.08,0.13,0.19,0.13,0.29
				c0,0.29,0.2,0.35,0.42,0.4c0.17,0.04,0.22,0.01,0.28-0.16c0.13-0.36,0.28-0.72,0.09-1.11c-0.01-0.02-0.01-0.04-0.01-0.06
				c-0.02-0.17,0.15-0.44,0.28-0.46c0.25-0.03,0.51,0.15,0.53,0.38c0.01,0.12,0.02,0.23,0.01,0.35c-0.01,0.24,0.07,0.47,0.2,0.66
				c0.11,0.17,0.26,0.31,0.5,0.3c0.19-0.01,0.36,0.07,0.53,0.15c0.14,0.07,0.26,0.09,0.37-0.02c0.08-0.08,0.17-0.07,0.27-0.04
				c0.14,0.04,0.28,0.08,0.41,0.14c0.19,0.1,0.39,0.11,0.58-0.03c0.06-0.04,0.14-0.08,0.21-0.1c0.2-0.05,0.41,0.07,0.43,0.25
				c0.02,0.22,0.07,0.46-0.02,0.67c-0.08,0.2-0.15,0.4-0.19,0.61c-0.04,0.17-0.08,0.34-0.15,0.5c-0.1,0.2-0.1,0.39-0.04,0.59
				c0.07,0.25,0.19,0.48,0.29,0.73c0.17,0.41,0.39,0.78,0.66,1.13c0.12,0.15,0.22,0.32,0.28,0.51c0.04,0.11,0.1,0.19,0.19,0.25
				c0.18,0.12,0.29,0.31,0.4,0.49c0.11,0.19,0.13,0.41,0.17,0.61c0.06,0.28,0.17,0.51,0.44,0.65c0.08,0.04,0.15,0.1,0.19,0.17
				c0.26,0.37,0.5,0.77,0.65,1.19c0.16,0.46,0.41,0.88,0.57,1.33c0.06,0.16,0.2,0.29,0.36,0.36c0.15,0.07,0.26-0.03,0.37-0.1
				c0.02-0.01,0.06-0.02,0.08-0.03c0.53-0.2,1.05-0.38,1.54-0.66c0.09-0.05,0.2-0.06,0.31-0.09c0.21-0.05,0.4-0.14,0.51-0.35
				c0.07-0.12,0.17-0.22,0.29-0.28c0.33-0.17,0.65-0.32,0.96-0.53c0.35-0.24,0.71-0.44,0.8-0.9c0.02-0.1,0.08-0.17,0.13-0.26
				c0.14-0.22,0.29-0.44,0.36-0.7c0.03-0.1,0.05-0.19-0.03-0.27c-0.11-0.14-0.21-0.28-0.33-0.41c-0.08-0.1-0.19-0.18-0.33-0.16
				c-0.17,0.03-0.27-0.06-0.36-0.2c-0.04-0.07-0.09-0.12-0.14-0.19c-0.24-0.36-0.5-0.37-0.75-0.04c-0.08,0.11-0.17,0.19-0.29,0.23
				c-0.23,0.06-0.46,0.04-0.7,0.01c-0.08-0.01-0.14-0.06-0.12-0.16c0.12-0.47-0.15-0.73-0.52-0.92c-0.38-0.2-0.66-0.51-0.8-0.91
				c-0.09-0.23,0.11-0.44,0.36-0.41c0.34,0.05,0.48,0.31,0.58,0.58c0.05,0.13,0.07,0.29,0.2,0.34c0.35,0.15,0.62,0.43,1,0.52
				c0.2,0.05,0.37,0.1,0.56,0.01c0.07-0.03,0.14-0.05,0.21-0.09c0.15-0.08,0.19-0.06,0.27,0.09c0.02,0.04,0.04,0.09,0.05,0.13
				c0.05,0.18,0.17,0.27,0.35,0.3c0.25,0.04,0.49,0.11,0.74,0.15c0.52,0.09,1.04,0.14,1.56,0.02c0.11-0.02,0.22-0.04,0.33-0.05
				c-1.22-6.79-4.55-12.85-9.27-17.47c-0.04,0.01-0.08,0.02-0.11,0.03C83.71,20.11,83.51,20.08,83.32,19.92z"/>
			<path class="st0" d="M88.39,43.06c-0.24,0.14-0.5,0.13-0.75,0.2c-0.41,0.11-0.8,0.28-1.23,0.35c-0.31,0.05-0.66-0.14-0.67-0.44
				c-0.01-0.24-0.13-0.4-0.27-0.55c-0.14-0.16-0.3-0.31-0.42-0.48c-0.1-0.14-0.2-0.24-0.37-0.29c-0.35-0.11-0.56-0.36-0.58-0.75
				c-0.01-0.23-0.11-0.45-0.28-0.63c-0.27-0.3-0.46-0.63-0.5-1.05c-0.02-0.28-0.13-0.57-0.33-0.79c-0.23-0.26-0.44-0.54-0.55-0.88
				c-0.04-0.13-0.12-0.25-0.16-0.37c-0.12-0.35-0.43-0.6-0.39-1.03c0.03-0.24-0.12-0.5-0.17-0.76c-0.07-0.39-0.37-0.58-0.67-0.75
				c-0.25-0.14-0.49-0.06-0.71,0.1c-0.14,0.11-0.27,0.12-0.43,0.04c-0.11-0.06-0.24-0.08-0.36-0.1c-0.38-0.09-0.76-0.13-1.12-0.3
				c-0.16-0.08-0.34-0.11-0.49-0.23c-0.15-0.12-0.36-0.13-0.56-0.09c-0.08,0.02-0.14,0.05-0.22,0.06c-0.19,0.01-0.27,0.17-0.38,0.29
				c-0.09,0.11-0.04,0.21,0,0.33c0.06,0.18-0.03,0.3-0.23,0.31c-0.12,0.01-0.21-0.04-0.29-0.11c-0.18-0.16-0.4-0.24-0.64-0.25
				c-0.19,0-0.32-0.07-0.37-0.26c-0.07-0.26-0.28-0.33-0.51-0.37c-0.1-0.02-0.21-0.02-0.32,0c-0.26,0.03-0.48-0.08-0.69-0.2
				c-0.22-0.13-0.27-0.36-0.15-0.59c0.05-0.09,0.08-0.18,0.07-0.28c-0.01-0.15-0.01-0.31,0.01-0.46c0.03-0.16-0.07-0.3-0.22-0.33
				c-0.15-0.02-0.32-0.05-0.46,0.02c-0.12,0.06-0.24,0.05-0.37,0.05c-0.28,0.01-0.57-0.08-0.82,0.11c-0.06,0.04-0.13,0.03-0.19-0.01
				c-0.17-0.08-0.34-0.06-0.51-0.02c-0.32,0.06-0.64,0.16-0.98,0.14c-0.17-0.01-0.32,0.08-0.43,0.21c-0.05,0.06-0.11,0.1-0.18,0.13
				c-0.34,0.14-0.71,0.19-1.07,0.23c-0.18,0.02-0.36,0.02-0.52-0.12c-0.14-0.11-0.32-0.04-0.42,0.11c-0.06,0.1-0.14,0.19-0.18,0.3
				c-0.07,0.19-0.2,0.29-0.37,0.38c-0.41,0.23-0.72,0.56-0.84,1.02c-0.08,0.28-0.2,0.53-0.38,0.75c-0.2,0.24-0.37,0.52-0.72,0.61
				c-0.11,0.03-0.19,0.11-0.24,0.23c-0.06,0.14-0.13,0.32-0.25,0.38c-0.24,0.13-0.31,0.32-0.37,0.55c-0.02,0.07-0.06,0.15-0.09,0.21
				c-0.18,0.33-0.41,0.62-0.58,0.97c-0.17,0.36-0.24,0.67-0.09,1.05c0.15,0.38,0.27,0.77,0.12,1.18c-0.02,0.06-0.03,0.13-0.04,0.2
				c-0.02,0.15-0.09,0.27-0.2,0.38c-0.17,0.16-0.25,0.36-0.25,0.6c0,0.45,0.19,0.82,0.43,1.18c0.07,0.11,0.21,0.14,0.3,0.22
				c0.17,0.15,0.27,0.35,0.44,0.5c0.11,0.1,0.19,0.21,0.24,0.36c0.16,0.56,0.5,0.98,0.99,1.28c0.28,0.17,0.55,0.37,0.8,0.58
				c0.25,0.22,0.52,0.28,0.83,0.11c0.07-0.04,0.16-0.07,0.24-0.1c0.31-0.1,0.62-0.19,0.96-0.08c0.21,0.07,0.45,0.16,0.71,0.05
				c0.31-0.14,0.63-0.25,0.93-0.4c0.3-0.14,0.6-0.2,0.92-0.2c0.38,0,0.6,0.16,0.72,0.51c0.12,0.34,0.2,0.38,0.56,0.33
				c0.27-0.04,0.52-0.02,0.76,0.11c0.3,0.17,0.35,0.28,0.29,0.64c-0.03,0.18-0.13,0.35-0.12,0.54c0.01,0.25-0.04,0.48-0.13,0.71
				c-0.04,0.09-0.07,0.18-0.03,0.28c0.07,0.15,0.11,0.31,0.22,0.44c0.2,0.25,0.39,0.51,0.6,0.75c0.17,0.2,0.3,0.42,0.33,0.69
				c0.02,0.17,0.09,0.33,0.19,0.48c0.11,0.17,0.17,0.35,0.16,0.55c-0.02,0.35,0.07,0.67,0.2,0.99c0.16,0.37,0.13,0.72-0.18,1.01
				c-0.13,0.12-0.2,0.28-0.23,0.46c-0.04,0.29-0.16,0.56-0.23,0.84c-0.07,0.27-0.07,0.56-0.09,0.84c-0.01,0.1,0.05,0.19,0.1,0.27
				c0.13,0.18,0.21,0.39,0.3,0.6c0.12,0.28,0.2,0.57,0.42,0.8c0.19,0.2,0.24,0.43,0.22,0.7c-0.01,0.18-0.04,0.37,0.02,0.55
				c0.07,0.19,0.09,0.38,0.1,0.57c0.02,0.31,0.07,0.64,0.29,0.84c0.37,0.35,0.56,0.77,0.65,1.25c0,0.01,0.01,0.02,0.01,0.03
				c0.1,0.18,0.13,0.37,0.1,0.63c-0.07,0.2,0.1,0.42,0.14,0.67c0.01,0.04,0.03,0.08,0.06,0.1c0.2,0.1,0.38,0.25,0.62,0.21
				c0.37-0.06,0.76-0.05,1.11-0.19c0.04-0.02,0.1-0.02,0.14-0.02c0.37,0.01,0.72-0.09,1.08-0.2c0.36-0.12,0.64-0.31,0.87-0.6
				c0.09-0.1,0.17-0.21,0.28-0.3c0.18-0.14,0.3-0.32,0.41-0.53c0.1-0.2,0.23-0.4,0.4-0.53c0.2-0.16,0.3-0.37,0.38-0.6
				c0.03-0.1,0.08-0.2,0.09-0.31c0.05-0.38,0.27-0.63,0.6-0.8c0.13-0.07,0.25-0.17,0.3-0.31c0.14-0.39,0.24-0.78,0.09-1.19
				c-0.03-0.07-0.05-0.15-0.06-0.22c-0.06-0.35,0.05-0.64,0.33-0.84c0.12-0.09,0.22-0.19,0.3-0.31c0.09-0.12,0.2-0.21,0.34-0.26
				c0.34-0.14,0.63-0.34,0.87-0.62c0.22-0.27,0.36-0.57,0.31-0.93c-0.03-0.27-0.03-0.54,0.02-0.81c0.06-0.3,0.06-0.61-0.15-0.89
				c-0.14-0.18-0.25-0.41-0.24-0.64c0.02-0.39-0.04-0.77-0.13-1.15c-0.04-0.15-0.02-0.31,0.08-0.44c0.07-0.09,0.11-0.18,0.15-0.28
				c0.16-0.38,0.32-0.75,0.66-1c0.06-0.05,0.1-0.11,0.15-0.18c0.18-0.24,0.34-0.5,0.54-0.73c0.17-0.21,0.34-0.44,0.59-0.56
				c0.59-0.28,0.97-0.78,1.26-1.33c0.33-0.62,0.6-1.26,0.89-1.9c0.03-0.06,0.03-0.13,0.05-0.2c0.09-0.27-0.02-0.54,0.04-0.81
				C88.65,43.14,88.49,43.01,88.39,43.06z"/>
			<path class="st0" d="M29.84,37.25c-0.02,0.15,0.04,0.26,0.17,0.34c0.24,0.16,0.4,0.39,0.53,0.65c0.08,0.16,0.15,0.31,0.25,0.46
				c0.14,0.21,0.15,0.43,0.05,0.66c-0.16,0.35-0.03,0.69,0.32,0.86c0.03,0.02,0.08,0.03,0.1,0.06c0.15,0.24,0.38,0.35,0.64,0.42
				c0.04,0.01,0.08,0.05,0.12,0.09c0.13,0.15,0.3,0.24,0.48,0.32c0.37,0.15,0.74,0.3,1.11,0.44c0.17,0.06,0.34,0.07,0.51,0.01
				c0.09-0.03,0.19-0.05,0.28-0.08c0.13-0.05,0.25-0.02,0.36,0.06c0.09,0.06,0.18,0.12,0.24,0.21c0.44,0.63,1.1,0.86,1.81,0.98
				c0.18,0.03,0.32,0.13,0.4,0.27c0.1,0.17,0.21,0.35,0.24,0.56c0.04,0.31,0.18,0.54,0.5,0.65c0.18,0.06,0.35,0.17,0.43,0.37
				c0.07,0.16,0.21,0.23,0.37,0.25c0.19,0.02,0.36,0.08,0.48,0.24c0.08,0.11,0.21,0.08,0.33,0.05c0.1-0.03,0.12-0.12,0.11-0.21
				c-0.01-0.08,0.01-0.15,0.06-0.22c0.06-0.08,0.08-0.19,0.02-0.27c-0.06-0.09-0.18-0.07-0.27-0.04c-0.24,0.07-0.44-0.01-0.61-0.17
				c-0.06-0.05-0.11-0.11-0.18-0.15c-0.25-0.19-0.31-0.47-0.21-0.74c0.13-0.36,0.1-0.75,0.29-1.09c0.06-0.11,0.02-0.25,0.02-0.37
				c0-0.06-0.05-0.1-0.09-0.14c-0.29-0.23-0.62-0.32-0.98-0.25c-0.14,0.02-0.27,0.01-0.41,0c-0.11,0-0.18-0.06-0.21-0.16
				c-0.07-0.21-0.04-0.41,0.08-0.58c0.14-0.19,0.23-0.4,0.32-0.62c0.1-0.25,0.07-0.55,0.28-0.78c0.1-0.1-0.01-0.23-0.16-0.26
				c-0.39-0.08-0.75,0.02-1.1,0.16c-0.11,0.04-0.17,0.12-0.18,0.24c-0.02,0.21-0.1,0.39-0.19,0.58c-0.11,0.23-0.22,0.31-0.48,0.29
				c-0.2-0.02-0.4-0.02-0.61,0.01c-0.37,0.06-0.73-0.19-0.91-0.53c-0.2-0.38-0.17-0.79-0.2-1.19c0-0.06,0.02-0.11,0.02-0.17
				c0.04-0.35,0.17-0.68,0.32-0.99c0.07-0.16,0.13-0.32,0.12-0.5c-0.01-0.2,0.06-0.37,0.22-0.48c0.19-0.13,0.36-0.29,0.58-0.38
				c0.21-0.08,0.41-0.17,0.6-0.3c0.17-0.11,0.34-0.12,0.55-0.05c0.34,0.12,0.7,0.11,1.06,0.17c0.09,0.01,0.13-0.05,0.18-0.12
				c0.08-0.12,0.18-0.23,0.33-0.27c0.18-0.04,0.36-0.09,0.54-0.12c0.17-0.03,0.34,0,0.43,0.17c0.07,0.14,0.17,0.16,0.31,0.14
				c0.33-0.05,0.51,0.14,0.47,0.47c-0.02,0.13-0.01,0.25,0.02,0.38c0.07,0.31,0.17,0.59,0.35,0.86c0.13,0.19,0.22,0.22,0.39,0.06
				c0.18-0.17,0.27-0.37,0.28-0.62c0.02-0.31-0.07-0.6-0.14-0.89c-0.14-0.58,0.03-1.06,0.5-1.41c0.39-0.29,0.79-0.56,1.23-0.77
				c0.25-0.12,0.49-0.22,0.65-0.49c0.1-0.17,0.22-0.32,0.26-0.51c0.07-0.29,0.21-0.52,0.4-0.74c0.22-0.26,0.45-0.51,0.68-0.76
				c0.25-0.28,0.53-0.47,0.91-0.52c0.18-0.02,0.33-0.11,0.49-0.17c0.11-0.05,0.17-0.13,0.16-0.25c-0.02-0.17,0.07-0.27,0.18-0.37
				c0.17-0.16,0.4-0.2,0.57-0.32c0.23-0.17,0.46-0.12,0.69-0.13c0.12,0,0.21,0.05,0.26,0.18c0.07,0.17,0.2,0.19,0.34,0.07
				c0.09-0.07,0.17-0.16,0.25-0.25c0.06-0.06,0.13-0.14,0.22-0.13c0.29,0.03,0.54-0.15,0.83-0.14c0.07,0,0.13-0.02,0.2-0.04
				c0.15-0.05,0.19-0.21,0.07-0.32c-0.05-0.05-0.11-0.07-0.18-0.08c-0.11-0.01-0.21-0.04-0.31-0.06c-0.3-0.06-0.43-0.25-0.35-0.55
				c0.03-0.13,0.09-0.26,0.2-0.35c0.16-0.13,0.22-0.3,0.17-0.49c-0.03-0.13,0.04-0.18,0.13-0.22c0.22-0.09,0.46-0.11,0.69-0.07
				c0.28,0.04,0.55,0.05,0.83-0.04c0.15-0.05,0.26,0.1,0.19,0.25c-0.05,0.12-0.13,0.22-0.23,0.3c-0.12,0.11-0.18,0.25-0.23,0.4
				c-0.04,0.12-0.03,0.18,0.11,0.21c0.18,0.03,0.36,0.07,0.55,0.02c0.19-0.05,0.39-0.05,0.56,0.07c0.17,0.11,0.36,0.14,0.55,0.18
				c0.27,0.06,0.46-0.18,0.36-0.44c-0.06-0.16-0.08-0.32,0-0.48c0.12-0.25,0.12-0.25-0.13-0.35c-0.21-0.08-0.25-0.18-0.24-0.4
				c0.02-0.3,0.18-0.55,0.22-0.84c0.02-0.18,0.01-0.3-0.13-0.41c-0.06-0.04-0.13-0.09-0.12-0.18c0.01-0.17-0.1-0.22-0.23-0.26
				c-0.33-0.08-0.41-0.32-0.42-0.62c-0.01-0.17,0-0.35,0-0.53c-0.01-0.3-0.1-0.57-0.29-0.81c-0.15-0.18-0.2-0.19-0.38-0.05
				c-0.23,0.18-0.47,0.34-0.72,0.49c-0.17,0.1-0.35,0.09-0.49-0.03c-0.12-0.11-0.14-0.22-0.05-0.42c0.02-0.04,0.04-0.09,0.06-0.13
				c0.08-0.18,0.07-0.26-0.09-0.34c-0.14-0.08-0.24-0.19-0.35-0.3c-0.11-0.11-0.22-0.24-0.38-0.26c-0.31-0.04-0.62-0.07-0.93-0.07
				c-0.11,0-0.22,0.03-0.3,0.11c-0.2,0.18-0.27,0.45-0.41,0.67c0.04,0.35-0.16,0.52-0.45,0.62c-0.03,0.01-0.06,0.02-0.08,0.03
				c-0.15,0.09-0.16,0.16-0.06,0.3c0.17,0.23,0.17,0.3,0.02,0.54c-0.1,0.17-0.25,0.29-0.42,0.4c-0.26,0.17-0.56,0.22-0.83,0.36
				c-0.13,0.06-0.22,0.13-0.21,0.28c0.02,0.24-0.15,0.44-0.15,0.68c0,0.09-0.1,0.16-0.18,0.21c-0.08,0.04-0.16,0.08-0.23,0.12
				c-0.2,0.09-0.3,0.06-0.39-0.14c-0.07-0.16-0.08-0.32,0.02-0.47c0.12-0.19,0.19-0.41,0.34-0.58c0.07-0.08,0.04-0.15-0.05-0.18
				c-0.16-0.05-0.32-0.09-0.49-0.09c-0.35,0-0.66-0.17-0.89-0.39c-0.22-0.21-0.45-0.33-0.72-0.4c-0.16-0.04-0.23-0.13-0.25-0.27
				c-0.02-0.11-0.01-0.24-0.09-0.34c-0.11-0.15-0.04-0.27,0.06-0.39c0.12-0.14,0.28-0.24,0.43-0.35c0.4-0.31,0.83-0.54,1.34-0.61
				c0.26-0.03,0.45-0.17,0.63-0.34c0.12-0.11,0.26-0.16,0.42-0.18c0.26-0.02,0.5,0.04,0.7,0.22c0.1,0.09,0.19,0.08,0.29,0.03
				c0.15-0.08,0.29-0.15,0.44-0.23c0.1-0.05,0.2-0.06,0.3,0.01c0.09,0.06,0.19,0.1,0.3,0.1c0.08,0,0.15-0.03,0.19-0.11
				c0.03-0.07,0-0.14-0.06-0.18c-0.11-0.08-0.15-0.19-0.19-0.32c-0.06-0.23-0.02-0.31,0.22-0.33c0.17-0.01,0.3-0.07,0.43-0.17
				c0.22-0.16,0.47-0.27,0.59-0.54c0.03-0.07,0.11-0.11,0.16-0.17c0.08-0.08,0.15-0.15,0.2-0.25c0.09-0.18,0.25-0.24,0.43-0.21
				c0.15,0.02,0.29,0.02,0.44,0.01c0.21,0,0.41,0.05,0.54,0.23c0.08,0.12,0.17,0.2,0.3,0.26c0.19,0.1,0.2,0.22,0.04,0.37
				c-0.12,0.11-0.26,0.21-0.41,0.28c-0.09,0.04-0.19,0.08-0.22,0.18c-0.05,0.18-0.19,0.2-0.34,0.22c-0.17,0.02-0.33-0.02-0.49-0.07
				c-0.25-0.08-0.52,0.06-0.61,0.3c-0.04,0.1-0.01,0.17,0.11,0.18c0.32,0.03,0.64,0.1,0.96,0.03c0.13-0.03,0.21,0.02,0.28,0.11
				c0.05,0.07,0.1,0.15,0.12,0.23c0.05,0.19,0.19,0.29,0.36,0.35c0.19,0.07,0.38,0.14,0.57,0.22c0.18,0.07,0.32,0.06,0.49-0.07
				c0.18-0.13,0.34-0.28,0.53-0.4c0.25-0.15,0.29-0.4,0.16-0.66c-0.04-0.09-0.09-0.17-0.13-0.26c-0.03-0.06-0.04-0.14,0.03-0.18
				c0.07-0.04,0.13-0.01,0.19,0.03c0.11,0.08,0.17,0.21,0.27,0.31c0.16,0.15,0.29,0.16,0.46,0.03c0.13-0.1,0.26-0.2,0.39-0.31
				c0.18-0.15,0.2-0.23,0.12-0.46c-0.04-0.12-0.11-0.22-0.23-0.28c-0.28-0.14-0.47-0.34-0.43-0.69c0.02-0.16-0.06-0.28-0.18-0.38
				c-0.19-0.16-0.42-0.25-0.66-0.3c-0.27-0.05-0.46-0.21-0.55-0.46c-0.06-0.16-0.16-0.23-0.31-0.26c-0.39-0.09-0.8-0.09-1.19-0.04
				c-0.27,0.03-0.54,0.05-0.81,0.05c-0.18,0-0.37-0.01-0.55,0c-0.18,0.02-0.37,0.02-0.53,0.14c-0.19,0.14-0.37,0.28-0.55,0.43
				c-0.23,0.19-0.25,0.28-0.15,0.56c0.02,0.06,0.06,0.12,0.03,0.19c-0.07,0.14-0.19,0.23-0.34,0.24c-0.15,0.01-0.3,0.01-0.38-0.14
				c-0.1-0.17-0.16-0.35-0.19-0.55c-0.02-0.18-0.16-0.29-0.29-0.25c-0.23,0.06-0.48,0.12-0.67,0.27c-0.21,0.16-0.44,0.31-0.33,0.66
				c0.06,0.2,0,0.23-0.18,0.34c-0.14,0.09-0.26,0.04-0.39,0.01c-0.21-0.05-0.44-0.07-0.63,0c-0.15,0.06-0.3,0.08-0.45,0.08
				c-0.17,0-0.35,0.01-0.52,0.04c-0.24,0.04-0.48,0.02-0.67-0.18c-0.13-0.13-0.32-0.17-0.49-0.14c-0.3,0.06-0.61,0.09-0.91,0.17
				c-0.47,0.13-0.94,0.2-1.36-0.15c-0.09-0.07-0.19-0.09-0.29-0.09c-4.62,4.4-7.94,10.15-9.35,16.61c0.17,0.24,0.2,0.54,0.37,0.78
				C29.85,37.14,29.85,37.2,29.84,37.25z"/>
			<path class="st0" d="M29.59,38.33c0.05-0.13,0.01-0.25-0.07-0.35c-0.11-0.14-0.17-0.29-0.23-0.46c-0.02-0.05-0.03-0.1-0.04-0.15
				c-0.05,0.27-0.1,0.54-0.14,0.81c0.06,0.07,0.13,0.14,0.19,0.22C29.39,38.51,29.54,38.48,29.59,38.33z"/>
			<path class="st0" d="M56.01,50.27c-0.28-0.03-0.49-0.17-0.67-0.38c-0.07-0.08-0.14-0.16-0.23-0.22
				c-0.24-0.18-0.48-0.37-0.82-0.29c-0.44,0.07-0.81-0.14-1.15-0.34c-0.57-0.33-1.19-0.54-1.78-0.8c-0.27-0.12-0.41-0.28-0.48-0.53
				c-0.03-0.09-0.02-0.2-0.09-0.27c-0.17-0.19-0.24-0.42-0.29-0.66c-0.03-0.17-0.07-0.36-0.23-0.46c-0.16-0.1-0.28-0.23-0.41-0.37
				c-0.04-0.05-0.09-0.1-0.16-0.12c-0.32-0.07-0.62-0.22-0.96-0.19c-0.46,0.04-0.78-0.2-1-0.57c-0.13-0.22-0.28-0.4-0.53-0.47
				c-0.17-0.05-0.25-0.18-0.3-0.34c-0.04-0.11,0.04-0.21,0.06-0.31c0.02-0.11,0.07-0.24-0.08-0.31c-0.13-0.06-0.27-0.13-0.42-0.08
				c-0.17,0.05-0.35,0.05-0.52,0.05c-0.13,0-0.25,0.02-0.35,0.11c-0.17,0.14-0.37,0.15-0.54,0.04c-0.15-0.09-0.31-0.12-0.47-0.14
				c-0.18-0.02-0.34-0.09-0.48-0.2c-0.2-0.15-0.44-0.24-0.66-0.36c-0.16-0.08-0.37-0.09-0.56-0.11c-0.07-0.01-0.15,0-0.21,0.07
				c-0.19,0.21-0.44,0.29-0.71,0.35c-0.32,0.07-0.62,0.21-0.7,0.6c-0.06,0.27-0.43,0.46-0.71,0.4c-0.11-0.02-0.21-0.02-0.32-0.01
				c-0.05,0-0.1,0.02-0.11,0.08c-0.01,0.12-0.08,0.26,0.08,0.33c0.06,0.03,0.08,0.08,0.08,0.14c-0.01,0.12,0.05,0.21,0.11,0.3
				c0.19,0.28,0.22,0.6,0.18,0.92c-0.03,0.28-0.06,0.56-0.22,0.8c-0.09,0.14-0.24,0.23-0.35,0.35c-0.13,0.14-0.2,0.34-0.36,0.46
				c-0.29,0.21-0.39,0.53-0.46,0.85c-0.05,0.2-0.07,0.44,0.05,0.63c0.17,0.28,0.11,0.51-0.1,0.74c-0.08,0.09-0.14,0.19-0.13,0.32
				c0.03,0.36,0.1,0.69,0.43,0.91c0.28,0.19,0.41,0.48,0.5,0.8c0.05,0.17,0.12,0.33,0.24,0.46c0.25,0.25,0.43,0.56,0.59,0.87
				c0.13,0.27,0.29,0.52,0.4,0.8c0.13,0.32,0.42,0.55,0.66,0.8c0.02,0.02,0.05,0.02,0.08,0.03c0.21,0.09,0.42,0.17,0.62,0.26
				c0.38,0.18,0.7,0.46,0.98,0.76c0.07,0.07,0.09,0.17,0.12,0.26c0.15,0.46,0.13,0.94,0.15,1.41c0.03,0.68,0.05,1.36,0.13,2.03
				c0.01,0.11,0.01,0.24-0.01,0.35c-0.07,0.3-0.04,0.59-0.01,0.9c0.04,0.36,0.19,0.69,0.25,1.04c0.06,0.37,0.09,0.73,0.01,1.1
				c-0.06,0.29-0.07,0.59-0.11,0.89c-0.01,0.07-0.01,0.14,0.03,0.2c0.2,0.37,0.26,0.77,0.33,1.17c0.05,0.28,0.14,0.55,0.34,0.79
				c0.33,0.39,0.47,0.86,0.52,1.37c0.01,0.15,0.05,0.29,0.13,0.41c0.09,0.14,0.14,0.3,0.16,0.46c0.04,0.3,0.09,0.59,0.29,0.84
				c0.03,0.04,0.05,0.11,0.08,0.16c0.23,0.39,0.39,0.83,0.72,1.15c0.22,0.21,0.45,0.4,0.8,0.26c0.26-0.1,0.62,0.1,0.69,0.38
				c0.05,0.18,0.15,0.23,0.31,0.24c0.13,0.01,0.25,0,0.37,0.05c0.22,0.09,0.46,0.08,0.69,0.08c0.12,0,0.22-0.02,0.24-0.15
				c0.02-0.13-0.09-0.19-0.18-0.24c-0.03-0.02-0.08-0.02-0.11-0.02c-0.15,0-0.29-0.05-0.42-0.12c-0.26-0.15-0.55-0.28-0.67-0.58
				c-0.07-0.17-0.17-0.29-0.3-0.41c-0.35-0.31-0.29-0.43-0.15-0.7c0.02-0.03,0.04-0.07,0.04-0.11c-0.03-0.22,0.12-0.33,0.25-0.47
				c0.24-0.25,0.18-0.5-0.12-0.65c-0.27-0.13-0.37-0.45-0.21-0.7c0.1-0.16,0.18-0.32,0.12-0.52c-0.04-0.11,0.02-0.2,0.08-0.27
				c0.12-0.13,0.18-0.27,0.2-0.44c0.02-0.17,0.09-0.31,0.19-0.45c0.1-0.13,0.17-0.28,0.19-0.45c0.03-0.21,0.18-0.34,0.36-0.42
				c0.07-0.03,0.15-0.05,0.22-0.07c0.34-0.13,0.64-0.29,0.65-0.72c0-0.04,0.02-0.07,0.03-0.11c0.11-0.31,0.22-0.62,0.51-0.82
				c0.15-0.11,0.28-0.25,0.36-0.42c0.12-0.25,0.22-0.5,0.33-0.75c0.09-0.23,0.15-0.49,0.38-0.64c0.23-0.16,0.17-0.47,0.36-0.65
				c0.04-0.04,0.08-0.08,0.13-0.12c0.11-0.09,0.15-0.2,0.15-0.33c0-0.15,0-0.31-0.04-0.46c-0.18-0.61-0.08-0.86,0.47-1.19
				c0.09-0.06,0.19-0.09,0.29-0.13c0.09-0.03,0.19-0.05,0.27-0.11c0.21-0.15,0.44-0.22,0.7-0.23c0.23-0.01,0.5,0,0.59-0.31
				c0.01-0.03,0.06-0.05,0.09-0.07c0.12-0.07,0.15-0.17,0.14-0.3c-0.02-0.16,0.04-0.3,0.14-0.43c0.11-0.17,0.22-0.35,0.21-0.56
				c-0.01-0.21,0-0.4,0.13-0.58c0.05-0.06,0.03-0.15,0.04-0.23c0-0.1-0.01-0.2,0.02-0.29c0.06-0.21,0.03-0.39-0.02-0.6
				c-0.09-0.33-0.11-0.68,0.13-0.97c0.33-0.4,0.51-0.89,0.89-1.25c0.02-0.02,0.04-0.04,0.05-0.07c0.32-0.53,0.43-1.09,0.23-1.7
				C56.41,50.45,56.27,50.3,56.01,50.27z"/>
			<path class="st0" d="M64.21,19.53c0.44-0.09,0.59-0.33,0.49-0.78c-0.06-0.27-0.01-0.36,0.25-0.45c0.46-0.17,0.83-0.45,1-0.93
				c0.03-0.07,0.04-0.15,0.1-0.21c0.13-0.12,0.17-0.28,0.16-0.45c-0.01-0.14,0.04-0.27,0.16-0.31c0.32-0.12,0.6-0.32,0.94-0.38
				c0.27-0.05,0.54-0.08,0.78-0.21c0.05-0.03,0.1-0.06,0.09-0.13c-0.01-0.06-0.06-0.07-0.11-0.08c-0.18-0.05-0.37-0.05-0.55-0.03
				c-0.35,0.02-0.71,0.01-1.04-0.1c-0.37-0.12-0.75-0.2-1.13-0.26c-0.62-0.11-1.25-0.14-1.88-0.02c-0.25,0.05-0.49,0.08-0.75,0.06
				c-0.35-0.04-0.72-0.04-1.08,0.02c-0.61,0.1-1.23,0.19-1.85,0.2c-0.16,0-0.33,0.07-0.49,0.04c-0.63-0.12-1.23,0.15-1.85,0.1
				c-0.04,0-0.08,0.01-0.11,0.03c-0.2,0.08-0.41,0.13-0.62,0.15c-0.36,0.04-0.69,0.21-1.05,0.23c-0.09,0-0.21,0.02-0.25,0.12
				c-0.05,0.13-0.17,0.15-0.28,0.19c-0.32,0.11-0.65,0.1-0.98,0.14c-0.19,0.02-0.38,0.06-0.57,0.1c-0.13,0.03-0.17,0.11-0.17,0.23
				c0,0.2,0.17,0.44,0.39,0.53c0.2,0.08,0.4,0.1,0.6,0.06c0.42-0.09,0.83-0.01,1.24,0.06c0.33,0.06,0.55,0.3,0.57,0.64
				c0.01,0.17-0.02,0.33-0.11,0.48c-0.1,0.17-0.09,0.34,0,0.5c0.09,0.15,0.15,0.31,0.27,0.45c0.16,0.18,0.11,0.28-0.14,0.33
				c-0.52,0.09-0.79,0.41-0.79,0.93c-0.03,0.22,0.08,0.44,0.06,0.68c-0.02,0.25,0.03,0.48,0.13,0.71c0.06,0.14,0.14,0.28,0.21,0.41
				c0.1,0.2,0.14,0.22,0.37,0.17c0.21-0.05,0.38,0.01,0.52,0.17c0.34,0.36,0.53,0.23,0.73,0.02c0.19-0.2,0.42-0.38,0.54-0.64
				c0.03-0.07,0.09-0.14,0.15-0.18c0.21-0.13,0.36-0.32,0.48-0.54c0.16-0.3,0.39-0.48,0.76-0.49c0.21-0.01,0.42-0.04,0.63-0.08
				c0.45-0.08,0.87-0.25,1.24-0.55c0.14-0.12,0.3-0.24,0.49-0.25c0.36-0.01,0.71-0.12,1.06-0.17c0.26-0.03,0.51-0.12,0.75-0.23
				C63.78,19.67,63.99,19.58,64.21,19.53z"/>
			<path class="st0" d="M88.19,53.99c-0.03-0.2-0.12-0.39-0.21-0.57c-0.06-0.14-0.16-0.14-0.24-0.02c-0.14,0.21-0.29,0.42-0.4,0.64
				c-0.21,0.46-0.5,0.8-1.02,0.9c-0.13,0.02-0.28,0.05-0.35,0.19c-0.1,0.22-0.26,0.42-0.22,0.68c0.02,0.14,0.01,0.3,0.05,0.43
				c0.11,0.36-0.05,0.65-0.24,0.92c-0.14,0.2-0.21,0.39-0.18,0.59c-0.01,0.29,0.05,0.55,0.11,0.8c0.07,0.3,0.43,0.58,0.68,0.52
				c0.18-0.04,0.35-0.11,0.52-0.18c0.05-0.02,0.1-0.07,0.13-0.11c0.09-0.19,0.21-0.38,0.26-0.58c0.12-0.46,0.31-0.9,0.47-1.34
				c0.14-0.37,0.32-0.73,0.38-1.13c0.03-0.23,0.1-0.43,0.22-0.62c0.15-0.24,0.18-0.48,0.11-0.75
				C88.23,54.24,88.21,54.12,88.19,53.99z"/>
			<path class="st0" d="M68.41,24.95c0.12,0.13,0.27,0.22,0.43,0.3c0.14,0.07,0.22,0.2,0.22,0.35c-0.01,0.15-0.15,0.14-0.27,0.16
				c-0.14,0.02-0.23,0.1-0.24,0.25c-0.01,0.07-0.03,0.13-0.04,0.2c-0.03,0.22-0.12,0.43-0.17,0.64c-0.05,0.2,0.06,0.3,0.26,0.24
				c0.03-0.01,0.06-0.02,0.08-0.04c0.29-0.21,0.64-0.21,0.98-0.23c0.19-0.01,0.36-0.08,0.53-0.15c0.06-0.03,0.12-0.07,0.13-0.15
				c0-0.11,0.08-0.17,0.15-0.24c0.2-0.2,0.18-0.34-0.08-0.42c-0.18-0.06-0.26-0.16-0.29-0.32c-0.03-0.15-0.09-0.27-0.22-0.36
				c-0.04-0.02-0.07-0.06-0.09-0.11c-0.14-0.29-0.32-0.57-0.29-0.93c0.02-0.31-0.25-0.55-0.62-0.55c-0.19-0.04-0.36,0.05-0.49,0.25
				c-0.12,0.18-0.22,0.33-0.18,0.57C68.22,24.64,68.27,24.8,68.41,24.95z"/>
			<path class="st0" d="M65.87,20.63c-0.14,0.02-0.29,0.01-0.43,0.04c-0.37,0.06-0.75,0.15-1.12,0.01c-0.29-0.11-0.5,0.01-0.71,0.19
				c-0.09,0.08-0.1,0.16,0,0.24c0.12,0.09,0.19,0.21,0.24,0.35c0.05,0.14,0.14,0.24,0.32,0.26c0.25,0.02,0.5,0.02,0.74,0.12
				c0.02,0.01,0.04,0,0.08,0.01c0.03-0.01,0.08-0.01,0.12-0.04c0.35-0.2,0.73-0.3,1.11-0.41c0.12-0.03,0.2-0.11,0.28-0.2
				c0.07-0.08,0.08-0.17,0-0.26C66.32,20.76,66.15,20.6,65.87,20.63z"/>
			<path class="st0" d="M40.39,39.06c0.15,0.17,0.35,0.28,0.54,0.39c0.08,0.05,0.12,0.11,0.14,0.21c0.05,0.2,0.09,0.25,0.27,0.19
				c0.18-0.06,0.32-0.01,0.46,0.08c0.15,0.09,0.3,0.07,0.44-0.02c0.17-0.11,0.17-0.2,0.01-0.31c-0.1-0.06-0.21-0.11-0.3-0.17
				c-0.19-0.13-0.44-0.18-0.6-0.35c-0.27-0.29-0.61-0.44-0.97-0.57c-0.22-0.08-0.43-0.18-0.69-0.16c-0.19-0.04-0.38,0.07-0.58,0.1
				c-0.2,0.03-0.34,0.14-0.47,0.27c-0.07,0.07-0.19,0.16-0.13,0.27c0.07,0.13,0.19,0.01,0.28,0c0.18-0.03,0.33-0.17,0.52-0.16
				c0.33,0.01,0.65,0.11,0.97,0.18C40.32,39.01,40.36,39.03,40.39,39.06z"/>
			<path class="st0" d="M68.23,25.02c-0.18-0.13-0.62-0.1-0.79,0.04c-0.12,0.1-0.22,0.22-0.38,0.25c-0.2,0.04-0.22,0.06-0.19,0.28
				c0.02,0.18,0,0.33-0.11,0.47c-0.09,0.12-0.07,0.21,0.01,0.32c0.07,0.1,0.14,0.19,0.27,0.17c0.1,0,0.18-0.03,0.25-0.08
				c0.17-0.12,0.35-0.2,0.56-0.21c0.09,0,0.14-0.05,0.18-0.13c0.05-0.11,0.11-0.21,0.11-0.33c0-0.12,0.04-0.21,0.14-0.3
				C68.44,25.35,68.41,25.14,68.23,25.02z"/>
			<path class="st0" d="M42.62,40.27c-0.12,0.01-0.25,0.04-0.37,0.06c-0.06,0.01-0.11,0.05-0.11,0.12c0,0.06,0.05,0.09,0.09,0.1
				c0.37,0.05,0.74,0.2,1.12,0.12c0.27-0.05,0.55-0.1,0.82-0.16c0.09-0.02,0.18-0.03,0.2-0.14c0.02-0.12-0.06-0.17-0.15-0.23
				c-0.22-0.16-0.51-0.17-0.73-0.34c-0.04-0.03-0.13-0.01-0.2-0.01c-0.09,0-0.17,0.01-0.21,0.01c-0.09-0.01-0.13-0.02-0.17-0.01
				c-0.11,0.02-0.24-0.09-0.32,0.03c-0.08,0.12,0.08,0.18,0.12,0.27C42.77,40.2,42.74,40.26,42.62,40.27z"/>
		</g>
		<g>
			<defs>
				<circle id="SVGID_00000146483850277138991970000017485179857327136406_" cx="61.22" cy="43.3" r="32.56"/>
			</defs>
			<clipPath id="SVGID_00000088814252597038616320000010505768298348550564_">
				<use xlink:href="#SVGID_00000146483850277138991970000017485179857327136406_"  style="overflow:visible;"/>
			</clipPath>
			<g style="clip-path:url(#SVGID_00000088814252597038616320000010505768298348550564_);">
				<path class="st25" d="M46.79,76.19c-0.29,0-0.56-0.13-0.73-0.36c-0.17-0.23-0.23-0.52-0.15-0.8c1.01-3.62,2.97-6.75,5.69-9.04
					c2.79-2.35,6.12-3.6,9.62-3.6c3.5,0,6.83,1.24,9.62,3.6c2.72,2.29,4.68,5.41,5.69,9.04c0.08,0.28,0.02,0.57-0.15,0.8
					c-0.17,0.23-0.44,0.36-0.73,0.36H46.79z"/>
				<path class="st0" d="M75.65,75.27H46.79c1.93-6.93,7.66-11.96,14.43-11.96C67.99,63.31,73.72,68.34,75.65,75.27z"/>
				<path class="st25" d="M69.41,75.71c-0.79-6.8-4.22-11.74-8.17-11.74c-3.95,0-7.39,4.94-8.17,11.74l-0.91-0.11
					c0.84-7.27,4.66-12.55,9.08-12.55s8.24,5.28,9.08,12.55L69.41,75.71z"/>
				<rect x="55.12" y="67" class="st25" width="12.24" height="1.28"/>
				<rect x="60.51" y="63.73" class="st25" width="1.47" height="11.94"/>
			</g>
		</g>
		<g>
			<g>
				<path class="st25" d="M62.52,63.41c-0.17,0-0.35-0.05-0.5-0.15c-0.26-0.17-0.42-0.46-0.42-0.76c-0.01-3.47,0.56-6.73,1.71-9.67
					c0.48-1.23,0.98-2.2,1.46-3.15c0.69-1.35,1.34-2.62,1.96-4.6c0.61-1.96,0.98-4.01,1.12-6.08c0.03-0.41,0.32-0.75,0.71-0.83
					c0.07-0.02,0.13-0.02,0.2-0.02c0.33,0,0.64,0.18,0.8,0.47c1.36,2.46,2.18,5.1,2.43,7.82c0.18,1.97,0.66,7.18-2.8,11.9
					c-1.57,2.14-3.75,3.87-6.31,4.99C62.77,63.38,62.64,63.41,62.52,63.41z"/>
				<path class="st25" d="M58.91,63.23c-0.11,0-0.23-0.02-0.34-0.07c-2.13-0.86-3.91-2.13-5.27-3.77c-2.7-3.27-3.6-7.78-2.59-13.06
					c0.53-2.78,1.88-5.34,4.55-10.45c0.29-0.56,0.57-1.07,0.83-1.55c1.21-2.25,1.95-3.61,2.2-5.72c0.23-1.91,0-3.89-0.68-5.88
					c-0.13-0.38,0-0.79,0.32-1.03c0.16-0.12,0.35-0.18,0.55-0.18c0.19,0,0.37,0.06,0.53,0.17c1.31,0.93,4.46,3.57,5.25,7.91
					c0.65,3.5-0.48,6.59-1,7.76c-0.1,0.23-0.17,0.36-0.31,0.64c-0.14,0.27-0.35,0.69-0.74,1.5c-0.01,0.02-1.19,2.45-2.07,4.41
					c-1.55,3.43-3.01,6.68-2.93,10.31c0.06,2.56,0.89,5.12,2.47,7.61c0.21,0.34,0.19,0.77-0.07,1.08
					C59.44,63.11,59.18,63.23,58.91,63.23z"/>
				<path class="st25" d="M61.31,63.62c-0.23,0-0.46-0.09-0.63-0.25c-0.8-0.76-1.47-1.61-2.01-2.55c-2.14-3.72-2.09-8.85,0.14-14.46
					c0.12-0.3,0.8-1.76,2.28-4.97l0.37-0.79c1.14-2.46,1.44-3.12,1.76-4.19c0.48-1.65,0.71-3.41,0.69-5.24
					c-0.01-0.4,0.24-0.75,0.62-0.88c0.1-0.03,0.2-0.05,0.3-0.05c0.28,0,0.55,0.13,0.73,0.36c1.46,1.93,2.38,4.14,2.67,6.41
					c0.34,2.61-0.22,4.71-0.6,6.1c-0.32,1.2-0.62,1.85-1.26,3.26c-0.21,0.46-0.46,1-0.76,1.68l-0.04,0.09
					c-1.61,3.6-2.41,5.4-2.85,7.05c-0.61,2.32-0.78,4.81-0.49,7.41c0.04,0.38-0.16,0.75-0.5,0.92
					C61.58,63.58,61.44,63.62,61.31,63.62z"/>
			</g>
			<path class="st0" d="M68.77,39.05c-0.1,1.51-0.36,3.73-1.15,6.3c-1.08,3.5-2.32,4.94-3.44,7.81c-0.82,2.08-1.67,5.16-1.65,9.33
				c1.5-0.66,3.98-2.02,5.94-4.7c3.26-4.45,2.8-9.43,2.63-11.28C70.79,43.26,69.68,40.71,68.77,39.05z"/>
			<path class="st0" d="M58.48,22.43c0.51,1.49,1.04,3.7,0.73,6.29c-0.33,2.75-1.41,4.32-3.13,7.58c-2.64,5.03-3.96,7.55-4.46,10.19
				c-0.27,1.4-1.47,7.65,2.39,12.32c1.63,1.96,3.6,2.98,4.9,3.51c-2.23-3.5-2.58-6.45-2.62-8.08c-0.08-3.8,1.42-7.17,3.01-10.71
				c0.9-2,2.09-4.44,2.09-4.44c0.78-1.61,0.85-1.69,1.03-2.11c0.29-0.65,1.58-3.74,0.94-7.22C62.58,25.49,59.33,23.04,58.48,22.43z"
				/>
			<path class="st0" d="M64.81,31.16c0.03,2.37-0.35,4.23-0.73,5.51c-0.36,1.25-0.73,2-2.17,5.11c-1.43,3.1-2.15,4.64-2.26,4.92
				c-0.62,1.55-3.26,8.35-0.2,13.67c0.64,1.11,1.37,1.88,1.84,2.34c-0.37-3.4,0.06-6.01,0.52-7.74c0.46-1.74,1.29-3.58,2.94-7.28
				c1.23-2.75,1.57-3.3,1.97-4.8c0.39-1.45,0.88-3.36,0.57-5.74C66.95,34.39,65.71,32.35,64.81,31.16z"/>
		</g>
		
			<linearGradient id="SVGID_00000014618792868854691610000017978464126295403138_" gradientUnits="userSpaceOnUse" x1="28.6597" y1="43.2991" x2="93.7799" y2="43.2991">
			<stop  offset="0" style="stop-color:#F2E19B"/>
			<stop  offset="0.5" style="stop-color:#F9F1B5"/>
			<stop  offset="1" style="stop-color:#F2E19B"/>
		</linearGradient>
		<path style="fill:url(#SVGID_00000014618792868854691610000017978464126295403138_);" d="M61.21,11.65c0.87,0,1.66,0.03,2.41,0.09
			c4.81,0.36,9.36,1.78,13.51,4.2c3.99,2.33,7.49,5.57,10.12,9.38c3.59,5.16,5.52,11.22,5.6,17.53l0,0.04l0,0.04
			c0.01,0.11,0.01,0.25,0.01,0.38c0,5.99-1.67,11.8-4.84,16.83h-0.01l-0.27,0.42c-2.69,4.15-6.38,7.65-10.66,10.13
			c-4.39,2.55-9.4,4.01-14.5,4.23h-0.01l-0.01,0c-0.41,0.01-0.89,0.03-1.35,0.03c-0.45,0-0.92-0.01-1.33-0.03l-0.01,0h-0.01
			c-5.09-0.21-10.11-1.68-14.5-4.23C41.08,68.2,37.4,64.7,34.7,60.55l-0.27-0.42h-0.01c-3.17-5.03-4.84-10.84-4.84-16.83
			c0-0.13,0-0.27,0.01-0.38l0-0.04l0-0.04c0.08-6.29,2.01-12.35,5.6-17.53c2.63-3.81,6.12-7.05,10.11-9.38
			c4.16-2.43,8.7-3.84,13.52-4.19C59.57,11.68,60.35,11.65,61.21,11.65 M61.21,10.74c-0.83,0-1.65,0.03-2.47,0.1
			c-10.08,0.75-18.89,6.1-24.31,13.97c-3.56,5.14-5.68,11.35-5.76,18.04c-0.01,0.15-0.01,0.31-0.01,0.46
			c0,6.55,1.93,12.65,5.26,17.74c0,0,0,0,0.01,0c5.56,8.56,15.04,14.33,25.9,14.78h0.01c0.45,0.01,0.91,0.03,1.36,0.03
			c0.46,0,0.93-0.01,1.38-0.03h0.01c10.86-0.46,20.34-6.23,25.9-14.78h0.01c3.32-5.1,5.26-11.19,5.26-17.74c0-0.15,0-0.31-0.01-0.46
			c-0.08-6.69-2.19-12.9-5.76-18.04c-5.42-7.86-14.23-13.2-24.31-13.97C62.88,10.77,62.04,10.74,61.21,10.74L61.21,10.74z"/>
	</g>
</g>
</svg>
