<?xml version="1.0" encoding="utf-8"?>
<!-- Generator: Adobe Illustrator 28.0.0, SVG Export Plug-In . SVG Version: 6.00 Build 0)  -->
<svg version="1.1" id="Capa_1" xmlns="http://www.w3.org/2000/svg" xmlns:xlink="http://www.w3.org/1999/xlink" x="0px" y="0px"
	 viewBox="0 0 300 300" style="enable-background:new 0 0 300 300;" xml:space="preserve">
<style type="text/css">
	.st0{fill:url(#SVGID_1_);}
	.st1{fill:url(#SVGID_00000147185227418674851860000016079854924602268071_);}
	.st2{fill:url(#SVGID_00000156569123653889007880000007444688881471140004_);}
	.st3{fill:url(#SVGID_00000073710365831523664570000012679894321127034257_);}
	.st4{fill:url(#SVGID_00000065764696157130329530000001732189197882892687_);}
	.st5{fill:url(#SVGID_00000175286142898578385750000015817829758852925837_);}
	.st6{fill:url(#SVGID_00000074432329455728044730000017199881446555074944_);}
	.st7{fill:url(#SVGID_00000087413808876431275670000012770246177486663351_);}
	.st8{fill:url(#SVGID_00000013882764539482640710000000406227827526604216_);}
	.st9{fill:url(#SVGID_00000176725935520352668730000000761559571761030325_);}
	.st10{fill:url(#SVGID_00000080922742407026623880000007681554930518510473_);}
	.st11{fill:url(#SVGID_00000143578672121935313620000017952495158130963617_);}
	.st12{fill:url(#SVGID_00000012432814777505139040000005577824600623379339_);}
	.st13{fill:url(#SVGID_00000133514489472761605100000003118417827472170406_);}
	.st14{fill:url(#SVGID_00000181067510758838542180000005343888487276189840_);}
	.st15{fill:url(#SVGID_00000147211715309366999380000014836289022361829052_);}
	.st16{fill:url(#SVGID_00000042708043159145409030000004422672512631465374_);}
	.st17{fill:url(#SVGID_00000046297110586841910290000010983536198764489907_);}
	.st18{fill:url(#SVGID_00000155136372058241785730000003453039041838725310_);}
	.st19{fill:url(#SVGID_00000133524619019898062200000016077268933039689619_);}
	.st20{fill:url(#SVGID_00000152237727488314222250000004070738529107540911_);}
	.st21{fill:url(#SVGID_00000183240251286447734250000002810877524866331326_);}
	.st22{fill:url(#SVGID_00000157992007467871166930000012989351495438346930_);}
	.st23{fill:url(#SVGID_00000050664054757171693330000011829569177053242293_);}
	.st24{fill:url(#SVGID_00000037665295095939658650000014188942219074392467_);}
	.st25{fill:url(#SVGID_00000105385389714409238330000010962867399336107943_);}
	.st26{fill:url(#SVGID_00000016046739140422904660000015166114079680009138_);}
	.st27{fill:url(#SVGID_00000132804174153110624210000006666719310463019406_);}
	.st28{fill:url(#SVGID_00000097479636994739243720000013520295381882088353_);}
	.st29{fill:url(#SVGID_00000079484955175711903140000012419282988244898960_);}
	.st30{fill:url(#SVGID_00000016781977156527203590000013663223807813409211_);}
	.st31{fill:url(#SVGID_00000019636120537114373880000003361103511649108380_);}
	.st32{fill:url(#SVGID_00000183233526469723515390000006266900280839510443_);}
	.st33{fill:url(#SVGID_00000148662467153865807460000008493027064141628607_);}
	.st34{fill:url(#SVGID_00000155125742443336210090000014070531898837963707_);}
	.st35{fill:url(#SVGID_00000131349522054058139460000010165764713234563726_);}
	.st36{fill:url(#SVGID_00000022551850811857353200000010041720026298474377_);}
	.st37{fill:url(#SVGID_00000059273633280975525130000011413929528188460968_);}
	.st38{fill:url(#SVGID_00000106107889212530761970000007960757999012496801_);}
	.st39{fill:url(#SVGID_00000096057408130611433420000013232274177380482720_);}
	.st40{fill:url(#SVGID_00000042720170538851434820000012935361691506202038_);}
	.st41{fill:url(#SVGID_00000163041127562166290670000004306598861240519592_);}
	.st42{fill:url(#SVGID_00000170982754360300529410000010806154359492814761_);}
	.st43{opacity:0.8;}
	.st44{fill:#BE8F3D;}
	.st45{clip-path:url(#SVGID_00000128448665337557690310000000450879228596434366_);}
	.st46{fill:#F9F4C7;}
	.st47{fill:url(#SVGID_00000079449654800380841450000012001072033187261102_);}
</style>
<g>
	<g>
		<g>
			<linearGradient id="SVGID_1_" gradientUnits="userSpaceOnUse" x1="150.5293" y1="264.0104" x2="150.5293" y2="230.0422">
				<stop  offset="0" style="stop-color:#A76F2A"/>
				<stop  offset="0.25" style="stop-color:#E2B755"/>
				<stop  offset="0.75" style="stop-color:#E2B755"/>
				<stop  offset="1" style="stop-color:#8F5D21"/>
			</linearGradient>
			<path class="st0" d="M49.28,242.24v21.55h-2.83v-16.07l-7.16,16.07h-1.99l-7.19-16.1v16.1h-2.83v-21.55h3.05l7.97,17.81
				l7.97-17.81H49.28z"/>
			
				<linearGradient id="SVGID_00000035527746188489729510000006286126442567529406_" gradientUnits="userSpaceOnUse" x1="150.5293" y1="264.0104" x2="150.5293" y2="230.0422">
				<stop  offset="0" style="stop-color:#A76F2A"/>
				<stop  offset="0.25" style="stop-color:#E2B755"/>
				<stop  offset="0.75" style="stop-color:#E2B755"/>
				<stop  offset="1" style="stop-color:#8F5D21"/>
			</linearGradient>
			<path style="fill:url(#SVGID_00000035527746188489729510000006286126442567529406_);" d="M66.25,242.09v21.7h-2.83v-21.7H66.25z"
				/>
			
				<linearGradient id="SVGID_00000049911474943948846000000013843329530743900036_" gradientUnits="userSpaceOnUse" x1="150.5293" y1="264.0104" x2="150.5293" y2="230.0422">
				<stop  offset="0" style="stop-color:#A76F2A"/>
				<stop  offset="0.25" style="stop-color:#E2B755"/>
				<stop  offset="0.75" style="stop-color:#E2B755"/>
				<stop  offset="1" style="stop-color:#8F5D21"/>
			</linearGradient>
			<path style="fill:url(#SVGID_00000049911474943948846000000013843329530743900036_);" d="M97.49,263.79h-2.83l-11.4-17.28v17.28
				h-2.83v-21.74h2.83l11.4,17.25v-17.25h2.83V263.79z"/>
			
				<linearGradient id="SVGID_00000165954819647193185090000011868254545887549352_" gradientUnits="userSpaceOnUse" x1="150.5293" y1="264.0104" x2="150.5293" y2="230.0422">
				<stop  offset="0" style="stop-color:#A76F2A"/>
				<stop  offset="0.25" style="stop-color:#E2B755"/>
				<stop  offset="0.75" style="stop-color:#E2B755"/>
				<stop  offset="1" style="stop-color:#8F5D21"/>
			</linearGradient>
			<path style="fill:url(#SVGID_00000165954819647193185090000011868254545887549352_);" d="M114.49,242.09v21.7h-2.83v-21.7H114.49
				z"/>
			
				<linearGradient id="SVGID_00000080173008623307953240000008770623120998128315_" gradientUnits="userSpaceOnUse" x1="150.5293" y1="264.0104" x2="150.5293" y2="230.0422">
				<stop  offset="0" style="stop-color:#A76F2A"/>
				<stop  offset="0.25" style="stop-color:#E2B755"/>
				<stop  offset="0.75" style="stop-color:#E2B755"/>
				<stop  offset="1" style="stop-color:#8F5D21"/>
			</linearGradient>
			<path style="fill:url(#SVGID_00000080173008623307953240000008770623120998128315_);" d="M131.69,263.25
				c-1.13-0.51-2.02-1.22-2.66-2.12c-0.64-0.9-0.98-1.95-1-3.13h3.02c0.1,1.02,0.52,1.87,1.26,2.57c0.74,0.7,1.81,1.04,3.22,1.04
				c1.35,0,2.41-0.34,3.19-1.01c0.78-0.67,1.17-1.54,1.17-2.6c0-0.83-0.23-1.51-0.69-2.02c-0.46-0.52-1.03-0.91-1.71-1.18
				s-1.61-0.56-2.77-0.87c-1.43-0.37-2.58-0.75-3.44-1.12c-0.86-0.37-1.6-0.96-2.21-1.76c-0.61-0.8-0.92-1.87-0.92-3.22
				c0-1.18,0.3-2.23,0.9-3.14c0.6-0.91,1.45-1.62,2.54-2.12c1.09-0.5,2.34-0.75,3.75-0.75c2.03,0,3.7,0.51,5,1.53
				c1.3,1.02,2.03,2.37,2.2,4.05h-3.11c-0.1-0.83-0.54-1.56-1.31-2.19c-0.77-0.63-1.79-0.95-3.05-0.95c-1.18,0-2.15,0.31-2.9,0.92
				c-0.75,0.61-1.12,1.47-1.12,2.57c0,0.79,0.22,1.43,0.67,1.93c0.45,0.5,1,0.88,1.65,1.14c0.65,0.26,1.57,0.56,2.76,0.89
				c1.43,0.39,2.58,0.78,3.46,1.17c0.87,0.38,1.62,0.98,2.24,1.77c0.62,0.8,0.93,1.88,0.93,3.25c0,1.06-0.28,2.06-0.84,2.99
				c-0.56,0.93-1.39,1.69-2.49,2.27c-1.1,0.58-2.4,0.87-3.89,0.87C134.1,264.01,132.82,263.76,131.69,263.25z"/>
			
				<linearGradient id="SVGID_00000072966115676890573770000000661463038557543330_" gradientUnits="userSpaceOnUse" x1="150.5293" y1="264.0104" x2="150.5293" y2="230.0422">
				<stop  offset="0" style="stop-color:#A76F2A"/>
				<stop  offset="0.25" style="stop-color:#E2B755"/>
				<stop  offset="0.75" style="stop-color:#E2B755"/>
				<stop  offset="1" style="stop-color:#8F5D21"/>
			</linearGradient>
			<path style="fill:url(#SVGID_00000072966115676890573770000000661463038557543330_);" d="M169.63,242.09v2.3h-5.92v19.4h-2.83
				v-19.4h-5.95v-2.3H169.63z"/>
			
				<linearGradient id="SVGID_00000009562547856306057210000013126636874236601770_" gradientUnits="userSpaceOnUse" x1="150.5293" y1="264.0104" x2="150.5293" y2="230.0422">
				<stop  offset="0" style="stop-color:#A76F2A"/>
				<stop  offset="0.25" style="stop-color:#E2B755"/>
				<stop  offset="0.75" style="stop-color:#E2B755"/>
				<stop  offset="1" style="stop-color:#8F5D21"/>
			</linearGradient>
			<path style="fill:url(#SVGID_00000009562547856306057210000013126636874236601770_);" d="M185.29,244.39v7.26h7.91v2.34h-7.91
				v7.47h8.84v2.34h-11.68v-21.74h11.68v2.34H185.29z"/>
			
				<linearGradient id="SVGID_00000011738955176681245150000008828609115427301533_" gradientUnits="userSpaceOnUse" x1="150.5293" y1="264.0104" x2="150.5293" y2="230.0422">
				<stop  offset="0" style="stop-color:#A76F2A"/>
				<stop  offset="0.25" style="stop-color:#E2B755"/>
				<stop  offset="0.75" style="stop-color:#E2B755"/>
				<stop  offset="1" style="stop-color:#8F5D21"/>
			</linearGradient>
			<path style="fill:url(#SVGID_00000011738955176681245150000008828609115427301533_);" d="M219.2,263.79l-5.17-8.87h-3.43v8.87
				h-2.83v-21.7h7.01c1.64,0,3.03,0.28,4.16,0.84c1.13,0.56,1.98,1.32,2.54,2.27c0.56,0.96,0.84,2.04,0.84,3.27
				c0,1.49-0.43,2.81-1.29,3.95c-0.86,1.14-2.15,1.9-3.88,2.27l5.45,9.09H219.2z M210.61,252.64h4.17c1.54,0,2.69-0.38,3.46-1.14
				c0.77-0.76,1.15-1.77,1.15-3.04c0-1.29-0.38-2.28-1.14-2.99c-0.76-0.71-1.91-1.06-3.47-1.06h-4.17V252.64z"/>
			
				<linearGradient id="SVGID_00000059306379529016710650000015540950535272966025_" gradientUnits="userSpaceOnUse" x1="150.5293" y1="264.0104" x2="150.5293" y2="230.0422">
				<stop  offset="0" style="stop-color:#A76F2A"/>
				<stop  offset="0.25" style="stop-color:#E2B755"/>
				<stop  offset="0.75" style="stop-color:#E2B755"/>
				<stop  offset="1" style="stop-color:#8F5D21"/>
			</linearGradient>
			<path style="fill:url(#SVGID_00000059306379529016710650000015540950535272966025_);" d="M238.88,242.09v21.7h-2.83v-21.7H238.88
				z"/>
			
				<linearGradient id="SVGID_00000127726895688873887450000016409321246968221066_" gradientUnits="userSpaceOnUse" x1="150.5293" y1="264.0104" x2="150.5293" y2="230.0422">
				<stop  offset="0" style="stop-color:#A76F2A"/>
				<stop  offset="0.25" style="stop-color:#E2B755"/>
				<stop  offset="0.75" style="stop-color:#E2B755"/>
				<stop  offset="1" style="stop-color:#8F5D21"/>
			</linearGradient>
			<path style="fill:url(#SVGID_00000127726895688873887450000016409321246968221066_);" d="M257.38,262.59
				c-1.66-0.94-2.97-2.26-3.94-3.95c-0.97-1.69-1.45-3.6-1.45-5.71c0-2.12,0.48-4.02,1.45-5.71c0.97-1.69,2.28-3.01,3.94-3.95
				c1.66-0.94,3.5-1.42,5.51-1.42c2.03,0,3.88,0.47,5.54,1.42c1.66,0.94,2.97,2.26,3.92,3.94c0.95,1.68,1.43,3.59,1.43,5.73
				s-0.48,4.05-1.43,5.73c-0.96,1.68-2.26,2.99-3.92,3.94c-1.66,0.95-3.51,1.42-5.54,1.42
				C260.88,264.01,259.04,263.54,257.38,262.59z M266.99,260.49c1.22-0.7,2.17-1.71,2.87-3.02c0.7-1.31,1.04-2.82,1.04-4.55
				c0-1.74-0.35-3.26-1.04-4.56c-0.7-1.3-1.64-2.3-2.85-3.01c-1.2-0.71-2.57-1.06-4.11-1.06s-2.91,0.35-4.11,1.06
				c-1.2,0.71-2.15,1.71-2.85,3.01c-0.7,1.3-1.04,2.82-1.04,4.56c0,1.72,0.35,3.24,1.04,4.55c0.69,1.31,1.65,2.32,2.86,3.02
				c1.22,0.71,2.58,1.06,4.1,1.06C264.41,261.55,265.77,261.2,266.99,260.49z"/>
		</g>
	</g>
	<g>
		<g>
			
				<linearGradient id="SVGID_00000137093589238234693590000013218586720777422523_" gradientUnits="userSpaceOnUse" x1="150.2726" y1="296.7198" x2="150.2726" y2="261.2852">
				<stop  offset="0" style="stop-color:#A76F2A"/>
				<stop  offset="0.25" style="stop-color:#E2B755"/>
				<stop  offset="0.75" style="stop-color:#E2B755"/>
				<stop  offset="1" style="stop-color:#8F5D21"/>
			</linearGradient>
			<path style="fill:url(#SVGID_00000137093589238234693590000013218586720777422523_);" d="M27.56,295.91
				c-1.31-0.54-2.36-1.33-3.14-2.38c-0.78-1.05-1.2-2.32-1.24-3.8h5.86c0.09,0.84,0.38,1.48,0.87,1.92
				c0.49,0.44,1.14,0.66,1.93,0.66c0.82,0,1.46-0.19,1.93-0.56c0.47-0.38,0.71-0.9,0.71-1.56c0-0.56-0.19-1.02-0.56-1.38
				c-0.38-0.37-0.84-0.67-1.39-0.9c-0.55-0.24-1.33-0.5-2.34-0.81c-1.46-0.45-2.65-0.9-3.58-1.35c-0.92-0.45-1.72-1.12-2.38-2
				c-0.67-0.88-1-2.03-1-3.45c0-2.1,0.76-3.75,2.29-4.94c1.52-1.19,3.51-1.79,5.96-1.79c2.49,0,4.5,0.6,6.02,1.79
				c1.52,1.19,2.34,2.85,2.45,4.98H34c-0.04-0.73-0.31-1.3-0.81-1.72c-0.49-0.42-1.13-0.63-1.9-0.63c-0.67,0-1.2,0.18-1.61,0.53
				c-0.41,0.35-0.61,0.86-0.61,1.53c0,0.73,0.34,1.3,1.03,1.71c0.69,0.41,1.76,0.85,3.22,1.32c1.46,0.49,2.65,0.97,3.56,1.42
				c0.91,0.45,1.7,1.11,2.37,1.97c0.66,0.86,1,1.97,1,3.32c0,1.29-0.33,2.46-0.98,3.51c-0.66,1.05-1.61,1.89-2.85,2.51
				c-1.25,0.62-2.72,0.93-4.41,0.93C30.35,296.72,28.87,296.45,27.56,295.91z"/>
			
				<linearGradient id="SVGID_00000052818526107710061520000011873330962022434460_" gradientUnits="userSpaceOnUse" x1="150.2726" y1="296.7198" x2="150.2726" y2="261.2852">
				<stop  offset="0" style="stop-color:#A76F2A"/>
				<stop  offset="0.25" style="stop-color:#E2B755"/>
				<stop  offset="0.75" style="stop-color:#E2B755"/>
				<stop  offset="1" style="stop-color:#8F5D21"/>
			</linearGradient>
			<path style="fill:url(#SVGID_00000052818526107710061520000011873330962022434460_);" d="M48.8,295.24
				c-1.77-0.99-3.18-2.37-4.22-4.14c-1.04-1.77-1.56-3.76-1.56-5.97c0-2.21,0.52-4.2,1.56-5.96c1.04-1.76,2.45-3.13,4.22-4.12
				c1.77-0.99,3.72-1.48,5.85-1.48c2.13,0,4.08,0.49,5.85,1.48c1.77,0.99,3.17,2.36,4.19,4.12c1.02,1.76,1.53,3.75,1.53,5.96
				c0,2.21-0.52,4.2-1.55,5.97c-1.03,1.77-2.43,3.15-4.19,4.14c-1.76,0.99-3.7,1.48-5.83,1.48
				C52.52,296.72,50.58,296.23,48.8,295.24z M58.98,289.89c1.08-1.2,1.63-2.79,1.63-4.77c0-2-0.54-3.59-1.63-4.78
				c-1.08-1.19-2.53-1.79-4.33-1.79c-1.83,0-3.28,0.59-4.36,1.77c-1.08,1.18-1.63,2.78-1.63,4.8c0,2,0.54,3.59,1.63,4.78
				c1.08,1.19,2.54,1.79,4.36,1.79C56.45,291.69,57.9,291.09,58.98,289.89z"/>
			
				<linearGradient id="SVGID_00000102524131041798497900000004166311260129185702_" gradientUnits="userSpaceOnUse" x1="150.2726" y1="296.7198" x2="150.2726" y2="261.2852">
				<stop  offset="0" style="stop-color:#A76F2A"/>
				<stop  offset="0.25" style="stop-color:#E2B755"/>
				<stop  offset="0.75" style="stop-color:#E2B755"/>
				<stop  offset="1" style="stop-color:#8F5D21"/>
			</linearGradient>
			<path style="fill:url(#SVGID_00000102524131041798497900000004166311260129185702_);" d="M86.44,286.85
				c0.79,1.02,1.19,2.19,1.19,3.49c0,1.89-0.66,3.39-1.98,4.49c-1.32,1.11-3.16,1.66-5.52,1.66H69.6v-22.61h10.18
				c2.3,0,4.1,0.53,5.4,1.58c1.3,1.05,1.95,2.48,1.95,4.28c0,1.33-0.35,2.44-1.05,3.32c-0.7,0.88-1.63,1.49-2.79,1.84
				C84.6,285.18,85.65,285.83,86.44,286.85z M75.11,283.03h3.61c0.9,0,1.59-0.2,2.08-0.6c0.48-0.4,0.72-0.98,0.72-1.76
				s-0.24-1.36-0.72-1.77c-0.48-0.41-1.18-0.61-2.08-0.61h-3.61V283.03z M81.31,291.42c0.5-0.42,0.76-1.02,0.76-1.82
				c0-0.79-0.26-1.42-0.79-1.87c-0.53-0.45-1.25-0.68-2.17-0.68h-3.99v4.99h4.06C80.09,292.05,80.8,291.84,81.31,291.42z"/>
			
				<linearGradient id="SVGID_00000025425527180407059960000001996011525532955060_" gradientUnits="userSpaceOnUse" x1="150.2726" y1="296.7198" x2="150.2726" y2="261.2852">
				<stop  offset="0" style="stop-color:#A76F2A"/>
				<stop  offset="0.25" style="stop-color:#E2B755"/>
				<stop  offset="0.75" style="stop-color:#E2B755"/>
				<stop  offset="1" style="stop-color:#8F5D21"/>
			</linearGradient>
			<path style="fill:url(#SVGID_00000025425527180407059960000001996011525532955060_);" d="M102.68,296.49l-4.7-8.54h-1.32v8.54
				h-5.51v-22.61h9.24c1.78,0,3.3,0.31,4.56,0.93c1.26,0.62,2.2,1.48,2.82,2.56c0.62,1.09,0.93,2.29,0.93,3.62
				c0,1.5-0.42,2.85-1.27,4.03c-0.85,1.18-2.1,2.02-3.75,2.51l5.22,8.95H102.68z M96.66,284.06h3.41c1.01,0,1.77-0.25,2.27-0.74
				c0.5-0.49,0.76-1.19,0.76-2.09c0-0.86-0.25-1.54-0.76-2.03c-0.5-0.49-1.26-0.74-2.27-0.74h-3.41V284.06z"/>
			
				<linearGradient id="SVGID_00000048479327440554889340000018356766486217302458_" gradientUnits="userSpaceOnUse" x1="150.2726" y1="296.7198" x2="150.2726" y2="261.2852">
				<stop  offset="0" style="stop-color:#A76F2A"/>
				<stop  offset="0.25" style="stop-color:#E2B755"/>
				<stop  offset="0.75" style="stop-color:#E2B755"/>
				<stop  offset="1" style="stop-color:#8F5D21"/>
			</linearGradient>
			<path style="fill:url(#SVGID_00000048479327440554889340000018356766486217302458_);" d="M117.98,278.29v4.57h7.38v4.25h-7.38
				v4.96h8.34v4.41h-13.85v-22.61h13.85v4.41H117.98z"/>
			
				<linearGradient id="SVGID_00000045605328699556851530000002351327958232348848_" gradientUnits="userSpaceOnUse" x1="150.2726" y1="296.7198" x2="150.2726" y2="261.2852">
				<stop  offset="0" style="stop-color:#A76F2A"/>
				<stop  offset="0.25" style="stop-color:#E2B755"/>
				<stop  offset="0.75" style="stop-color:#E2B755"/>
				<stop  offset="1" style="stop-color:#8F5D21"/>
			</linearGradient>
			<path style="fill:url(#SVGID_00000045605328699556851530000002351327958232348848_);" d="M142.88,292.24h7.22v4.25h-12.72v-22.61
				h5.51V292.24z"/>
			
				<linearGradient id="SVGID_00000178921120719149597440000017754850873038244995_" gradientUnits="userSpaceOnUse" x1="150.2726" y1="296.7198" x2="150.2726" y2="261.2852">
				<stop  offset="0" style="stop-color:#A76F2A"/>
				<stop  offset="0.25" style="stop-color:#E2B755"/>
				<stop  offset="0.75" style="stop-color:#E2B755"/>
				<stop  offset="1" style="stop-color:#8F5D21"/>
			</linearGradient>
			<path style="fill:url(#SVGID_00000178921120719149597440000017754850873038244995_);" d="M167.14,292.5h-8.44l-1.35,3.99h-5.77
				l8.18-22.61h6.38l8.18,22.61h-5.83L167.14,292.5z M165.72,288.25l-2.8-8.28l-2.77,8.28H165.72z"/>
			
				<linearGradient id="SVGID_00000147908098137612902420000009444492342585456035_" gradientUnits="userSpaceOnUse" x1="150.2726" y1="296.7198" x2="150.2726" y2="261.2852">
				<stop  offset="0" style="stop-color:#A76F2A"/>
				<stop  offset="0.25" style="stop-color:#E2B755"/>
				<stop  offset="0.75" style="stop-color:#E2B755"/>
				<stop  offset="1" style="stop-color:#8F5D21"/>
			</linearGradient>
			<path style="fill:url(#SVGID_00000147908098137612902420000009444492342585456035_);" d="M195.8,296.49l-4.7-8.54h-1.32v8.54
				h-5.51v-22.61h9.24c1.78,0,3.3,0.31,4.56,0.93c1.26,0.62,2.2,1.48,2.82,2.56c0.62,1.09,0.93,2.29,0.93,3.62
				c0,1.5-0.42,2.85-1.27,4.03c-0.85,1.18-2.1,2.02-3.75,2.51l5.22,8.95H195.8z M189.78,284.06h3.41c1.01,0,1.77-0.25,2.27-0.74
				c0.5-0.49,0.76-1.19,0.76-2.09c0-0.86-0.25-1.54-0.76-2.03c-0.5-0.49-1.26-0.74-2.27-0.74h-3.41V284.06z"/>
			
				<linearGradient id="SVGID_00000155863755883710772160000018403170120429168270_" gradientUnits="userSpaceOnUse" x1="150.2726" y1="296.7198" x2="150.2726" y2="261.2852">
				<stop  offset="0" style="stop-color:#A76F2A"/>
				<stop  offset="0.25" style="stop-color:#E2B755"/>
				<stop  offset="0.75" style="stop-color:#E2B755"/>
				<stop  offset="1" style="stop-color:#8F5D21"/>
			</linearGradient>
			<path style="fill:url(#SVGID_00000155863755883710772160000018403170120429168270_);" d="M210.45,295.24
				c-1.77-0.99-3.18-2.37-4.22-4.14c-1.04-1.77-1.56-3.76-1.56-5.97c0-2.21,0.52-4.2,1.56-5.96c1.04-1.76,2.45-3.13,4.22-4.12
				c1.77-0.99,3.72-1.48,5.85-1.48c2.13,0,4.08,0.49,5.85,1.48c1.77,0.99,3.17,2.36,4.19,4.12c1.02,1.76,1.53,3.75,1.53,5.96
				c0,2.21-0.52,4.2-1.55,5.97c-1.03,1.77-2.43,3.15-4.19,4.14c-1.76,0.99-3.7,1.48-5.83,1.48
				C214.17,296.72,212.22,296.23,210.45,295.24z M220.62,289.89c1.08-1.2,1.63-2.79,1.63-4.77c0-2-0.54-3.59-1.63-4.78
				c-1.09-1.19-2.53-1.79-4.33-1.79c-1.83,0-3.28,0.59-4.37,1.77c-1.08,1.18-1.63,2.78-1.63,4.8c0,2,0.54,3.59,1.63,4.78
				c1.08,1.19,2.54,1.79,4.37,1.79C218.1,291.69,219.54,291.09,220.62,289.89z"/>
			
				<linearGradient id="SVGID_00000070085142287801585130000003635291061653068953_" gradientUnits="userSpaceOnUse" x1="150.2726" y1="296.7198" x2="150.2726" y2="261.2852">
				<stop  offset="0" style="stop-color:#A76F2A"/>
				<stop  offset="0.25" style="stop-color:#E2B755"/>
				<stop  offset="0.75" style="stop-color:#E2B755"/>
				<stop  offset="1" style="stop-color:#8F5D21"/>
			</linearGradient>
			<path style="fill:url(#SVGID_00000070085142287801585130000003635291061653068953_);" d="M231.75,279.18
				c0.97-1.75,2.31-3.11,4.04-4.09c1.73-0.98,3.69-1.47,5.88-1.47c2.68,0,4.98,0.71,6.89,2.13c1.91,1.42,3.19,3.35,3.83,5.8h-6.06
				c-0.45-0.94-1.09-1.66-1.92-2.16c-0.83-0.49-1.77-0.74-2.82-0.74c-1.7,0-3.07,0.59-4.12,1.77c-1.05,1.18-1.58,2.76-1.58,4.74
				s0.53,3.55,1.58,4.73c1.05,1.18,2.43,1.77,4.12,1.77c1.05,0,1.99-0.25,2.82-0.74c0.83-0.49,1.47-1.21,1.92-2.16h6.06
				c-0.64,2.45-1.92,4.38-3.83,5.78c-1.91,1.41-4.21,2.11-6.89,2.11c-2.19,0-4.15-0.49-5.88-1.47c-1.73-0.98-3.08-2.34-4.04-4.08
				c-0.97-1.74-1.45-3.72-1.45-5.96S230.79,280.93,231.75,279.18z"/>
			
				<linearGradient id="SVGID_00000029047168113125009260000011910854448983143598_" gradientUnits="userSpaceOnUse" x1="150.2726" y1="296.7198" x2="150.2726" y2="261.2852">
				<stop  offset="0" style="stop-color:#A76F2A"/>
				<stop  offset="0.25" style="stop-color:#E2B755"/>
				<stop  offset="0.75" style="stop-color:#E2B755"/>
				<stop  offset="1" style="stop-color:#8F5D21"/>
			</linearGradient>
			<path style="fill:url(#SVGID_00000029047168113125009260000011910854448983143598_);" d="M270.18,292.5h-8.44l-1.35,3.99h-5.77
				l8.18-22.61h6.38l8.18,22.61h-5.83L270.18,292.5z M268.77,288.25l-2.8-8.28l-2.77,8.28H268.77z"/>
		</g>
	</g>
	<g>
		<g>
			<path d="M228.38,211.97c-7.82,3.95-16.03,4.83-24.27,2.41c-5.53-1.62-10.91-4.04-16.13-6.63c-8.99-4.45-18.35-6.19-28.16-5.38
				c-2.27,0.19-4.6,0.55-6.71,1.41c-1.85,0.75-3.45,0.94-5.23,0.13c-0.58-0.26-1.2-0.43-1.82-0.57c-7.49-1.72-14.89-1.32-22.27,0.83
				c-6.82,1.99-13.22,5.1-19.62,8.21c-8.09,3.93-16.47,5.33-25.19,3.11c-2.64-0.67-5.19-1.75-7.85-2.66
				c0.12,0.24,0.19,0.5,0.34,0.65c6.23,6.19,13.58,10.01,22,10.89c8.86,0.93,17.1-1.58,24.58-6.75c3.92-2.71,7.71-5.62,11.58-8.42
				c2.65-1.92,5.49-3.38,8.68-3.89c2.17-0.35,4.33-0.38,6.79,1.08c-11.07,5.9-20.83,13.04-29.32,22.57c1.83,1.62,3.43,3.04,5.08,4.5
				c5.04-7.01,10.74-12.86,17.21-17.8c3.21-2.45,6.61-4.63,9.99-6.82c1.58-1.03,3.25-1.06,4.9,0.14c1.44,1.04,3.02,1.86,4.48,2.86
				c7.79,5.34,14.41,12.14,20.85,19.18c0.54,0.59,1.11,1.15,1.91,1.97c1.65-1.52,3.16-2.91,4.86-4.48
				c-4.36-4.82-8.94-8.84-13.88-12.33c-4.9-3.46-10.02-6.57-15.27-9.98c0.63-0.24,1.03-0.5,1.46-0.55
				c5.46-0.67,10.43,0.32,14.95,4.1c4.79,4.01,9.85,7.65,15.52,10.24c5.32,2.42,10.82,3.85,16.57,3.77
				c8.11-0.12,15.26-3.32,21.69-8.48c1.21-0.98,2.26-2.2,3.38-3.3C228.93,211.74,228.65,211.84,228.38,211.97z"/>
			<path d="M271.2,154.18c-3.82,6.27-9.11,10.74-15.21,14.21c-4.61,2.62-9.28,5.12-13.9,7.72c-4.5,2.53-8.73,5.47-12.4,9.27
				c-1.03,1.07-2.18,2.04-3.74,2.2c0.37-0.81,0.86-1.43,1.41-1.99c6.87-6.96,10.85-15.44,11.96-25.54c0.55-5.03,1.51-10.01,2.33-15
				c0.21-1.27,0.6-2.5,0.91-3.74c-0.17-0.07-0.33-0.14-0.5-0.21c-3.79,5.78-7.96,11.3-10.24,18.08c-1.29,3.82-2.57,7.64-3.75,11.5
				c-2.61,8.57-5.61,16.89-11.93,23.35c5.48-1.19,10.8-2.31,16.11-3.53c2.93-0.67,5.94-1.18,8.71-2.34
				c12.13-5.08,21.57-13.63,27.98-25.84c1.42-2.7,2.55-5.57,3.12-8.63c-0.16-0.14-0.33-0.28-0.49-0.41
				C271.45,153.58,271.37,153.91,271.2,154.18z"/>
			<path d="M83.71,194.73c-1.33-1.7-2.74-3.29-3.93-5.05c-3.39-4.98-5.54-10.62-7.38-16.42c-1.83-5.76-3.4-11.64-6.16-17.02
				c-2.55-4.96-5.52-9.61-8.77-13.75c1.07,6.35,2.35,12.79,3.22,19.29c1.39,10.34,5.39,19.04,13.05,25.67
				c0.33,0.28,0.54,0.72,0.81,1.09c-0.16,0.19-0.31,0.38-0.47,0.57c-1.82-1.3-3.77-2.45-5.43-3.95c-4.4-3.96-9.25-7.09-14.4-9.76
				c-3.98-2.07-7.99-4.11-11.88-6.37c-5.41-3.15-10.22-7.12-13.58-12.79c-0.16-0.28-0.27-0.59-0.41-0.89
				c-0.2,0.15-0.41,0.29-0.61,0.44c0.79,2.08,1.47,4.22,2.39,6.23c3.52,7.67,8.61,13.95,14.89,19.19
				c5.44,4.54,11.32,8.09,18.15,9.51C70,192.15,76.83,193.4,83.71,194.73z"/>
			<path d="M35.3,155.52c7.18,6.32,15.21,11.28,22.98,16.66c0.08,0.05,0.24-0.04,0.52-0.11c-0.34-0.72-0.71-1.37-0.96-2.06
				c-1.04-2.92-2.44-5.77-2.97-8.79c-1.05-5.98-1.66-12.04-2.36-18.08c-0.72-6.21-1.17-12.46-2.04-18.65
				c-0.5-3.55-1.61-6.99-2.45-10.48c-0.19,0.03-0.38,0.06-0.57,0.08c0.26,5.65-1.26,11-2.22,16.45c-0.51,2.9-0.99,5.86-1.03,8.8
				c-0.08,6.8,1.24,13.29,4.68,19.14c0.34,0.58,0.57,1.22,0.85,1.84c-0.18,0.12-0.35,0.23-0.53,0.35c-0.56-0.65-1.19-1.25-1.67-1.97
				c-2.43-3.66-4.61-7.54-7.29-10.97c-3.23-4.14-6.88-7.9-10.35-11.82c-4.73-5.34-9.31-10.78-11.46-18.09
				c0.08,3.68,0.15,7.35,0.78,10.9C21.21,139.93,27.26,148.43,35.3,155.52z"/>
			<path d="M269.14,135.01c-4.51,4.66-8.74,9.55-12.21,15.17c-1.57,2.54-3.22,5.03-4.87,7.51c-0.39,0.59-0.94,1.05-1.42,1.56
				c-0.13-0.13-0.25-0.26-0.38-0.39c0.15-0.37,0.25-0.78,0.44-1.12c5-8.81,5.73-18.24,3.88-28.17c-1.07-5.77-2.43-11.52-2.26-17.54
				c-0.76,1.78-1.43,3.56-1.92,5.41c-2.46,9.28-2.42,18.9-3.39,28.38c-0.52,5.03-1.2,10.06-2.2,15c-0.68,3.32-2.05,6.48-3.16,9.89
				c0.46-0.27,0.87-0.46,1.23-0.72c4.02-2.86,8-5.78,12.05-8.57c5.74-3.96,11.19-8.23,15.66-13.86c7.52-9.5,11.66-20.22,10.88-32.56
				c-1,2.43-1.93,5.18-3.21,7.73C275.92,127.39,272.68,131.35,269.14,135.01z"/>
			<path d="M219.59,198.12c-5.6,0.5-11.16,1.12-16.65,2.45c-1.58,0.38-3.22,0.46-4.83,0.68c-0.05-0.17-0.1-0.34-0.16-0.51
				c0.33-0.25,0.63-0.6,1-0.74c1.41-0.54,2.86-0.98,4.27-1.52c5.07-1.94,9.39-5.08,12.06-10.15c3.2-6.06,6.05-12.33,9.04-18.5
				c-1.89,1.13-3.58,2.4-5.07,3.9c-5.84,5.85-11.67,11.71-17.4,17.68c-3.06,3.19-6.5,5.67-10.47,7.29
				c-2.71,1.11-5.48,2.03-8.46,3.12c1.05,0.22,1.86,0.37,2.67,0.56c8.11,1.84,16.19,3.8,24.33,5.47c4.6,0.94,9.29,0.9,13.93,0.06
				c7.85-1.42,14.65-5.29,20.65-10.77c2.93-2.67,5.54-5.7,7.26-9.54c-4.7,4.79-10.41,7.39-16.65,8.52
				C229.97,197.04,224.78,197.66,219.59,198.12z"/>
			<path d="M89.31,208.9c6.69-0.89,13.16-2.79,19.66-4.59c2.81-0.78,5.66-1.42,8.44-2.1c-0.28-0.08-0.8-0.24-1.33-0.39
				c-7.31-2.04-13.97-5.36-19.39-11.2c-2.12-2.29-4.26-4.55-6.49-6.72c-3.75-3.64-7.57-7.2-11.39-10.77
				c-0.43-0.4-0.98-0.63-1.48-0.94c-0.13,0.11-0.27,0.22-0.4,0.34c0.16,0.59,0.24,1.23,0.49,1.77c1.48,3.18,2.89,6.41,4.53,9.5
				c1.52,2.87,3.11,5.74,5.02,8.31c3.22,4.34,7.65,6.71,12.65,7.95c1.05,0.26,2.31,0.25,3.3,1.91c-1.76-0.18-3.08-0.26-4.38-0.47
				c-4.69-0.73-9.35-1.66-14.05-2.22c-5.81-0.69-11.67-0.88-17.47-1.65c-6.11-0.81-11.87-2.86-16.79-7.06
				c-0.43-0.36-0.92-0.64-1.38-0.96c2.26,4.19,5.28,7.51,8.75,10.38C67,207.75,77.61,210.46,89.31,208.9z"/>
			<path d="M267.67,113.02c-0.7,3.47-1.4,6.94-2.18,10.39c-0.19,0.85-0.67,1.63-1.02,2.44c-0.2-0.08-0.4-0.17-0.6-0.25
				c0.15-0.88,0.27-1.78,0.47-2.65c1.18-5.12,1.36-10.34-0.05-15.32c-1.11-3.92-2.92-7.66-4.78-11.28
				c-2.86-5.55-6.43-10.68-8.38-16.76c-0.16,0.04-0.32,0.08-0.47,0.11c0.43,3.86,0.71,7.74,1.33,11.56
				c1.65,10.01,4.17,19.79,7.27,29.4c1.33,4.13,1.66,8.43,1.25,12.78c-0.11,1.21-0.11,2.43-0.18,4.07c0.54-0.61,0.78-0.83,0.96-1.08
				c2.64-3.7,5.31-7.38,7.91-11.12c2.12-3.05,4.57-5.95,6.18-9.29c5.74-11.94,7.08-24.62,4.62-37.77c-0.28-1.52-0.82-2.98-1.23-4.48
				c-0.36,2.21-0.42,4.32-0.65,6.42c-0.6,5.44-2.4,10.5-4.46,15.46C271.33,101.32,268.9,106.93,267.67,113.02z"/>
			<path d="M29.44,125.72c3.08,3.74,5.79,7.82,8.67,11.75c0.41,0.56,0.8,1.15,1.37,1.96c0.04-0.6,0.11-0.86,0.07-1.09
				c-0.79-5.27-0.46-10.44,1.02-15.56c1.26-4.36,2.43-8.75,3.58-13.15c2.35-8.98,4.06-18.07,4.14-27.32
				c-1.57,3.03-3.18,6.11-4.77,9.2c-1.76,3.4-3.7,6.72-5.23,10.24c-3.39,7.79-4.94,15.87-2.47,24.39c0.13,0.45,0.02,0.99,0.02,1.49
				c-0.21,0.03-0.42,0.06-0.63,0.09c-0.43-1.4-1.02-2.76-1.26-4.2c-1.6-9.46-4.33-18.5-8.31-27.15c-3-6.53-5.21-13.37-4.61-20.89
				c-0.21,0.25-0.31,0.47-0.39,0.7c-0.1,0.32-0.19,0.64-0.28,0.97c-2.17,8.12-2.39,16.29-1.02,24.61
				C20.81,110.72,23.74,118.82,29.44,125.72z"/>
			<path d="M266.93,53.41c-0.34,6.08-0.85,12.16-0.98,18.25c-0.09,4.05,0.37,8.11,0.52,12.17c0.04,0.99,0.48,2.09-0.55,3.45
				c-0.26-1.13-0.48-1.83-0.56-2.55c-0.88-7.27-3.8-13.38-8.93-18.26c-2.6-2.48-5.17-5-7.74-7.51c-1.85-1.8-3.68-3.6-5.38-5.26
				c0.02,0.13,0.07,0.62,0.17,1.09c1.93,8.49,5.94,15.8,10.9,22.63c5.1,7.02,10.31,14.01,12.28,23.46c0.28-1.24,0.42-2.04,0.64-2.82
				c1.19-4.3,2.04-8.75,3.66-12.84c3.68-9.26,4.73-18.71,2.98-28.57c-1.35-7.6-4.4-14.28-9.02-20.2
				C267.13,41.9,267.26,47.63,266.93,53.41z"/>
			<path d="M33.35,101.21c1.56-5.7,4.21-10.79,7.32-15.62c2.47-3.84,5-7.63,7.49-11.45c3.88-5.96,6.3-12.55,7.43-19.28
				c-3.13,3.21-6.42,6.6-9.73,9.98c-6.07,6.21-11.1,13.04-11.78,22.5c-0.04,0.49-0.4,0.95-0.6,1.43c-0.41-2.22-0.62-4.38-0.37-6.48
				c0.94-8.08,0.19-16.05-0.87-24.04c-0.54-4.09-1.1-8.24-0.28-12.4c0.42-2.13,0.76-4.27,1.18-6.67c-0.34,0.4-0.52,0.56-0.65,0.76
				c-8.79,13.53-10.33,28.04-5.11,43.46C29.37,89.27,31.32,95.15,33.35,101.21z"/>
			<path d="M252.67,33.36c1.57,7.25,3.2,14.48,5.86,21.39c0.12,0.3,0.06,0.68,0.08,1.03c-0.15,0.06-0.3,0.12-0.45,0.18
				c-0.47-0.93-0.92-1.88-1.43-2.79c-0.81-1.44-1.59-2.92-2.52-4.27c-2.68-3.86-6.19-6.74-9.86-9.42c-4.63-3.38-9.4-6.58-12.7-11.65
				c1.36,8.54,5.63,15.01,11.82,20.23c4.1,3.45,8.18,6.94,12.06,10.67c2.36,2.27,4.32,5.01,6.13,7.15c0-3.1-0.05-6.64,0.01-10.18
				c0.06-3.81,0.28-7.61,0.33-11.42c0.12-9.95-3.88-17.79-10.93-23.98c-1.59-1.4-3.33-2.67-5.54-3.28c0.1,0.46,0.08,0.68,0.18,0.78
				C249.74,22.1,251.43,27.6,252.67,33.36z"/>
			<path d="M37.38,59.5c0.1,2.95,0.02,5.9,0.02,8.96c3.49-5.88,8.15-10.5,13.36-14.61c4.86-3.84,9.15-8.37,12.41-13.9
				c2.09-3.53,3.55-7.31,4.01-11.63c-1.4,1.8-2.53,3.69-4.04,5.09c-3.22,2.99-6.56,5.86-10.02,8.53c-5.1,3.95-9.32,8.63-11.89,14.87
				c-0.14,0.34-0.44,0.61-0.66,0.91c-0.28-0.77-0.23-1.41-0.05-2c0.79-2.57,1.79-5.08,2.42-7.7c1.23-5.07,2.23-10.21,3.38-15.31
				c1.06-4.65,2.61-9.07,5.72-12.67c0.33-0.38,0.61-0.81,1.25-1.68C47,21.3,42.79,25.74,39.82,31.56
				c-2.64,5.15-3.11,10.81-3.02,16.53C36.86,51.89,37.25,55.69,37.38,59.5z"/>
			<path d="M220.91,5.9c2.6,2.62,4.88,5.5,6.86,8.72c4.25,6.91,9.6,12.82,15.26,18.41c1.78,1.76,3.76,3.3,5.65,4.94
				c-3.72-21.79-14.62-29.97-29.33-33.59C219.78,4.99,220.4,5.39,220.91,5.9z"/>
			<path d="M53.76,35.82c4.75-4.11,9.14-8.55,12.56-14.08c3.45-5.58,7.13-11,11.61-15.71c0.12-0.12,0.09-0.4,0.12-0.56
				c-16.08,4.85-26.14,15.5-28.29,33.83C51.09,38.14,52.42,36.98,53.76,35.82z"/>
		</g>
		<g>
			
				<linearGradient id="SVGID_00000001657705913285429110000001969651944335316881_" gradientUnits="userSpaceOnUse" x1="150" y1="233.4533" x2="150" y2="4.385">
				<stop  offset="0" style="stop-color:#A76F2A"/>
				<stop  offset="0.0112" style="stop-color:#AB742D"/>
				<stop  offset="0.0981" style="stop-color:#C99843"/>
				<stop  offset="0.1687" style="stop-color:#DBAF50"/>
				<stop  offset="0.2138" style="stop-color:#E2B755"/>
				<stop  offset="0.5" style="stop-color:#F2E19B"/>
				<stop  offset="0.7425" style="stop-color:#E2B755"/>
				<stop  offset="1" style="stop-color:#C3913E"/>
			</linearGradient>
			<path style="fill:url(#SVGID_00000001657705913285429110000001969651944335316881_);" d="M228.38,211.97
				c-7.82,3.95-16.03,4.83-24.27,2.41c-5.53-1.62-10.91-4.04-16.13-6.63c-8.99-4.45-18.35-6.19-28.16-5.38
				c-2.27,0.19-4.6,0.55-6.71,1.41c-1.85,0.75-3.45,0.94-5.23,0.13c-0.58-0.26-1.2-0.43-1.82-0.57c-7.49-1.72-14.89-1.32-22.27,0.83
				c-6.82,1.99-13.22,5.1-19.62,8.21c-8.09,3.93-16.47,5.33-25.19,3.11c-2.64-0.67-5.19-1.75-7.85-2.66
				c0.12,0.24,0.19,0.5,0.34,0.65c6.23,6.19,13.58,10.01,22,10.89c8.86,0.93,17.1-1.58,24.58-6.75c3.92-2.71,7.71-5.62,11.58-8.42
				c2.65-1.92,5.49-3.38,8.68-3.89c2.17-0.35,4.33-0.38,6.79,1.08c-11.07,5.9-20.83,13.04-29.32,22.57c1.83,1.62,3.43,3.04,5.08,4.5
				c5.04-7.01,10.74-12.86,17.21-17.8c3.21-2.45,6.61-4.63,9.99-6.82c1.58-1.03,3.25-1.06,4.9,0.14c1.44,1.04,3.02,1.86,4.48,2.86
				c7.79,5.34,14.41,12.14,20.85,19.18c0.54,0.59,1.11,1.15,1.91,1.97c1.65-1.52,3.16-2.91,4.86-4.48
				c-4.36-4.82-8.94-8.84-13.88-12.33c-4.9-3.46-10.02-6.57-15.27-9.98c0.63-0.24,1.03-0.5,1.46-0.55
				c5.46-0.67,10.43,0.32,14.95,4.1c4.79,4.01,9.85,7.65,15.52,10.24c5.32,2.42,10.82,3.85,16.57,3.77
				c8.11-0.12,15.26-3.32,21.69-8.48c1.21-0.98,2.26-2.2,3.38-3.3C228.93,211.74,228.65,211.84,228.38,211.97z"/>
			
				<linearGradient id="SVGID_00000062898860004081634850000007141803624610076851_" gradientUnits="userSpaceOnUse" x1="150" y1="233.4533" x2="150" y2="4.385">
				<stop  offset="0" style="stop-color:#A76F2A"/>
				<stop  offset="0.0112" style="stop-color:#AB742D"/>
				<stop  offset="0.0981" style="stop-color:#C99843"/>
				<stop  offset="0.1687" style="stop-color:#DBAF50"/>
				<stop  offset="0.2138" style="stop-color:#E2B755"/>
				<stop  offset="0.5" style="stop-color:#F2E19B"/>
				<stop  offset="0.7425" style="stop-color:#E2B755"/>
				<stop  offset="1" style="stop-color:#C3913E"/>
			</linearGradient>
			<path style="fill:url(#SVGID_00000062898860004081634850000007141803624610076851_);" d="M271.2,154.18
				c-3.82,6.27-9.11,10.74-15.21,14.21c-4.61,2.62-9.28,5.12-13.9,7.72c-4.5,2.53-8.73,5.47-12.4,9.27
				c-1.03,1.07-2.18,2.04-3.74,2.2c0.37-0.81,0.86-1.43,1.41-1.99c6.87-6.96,10.85-15.44,11.96-25.54c0.55-5.03,1.51-10.01,2.33-15
				c0.21-1.27,0.6-2.5,0.91-3.74c-0.17-0.07-0.33-0.14-0.5-0.21c-3.79,5.78-7.96,11.3-10.24,18.08c-1.29,3.82-2.57,7.64-3.75,11.5
				c-2.61,8.57-5.61,16.89-11.93,23.35c5.48-1.19,10.8-2.31,16.11-3.53c2.93-0.67,5.94-1.18,8.71-2.34
				c12.13-5.08,21.57-13.63,27.98-25.84c1.42-2.7,2.55-5.57,3.12-8.63c-0.16-0.14-0.33-0.28-0.49-0.41
				C271.45,153.58,271.37,153.91,271.2,154.18z"/>
			
				<linearGradient id="SVGID_00000028293046129778494150000003733016710722785966_" gradientUnits="userSpaceOnUse" x1="150" y1="233.4533" x2="150" y2="4.385">
				<stop  offset="0" style="stop-color:#A76F2A"/>
				<stop  offset="0.0112" style="stop-color:#AB742D"/>
				<stop  offset="0.0981" style="stop-color:#C99843"/>
				<stop  offset="0.1687" style="stop-color:#DBAF50"/>
				<stop  offset="0.2138" style="stop-color:#E2B755"/>
				<stop  offset="0.5" style="stop-color:#F2E19B"/>
				<stop  offset="0.7425" style="stop-color:#E2B755"/>
				<stop  offset="1" style="stop-color:#C3913E"/>
			</linearGradient>
			<path style="fill:url(#SVGID_00000028293046129778494150000003733016710722785966_);" d="M83.71,194.73
				c-1.33-1.7-2.74-3.29-3.93-5.05c-3.39-4.98-5.54-10.62-7.38-16.42c-1.83-5.76-3.4-11.64-6.16-17.02
				c-2.55-4.96-5.52-9.61-8.77-13.75c1.07,6.35,2.35,12.79,3.22,19.29c1.39,10.34,5.39,19.04,13.05,25.67
				c0.33,0.28,0.54,0.72,0.81,1.09c-0.16,0.19-0.31,0.38-0.47,0.57c-1.82-1.3-3.77-2.45-5.43-3.95c-4.4-3.96-9.25-7.09-14.4-9.76
				c-3.98-2.07-7.99-4.11-11.88-6.37c-5.41-3.15-10.22-7.12-13.58-12.79c-0.16-0.28-0.27-0.59-0.41-0.89
				c-0.2,0.15-0.41,0.29-0.61,0.44c0.79,2.08,1.47,4.22,2.39,6.23c3.52,7.67,8.61,13.95,14.89,19.19
				c5.44,4.54,11.32,8.09,18.15,9.51C70,192.15,76.83,193.4,83.71,194.73z"/>
			
				<linearGradient id="SVGID_00000023985131184550881400000000514844175292470184_" gradientUnits="userSpaceOnUse" x1="150" y1="233.4533" x2="150" y2="4.385">
				<stop  offset="0" style="stop-color:#A76F2A"/>
				<stop  offset="0.0112" style="stop-color:#AB742D"/>
				<stop  offset="0.0981" style="stop-color:#C99843"/>
				<stop  offset="0.1687" style="stop-color:#DBAF50"/>
				<stop  offset="0.2138" style="stop-color:#E2B755"/>
				<stop  offset="0.5" style="stop-color:#F2E19B"/>
				<stop  offset="0.7425" style="stop-color:#E2B755"/>
				<stop  offset="1" style="stop-color:#C3913E"/>
			</linearGradient>
			<path style="fill:url(#SVGID_00000023985131184550881400000000514844175292470184_);" d="M35.3,155.52
				c7.18,6.32,15.21,11.28,22.98,16.66c0.08,0.05,0.24-0.04,0.52-0.11c-0.34-0.72-0.71-1.37-0.96-2.06
				c-1.04-2.92-2.44-5.77-2.97-8.79c-1.05-5.98-1.66-12.04-2.36-18.08c-0.72-6.21-1.17-12.46-2.04-18.65
				c-0.5-3.55-1.61-6.99-2.45-10.48c-0.19,0.03-0.38,0.06-0.57,0.08c0.26,5.65-1.26,11-2.22,16.45c-0.51,2.9-0.99,5.86-1.03,8.8
				c-0.08,6.8,1.24,13.29,4.68,19.14c0.34,0.58,0.57,1.22,0.85,1.84c-0.18,0.12-0.35,0.23-0.53,0.35c-0.56-0.65-1.19-1.25-1.67-1.97
				c-2.43-3.66-4.61-7.54-7.29-10.97c-3.23-4.14-6.88-7.9-10.35-11.82c-4.73-5.34-9.31-10.78-11.46-18.09
				c0.08,3.68,0.15,7.35,0.78,10.9C21.21,139.93,27.26,148.43,35.3,155.52z"/>
			
				<linearGradient id="SVGID_00000097487108638078336910000010969648762848231299_" gradientUnits="userSpaceOnUse" x1="150" y1="233.4533" x2="150" y2="4.385">
				<stop  offset="0" style="stop-color:#A76F2A"/>
				<stop  offset="0.0112" style="stop-color:#AB742D"/>
				<stop  offset="0.0981" style="stop-color:#C99843"/>
				<stop  offset="0.1687" style="stop-color:#DBAF50"/>
				<stop  offset="0.2138" style="stop-color:#E2B755"/>
				<stop  offset="0.5" style="stop-color:#F2E19B"/>
				<stop  offset="0.7425" style="stop-color:#E2B755"/>
				<stop  offset="1" style="stop-color:#C3913E"/>
			</linearGradient>
			<path style="fill:url(#SVGID_00000097487108638078336910000010969648762848231299_);" d="M269.14,135.01
				c-4.51,4.66-8.74,9.55-12.21,15.17c-1.57,2.54-3.22,5.03-4.87,7.51c-0.39,0.59-0.94,1.05-1.42,1.56
				c-0.13-0.13-0.25-0.26-0.38-0.39c0.15-0.37,0.25-0.78,0.44-1.12c5-8.81,5.73-18.24,3.88-28.17c-1.07-5.77-2.43-11.52-2.26-17.54
				c-0.76,1.78-1.43,3.56-1.92,5.41c-2.46,9.28-2.42,18.9-3.39,28.38c-0.52,5.03-1.2,10.06-2.2,15c-0.68,3.32-2.05,6.48-3.16,9.89
				c0.46-0.27,0.87-0.46,1.23-0.72c4.02-2.86,8-5.78,12.05-8.57c5.74-3.96,11.19-8.23,15.66-13.86c7.52-9.5,11.66-20.22,10.88-32.56
				c-1,2.43-1.93,5.18-3.21,7.73C275.92,127.39,272.68,131.35,269.14,135.01z"/>
			
				<linearGradient id="SVGID_00000052096973821921071790000007569604524388607908_" gradientUnits="userSpaceOnUse" x1="150" y1="233.4533" x2="150" y2="4.385">
				<stop  offset="0" style="stop-color:#A76F2A"/>
				<stop  offset="0.0112" style="stop-color:#AB742D"/>
				<stop  offset="0.0981" style="stop-color:#C99843"/>
				<stop  offset="0.1687" style="stop-color:#DBAF50"/>
				<stop  offset="0.2138" style="stop-color:#E2B755"/>
				<stop  offset="0.5" style="stop-color:#F2E19B"/>
				<stop  offset="0.7425" style="stop-color:#E2B755"/>
				<stop  offset="1" style="stop-color:#C3913E"/>
			</linearGradient>
			<path style="fill:url(#SVGID_00000052096973821921071790000007569604524388607908_);" d="M219.59,198.12
				c-5.6,0.5-11.16,1.12-16.65,2.45c-1.58,0.38-3.22,0.46-4.83,0.68c-0.05-0.17-0.1-0.34-0.16-0.51c0.33-0.25,0.63-0.6,1-0.74
				c1.41-0.54,2.86-0.98,4.27-1.52c5.07-1.94,9.39-5.08,12.06-10.15c3.2-6.06,6.05-12.33,9.04-18.5c-1.89,1.13-3.58,2.4-5.07,3.9
				c-5.84,5.85-11.67,11.71-17.4,17.68c-3.06,3.19-6.5,5.67-10.47,7.29c-2.71,1.11-5.48,2.03-8.46,3.12
				c1.05,0.22,1.86,0.37,2.67,0.56c8.11,1.84,16.19,3.8,24.33,5.47c4.6,0.94,9.29,0.9,13.93,0.06c7.85-1.42,14.65-5.29,20.65-10.77
				c2.93-2.67,5.54-5.7,7.26-9.54c-4.7,4.79-10.41,7.39-16.65,8.52C229.97,197.04,224.78,197.66,219.59,198.12z"/>
			
				<linearGradient id="SVGID_00000028317415790523809970000009284831345854571178_" gradientUnits="userSpaceOnUse" x1="150" y1="233.4533" x2="150" y2="4.385">
				<stop  offset="0" style="stop-color:#A76F2A"/>
				<stop  offset="0.0112" style="stop-color:#AB742D"/>
				<stop  offset="0.0981" style="stop-color:#C99843"/>
				<stop  offset="0.1687" style="stop-color:#DBAF50"/>
				<stop  offset="0.2138" style="stop-color:#E2B755"/>
				<stop  offset="0.5" style="stop-color:#F2E19B"/>
				<stop  offset="0.7425" style="stop-color:#E2B755"/>
				<stop  offset="1" style="stop-color:#C3913E"/>
			</linearGradient>
			<path style="fill:url(#SVGID_00000028317415790523809970000009284831345854571178_);" d="M89.31,208.9
				c6.69-0.89,13.16-2.79,19.66-4.59c2.81-0.78,5.66-1.42,8.44-2.1c-0.28-0.08-0.8-0.24-1.33-0.39c-7.31-2.04-13.97-5.36-19.39-11.2
				c-2.12-2.29-4.26-4.55-6.49-6.72c-3.75-3.64-7.57-7.2-11.39-10.77c-0.43-0.4-0.98-0.63-1.48-0.94c-0.13,0.11-0.27,0.22-0.4,0.34
				c0.16,0.59,0.24,1.23,0.49,1.77c1.48,3.18,2.89,6.41,4.53,9.5c1.52,2.87,3.11,5.74,5.02,8.31c3.22,4.34,7.65,6.71,12.65,7.95
				c1.05,0.26,2.31,0.25,3.3,1.91c-1.76-0.18-3.08-0.26-4.38-0.47c-4.69-0.73-9.35-1.66-14.05-2.22
				c-5.81-0.69-11.67-0.88-17.47-1.65c-6.11-0.81-11.87-2.86-16.79-7.06c-0.43-0.36-0.92-0.64-1.38-0.96
				c2.26,4.19,5.28,7.51,8.75,10.38C67,207.75,77.61,210.46,89.31,208.9z"/>
			
				<linearGradient id="SVGID_00000164491824657412155850000008266991413886706110_" gradientUnits="userSpaceOnUse" x1="150" y1="233.4533" x2="150" y2="4.385">
				<stop  offset="0" style="stop-color:#A76F2A"/>
				<stop  offset="0.0112" style="stop-color:#AB742D"/>
				<stop  offset="0.0981" style="stop-color:#C99843"/>
				<stop  offset="0.1687" style="stop-color:#DBAF50"/>
				<stop  offset="0.2138" style="stop-color:#E2B755"/>
				<stop  offset="0.5" style="stop-color:#F2E19B"/>
				<stop  offset="0.7425" style="stop-color:#E2B755"/>
				<stop  offset="1" style="stop-color:#C3913E"/>
			</linearGradient>
			<path style="fill:url(#SVGID_00000164491824657412155850000008266991413886706110_);" d="M267.67,113.02
				c-0.7,3.47-1.4,6.94-2.18,10.39c-0.19,0.85-0.67,1.63-1.02,2.44c-0.2-0.08-0.4-0.17-0.6-0.25c0.15-0.88,0.27-1.78,0.47-2.65
				c1.18-5.12,1.36-10.34-0.05-15.32c-1.11-3.92-2.92-7.66-4.78-11.28c-2.86-5.55-6.43-10.68-8.38-16.76
				c-0.16,0.04-0.32,0.08-0.47,0.11c0.43,3.86,0.71,7.74,1.33,11.56c1.65,10.01,4.17,19.79,7.27,29.4
				c1.33,4.13,1.66,8.43,1.25,12.78c-0.11,1.21-0.11,2.43-0.18,4.07c0.54-0.61,0.78-0.83,0.96-1.08c2.64-3.7,5.31-7.38,7.91-11.12
				c2.12-3.05,4.57-5.95,6.18-9.29c5.74-11.94,7.08-24.62,4.62-37.77c-0.28-1.52-0.82-2.98-1.23-4.48
				c-0.36,2.21-0.42,4.32-0.65,6.42c-0.6,5.44-2.4,10.5-4.46,15.46C271.33,101.32,268.9,106.93,267.67,113.02z"/>
			
				<linearGradient id="SVGID_00000096779092164234876280000002562205409472437694_" gradientUnits="userSpaceOnUse" x1="150" y1="233.4533" x2="150" y2="4.385">
				<stop  offset="0" style="stop-color:#A76F2A"/>
				<stop  offset="0.0112" style="stop-color:#AB742D"/>
				<stop  offset="0.0981" style="stop-color:#C99843"/>
				<stop  offset="0.1687" style="stop-color:#DBAF50"/>
				<stop  offset="0.2138" style="stop-color:#E2B755"/>
				<stop  offset="0.5" style="stop-color:#F2E19B"/>
				<stop  offset="0.7425" style="stop-color:#E2B755"/>
				<stop  offset="1" style="stop-color:#C3913E"/>
			</linearGradient>
			<path style="fill:url(#SVGID_00000096779092164234876280000002562205409472437694_);" d="M29.44,125.72
				c3.08,3.74,5.79,7.82,8.67,11.75c0.41,0.56,0.8,1.15,1.37,1.96c0.04-0.6,0.11-0.86,0.07-1.09c-0.79-5.27-0.46-10.44,1.02-15.56
				c1.26-4.36,2.43-8.75,3.58-13.15c2.35-8.98,4.06-18.07,4.14-27.32c-1.57,3.03-3.18,6.11-4.77,9.2c-1.76,3.4-3.7,6.72-5.23,10.24
				c-3.39,7.79-4.94,15.87-2.47,24.39c0.13,0.45,0.02,0.99,0.02,1.49c-0.21,0.03-0.42,0.06-0.63,0.09c-0.43-1.4-1.02-2.76-1.26-4.2
				c-1.6-9.46-4.33-18.5-8.31-27.15c-3-6.53-5.21-13.37-4.61-20.89c-0.21,0.25-0.31,0.47-0.39,0.7c-0.1,0.32-0.19,0.64-0.28,0.97
				c-2.17,8.12-2.39,16.29-1.02,24.61C20.81,110.72,23.74,118.82,29.44,125.72z"/>
			
				<linearGradient id="SVGID_00000007395614888777678260000015501932012081710758_" gradientUnits="userSpaceOnUse" x1="150" y1="233.4533" x2="150" y2="4.385">
				<stop  offset="0" style="stop-color:#A76F2A"/>
				<stop  offset="0.0112" style="stop-color:#AB742D"/>
				<stop  offset="0.0981" style="stop-color:#C99843"/>
				<stop  offset="0.1687" style="stop-color:#DBAF50"/>
				<stop  offset="0.2138" style="stop-color:#E2B755"/>
				<stop  offset="0.5" style="stop-color:#F2E19B"/>
				<stop  offset="0.7425" style="stop-color:#E2B755"/>
				<stop  offset="1" style="stop-color:#C3913E"/>
			</linearGradient>
			<path style="fill:url(#SVGID_00000007395614888777678260000015501932012081710758_);" d="M266.93,53.41
				c-0.34,6.08-0.85,12.16-0.98,18.25c-0.09,4.05,0.37,8.11,0.52,12.17c0.04,0.99,0.48,2.09-0.55,3.45
				c-0.26-1.13-0.48-1.83-0.56-2.55c-0.88-7.27-3.8-13.38-8.93-18.26c-2.6-2.48-5.17-5-7.74-7.51c-1.85-1.8-3.68-3.6-5.38-5.26
				c0.02,0.13,0.07,0.62,0.17,1.09c1.93,8.49,5.94,15.8,10.9,22.63c5.1,7.02,10.31,14.01,12.28,23.46c0.28-1.24,0.42-2.04,0.64-2.82
				c1.19-4.3,2.04-8.75,3.66-12.84c3.68-9.26,4.73-18.71,2.98-28.57c-1.35-7.6-4.4-14.28-9.02-20.2
				C267.13,41.9,267.26,47.63,266.93,53.41z"/>
			
				<linearGradient id="SVGID_00000161621451135208680860000015195405226327914682_" gradientUnits="userSpaceOnUse" x1="150" y1="233.4533" x2="150" y2="4.385">
				<stop  offset="0" style="stop-color:#A76F2A"/>
				<stop  offset="0.0112" style="stop-color:#AB742D"/>
				<stop  offset="0.0981" style="stop-color:#C99843"/>
				<stop  offset="0.1687" style="stop-color:#DBAF50"/>
				<stop  offset="0.2138" style="stop-color:#E2B755"/>
				<stop  offset="0.5" style="stop-color:#F2E19B"/>
				<stop  offset="0.7425" style="stop-color:#E2B755"/>
				<stop  offset="1" style="stop-color:#C3913E"/>
			</linearGradient>
			<path style="fill:url(#SVGID_00000161621451135208680860000015195405226327914682_);" d="M33.35,101.21
				c1.56-5.7,4.21-10.79,7.32-15.62c2.47-3.84,5-7.63,7.49-11.45c3.88-5.96,6.3-12.55,7.43-19.28c-3.13,3.21-6.42,6.6-9.73,9.98
				c-6.07,6.21-11.1,13.04-11.78,22.5c-0.04,0.49-0.4,0.95-0.6,1.43c-0.41-2.22-0.62-4.38-0.37-6.48
				c0.94-8.08,0.19-16.05-0.87-24.04c-0.54-4.09-1.1-8.24-0.28-12.4c0.42-2.13,0.76-4.27,1.18-6.67c-0.34,0.4-0.52,0.56-0.65,0.76
				c-8.79,13.53-10.33,28.04-5.11,43.46C29.37,89.27,31.32,95.15,33.35,101.21z"/>
			
				<linearGradient id="SVGID_00000108296838778784827570000005559812415509208451_" gradientUnits="userSpaceOnUse" x1="150" y1="233.4533" x2="150" y2="4.385">
				<stop  offset="0" style="stop-color:#A76F2A"/>
				<stop  offset="0.0112" style="stop-color:#AB742D"/>
				<stop  offset="0.0981" style="stop-color:#C99843"/>
				<stop  offset="0.1687" style="stop-color:#DBAF50"/>
				<stop  offset="0.2138" style="stop-color:#E2B755"/>
				<stop  offset="0.5" style="stop-color:#F2E19B"/>
				<stop  offset="0.7425" style="stop-color:#E2B755"/>
				<stop  offset="1" style="stop-color:#C3913E"/>
			</linearGradient>
			<path style="fill:url(#SVGID_00000108296838778784827570000005559812415509208451_);" d="M252.67,33.36
				c1.57,7.25,3.2,14.48,5.86,21.39c0.12,0.3,0.06,0.68,0.08,1.03c-0.15,0.06-0.3,0.12-0.45,0.18c-0.47-0.93-0.92-1.88-1.43-2.79
				c-0.81-1.44-1.59-2.92-2.52-4.27c-2.68-3.86-6.19-6.74-9.86-9.42c-4.63-3.38-9.4-6.58-12.7-11.65
				c1.36,8.54,5.63,15.01,11.82,20.23c4.1,3.45,8.18,6.94,12.06,10.67c2.36,2.27,4.32,5.01,6.13,7.15c0-3.1-0.05-6.64,0.01-10.18
				c0.06-3.81,0.28-7.61,0.33-11.42c0.12-9.95-3.88-17.79-10.93-23.98c-1.59-1.4-3.33-2.67-5.54-3.28c0.1,0.46,0.08,0.68,0.18,0.78
				C249.74,22.1,251.43,27.6,252.67,33.36z"/>
			
				<linearGradient id="SVGID_00000181051532418734753340000003974407362437413263_" gradientUnits="userSpaceOnUse" x1="150" y1="233.4533" x2="150" y2="4.385">
				<stop  offset="0" style="stop-color:#A76F2A"/>
				<stop  offset="0.0112" style="stop-color:#AB742D"/>
				<stop  offset="0.0981" style="stop-color:#C99843"/>
				<stop  offset="0.1687" style="stop-color:#DBAF50"/>
				<stop  offset="0.2138" style="stop-color:#E2B755"/>
				<stop  offset="0.5" style="stop-color:#F2E19B"/>
				<stop  offset="0.7425" style="stop-color:#E2B755"/>
				<stop  offset="1" style="stop-color:#C3913E"/>
			</linearGradient>
			<path style="fill:url(#SVGID_00000181051532418734753340000003974407362437413263_);" d="M37.38,59.5
				c0.1,2.95,0.02,5.9,0.02,8.96c3.49-5.88,8.15-10.5,13.36-14.61c4.86-3.84,9.15-8.37,12.41-13.9c2.09-3.53,3.55-7.31,4.01-11.63
				c-1.4,1.8-2.53,3.69-4.04,5.09c-3.22,2.99-6.56,5.86-10.02,8.53c-5.1,3.95-9.32,8.63-11.89,14.87c-0.14,0.34-0.44,0.61-0.66,0.91
				c-0.28-0.77-0.23-1.41-0.05-2c0.79-2.57,1.79-5.08,2.42-7.7c1.23-5.07,2.23-10.21,3.38-15.31c1.06-4.65,2.61-9.07,5.72-12.67
				c0.33-0.38,0.61-0.81,1.25-1.68C47,21.3,42.79,25.74,39.82,31.56c-2.64,5.15-3.11,10.81-3.02,16.53
				C36.86,51.89,37.25,55.69,37.38,59.5z"/>
			
				<linearGradient id="SVGID_00000030462145761141891980000014420610041798431933_" gradientUnits="userSpaceOnUse" x1="150" y1="233.4533" x2="150" y2="4.385">
				<stop  offset="0" style="stop-color:#A76F2A"/>
				<stop  offset="0.0112" style="stop-color:#AB742D"/>
				<stop  offset="0.0981" style="stop-color:#C99843"/>
				<stop  offset="0.1687" style="stop-color:#DBAF50"/>
				<stop  offset="0.2138" style="stop-color:#E2B755"/>
				<stop  offset="0.5" style="stop-color:#F2E19B"/>
				<stop  offset="0.7425" style="stop-color:#E2B755"/>
				<stop  offset="1" style="stop-color:#C3913E"/>
			</linearGradient>
			<path style="fill:url(#SVGID_00000030462145761141891980000014420610041798431933_);" d="M220.91,5.9
				c2.6,2.62,4.88,5.5,6.86,8.72c4.25,6.91,9.6,12.82,15.26,18.41c1.78,1.76,3.76,3.3,5.65,4.94
				c-3.72-21.79-14.62-29.97-29.33-33.59C219.78,4.99,220.4,5.39,220.91,5.9z"/>
			
				<linearGradient id="SVGID_00000136369749666716299020000010531081923314805933_" gradientUnits="userSpaceOnUse" x1="150" y1="233.4533" x2="150" y2="4.385">
				<stop  offset="0" style="stop-color:#A76F2A"/>
				<stop  offset="0.0112" style="stop-color:#AB742D"/>
				<stop  offset="0.0981" style="stop-color:#C99843"/>
				<stop  offset="0.1687" style="stop-color:#DBAF50"/>
				<stop  offset="0.2138" style="stop-color:#E2B755"/>
				<stop  offset="0.5" style="stop-color:#F2E19B"/>
				<stop  offset="0.7425" style="stop-color:#E2B755"/>
				<stop  offset="1" style="stop-color:#C3913E"/>
			</linearGradient>
			<path style="fill:url(#SVGID_00000136369749666716299020000010531081923314805933_);" d="M53.76,35.82
				c4.75-4.11,9.14-8.55,12.56-14.08c3.45-5.58,7.13-11,11.61-15.71c0.12-0.12,0.09-0.4,0.12-0.56
				c-16.08,4.85-26.14,15.5-28.29,33.83C51.09,38.14,52.42,36.98,53.76,35.82z"/>
		</g>
	</g>
	<g>
		
			<linearGradient id="SVGID_00000092424567620585398650000004675832265702442374_" gradientUnits="userSpaceOnUse" x1="150" y1="194.1683" x2="150" y2="-97.8802">
			<stop  offset="0" style="stop-color:#A76F2A"/>
			<stop  offset="8.630439e-03" style="stop-color:#AB742D"/>
			<stop  offset="0.0756" style="stop-color:#C99843"/>
			<stop  offset="0.1299" style="stop-color:#DBAF50"/>
			<stop  offset="0.1646" style="stop-color:#E2B755"/>
			<stop  offset="0.3796" style="stop-color:#F9F2B7"/>
			<stop  offset="0.5666" style="stop-color:#E2B755"/>
			<stop  offset="0.842" style="stop-color:#8F5D21"/>
			<stop  offset="0.8704" style="stop-color:#956324"/>
			<stop  offset="0.9086" style="stop-color:#A4742E"/>
			<stop  offset="0.9522" style="stop-color:#BE903E"/>
			<stop  offset="0.9996" style="stop-color:#E2B755"/>
			<stop  offset="1" style="stop-color:#E2B755"/>
		</linearGradient>
		<circle style="fill:url(#SVGID_00000092424567620585398650000004675832265702442374_);" cx="150" cy="98.72" r="95.44"/>
	</g>
	<g>
		
			<linearGradient id="SVGID_00000056390889555276654210000014868765841009518751_" gradientUnits="userSpaceOnUse" x1="54.556" y1="98.7243" x2="245.444" y2="98.7243">
			<stop  offset="0" style="stop-color:#E2B755"/>
			<stop  offset="0.081" style="stop-color:#F2E19B"/>
			<stop  offset="0.2911" style="stop-color:#F4E6A3"/>
			<stop  offset="0.5" style="stop-color:#F9F1B5"/>
			<stop  offset="0.6888" style="stop-color:#F5E8A7"/>
			<stop  offset="0.9123" style="stop-color:#F2E19B"/>
			<stop  offset="1" style="stop-color:#E2B755"/>
		</linearGradient>
		<path style="fill:url(#SVGID_00000056390889555276654210000014868765841009518751_);" d="M149.98,5.96c2.56,0,4.86,0.09,7.07,0.27
			c14.1,1.07,27.43,5.21,39.6,12.31c11.7,6.82,21.96,16.33,29.65,27.49c10.51,15.13,16.19,32.9,16.42,51.39l0,0.11l0.01,0.11
			c0.03,0.32,0.03,0.72,0.03,1.11c0,17.55-4.91,34.58-14.2,49.32h-0.03l-0.79,1.22c-7.9,12.15-18.7,22.43-31.24,29.71
			c-12.87,7.47-27.56,11.76-42.5,12.41h-0.02l-0.04,0c-1.22,0.04-2.59,0.08-3.95,0.08c-1.32,0-2.7-0.04-3.91-0.08l-0.04,0H146
			c-14.93-0.63-29.62-4.91-42.5-12.39c-12.53-7.28-23.34-17.56-31.24-29.72l-0.79-1.22h-0.03c-9.3-14.75-14.2-31.77-14.2-49.32
			c0-0.39,0-0.8,0.03-1.12l0.01-0.1l0-0.11c0.23-18.43,5.9-36.2,16.42-51.39c7.7-11.16,17.95-20.67,29.65-27.5
			c12.18-7.11,25.51-11.25,39.62-12.3C145.16,6.05,147.45,5.96,149.98,5.96 M149.98,3.28c-2.44,0-4.83,0.08-7.23,0.28
			c-29.56,2.2-55.36,17.89-71.26,40.94C61.07,59.56,54.84,77.77,54.6,97.39c-0.04,0.44-0.04,0.92-0.04,1.36
			c0,19.21,5.67,37.07,15.42,52.01c0,0,0,0,0.04,0c16.3,25.08,44.1,42.02,75.93,43.34h0.04c1.32,0.04,2.68,0.08,3.99,0.08
			c1.36,0,2.72-0.04,4.03-0.08h0.04c31.83-1.36,59.63-18.25,75.93-43.34h0.04c9.75-14.94,15.42-32.79,15.42-52.01
			c0-0.44,0-0.92-0.04-1.36c-0.24-19.61-6.43-37.83-16.9-52.88c-15.9-23.05-41.7-38.7-71.26-40.94
			C154.85,3.36,152.42,3.28,149.98,3.28L149.98,3.28z"/>
		
			<linearGradient id="SVGID_00000008848257308861148210000008409281882716762268_" gradientUnits="userSpaceOnUse" x1="70.1493" y1="55.1775" x2="229.8507" y2="55.1775">
			<stop  offset="0" style="stop-color:#E2B755"/>
			<stop  offset="0.081" style="stop-color:#F2E19B"/>
			<stop  offset="0.2911" style="stop-color:#F4E6A3"/>
			<stop  offset="0.5" style="stop-color:#F9F1B5"/>
			<stop  offset="0.6888" style="stop-color:#F5E8A7"/>
			<stop  offset="0.9123" style="stop-color:#F2E19B"/>
			<stop  offset="1" style="stop-color:#E2B755"/>
		</linearGradient>
		<path style="fill:url(#SVGID_00000008848257308861148210000008409281882716762268_);" d="M149.98,64.45
			c-14.12,0-28.2-1.43-41.85-4.26c-12.91-2.66-25.42-6.6-37.17-11.71c-0.68-0.3-0.99-1.09-0.7-1.77c0.3-0.68,1.09-0.99,1.77-0.7
			c11.58,5.03,23.91,8.92,36.64,11.54c13.47,2.79,27.37,4.21,41.31,4.21c13.97,0,27.88-1.42,41.35-4.21
			c12.63-2.6,24.96-6.49,36.65-11.54c0.68-0.29,1.47,0.02,1.76,0.7c0.29,0.68-0.02,1.47-0.7,1.76
			c-11.85,5.13-24.36,9.07-37.17,11.71C178.22,63.01,164.13,64.45,149.98,64.45z"/>
		
			<linearGradient id="SVGID_00000180329468791897523930000011578385845885512833_" gradientUnits="userSpaceOnUse" x1="68.6518" y1="139.8697" x2="231.3482" y2="139.8697">
			<stop  offset="0" style="stop-color:#E2B755"/>
			<stop  offset="0.081" style="stop-color:#F2E19B"/>
			<stop  offset="0.2911" style="stop-color:#F4E6A3"/>
			<stop  offset="0.5" style="stop-color:#F9F1B5"/>
			<stop  offset="0.6888" style="stop-color:#F5E8A7"/>
			<stop  offset="0.9123" style="stop-color:#F2E19B"/>
			<stop  offset="1" style="stop-color:#E2B755"/>
		</linearGradient>
		<path style="fill:url(#SVGID_00000180329468791897523930000011578385845885512833_);" d="M230.03,149.44h-0.28l-0.3-0.11
			c-12.06-5.32-24.86-9.41-38.04-12.14c-13.47-2.79-27.41-4.21-41.43-4.21c-13.95,0-27.88,1.42-41.39,4.21
			c-13.18,2.73-25.98,6.81-38.03,12.14l-0.26,0.11h-0.28c-0.74,0-1.36-0.6-1.36-1.34c0-0.62,0.41-1.14,0.98-1.3
			c12.19-5.37,25.11-9.48,38.42-12.24c13.69-2.83,27.8-4.26,41.93-4.26c14.2,0,28.32,1.43,41.97,4.26
			c13.34,2.76,26.3,6.9,38.52,12.29c0.51,0.19,0.88,0.68,0.88,1.25C231.35,148.84,230.77,149.44,230.03,149.44z"/>
		
			<linearGradient id="SVGID_00000138554874221772251630000013415604619091557537_" gradientUnits="userSpaceOnUse" x1="149.9801" y1="194.1684" x2="149.9801" y2="3.2804">
			<stop  offset="0" style="stop-color:#E2B755"/>
			<stop  offset="0.081" style="stop-color:#F2E19B"/>
			<stop  offset="0.2911" style="stop-color:#F4E6A3"/>
			<stop  offset="0.5" style="stop-color:#F9F1B5"/>
			<stop  offset="0.6888" style="stop-color:#F5E8A7"/>
			<stop  offset="0.9123" style="stop-color:#F2E19B"/>
			<stop  offset="1" style="stop-color:#E2B755"/>
		</linearGradient>
		
			<rect x="148.64" y="3.28" style="fill:url(#SVGID_00000138554874221772251630000013415604619091557537_);" width="2.68" height="190.89"/>
		
			<linearGradient id="SVGID_00000079451989216039259710000001944095920995295642_" gradientUnits="userSpaceOnUse" x1="54.596" y1="97.3862" x2="245.404" y2="97.3862">
			<stop  offset="0" style="stop-color:#E2B755"/>
			<stop  offset="0.081" style="stop-color:#F2E19B"/>
			<stop  offset="0.2911" style="stop-color:#F4E6A3"/>
			<stop  offset="0.5" style="stop-color:#F9F1B5"/>
			<stop  offset="0.6888" style="stop-color:#F5E8A7"/>
			<stop  offset="0.9123" style="stop-color:#F2E19B"/>
			<stop  offset="1" style="stop-color:#E2B755"/>
		</linearGradient>
		
			<rect x="54.6" y="96.04" style="fill:url(#SVGID_00000079451989216039259710000001944095920995295642_);" width="190.81" height="2.68"/>
		
			<linearGradient id="SVGID_00000137846965305223607580000014739488384616115587_" gradientUnits="userSpaceOnUse" x1="99.347" y1="98.7243" x2="200.6531" y2="98.7243">
			<stop  offset="0" style="stop-color:#E2B755"/>
			<stop  offset="0.081" style="stop-color:#F2E19B"/>
			<stop  offset="0.2911" style="stop-color:#F4E6A3"/>
			<stop  offset="0.5" style="stop-color:#F9F1B5"/>
			<stop  offset="0.6888" style="stop-color:#F5E8A7"/>
			<stop  offset="0.9123" style="stop-color:#F2E19B"/>
			<stop  offset="1" style="stop-color:#E2B755"/>
		</linearGradient>
		<path style="fill:url(#SVGID_00000137846965305223607580000014739488384616115587_);" d="M150,5.96
			c12.49,0,24.37,9.42,33.45,26.53c9.37,17.65,14.52,41.17,14.52,66.23s-5.16,48.58-14.52,66.23
			c-9.08,17.11-20.96,26.53-33.45,26.53s-24.37-9.42-33.45-26.53c-9.37-17.65-14.52-41.17-14.52-66.23s5.16-48.58,14.52-66.23
			C125.63,15.39,137.51,5.96,150,5.96 M150,3.28c-27.97,0-50.65,42.73-50.65,95.44s22.68,95.44,50.65,95.44
			c27.97,0,50.65-42.73,50.65-95.44S177.97,3.28,150,3.28L150,3.28z"/>
	</g>
	<g class="st43">
		<path class="st44" d="M214.78,30.21c-0.61-0.49-1.31-0.42-1.94,0.09c-0.22,0.18-0.44,0.36-0.67,0.53
			c-0.14,0.11-0.3,0.23-0.47,0.16c-0.73-0.34-1.58-0.26-2.3-0.6c-1.36-0.65-2.82-0.87-4.26-1.22c-0.69-0.17-1.35-0.4-2.01-0.68
			c-0.7-0.29-1.34-0.74-2.12-0.84c-1.1-0.13-2.21-0.25-3.03-0.21c-0.92,0-1.55,0-2.17,0c-0.26,0-0.56-0.04-0.74,0.15
			c-0.64,0.68-1.52,0.55-2.31,0.71c-0.22,0.04-0.45-0.01-0.65,0.15c-1.15,0.91-2.36,1.76-3.31,2.91c-0.11,0.13-0.24,0.24-0.37,0.35
			c-0.72,0.61-1.43,1.22-1.97,2c-0.21,0.31-0.49,0.55-0.8,0.77c-0.63,0.44-1.27,0.87-2.01,1.11c-0.64,0.21-1.06,0.76-1.68,0.99
			c-1.39,0.51-1.34,0.47-1.25,2.17c0.02,0.39,0.19,0.77,0.3,1.15c0.07,0.25,0.15,0.49,0.2,0.74c0.14,0.72,0.6,1.16,1.31,1.21
			c0.59,0.04,1.13-0.1,1.61-0.46c0.2-0.16,0.39-0.33,0.6-0.48c0.28-0.2,0.52-0.22,0.84,0.01c0.77,0.57,1.26,1.38,1.85,2.1
			c0.26,0.32,0.15,0.64-0.2,0.86c-0.24,0.15-0.48,0.3-0.71,0.48c-0.18,0.14-0.17,0.35-0.12,0.55c0.06,0.22,0.24,0.36,0.45,0.31
			c0.78-0.15,1.61-0.14,2.29-0.6c0.34-0.23,0.68-0.43,1.1-0.41c0.43,0.02,0.61-0.25,0.72-0.6c0.16-0.55,0.34-1.09,0.34-1.67
			c0-0.42,0.13-0.71,0.57-0.83c0.19-0.05,0.37-0.16,0.53-0.28c0.88-0.63,0.92-1.24,0.15-1.97c-0.1-0.1-0.21-0.19-0.32-0.28
			c-0.87-0.73-0.77-1.72,0.22-2.25c0.25-0.14,0.5-0.27,0.75-0.41c0.7-0.4,1.33-0.84,1.66-1.65c0.2-0.5,0.64-0.81,1.2-0.83
			c0.37-0.02,0.74,0.01,1.11,0.03c0.15,0,0.3,0.04,0.36,0.18c0.11,0.21-0.09,0.3-0.21,0.41c-0.56,0.48-1.06,1.02-1.74,1.37
			c-0.66,0.34-1.14,0.83-1.01,1.7c0.19,1.23,0.64,2.23,1.96,2.58c0.06,0.01,0.11,0.03,0.16,0.05c0.51,0.22,0.8,0.65,0.76,1.12
			c-0.05,0.62-0.3,0.98-0.91,1.06c-0.82,0.11-1.19,0.57-1.33,1.32c-0.04,0.2-0.07,0.39-0.11,0.58c-0.26,1.11-0.89,1.68-1.89,1.57
			c-0.28-0.03-0.57,0.05-0.85,0.08c-0.99,0.08-1.85,0.56-2.78,0.82c-0.26,0.07-0.48,0.18-0.68-0.1c-0.54-0.74-1.21-0.74-1.95-0.31
			c-0.27,0.15-0.54,0.22-0.88,0.05c-0.75-0.38-0.96-0.68-0.7-1.49c0.18-0.54,0.16-1.07,0.1-1.6c-0.03-0.3-0.21-0.53-0.57-0.51
			c-0.55,0.03-1.24,0.65-1.44,1.19c-0.23,0.66-0.25,1.33-0.17,2c0.05,0.47-0.11,0.76-0.54,0.94c-0.42,0.18-0.82,0.41-1.25,0.56
			c-0.67,0.24-1.25,0.64-1.62,1.21c-0.5,0.77-1.28,1.11-1.99,1.55c-0.35,0.22-0.68,0.39-0.83,0.8c-0.24,0.66-0.98,0.62-1.44,0.97
			c-0.26,0.2-0.54,0-0.81-0.08c-0.39-0.13-0.85-0.18-1.08,0.23c-0.35,0.64-0.89,0.74-1.51,0.73c-0.4,0-0.8,0.05-1.18,0.18
			c-0.17,0.06-0.32,0.14-0.33,0.34c-0.01,0.31,0.48,0.96,0.81,0.98c1.15,0.07,1.73,0.9,2.31,1.71c0.37,0.51,0.49,1.08,0.23,1.7
			c-0.12,0.29-0.17,0.6-0.21,0.91c-0.1,0.75-0.25,0.86-0.99,0.85c-0.2,0-0.4,0-0.6-0.03c-1.52-0.24-3.05-0.2-4.57-0.32
			c-0.17-0.01-0.34,0-0.49,0.1c-0.56,0.4-1.37,0.61-1.02,1.63c0.13,0.38-0.2,0.84-0.08,1.26c0.15,0.5,0.01,0.95-0.15,1.41
			c-0.14,0.41-0.39,0.76-0.57,1.15c-0.09,0.2-0.28,0.46-0.1,0.64c0.48,0.47,0.38,1.04,0.39,1.6c0.01,0.44,0.23,0.62,0.64,0.62
			c0.14,0,0.29,0.02,0.43,0c0.73-0.12,1.32,0.09,1.88,0.58c0.44,0.38,1.05,0.57,1.59,0.32c0.44-0.21,0.87-0.29,1.32-0.24
			c1.18,0.15,1.94-0.62,2.66-1.29c0.35-0.33,0.5-0.92,0.85-1.33c0.07-0.08,0.06-0.3,0-0.41c-0.21-0.38,0-0.65,0.21-0.92
			c0.22-0.29,0.46-0.58,0.65-0.9c0.22-0.36,0.48-0.57,0.93-0.64c0.61-0.09,1.03-0.58,1.48-0.97c0.31-0.28,0.18-0.69,0.21-1.06
			c0.04-0.66,0.48-1.06,1.21-1c0.42,0.03,0.83,0.18,1.25,0.26c0.28,0.05,0.59,0.24,0.83,0.08c0.56-0.38,1.2-0.61,1.76-0.97
			c0.69-0.45,0.77-0.49,1.38,0.01c0.22,0.19,0.4,0.41,0.51,0.67c0.21,0.49,0.56,0.85,0.94,1.2c0.83,0.75,1.71,1.4,2.75,1.84
			c0.76,0.32,1.27,0.95,1.78,1.55c0.46,0.54,0.11,1.29-0.59,1.5c-0.7,0.21-1.41,0.15-2.12,0.14c-0.24,0-0.48,0.04-0.57,0.29
			c-0.09,0.27,0.12,0.42,0.32,0.53c0.62,0.36,1.28,0.61,1.89,0.98c0.39,0.24,0.76,0.02,0.76-0.45c0-0.57,0.26-0.83,0.75-0.97
			c0.61-0.18,0.72-0.74,0.97-1.22c0.19-0.36,0.08-0.63-0.09-0.95c-0.18-0.36,0.03-0.59,0.44-0.57c0.28,0.01,0.45,0.23,0.68,0.33
			c0.3,0.13,0.49-0.01,0.51-0.34c0.01-0.37-0.24-0.58-0.49-0.76c-0.61-0.42-1.24-0.8-1.85-1.23c-0.28-0.2-0.55-0.35-0.89-0.45
			c-0.59-0.18-1.19-0.48-1.45-1.09c-0.2-0.47-0.48-0.82-0.87-1.12c-0.13-0.1-0.26-0.23-0.34-0.38c-0.2-0.33-0.15-0.9,0.09-1.11
			c0.28-0.25,0.64-0.37,0.94-0.12c0.54,0.45,1.2,0.76,1.58,1.41c0.27,0.46,0.73,0.73,1.24,0.85c0.36,0.08,0.63,0.24,0.87,0.5
			c0.17,0.19,0.38,0.34,0.61,0.46c0.96,0.5,1.36,1.33,1.38,2.37c0,0.25-0.05,0.53,0.13,0.74c0.65,0.76,0.93,1.77,1.68,2.46
			c0.25,0.22,0.38,0.54,0.38,0.84c0,0.85,0.59,1.02,1.22,1.16c0.51,0.12,0.65,0.03,0.83-0.46c0.4-1.06,0.81-2.12,0.27-3.26
			c-0.02-0.05-0.03-0.11-0.03-0.17c-0.05-0.5,0.43-1.29,0.83-1.35c0.74-0.1,1.48,0.43,1.54,1.11c0.03,0.34,0.04,0.68,0.03,1.03
			c-0.03,0.72,0.2,1.37,0.58,1.93c0.33,0.49,0.76,0.91,1.45,0.89c0.55-0.02,1.06,0.22,1.55,0.45c0.41,0.19,0.75,0.27,1.09-0.05
			c0.24-0.23,0.49-0.21,0.79-0.12c0.41,0.12,0.81,0.23,1.2,0.42c0.56,0.28,1.14,0.31,1.69-0.07c0.18-0.13,0.4-0.24,0.61-0.29
			c0.58-0.13,1.21,0.2,1.26,0.73c0.06,0.65,0.19,1.34-0.05,1.95c-0.23,0.58-0.43,1.16-0.56,1.78c-0.11,0.5-0.23,1.01-0.45,1.46
			c-0.28,0.58-0.3,1.13-0.13,1.73c0.21,0.74,0.57,1.42,0.86,2.13c0.49,1.2,1.13,2.29,1.92,3.3c0.35,0.45,0.66,0.94,0.83,1.48
			c0.1,0.31,0.29,0.55,0.55,0.74c0.53,0.37,0.85,0.9,1.16,1.45c0.32,0.56,0.37,1.19,0.5,1.8c0.17,0.81,0.49,1.51,1.28,1.91
			c0.22,0.11,0.43,0.3,0.57,0.51c0.76,1.09,1.46,2.25,1.89,3.49c0.47,1.35,1.2,2.57,1.68,3.9c0.17,0.48,0.58,0.84,1.06,1.06
			c0.45,0.21,0.75-0.1,1.09-0.3c0.07-0.04,0.16-0.05,0.24-0.08c1.54-0.58,3.09-1.12,4.52-1.94c0.28-0.16,0.59-0.19,0.9-0.26
			c0.63-0.14,1.18-0.41,1.5-1.02c0.19-0.37,0.51-0.65,0.85-0.82c0.95-0.49,1.92-0.93,2.81-1.55c1.01-0.7,2.07-1.3,2.34-2.64
			c0.05-0.28,0.23-0.51,0.39-0.75c0.42-0.64,0.85-1.28,1.06-2.04c0.08-0.29,0.13-0.55-0.07-0.8c-0.32-0.4-0.63-0.81-0.96-1.2
			c-0.25-0.29-0.54-0.53-0.96-0.46c-0.51,0.08-0.8-0.19-1.04-0.58c-0.12-0.19-0.28-0.36-0.4-0.55c-0.71-1.05-1.46-1.1-2.2-0.12
			c-0.23,0.31-0.5,0.57-0.86,0.66c-0.67,0.17-1.36,0.11-2.04,0.03c-0.24-0.03-0.42-0.18-0.35-0.48c0.34-1.38-0.43-2.13-1.52-2.7
			c-1.12-0.59-1.92-1.49-2.36-2.68c-0.25-0.69,0.32-1.3,1.04-1.2c1.01,0.14,1.4,0.89,1.69,1.71c0.14,0.38,0.21,0.84,0.58,1
			c1.02,0.43,1.81,1.25,2.93,1.54c0.58,0.15,1.07,0.28,1.63,0.04c0.21-0.09,0.42-0.15,0.63-0.26c0.43-0.23,0.57-0.17,0.8,0.27
			c0.07,0.13,0.12,0.26,0.16,0.4c0.15,0.52,0.49,0.79,1.04,0.88c0.73,0.12,1.45,0.31,2.17,0.44c1.52,0.28,3.04,0.41,4.57,0.06
			c0.32-0.07,0.65-0.12,0.98-0.15c-3.58-19.9-13.33-37.65-27.19-51.22c-0.11,0.03-0.22,0.05-0.33,0.08
			C215.92,30.74,215.35,30.66,214.78,30.21z"/>
		<path class="st44" d="M229.65,98.03c-0.69,0.42-1.48,0.39-2.21,0.58c-1.21,0.31-2.36,0.81-3.59,1.01
			c-0.92,0.15-1.95-0.4-1.98-1.28c-0.02-0.71-0.38-1.16-0.81-1.62c-0.42-0.46-0.88-0.9-1.24-1.41c-0.29-0.41-0.59-0.69-1.1-0.86
			c-1.03-0.34-1.63-1.05-1.69-2.2c-0.04-0.69-0.33-1.32-0.82-1.84c-0.81-0.88-1.35-1.84-1.45-3.09c-0.07-0.83-0.38-1.67-0.97-2.33
			c-0.69-0.77-1.28-1.59-1.62-2.58c-0.13-0.38-0.35-0.72-0.48-1.09c-0.35-1.01-1.27-1.77-1.13-3.03c0.08-0.72-0.36-1.48-0.5-2.23
			c-0.21-1.16-1.09-1.7-1.98-2.2c-0.72-0.41-1.45-0.18-2.07,0.3c-0.41,0.31-0.8,0.36-1.26,0.12c-0.32-0.17-0.7-0.22-1.06-0.3
			c-1.1-0.25-2.24-0.39-3.29-0.89c-0.48-0.23-0.99-0.33-1.43-0.69c-0.44-0.36-1.06-0.39-1.64-0.26c-0.22,0.05-0.42,0.15-0.66,0.17
			c-0.56,0.03-0.8,0.49-1.12,0.85c-0.27,0.31-0.11,0.62-0.01,0.96c0.18,0.54-0.1,0.88-0.66,0.92c-0.34,0.03-0.61-0.12-0.85-0.33
			c-0.54-0.47-1.16-0.71-1.87-0.72c-0.54-0.01-0.94-0.22-1.09-0.77c-0.21-0.76-0.81-0.98-1.49-1.08c-0.31-0.04-0.63-0.04-0.94-0.01
			c-0.76,0.09-1.4-0.23-2.01-0.6c-0.65-0.4-0.79-1.04-0.43-1.73c0.14-0.26,0.23-0.52,0.21-0.82c-0.03-0.45-0.04-0.9,0.04-1.36
			c0.09-0.47-0.2-0.89-0.64-0.96c-0.45-0.07-0.94-0.15-1.35,0.06c-0.36,0.18-0.7,0.14-1.07,0.15c-0.81,0.02-1.66-0.22-2.41,0.31
			c-0.18,0.13-0.38,0.07-0.57-0.01c-0.49-0.23-0.99-0.16-1.5-0.07c-0.95,0.17-1.87,0.47-2.86,0.42c-0.49-0.03-0.94,0.24-1.26,0.63
			c-0.15,0.18-0.31,0.3-0.54,0.39c-1.01,0.42-2.08,0.54-3.15,0.66c-0.53,0.06-1.04,0.06-1.53-0.35c-0.4-0.33-0.94-0.12-1.23,0.34
			c-0.18,0.29-0.41,0.56-0.52,0.88c-0.2,0.56-0.6,0.85-1.09,1.12c-1.2,0.67-2.11,1.64-2.47,2.98c-0.22,0.82-0.59,1.55-1.11,2.19
			c-0.59,0.71-1.1,1.53-2.1,1.78c-0.34,0.08-0.56,0.33-0.71,0.68c-0.18,0.41-0.38,0.94-0.73,1.12c-0.71,0.37-0.92,0.95-1.09,1.63
			c-0.06,0.22-0.16,0.43-0.27,0.62c-0.54,0.96-1.22,1.83-1.7,2.84c-0.5,1.04-0.69,1.97-0.26,3.08c0.43,1.1,0.8,2.24,0.36,3.46
			c-0.07,0.18-0.08,0.39-0.1,0.59c-0.06,0.44-0.26,0.79-0.59,1.1c-0.49,0.47-0.73,1.06-0.72,1.76c0.01,1.31,0.56,2.42,1.26,3.47
			c0.22,0.32,0.6,0.41,0.88,0.66c0.5,0.44,0.8,1.03,1.29,1.47c0.33,0.29,0.57,0.63,0.69,1.05c0.48,1.63,1.48,2.88,2.9,3.75
			c0.83,0.51,1.6,1.08,2.33,1.71c0.74,0.65,1.53,0.83,2.43,0.32c0.22-0.13,0.47-0.2,0.72-0.28c0.92-0.28,1.8-0.55,2.82-0.23
			c0.63,0.2,1.32,0.48,2.07,0.15c0.91-0.4,1.85-0.75,2.74-1.17c0.89-0.42,1.76-0.58,2.71-0.58c1.11,0,1.76,0.46,2.12,1.5
			c0.34,0.98,0.59,1.13,1.64,0.96c0.78-0.12,1.52-0.06,2.22,0.34c0.89,0.5,1.03,0.82,0.86,1.86c-0.09,0.53-0.39,1.03-0.36,1.57
			c0.04,0.73-0.11,1.41-0.38,2.08c-0.11,0.26-0.22,0.54-0.08,0.83c0.2,0.44,0.32,0.91,0.64,1.29c0.6,0.72,1.15,1.48,1.76,2.2
			c0.51,0.6,0.88,1.23,0.97,2.04c0.06,0.51,0.27,0.98,0.55,1.42c0.31,0.49,0.51,1.03,0.47,1.62c-0.06,1.02,0.2,1.97,0.6,2.9
			c0.47,1.09,0.39,2.11-0.52,2.97c-0.39,0.36-0.59,0.81-0.67,1.34c-0.13,0.84-0.46,1.64-0.67,2.46c-0.2,0.79-0.2,1.63-0.25,2.45
			c-0.02,0.29,0.14,0.55,0.31,0.78c0.39,0.54,0.62,1.15,0.88,1.75c0.35,0.81,0.59,1.68,1.22,2.33c0.56,0.58,0.69,1.27,0.63,2.04
			c-0.04,0.54-0.11,1.09,0.07,1.61c0.19,0.55,0.25,1.11,0.28,1.68c0.05,0.9,0.21,1.87,0.84,2.46c1.09,1.03,1.63,2.26,1.91,3.67
			c0.01,0.03,0.02,0.06,0.03,0.08c0.29,0.52,0.37,1.07,0.3,1.85c-0.2,0.58,0.3,1.24,0.4,1.96c0.01,0.1,0.08,0.24,0.16,0.29
			c0.58,0.29,1.12,0.72,1.82,0.62c1.09-0.17,2.21-0.14,3.26-0.57c0.13-0.05,0.28-0.07,0.42-0.07c1.1,0.04,2.12-0.26,3.16-0.6
			c1.05-0.34,1.87-0.92,2.55-1.75c0.25-0.31,0.51-0.63,0.82-0.87c0.54-0.42,0.89-0.95,1.19-1.54c0.3-0.59,0.66-1.16,1.17-1.56
			c0.6-0.47,0.89-1.08,1.12-1.76c0.1-0.3,0.23-0.59,0.27-0.9c0.15-1.12,0.78-1.85,1.76-2.34c0.38-0.19,0.73-0.49,0.88-0.9
			c0.41-1.13,0.72-2.28,0.26-3.49c-0.08-0.21-0.14-0.44-0.18-0.66c-0.18-1.02,0.14-1.87,0.98-2.47c0.36-0.26,0.64-0.57,0.89-0.91
			c0.26-0.36,0.58-0.61,0.99-0.78c0.99-0.41,1.86-0.99,2.55-1.83c0.65-0.79,1.04-1.66,0.91-2.74c-0.1-0.78-0.07-1.58,0.07-2.38
			c0.16-0.89,0.17-1.79-0.44-2.61c-0.4-0.54-0.73-1.2-0.7-1.89c0.05-1.15-0.11-2.26-0.37-3.38c-0.1-0.45-0.05-0.92,0.24-1.3
			c0.2-0.26,0.31-0.54,0.43-0.83c0.46-1.1,0.94-2.19,1.95-2.94c0.18-0.13,0.3-0.34,0.44-0.52c0.53-0.71,1.01-1.45,1.58-2.13
			c0.51-0.61,1-1.29,1.73-1.63c1.74-0.83,2.84-2.28,3.7-3.89c0.96-1.81,1.75-3.7,2.61-5.56c0.08-0.18,0.08-0.39,0.14-0.58
			c0.25-0.78-0.06-1.59,0.13-2.37C230.4,98.26,229.93,97.87,229.65,98.03z"/>
		<path class="st44" d="M58.02,80.98c-0.05,0.45,0.13,0.76,0.49,1.01c0.7,0.48,1.18,1.16,1.55,1.9c0.23,0.46,0.45,0.91,0.74,1.34
			c0.42,0.61,0.43,1.27,0.13,1.95c-0.46,1.03-0.09,2.03,0.94,2.53c0.1,0.05,0.24,0.08,0.29,0.17c0.45,0.69,1.12,1.02,1.89,1.23
			c0.13,0.04,0.25,0.15,0.34,0.25c0.39,0.44,0.89,0.72,1.42,0.93c1.08,0.45,2.16,0.88,3.25,1.3c0.49,0.19,1,0.21,1.51,0.04
			c0.27-0.09,0.55-0.14,0.82-0.24c0.39-0.15,0.74-0.05,1.05,0.17c0.26,0.18,0.51,0.36,0.7,0.62c1.28,1.86,3.22,2.51,5.3,2.87
			c0.52,0.09,0.93,0.37,1.17,0.78c0.3,0.5,0.61,1.02,0.69,1.63c0.12,0.9,0.53,1.58,1.46,1.91c0.52,0.19,1.02,0.51,1.27,1.08
			c0.2,0.46,0.61,0.68,1.09,0.72c0.57,0.05,1.04,0.22,1.41,0.69c0.25,0.32,0.63,0.24,0.95,0.15c0.3-0.08,0.35-0.35,0.33-0.62
			c-0.02-0.24,0.03-0.44,0.17-0.64c0.18-0.25,0.23-0.56,0.05-0.8c-0.19-0.26-0.54-0.2-0.8-0.13c-0.72,0.21-1.28-0.04-1.8-0.49
			c-0.17-0.15-0.34-0.31-0.52-0.45c-0.73-0.57-0.91-1.39-0.62-2.15c0.39-1.05,0.29-2.21,0.85-3.21c0.18-0.32,0.07-0.73,0.05-1.1
			c-0.01-0.18-0.13-0.3-0.27-0.41c-0.85-0.68-1.81-0.93-2.87-0.75c-0.4,0.07-0.79,0.01-1.19,0.01c-0.34,0-0.52-0.17-0.62-0.48
			c-0.2-0.61-0.13-1.19,0.23-1.7c0.4-0.56,0.67-1.18,0.93-1.82c0.3-0.75,0.19-1.62,0.83-2.28c0.28-0.29-0.01-0.68-0.47-0.77
			c-1.14-0.23-2.19,0.07-3.23,0.47c-0.32,0.12-0.5,0.35-0.53,0.7c-0.06,0.6-0.29,1.16-0.54,1.7c-0.31,0.68-0.66,0.91-1.41,0.84
			c-0.6-0.06-1.18-0.06-1.78,0.04c-1.07,0.18-2.13-0.57-2.66-1.54c-0.6-1.12-0.51-2.3-0.6-3.48c-0.01-0.17,0.04-0.34,0.06-0.51
			c0.1-1.04,0.51-1.98,0.94-2.91c0.22-0.47,0.38-0.94,0.36-1.47c-0.03-0.57,0.17-1.08,0.65-1.42c0.56-0.38,1.06-0.84,1.71-1.11
			c0.6-0.25,1.2-0.51,1.75-0.88c0.49-0.34,1.01-0.36,1.62-0.15c0.99,0.34,2.06,0.34,3.1,0.49c0.27,0.04,0.39-0.14,0.53-0.34
			c0.25-0.35,0.53-0.68,0.98-0.78c0.53-0.12,1.05-0.26,1.58-0.35c0.51-0.09,1,0,1.25,0.5c0.21,0.41,0.48,0.48,0.9,0.42
			c0.98-0.13,1.5,0.41,1.37,1.39c-0.05,0.37-0.03,0.73,0.05,1.1c0.2,0.9,0.5,1.74,1.03,2.51c0.38,0.55,0.64,0.63,1.13,0.18
			c0.52-0.48,0.79-1.08,0.83-1.81c0.05-0.91-0.22-1.75-0.42-2.6c-0.41-1.71,0.08-3.11,1.46-4.15c1.13-0.85,2.31-1.64,3.59-2.26
			c0.72-0.35,1.44-0.64,1.9-1.43c0.28-0.49,0.64-0.94,0.77-1.49c0.2-0.84,0.63-1.53,1.16-2.16c0.64-0.76,1.31-1.49,1.98-2.23
			c0.75-0.82,1.57-1.38,2.66-1.51c0.52-0.06,0.97-0.31,1.45-0.5c0.33-0.13,0.51-0.37,0.47-0.73c-0.06-0.49,0.21-0.79,0.54-1.1
			c0.49-0.46,1.18-0.6,1.67-0.95c0.68-0.49,1.34-0.35,2.03-0.38c0.36-0.01,0.61,0.14,0.77,0.54c0.2,0.51,0.59,0.57,1.01,0.21
			c0.26-0.22,0.49-0.48,0.73-0.72c0.18-0.18,0.37-0.4,0.65-0.37c0.85,0.08,1.59-0.44,2.42-0.4c0.19,0.01,0.39-0.06,0.58-0.13
			c0.44-0.15,0.54-0.6,0.22-0.94c-0.14-0.15-0.32-0.22-0.53-0.25c-0.31-0.04-0.62-0.11-0.92-0.17c-0.88-0.18-1.25-0.74-1.03-1.61
			c0.1-0.39,0.27-0.77,0.58-1.03c0.47-0.39,0.64-0.87,0.5-1.44c-0.1-0.39,0.11-0.53,0.39-0.64c0.65-0.27,1.34-0.32,2.02-0.22
			c0.83,0.13,1.62,0.15,2.44-0.12c0.44-0.14,0.76,0.28,0.57,0.72c-0.15,0.34-0.39,0.63-0.67,0.88c-0.37,0.31-0.52,0.73-0.67,1.17
			c-0.12,0.34-0.08,0.53,0.32,0.6c0.54,0.1,1.06,0.19,1.61,0.06c0.57-0.14,1.15-0.15,1.65,0.2c0.49,0.34,1.07,0.4,1.62,0.52
			c0.79,0.17,1.35-0.54,1.05-1.3c-0.18-0.47-0.23-0.93,0.01-1.4c0.36-0.72,0.34-0.73-0.38-1.02c-0.61-0.24-0.73-0.53-0.7-1.17
			c0.05-0.87,0.53-1.61,0.64-2.46c0.07-0.51,0.04-0.89-0.39-1.19c-0.19-0.13-0.38-0.27-0.35-0.54c0.04-0.48-0.3-0.66-0.67-0.75
			c-0.96-0.24-1.21-0.95-1.24-1.8c-0.02-0.51,0.01-1.03-0.01-1.54c-0.02-0.88-0.28-1.68-0.85-2.37c-0.43-0.52-0.58-0.55-1.12-0.14
			c-0.68,0.52-1.39,1-2.12,1.44c-0.49,0.29-1.03,0.25-1.43-0.09c-0.36-0.31-0.4-0.64-0.15-1.24c0.06-0.13,0.13-0.25,0.19-0.38
			c0.23-0.52,0.21-0.75-0.26-1c-0.42-0.23-0.7-0.55-1.02-0.88c-0.31-0.32-0.63-0.69-1.11-0.75c-0.9-0.12-1.81-0.2-2.72-0.2
			c-0.33,0-0.64,0.1-0.87,0.31c-0.58,0.54-0.79,1.32-1.21,1.97c0.11,1.01-0.47,1.52-1.33,1.82c-0.08,0.03-0.17,0.05-0.24,0.09
			c-0.44,0.26-0.48,0.47-0.18,0.88c0.5,0.68,0.51,0.87,0.07,1.59c-0.31,0.5-0.72,0.85-1.22,1.17c-0.76,0.48-1.64,0.64-2.43,1.04
			c-0.37,0.19-0.64,0.39-0.61,0.82c0.05,0.7-0.45,1.28-0.44,1.98c0,0.27-0.28,0.48-0.54,0.62c-0.23,0.12-0.46,0.23-0.69,0.35
			c-0.57,0.28-0.89,0.18-1.14-0.4c-0.2-0.46-0.25-0.93,0.05-1.38c0.36-0.55,0.55-1.19,1-1.69c0.21-0.23,0.11-0.44-0.15-0.53
			c-0.46-0.16-0.93-0.26-1.42-0.26c-1.03,0-1.92-0.51-2.6-1.15c-0.64-0.6-1.32-0.98-2.11-1.18c-0.47-0.12-0.66-0.37-0.74-0.8
			c-0.06-0.33-0.04-0.69-0.25-0.98c-0.33-0.44-0.12-0.8,0.16-1.15c0.35-0.42,0.83-0.69,1.26-1.02c1.16-0.9,2.43-1.59,3.91-1.78
			c0.75-0.09,1.33-0.5,1.85-0.98c0.36-0.33,0.76-0.48,1.23-0.52c0.77-0.06,1.48,0.12,2.06,0.64c0.29,0.27,0.55,0.24,0.85,0.08
			c0.43-0.22,0.86-0.44,1.29-0.67c0.3-0.16,0.58-0.18,0.88,0.03c0.26,0.18,0.55,0.3,0.88,0.29c0.25-0.01,0.45-0.1,0.55-0.33
			c0.1-0.22,0-0.4-0.17-0.53c-0.32-0.24-0.45-0.57-0.55-0.93c-0.18-0.68-0.07-0.91,0.63-0.95c0.49-0.03,0.88-0.21,1.25-0.48
			c0.63-0.46,1.39-0.78,1.74-1.57c0.09-0.19,0.31-0.33,0.47-0.49c0.22-0.22,0.44-0.44,0.58-0.73c0.26-0.52,0.72-0.71,1.27-0.63
			c0.43,0.07,0.85,0.05,1.28,0.04c0.61-0.01,1.21,0.15,1.58,0.67c0.24,0.34,0.51,0.58,0.88,0.76c0.55,0.28,0.58,0.64,0.12,1.07
			c-0.35,0.33-0.75,0.61-1.19,0.82c-0.25,0.12-0.55,0.23-0.63,0.54c-0.14,0.53-0.57,0.58-1,0.64c-0.49,0.06-0.96-0.05-1.43-0.19
			c-0.74-0.23-1.53,0.17-1.78,0.89c-0.1,0.3-0.03,0.5,0.32,0.54c0.93,0.09,1.86,0.31,2.8,0.08c0.37-0.09,0.62,0.05,0.81,0.33
			c0.15,0.21,0.28,0.44,0.35,0.68c0.15,0.56,0.55,0.84,1.05,1.02c0.56,0.21,1.12,0.42,1.68,0.63c0.51,0.2,0.95,0.17,1.42-0.19
			c0.52-0.39,1-0.83,1.56-1.18c0.74-0.45,0.86-1.16,0.47-1.93c-0.13-0.25-0.26-0.51-0.38-0.77c-0.08-0.19-0.12-0.4,0.09-0.53
			c0.19-0.12,0.38-0.03,0.55,0.09c0.33,0.24,0.5,0.62,0.78,0.9c0.46,0.45,0.85,0.48,1.36,0.09c0.38-0.3,0.76-0.6,1.14-0.91
			c0.53-0.43,0.59-0.68,0.36-1.34c-0.13-0.36-0.32-0.65-0.68-0.83c-0.82-0.41-1.37-1.01-1.26-2.01c0.06-0.48-0.19-0.81-0.53-1.1
			c-0.56-0.47-1.22-0.73-1.93-0.87c-0.8-0.15-1.36-0.61-1.62-1.36c-0.16-0.48-0.48-0.67-0.92-0.77c-1.15-0.28-2.34-0.27-3.49-0.13
			c-0.8,0.09-1.58,0.15-2.38,0.16c-0.54,0-1.09-0.04-1.62,0.01c-0.53,0.05-1.09,0.06-1.55,0.41c-0.55,0.41-1.09,0.82-1.62,1.26
			c-0.67,0.56-0.73,0.82-0.43,1.64c0.07,0.19,0.18,0.36,0.08,0.57c-0.21,0.4-0.55,0.66-1,0.7c-0.43,0.03-0.87,0.03-1.13-0.42
			c-0.28-0.5-0.48-1.02-0.55-1.6c-0.07-0.52-0.45-0.85-0.84-0.74c-0.68,0.19-1.4,0.36-1.97,0.78c-0.63,0.46-1.29,0.92-0.98,1.94
			c0.18,0.58-0.01,0.68-0.53,1c-0.4,0.25-0.78,0.12-1.15,0.04c-0.62-0.14-1.28-0.21-1.85,0.01c-0.45,0.18-0.87,0.23-1.32,0.23
			c-0.51,0.01-1.02,0.02-1.53,0.11c-0.72,0.12-1.41,0.07-1.97-0.53c-0.37-0.39-0.93-0.5-1.43-0.41c-0.89,0.17-1.8,0.25-2.68,0.5
			c-1.37,0.38-2.75,0.59-3.98-0.44c-0.26-0.21-0.55-0.27-0.86-0.27C70.77,42.5,61.02,59.34,56.89,78.28
			c0.49,0.69,0.6,1.59,1.09,2.28C58.05,80.66,58.04,80.84,58.02,80.98z"/>
		<path class="st44" d="M57.28,84.16c0.13-0.38,0.03-0.72-0.22-1.04c-0.32-0.4-0.5-0.85-0.66-1.34c-0.05-0.15-0.09-0.3-0.12-0.45
			c-0.15,0.79-0.28,1.59-0.41,2.39c0.19,0.21,0.37,0.42,0.55,0.63C56.71,84.69,57.13,84.59,57.28,84.16z"/>
		<path class="st44" d="M134.73,119.14c-0.81-0.1-1.43-0.51-1.95-1.12c-0.2-0.24-0.42-0.47-0.67-0.66c-0.7-0.54-1.42-1.08-2.41-0.85
			c-1.28,0.22-2.38-0.42-3.37-1c-1.66-0.97-3.47-1.57-5.21-2.34c-0.78-0.35-1.19-0.81-1.39-1.56c-0.07-0.27-0.06-0.58-0.26-0.8
			c-0.5-0.55-0.7-1.22-0.84-1.93c-0.1-0.49-0.21-1.05-0.68-1.34c-0.47-0.29-0.83-0.68-1.19-1.09c-0.13-0.15-0.28-0.29-0.48-0.34
			c-0.93-0.22-1.82-0.65-2.83-0.55c-1.35,0.12-2.27-0.59-2.92-1.68c-0.38-0.64-0.81-1.16-1.55-1.38c-0.49-0.15-0.72-0.54-0.87-0.99
			c-0.1-0.32,0.12-0.6,0.18-0.9c0.07-0.33,0.2-0.71-0.22-0.89c-0.39-0.17-0.8-0.38-1.23-0.25c-0.5,0.16-1.01,0.15-1.52,0.15
			c-0.38,0-0.72,0.05-1.03,0.31c-0.49,0.41-1.08,0.43-1.6,0.12c-0.44-0.27-0.9-0.35-1.38-0.4c-0.53-0.06-0.99-0.25-1.4-0.57
			c-0.59-0.45-1.29-0.72-1.93-1.05c-0.48-0.25-1.1-0.25-1.65-0.33c-0.22-0.03-0.44,0-0.62,0.2c-0.56,0.62-1.29,0.85-2.09,1.03
			c-0.94,0.21-1.8,0.62-2.06,1.76c-0.18,0.8-1.25,1.35-2.09,1.18c-0.31-0.06-0.62-0.06-0.94-0.03c-0.15,0.01-0.3,0.07-0.31,0.23
			c-0.02,0.35-0.23,0.75,0.23,0.98c0.18,0.09,0.24,0.23,0.24,0.41c-0.01,0.34,0.16,0.61,0.33,0.87c0.55,0.84,0.64,1.76,0.54,2.71
			c-0.09,0.81-0.16,1.63-0.64,2.36c-0.28,0.42-0.69,0.66-1.02,1.02c-0.39,0.42-0.58,1.01-1.04,1.34c-0.86,0.62-1.13,1.56-1.34,2.49
			c-0.13,0.6-0.19,1.29,0.14,1.84c0.5,0.83,0.34,1.51-0.29,2.16c-0.25,0.26-0.41,0.57-0.37,0.92c0.09,1.04,0.3,2.03,1.26,2.68
			c0.82,0.56,1.21,1.42,1.46,2.34c0.14,0.5,0.34,0.96,0.71,1.34c0.73,0.74,1.27,1.63,1.72,2.54c0.39,0.78,0.85,1.52,1.18,2.35
			c0.38,0.94,1.23,1.61,1.95,2.34c0.05,0.06,0.16,0.06,0.24,0.1c0.6,0.25,1.22,0.48,1.81,0.76c1.13,0.53,2.04,1.34,2.88,2.24
			c0.2,0.21,0.25,0.5,0.34,0.77c0.43,1.35,0.37,2.76,0.44,4.15c0.1,1.99,0.16,3.98,0.37,5.96c0.04,0.34,0.04,0.69-0.03,1.02
			c-0.2,0.88-0.11,1.74-0.02,2.63c0.1,1.06,0.55,2.02,0.72,3.06c0.18,1.08,0.26,2.13,0.02,3.21c-0.19,0.85-0.22,1.74-0.31,2.62
			c-0.02,0.2-0.02,0.4,0.08,0.59c0.58,1.07,0.77,2.25,0.98,3.43c0.15,0.83,0.41,1.62,1,2.3c0.98,1.13,1.38,2.53,1.52,4
			c0.04,0.43,0.15,0.84,0.39,1.2c0.27,0.41,0.4,0.87,0.47,1.36c0.12,0.87,0.27,1.74,0.84,2.47c0.1,0.13,0.14,0.31,0.22,0.46
			c0.69,1.14,1.13,2.43,2.12,3.37c0.65,0.62,1.31,1.16,2.34,0.78c0.75-0.28,1.81,0.3,2.02,1.11c0.14,0.54,0.45,0.66,0.91,0.71
			c0.37,0.04,0.74-0.01,1.1,0.14c0.65,0.27,1.34,0.24,2.02,0.24c0.34,0,0.65-0.05,0.71-0.44c0.06-0.37-0.25-0.55-0.52-0.71
			c-0.09-0.05-0.22-0.06-0.33-0.06c-0.44,0-0.85-0.15-1.22-0.36c-0.76-0.43-1.6-0.81-1.96-1.69c-0.2-0.5-0.5-0.86-0.89-1.21
			c-1.03-0.92-0.85-1.25-0.44-2.06c0.05-0.1,0.12-0.22,0.11-0.32c-0.08-0.64,0.36-0.98,0.73-1.37c0.69-0.72,0.54-1.46-0.37-1.9
			c-0.79-0.39-1.07-1.33-0.61-2.06c0.3-0.47,0.54-0.94,0.34-1.52c-0.11-0.31,0.06-0.57,0.25-0.78c0.35-0.37,0.52-0.81,0.59-1.3
			c0.07-0.49,0.27-0.92,0.56-1.32c0.28-0.39,0.5-0.82,0.57-1.32c0.09-0.63,0.52-1,1.07-1.24c0.21-0.09,0.44-0.13,0.65-0.21
			c1-0.37,1.87-0.85,1.92-2.1c0-0.11,0.06-0.22,0.1-0.33c0.33-0.91,0.66-1.81,1.5-2.42c0.43-0.31,0.82-0.73,1.05-1.22
			c0.34-0.72,0.65-1.45,0.96-2.19c0.28-0.68,0.44-1.43,1.1-1.88c0.68-0.46,0.51-1.38,1.06-1.9c0.12-0.12,0.24-0.25,0.37-0.35
			c0.31-0.25,0.45-0.59,0.45-0.97c0-0.45,0.01-0.9-0.12-1.35c-0.53-1.78-0.22-2.51,1.37-3.48c0.27-0.16,0.56-0.28,0.86-0.37
			c0.27-0.08,0.55-0.16,0.78-0.33c0.62-0.44,1.29-0.65,2.06-0.68c0.67-0.03,1.46-0.01,1.74-0.9c0.03-0.09,0.16-0.16,0.26-0.21
			c0.34-0.2,0.45-0.5,0.42-0.87c-0.05-0.48,0.13-0.87,0.4-1.27c0.34-0.49,0.66-1.03,0.62-1.65c-0.03-0.61-0.01-1.19,0.39-1.7
			c0.14-0.19,0.1-0.44,0.11-0.66c0.01-0.28-0.03-0.59,0.05-0.85c0.19-0.6,0.1-1.15-0.07-1.75c-0.27-0.97-0.33-2,0.37-2.85
			c0.96-1.16,1.5-2.61,2.6-3.67c0.06-0.06,0.12-0.13,0.16-0.2c0.93-1.56,1.27-3.2,0.68-4.98
			C135.91,119.7,135.49,119.24,134.73,119.14z"/>
		<path class="st44" d="M158.75,29.06c1.3-0.27,1.74-0.97,1.43-2.29c-0.19-0.8-0.03-1.05,0.72-1.33c1.35-0.51,2.44-1.31,2.94-2.73
			c0.08-0.21,0.11-0.44,0.29-0.61c0.39-0.36,0.5-0.82,0.46-1.32c-0.03-0.41,0.11-0.78,0.48-0.92c0.93-0.35,1.76-0.94,2.76-1.11
			c0.78-0.14,1.58-0.23,2.29-0.62c0.16-0.09,0.3-0.17,0.26-0.38c-0.03-0.17-0.19-0.21-0.32-0.25c-0.53-0.16-1.07-0.13-1.61-0.1
			c-1.03,0.06-2.08,0.02-3.04-0.29c-1.09-0.35-2.2-0.57-3.31-0.78c-1.83-0.33-3.67-0.4-5.52-0.05c-0.72,0.14-1.43,0.24-2.19,0.17
			c-1.04-0.1-2.1-0.11-3.15,0.06c-1.8,0.29-3.59,0.57-5.42,0.59c-0.48,0.01-0.96,0.21-1.44,0.11c-1.83-0.35-3.6,0.43-5.43,0.3
			c-0.11-0.01-0.23,0.04-0.33,0.08c-0.58,0.24-1.19,0.38-1.81,0.45c-1.05,0.11-2.01,0.62-3.08,0.67c-0.26,0.01-0.61,0.05-0.73,0.36
			c-0.15,0.39-0.51,0.44-0.82,0.55c-0.92,0.32-1.91,0.28-2.86,0.4c-0.57,0.07-1.12,0.18-1.67,0.31c-0.38,0.09-0.5,0.32-0.5,0.67
			c-0.01,0.6,0.5,1.3,1.14,1.56c0.57,0.23,1.18,0.3,1.77,0.18c1.24-0.26,2.43-0.03,3.64,0.18c0.98,0.17,1.61,0.89,1.67,1.88
			c0.03,0.5-0.06,0.97-0.31,1.4c-0.3,0.49-0.28,0.99,0.01,1.46c0.27,0.43,0.44,0.92,0.78,1.32c0.46,0.54,0.31,0.83-0.4,0.95
			c-1.52,0.27-2.31,1.19-2.3,2.73c-0.1,0.64,0.24,1.29,0.17,1.99c-0.07,0.72,0.08,1.42,0.37,2.07c0.19,0.41,0.42,0.81,0.63,1.21
			c0.3,0.58,0.4,0.64,1.08,0.48c0.62-0.14,1.11,0.04,1.54,0.49c0.99,1.06,1.54,0.69,2.14,0.05c0.56-0.6,1.23-1.1,1.58-1.88
			c0.09-0.2,0.25-0.4,0.44-0.51c0.63-0.39,1.05-0.93,1.4-1.57c0.48-0.87,1.16-1.39,2.24-1.45c0.61-0.03,1.24-0.12,1.85-0.23
			c1.33-0.24,2.56-0.75,3.63-1.61c0.42-0.34,0.87-0.71,1.43-0.72c1.07-0.02,2.07-0.36,3.11-0.5c0.77-0.1,1.49-0.36,2.19-0.69
			C157.51,29.47,158.11,29.19,158.75,29.06z"/>
		<path class="st44" d="M229.06,130.07c-0.1-0.6-0.36-1.14-0.62-1.68c-0.19-0.4-0.47-0.42-0.71-0.07c-0.41,0.61-0.85,1.22-1.16,1.89
			c-0.62,1.34-1.46,2.36-3,2.64c-0.37,0.07-0.83,0.14-1.01,0.55c-0.29,0.64-0.77,1.24-0.65,1.99c0.07,0.42,0.03,0.87,0.14,1.27
			c0.31,1.06-0.15,1.92-0.69,2.71c-0.4,0.58-0.63,1.13-0.53,1.74c-0.04,0.86,0.16,1.61,0.34,2.35c0.21,0.89,1.25,1.69,2.01,1.53
			c0.52-0.1,1.02-0.32,1.52-0.52c0.15-0.06,0.31-0.19,0.37-0.34c0.26-0.57,0.6-1.1,0.76-1.71c0.34-1.36,0.9-2.64,1.38-3.94
			c0.4-1.09,0.94-2.14,1.1-3.31c0.09-0.67,0.3-1.27,0.65-1.82c0.44-0.7,0.54-1.41,0.32-2.2
			C229.17,130.8,229.13,130.43,229.06,130.07z"/>
		<path class="st44" d="M171.07,44.94c0.36,0.39,0.79,0.64,1.25,0.87c0.4,0.21,0.65,0.59,0.64,1.03c-0.02,0.45-0.45,0.42-0.78,0.48
			c-0.41,0.07-0.66,0.3-0.71,0.73c-0.02,0.2-0.09,0.39-0.11,0.58c-0.08,0.66-0.34,1.26-0.51,1.89c-0.16,0.58,0.17,0.87,0.75,0.7
			c0.08-0.02,0.17-0.05,0.23-0.1c0.86-0.61,1.87-0.62,2.86-0.67c0.56-0.03,1.05-0.22,1.55-0.43c0.18-0.08,0.37-0.2,0.37-0.43
			c0.01-0.33,0.24-0.49,0.44-0.7c0.58-0.6,0.53-1-0.23-1.24c-0.52-0.16-0.75-0.47-0.84-0.93c-0.09-0.44-0.25-0.8-0.65-1.05
			c-0.11-0.07-0.22-0.19-0.28-0.31c-0.41-0.86-0.93-1.66-0.85-2.72c0.07-0.91-0.75-1.61-1.8-1.62c-0.56-0.13-1.04,0.15-1.45,0.74
			c-0.36,0.52-0.66,0.96-0.53,1.68C170.52,44.02,170.67,44.5,171.07,44.94z"/>
		<path class="st44" d="M163.64,32.29c-0.42,0.05-0.84,0.04-1.27,0.11c-1.09,0.18-2.19,0.44-3.27,0.03
			c-0.85-0.32-1.48,0.02-2.09,0.55c-0.28,0.24-0.3,0.48,0,0.7c0.35,0.27,0.56,0.62,0.7,1.04c0.14,0.42,0.42,0.7,0.93,0.75
			c0.73,0.07,1.48,0.06,2.17,0.36c0.05,0.02,0.11,0.01,0.22,0.02c0.09-0.03,0.24-0.04,0.35-0.11c1.02-0.59,2.15-0.87,3.26-1.19
			c0.35-0.1,0.59-0.32,0.81-0.59c0.21-0.25,0.24-0.51,0-0.76C164.96,32.66,164.46,32.19,163.64,32.29z"/>
		<path class="st44" d="M88.93,86.3c0.45,0.49,1.02,0.81,1.58,1.14c0.24,0.14,0.35,0.33,0.41,0.6c0.14,0.59,0.27,0.72,0.8,0.56
			c0.53-0.16,0.93-0.04,1.36,0.23c0.43,0.27,0.88,0.19,1.29-0.07c0.49-0.31,0.5-0.59,0.03-0.9c-0.28-0.19-0.61-0.32-0.89-0.51
			c-0.57-0.38-1.29-0.53-1.75-1.04c-0.78-0.86-1.78-1.29-2.83-1.67c-0.64-0.24-1.26-0.54-2.02-0.46c-0.57-0.11-1.12,0.21-1.7,0.3
			c-0.57,0.1-1,0.41-1.38,0.79c-0.21,0.2-0.56,0.46-0.39,0.79c0.21,0.39,0.56,0.03,0.83-0.01c0.53-0.08,0.98-0.49,1.53-0.47
			c0.97,0.04,1.89,0.34,2.83,0.53C88.75,86.15,88.85,86.22,88.93,86.3z"/>
		<path class="st44" d="M170.56,45.14c-0.53-0.38-1.82-0.29-2.32,0.12c-0.35,0.28-0.63,0.63-1.13,0.72
			c-0.58,0.1-0.66,0.19-0.57,0.81c0.07,0.52-0.01,0.97-0.31,1.37c-0.26,0.34-0.19,0.61,0.02,0.93c0.2,0.3,0.41,0.55,0.8,0.5
			c0.29,0.01,0.53-0.1,0.73-0.25c0.5-0.35,1.04-0.59,1.66-0.62c0.26-0.01,0.42-0.15,0.52-0.38c0.14-0.31,0.32-0.61,0.31-0.97
			c-0.01-0.37,0.11-0.62,0.41-0.87C171.16,46.12,171.08,45.51,170.56,45.14z"/>
		<path class="st44" d="M95.48,89.86c-0.37,0.04-0.73,0.1-1.09,0.18c-0.17,0.04-0.32,0.14-0.31,0.35c0.01,0.16,0.14,0.26,0.28,0.28
			c1.09,0.14,2.18,0.57,3.28,0.36c0.8-0.16,1.6-0.3,2.4-0.46c0.26-0.05,0.52-0.1,0.58-0.41c0.06-0.34-0.19-0.49-0.43-0.66
			c-0.65-0.47-1.5-0.49-2.14-1c-0.12-0.1-0.39-0.04-0.58-0.04c-0.25,0-0.51,0.03-0.6,0.03c-0.27-0.02-0.39-0.05-0.5-0.03
			c-0.32,0.06-0.72-0.28-0.95,0.09c-0.22,0.35,0.22,0.52,0.35,0.78C95.91,89.65,95.84,89.82,95.48,89.86z"/>
	</g>
	<g>
		<defs>
			<circle id="SVGID_00000060711028720961389550000000252434718498098606_" cx="150" cy="98.72" r="95.44"/>
		</defs>
		<clipPath id="SVGID_00000005961354909796072560000014430428385489602973_">
			<use xlink:href="#SVGID_00000060711028720961389550000000252434718498098606_"  style="overflow:visible;"/>
		</clipPath>
		<g style="clip-path:url(#SVGID_00000005961354909796072560000014430428385489602973_);">
			<path class="st46" d="M107.71,195.13c-0.84,0-1.63-0.39-2.14-1.06c-0.51-0.67-0.67-1.53-0.45-2.34
				c2.95-10.62,8.72-19.78,16.68-26.49c8.18-6.9,17.93-10.54,28.2-10.54c10.27,0,20.02,3.64,28.2,10.54
				c7.96,6.71,13.73,15.87,16.68,26.49c0.22,0.81,0.06,1.67-0.45,2.34c-0.51,0.67-1.3,1.06-2.14,1.06H107.71z"/>
			<path class="st44" d="M192.29,192.45h-84.57c5.65-20.33,22.44-35.06,42.29-35.06C169.84,157.38,186.64,172.12,192.29,192.45z"/>
			<path class="st46" d="M174.01,193.72c-2.3-19.94-12.38-34.41-23.96-34.41c-11.58,0-21.65,14.47-23.96,34.41l-2.67-0.31
				c2.46-21.31,13.66-36.78,26.62-36.78s24.16,15.47,26.62,36.78L174.01,193.72z"/>
			<rect x="132.12" y="168.21" class="st46" width="35.87" height="3.76"/>
			<rect x="147.91" y="158.61" class="st46" width="4.29" height="35.01"/>
		</g>
	</g>
	<g>
		<g>
			<path class="st46" d="M153.81,157.67c-0.51,0-1.02-0.15-1.46-0.43c-0.76-0.49-1.22-1.34-1.22-2.24
				c-0.04-10.18,1.65-19.72,5.02-28.34c1.41-3.6,2.87-6.46,4.29-9.23c2.02-3.94,3.93-7.67,5.73-13.49
				c1.78-5.75,2.88-11.75,3.27-17.83c0.08-1.19,0.93-2.19,2.09-2.45c0.2-0.04,0.39-0.07,0.59-0.07c0.96,0,1.87,0.52,2.35,1.39
				c4,7.22,6.39,14.94,7.13,22.94c0.53,5.78,1.93,21.05-8.21,34.89c-4.6,6.27-10.99,11.33-18.5,14.63
				C154.54,157.59,154.17,157.67,153.81,157.67z"/>
			<path class="st46" d="M143.23,157.13c-0.34,0-0.67-0.06-1-0.19c-6.25-2.51-11.45-6.23-15.44-11.06
				c-7.92-9.57-10.54-22.82-7.58-38.3c1.56-8.15,5.5-15.66,13.34-30.63c0.86-1.65,1.67-3.15,2.42-4.54
				c3.56-6.6,5.71-10.59,6.45-16.76c0.67-5.59-0.01-11.39-2.01-17.24c-0.38-1.1,0-2.32,0.93-3.02c0.48-0.36,1.04-0.53,1.61-0.53
				c0.54,0,1.09,0.17,1.56,0.5c3.85,2.74,13.06,10.48,15.4,23.18c1.89,10.27-1.42,19.33-2.93,22.75c-0.29,0.66-0.49,1.06-0.9,1.87
				c-0.4,0.8-1.02,2.03-2.17,4.4c-0.03,0.07-3.48,7.18-6.08,12.94c-4.54,10.07-8.84,19.57-8.6,30.22c0.17,7.49,2.61,15,7.25,22.3
				c0.63,0.98,0.54,2.26-0.2,3.16C144.78,156.79,144.01,157.13,143.23,157.13z"/>
			<path class="st46" d="M150.25,158.28c-0.67,0-1.34-0.25-1.85-0.74c-2.34-2.22-4.32-4.73-5.89-7.46
				c-6.26-10.9-6.12-25.96,0.41-42.4c0.35-0.88,2.33-5.17,6.67-14.56l1.07-2.32c3.34-7.2,4.23-9.14,5.15-12.28
				c1.41-4.84,2.09-10.01,2.03-15.36c-0.01-1.16,0.72-2.2,1.82-2.57c0.29-0.1,0.58-0.14,0.87-0.14c0.83,0,1.63,0.38,2.14,1.07
				c4.27,5.65,6.97,12.15,7.83,18.79c0.99,7.66-0.66,13.8-1.74,17.87c-0.94,3.53-1.81,5.41-3.7,9.55c-0.61,1.34-1.34,2.93-2.23,4.92
				l-0.12,0.26c-4.71,10.55-7.07,15.84-8.35,20.68c-1.8,6.79-2.29,14.1-1.45,21.72c0.12,1.12-0.47,2.2-1.48,2.7
				C151.07,158.19,150.66,158.28,150.25,158.28z"/>
		</g>
		<path class="st44" d="M172.12,86.28c-0.29,4.42-1.06,10.94-3.38,18.45c-3.17,10.27-6.79,14.47-10.09,22.9
			c-2.39,6.11-4.89,15.13-4.84,27.35c4.4-1.93,11.67-5.93,17.41-13.76c9.56-13.04,8.2-27.64,7.7-33.05
			C178.05,98.62,174.8,91.13,172.12,86.28z"/>
		<path class="st44" d="M141.96,37.54c1.49,4.37,3.04,10.86,2.13,18.43c-0.97,8.05-4.14,12.66-9.16,22.23
			c-7.73,14.75-11.6,22.12-13.08,29.87c-0.78,4.1-4.31,22.42,7.01,36.1c4.76,5.76,10.54,8.74,14.38,10.28
			c-6.53-10.26-7.57-18.92-7.67-23.68c-0.25-11.14,4.15-21.01,8.84-31.38c2.65-5.86,6.11-13.01,6.11-13.01
			c2.29-4.72,2.49-4.97,3.03-6.19c0.84-1.89,4.62-10.96,2.74-21.17C153.97,46.52,144.47,39.32,141.96,37.54z"/>
		<path class="st44" d="M160.54,63.13c0.09,6.96-1.04,12.39-2.13,16.15c-1.07,3.67-2.14,5.85-6.36,14.97
			c-4.2,9.08-6.3,13.61-6.62,14.43c-1.81,4.55-9.54,24.47-0.58,40.07c1.87,3.25,4.01,5.52,5.41,6.85c-1.1-9.97,0.17-17.61,1.52-22.7
			c1.35-5.09,3.77-10.51,8.61-21.35c3.6-8.06,4.61-9.67,5.79-14.07c1.14-4.25,2.58-9.84,1.68-16.83
			C166.81,72.6,163.17,66.62,160.54,63.13z"/>
	</g>
	
		<linearGradient id="SVGID_00000012471473534465924930000016090393776551578008_" gradientUnits="userSpaceOnUse" x1="54.556" y1="98.7243" x2="245.444" y2="98.7243">
		<stop  offset="0" style="stop-color:#F2E19B"/>
		<stop  offset="0.5" style="stop-color:#F9F1B5"/>
		<stop  offset="1" style="stop-color:#F2E19B"/>
	</linearGradient>
	<path style="fill:url(#SVGID_00000012471473534465924930000016090393776551578008_);" d="M149.98,5.96c2.56,0,4.86,0.09,7.07,0.27
		c14.1,1.07,27.43,5.21,39.6,12.31c11.7,6.82,21.96,16.33,29.65,27.49c10.51,15.13,16.19,32.9,16.42,51.39l0,0.11l0.01,0.11
		c0.03,0.32,0.03,0.72,0.03,1.11c0,17.55-4.91,34.58-14.2,49.32h-0.03l-0.79,1.22c-7.9,12.15-18.7,22.43-31.24,29.71
		c-12.87,7.47-27.56,11.76-42.5,12.41h-0.02l-0.04,0c-1.22,0.04-2.59,0.08-3.95,0.08c-1.32,0-2.7-0.04-3.91-0.08l-0.04,0H146
		c-14.93-0.63-29.62-4.91-42.5-12.39c-12.53-7.28-23.34-17.56-31.24-29.72l-0.79-1.22h-0.03c-9.3-14.75-14.2-31.77-14.2-49.32
		c0-0.39,0-0.8,0.03-1.12l0.01-0.1l0-0.11c0.23-18.43,5.9-36.2,16.42-51.39c7.7-11.16,17.95-20.67,29.65-27.5
		c12.18-7.11,25.51-11.25,39.62-12.3C145.16,6.05,147.45,5.96,149.98,5.96 M149.98,3.28c-2.44,0-4.83,0.08-7.23,0.28
		c-29.56,2.2-55.36,17.89-71.26,40.94C61.07,59.56,54.84,77.77,54.6,97.39c-0.04,0.44-0.04,0.92-0.04,1.36
		c0,19.21,5.67,37.07,15.42,52.01c0,0,0,0,0.04,0c16.3,25.08,44.1,42.02,75.93,43.34h0.04c1.32,0.04,2.68,0.08,3.99,0.08
		c1.36,0,2.72-0.04,4.03-0.08h0.04c31.83-1.36,59.63-18.25,75.93-43.34h0.04c9.75-14.94,15.42-32.79,15.42-52.01
		c0-0.44,0-0.92-0.04-1.36c-0.24-19.61-6.43-37.83-16.9-52.88c-15.9-23.05-41.7-38.7-71.26-40.94
		C154.85,3.36,152.42,3.28,149.98,3.28L149.98,3.28z"/>
</g>
</svg>
